<?xml version="1.0" encoding="UTF-8"?>
<svg id="Layer_2" data-name="Layer 2" xmlns="http://www.w3.org/2000/svg" viewBox="0 0 341.24 87.48">
  <defs>
    <style>
      .cls-1 {
        fill: #231f20;
        font-family: AbrilFatface-Regular, 'Abril Fatface';
        font-size: 51.05px;
      }

      .cls-2 {
        letter-spacing: -.04em;
      }
    </style>
  </defs>
  <g id="Layer_1-2" data-name="Layer 1">
    <text class="cls-1" transform="translate(69.1 45.74)"><tspan class="cls-2" x="0" y="0">S</tspan><tspan x="28.59" y="0">yncHealth</tspan></text>
    <g id="DuJBE1">
      <g>
        <path d="M42.59,21.73l-1.37,2.45-33.94.09c-3.59.34-5.86,4.18-4.25,7.44l21.47,37.8.21.1c7.19-2.78,14.32,3.83,12.2,11.27-1.71,5.96-8.86,8.48-14.01,5.06-4.69-3.12-5.53-9.72-1.77-13.92.23-.26,1.24-1.01,1.21-1.25L1.11,33.52c-2.4-3.97-.77-9.29,3.47-11.16.38-.17,1.77-.63,2.12-.63h35.89ZM23.75,73.18c-.14-.11-.63.45-.75.57-5.49,5.85,2.88,14.99,9.3,9.65,5.73-4.77.6-13.74-6.37-11.6l1.16,2.29c2.26-.58,5.32,2.12,5.15,4.41-.24,3.26-4.12,5.13-6.7,2.94-1.86-1.57-2.37-4.25-.65-6.12l-1.13-2.15Z"/>
        <path d="M13.94,25.29l.78,1.35c.74.12,1.42.29,1.92.89,3.69,5.63,6.51,12.12,10.17,17.74,2.21,3.39,4.09,3.92,7.9,4.39.99.12,1.59.56,2.19,1.26,4.01-.24,8.32.28,12.3,0,8.25-.59,13.84-9.11,11.57-16.98-1.83-6.34-7.85-10.18-14.39-9.68l1.38-2.47c7.88-.33,14.94,5.93,15.95,13.68,1.25,9.59-5.92,17.6-15.43,18.08-3.76.19-7.69-.15-11.47,0-1.03,1.74-3.34,1.33-5.04,1-3.84-.75-7.08-3.07-9.19-6.32-3.7-5.71-6.68-12.29-10.25-18.11-.55-.67.25-1.9.15-2.32-.16-.63-1.27-1.72-1.36-2.5h2.81Z"/>
        <path d="M39.62,2.18c3.98.29,8.28-1.05,11.23,2.38,2.29,2.65,2.24,5.52.71,8.52-2.53,4.97-5.79,9.75-8.38,14.71.18.94.43,1.89-.07,2.79-2.72,4.35-4.92,9.04-7.62,13.4-.38.61-.67,1.17-1.36,1.51-2.28,1.12-4.52-1.22-3.47-3.47l8.09-14.19c.6-.8,1.31-1.03,2.24-1.23,2.45-4.86,5.59-9.47,8.09-14.28.87-1.68,1.43-2.71.72-4.63-1.58-4.27-6.61-2.66-10.12-2.94-.91,1.54-2.16,2.31-4.01,2.02-1.18-.19-2.45-1.5-2.6-2.68-.56-4.23,4.87-5.69,6.56-1.9Z"/>
        <path d="M11.35,20.81l-2.96-.14L3.82,12.66c-1.39-2.61-1.03-5.73.86-7.99,3.03-3.61,7.52-2.17,11.65-2.48,1.11-2.51,4.65-3.05,6.14-.6,2.14,3.54-2.47,7.01-5.25,4.33-.29-.28-.69-1.14-.99-1.19-2.09.13-4.37-.17-6.44,0-3.02.24-5,3.21-4.01,6.09l5.57,9.99Z"/>
      </g>
    </g>
  </g>
</svg>