<?xml version="1.0" encoding="UTF-8"?>
<svg xmlns="http://www.w3.org/2000/svg" xmlns:xlink="http://www.w3.org/1999/xlink" viewBox="0 0 947.71 1119.16">
  <defs>
    <style>
      .cls-1 {
        fill: #d1cfcf;
      }

      .cls-2 {
        fill: #e59e85;
      }

      .cls-3 {
        fill: #c2c6c7;
      }

      .cls-4 {
        fill: #fff;
      }

      .cls-5 {
        fill: #242b31;
      }

      .cls-6 {
        fill: #be8a4e;
      }

      .cls-7 {
        fill: #663c39;
      }

      .cls-8 {
        isolation: isolate;
      }

      .cls-9 {
        fill: #e6a65e;
      }

      .cls-10 {
        fill: #2373af;
        mix-blend-mode: darken;
      }

      .cls-11 {
        fill: #d6dcdc;
      }

      .cls-12 {
        fill: #1a1e21;
      }

      .cls-13 {
        fill: #e45450;
      }

      .cls-14 {
        fill: url(#linear-gradient);
      }

      .cls-15 {
        clip-path: url(#clippath);
      }

      .cls-16 {
        fill: #3782c3;
      }

      .cls-17 {
        fill: #efae97;
      }
    </style>
    <linearGradient id="linear-gradient" x1="0" y1="1109.19" x2="947.71" y2="1109.19" gradientUnits="userSpaceOnUse">
      <stop offset="0" stop-color="#f3e9dd"/>
      <stop offset=".1" stop-color="#ede2d5"/>
      <stop offset=".47" stop-color="#ddd0c1"/>
      <stop offset=".72" stop-color="#d8caba"/>
    </linearGradient>
    <clipPath id="clippath">
      <path class="cls-9" d="M474.57,464.35c35.74-1,192.19-1.65,210.62.2,0,0,7.37,199.39.47,199.39,0,0-218.36,2.9-218.36-5.94v-186.16c0-4.05,3.22-7.37,7.27-7.48Z"/>
    </clipPath>
  </defs>
  <g class="cls-8">
    <g id="Layer_2" data-name="Layer 2">
      <g id="Layer_1-2" data-name="Layer 1">
        <g>
          <ellipse class="cls-14" cx="473.85" cy="1109.19" rx="473.85" ry="9.97"/>
          <g>
            <path class="cls-4" d="M523.04,694.84c-5.85-.83-33.57-1.36-33.57-1.36,0,0-13.12,203.93-5.05,203.93s29.75.19,30.19,1.97c.45,1.79-1.34,135.63-3.12,136.97-1.79,1.34-40.6,1.34-40.6,2.68v66.03s-53.48.19-114.52.32c-80.51.18-174.16.25-175.59-.32-2.51-1,5.02-121.5,3.35-125.69-1.67-4.18-24.27-1.67-24.27-1.67,0,0-.83-175.74,0-179.08.84-3.35,20.92-3.35,20.92-3.35,0,0-.84-111.3,1.68-112.14,2.51-.84,37.65,0,37.65,0,0,0-7.53-81.18,0-82.84,4.89-1.08,130.27-4.29,218.17-4.12h.11c47.53.1,84.07,1.18,84.66,4.12,1.68,8.37,5.86,95.4,0,94.56Z"/>
            <path class="cls-11" d="M523.04,694.84c-5.85-.83-33.57-1.36-33.57-1.36,0,0-13.12,203.93-5.05,203.93s29.75.19,30.19,1.97c.45,1.79-1.34,135.63-3.12,136.97-1.79,1.34-40.6,1.34-40.6,2.68v66.03s-53.48.19-114.52.32c.03-3.29.7-71.01,2.61-74.2,1.96-3.26,42.98,0,42.98,0v-133.2s-25.35,1.31-34.66,0c-9.32-1.31,0-205.74,0-205.74,0,0,65.34,2.25,70.97,0,5.63-2.25,0-96.06,0-96.06h.11c47.53.1,84.07,1.18,84.66,4.12,1.68,8.37,5.86,95.4,0,94.56Z"/>
            <path class="cls-11" d="M449.55,639.04s-188.18-.79-175.25,2.86,176.91,3.12,176.91,3.12l-1.66-5.98Z"/>
            <path class="cls-11" d="M180.78,795.27s144.44.01,144.44,0-144.4-13.11-144.44-9.52c-.04,3.59,0,9.52,0,9.52Z"/>
            <path class="cls-11" d="M372.18,736.82s-118.05-.38-109.94.13c8.11.51,108.47,7.1,109.49,4.06s.45-4.18.45-4.18Z"/>
            <path class="cls-11" d="M184.12,979.37s222.27-.93,222.7,0c.43.93,2.59,10,0,9.57-2.59-.43-222.56,2.62-222.51.01.04-2.61-.18-9.59-.18-9.59Z"/>
            <path class="cls-11" d="M366.57,1029.79s-164.48-1.76-158.7,0c5.78,1.76,157.92,9.07,158.7,7.15.78-1.93,0-7.15,0-7.15Z"/>
            <path class="cls-11" d="M373.47,796.93s-121.33-1.66-115.93-1.66,113.39-10.23,114.79-8.34,1.13,10,1.13,10Z"/>
            <path class="cls-3" d="M438.27,692.23l51.2,1.25-1.79,29.54s-87.68-29.9-79.83-29.85c7.85.06,30.42-.94,30.42-.94Z"/>
            <path class="cls-3" d="M401.96,897.97s110.06-1.98,112.64,1.41l-.03,19.85-112.62-16.68v-4.58Z"/>
            <path class="cls-3" d="M470.88,1039.03l-68.92-7.85s68.92,21.82,68.92,20.39v-12.54Z"/>
            <path class="cls-11" d="M181.22,1064.63s129.54,3.33,125.93,4.11c-3.61.77-126.19,2.34-126.19,2.34l.26-6.45Z"/>
            <path class="cls-11" d="M180.76,701.59s164.29-.41,162.01,1.64c-2.28,2.05-161.79,4.4-161.79,4.4l-.22-6.04Z"/>
            <path class="cls-11" d="M220.1,683.13s222.56,8.92,218.17,9.1-52.26,3.06-70.97,0c-4.54-.74-142.92-6.15-147.2-9.1Z"/>
            <path class="cls-11" d="M217.79,652.06s201.18,2.67,199.54,4.31-199.31-.6-199.37-1.49c-.05-.89-.17-2.82-.17-2.82Z"/>
            <path class="cls-11" d="M393.72,671.83s-149.14-2.17-143.56-1.86c5.58.31,106.66,4.34,143.56,1.86Z"/>
            <path class="cls-11" d="M216.8,617.88s180.63-3.41,181.56-1.55c.93,1.86-181.54,4.35-181.56,3.83s0-2.29,0-2.29Z"/>
            <path class="cls-11" d="M250.01,630.38s168.07-2.44,171.68-1.67c3.61.77-154.26,3.6-171.68,1.67Z"/>
            <path class="cls-11" d="M317.57,716.27s-111.92,1.51-105.18,2.48c6.74.96,100.57-1.29,105.18-2.48Z"/>
            <path class="cls-11" d="M180.65,746.03s149.99,2.77,150.54,4.16-150.55-2.37-150.55-2.66c0-.29,0-1.49,0-1.49Z"/>
            <path class="cls-11" d="M192.59,727.88s89.25-.68,93.79,0c4.54.68-84.26,2.04-93.79,0Z"/>
            <path class="cls-11" d="M337.61,763.91s-133.68,1.91-131.35,2.49c2.33.58,158.18,3.91,158.21,2.74.03-1.17,0-6.62,0-6.62l-26.86,1.39Z"/>
            <path class="cls-11" d="M159.48,828.9s176.82,1.35,169.74,0c-7.09-1.35-169.77-9.43-169.74-7.19.03,2.25,0,7.19,0,7.19Z"/>
            <path class="cls-11" d="M364.49,850.83s-190.47,8.09-185.63,9.58c4.84,1.49,184.18-.74,185.63-2.6,1.45-1.86,0-6.98,0-6.98Z"/>
            <path class="cls-11" d="M191.64,842.05s118.63.3,114.15,0c-4.47-.3-59.31,4.77-114.15,0Z"/>
            <path class="cls-11" d="M365.13,806.88s-169.32,1.79-164.85,2.09c4.47.3,166.31,2.68,166.31,1.79s-1.46-3.87-1.46-3.87Z"/>
            <path class="cls-11" d="M159.52,878.09s173.85-1.91,177.05,0c3.19,1.91-177.08,4.79-177.08,4.79l.03-4.79Z"/>
            <path class="cls-11" d="M344.86,904.28s-185.22-.96-168.29-2.24,159.03-2.55,168.29,2.24Z"/>
            <path class="cls-11" d="M401.96,921.07s-219.68.4-206.78,2.42c12.9,2.02,207.78,3.85,207.97,2.74.18-1.11-1.19-5.15-1.19-5.15Z"/>
            <path class="cls-11" d="M159.67,933.67s171.4,4.69,169.75,6.39c-1.64,1.71-169.72,1.53-169.73,0,0-1.53-.02-6.39-.02-6.39Z"/>
            <path class="cls-11" d="M385.68,956.85s-163.27,3.38-155.66,3.38,171.03.13,171.95-.98c.92-1.11,0-3.71,0-3.71l-16.29,1.31Z"/>
            <path class="cls-11" d="M207.72,1008.49s169.08-3.2,167.28-1.4c-1.8,1.8-152.37-4.69-167.28,1.4Z"/>
            <path class="cls-11" d="M182.01,1046.23s162.02,5.57,162.86,5.4c.84-.17-163.07-.55-163.02-1.68s.16-3.72.16-3.72Z"/>
            <path class="cls-11" d="M359.42,1085.24s-164.4.39-156.28,2.32c8.12,1.93,156.28,6.96,156.28,2.32v-4.64Z"/>
            <path class="cls-11" d="M305.61,1100.72s-125.3,1.42-125.32,0-.02-4.54-.02-4.54c0,0,125.35,1.13,125.35,4.54Z"/>
            <path class="cls-11" d="M343.94,1074.45s-100.97,3.19-95.59,3.78c5.38.6,103.75-1.79,104.55-2.79.8-1-8.96-1-8.96-1Z"/>
            <path class="cls-11" d="M182.48,1035.59s113.39,4.99,111.52,5.81-111.74-.92-111.71-1.49.19-4.32.19-4.32Z"/>
            <path class="cls-11" d="M194.67,1014.85s171.25,2.66,168.8,3.07c-2.45.41-169,.61-168.8-3.07Z"/>
            <path class="cls-11" d="M159.8,967.16s167.02,0,164.4,1.63c-2.61,1.63-164.68,1.93-164.53,1.54.14-.39.13-3.17.13-3.17Z"/>
            <path class="cls-11" d="M185.88,953.37s173.81-2.5,161.31-3.33c-12.5-.83-163.39-.83-161.31,3.33Z"/>
            <path class="cls-11" d="M238.16,891.68s132.76-2.19,132.96-1.59c.2.6,2.01,3.21,0,3.21s-149.52.17-132.96-1.62Z"/>
            <path class="cls-11" d="M175.48,913s120.16-1.05,115.89,0c-4.27,1.05-111.69,2.27-115.89,0Z"/>
            <path class="cls-11" d="M369.02,721.69s-71.48,1.73-69.57,2.78,69.23,1.73,69.57,1.04,0-3.82,0-3.82Z"/>
            <path class="cls-11" d="M217.2,609.68s147.28-3.23,145.23-3.89-145.23.99-145.23.99v2.9Z"/>
            <path class="cls-3" d="M482.76,790.2s-104.06-2.07-100.4,0,100.4,0,100.4,0Z"/>
            <path class="cls-3" d="M365.13,754.3s118.47.56,106.94,2.53c-11.53,1.97-107.59,1.41-107.59,1.41l.64-3.94Z"/>
            <path class="cls-3" d="M481.94,854.04s-109.22-.1-104.3,1.83,59.42,1.7,62.07,5.03c2.65,3.33,42.09,8.25,42.09,8.25l.14-15.11Z"/>
            <path class="cls-3" d="M448.41,822.97s-85.17,5.07-85.16,3.79c.01-1.28.06-5.43.06-5.43,0,0,84.59-.3,85.09,1.65Z"/>
            <path class="cls-3" d="M483.54,804.23s-108.21.76-99.81,2.65c8.4,1.9,99.7,0,99.7,0l.11-2.65Z"/>
            <path class="cls-3" d="M363.78,877.24s104.28-1.03,103.26,0c-1.02,1.03-103.03,4.1-103.03,4.1l-.23-4.1Z"/>
            <path class="cls-3" d="M373.49,717.92s89.19,2.82,87.79,3.76c-1.39.94-90.38-1.15-87.79-3.76Z"/>
            <path class="cls-3" d="M440.76,663.71s76.41,1.68,76.2,2.73c-.21,1.05-76.2,0-76.2,0v-2.73Z"/>
            <path class="cls-3" d="M455.13,650.3s68.54.6,67.49,1.77c-1.05,1.17-73.15-.3-67.49-1.77Z"/>
            <path class="cls-3" d="M525.8,680.4s-71.52-.38-66.25.75c5.27,1.13,66.11,1.98,66.11,1.98l.14-2.73Z"/>
            <path class="cls-3" d="M454.02,672.29s53.03.65,52.38,1.29-55.61-.28-52.38-1.29Z"/>
            <path class="cls-3" d="M524.9,624.84s-82.28-1.66-78.98,0c3.29,1.66,78.82,4.14,78.98,3.72.16-.42,0-3.72,0-3.72Z"/>
            <path class="cls-3" d="M438.85,606.7s80.66,2.47,80.47,4c-.19,1.53-80.21,1.15-80.27,0-.06-1.15-.2-4-.2-4Z"/>
            <path class="cls-3" d="M401.96,979.16s106.8,6.58,105.33,7.69-104.7,5.19-105.33,2.04c-.63-3.15,0-9.73,0-9.73Z"/>
            <path class="cls-3" d="M494.37,947.35s-91.59-6.65-92-6.15c-.41.49-1.73,2.53-.41,3.06,1.32.54,88.24,3.52,92.41,3.09Z"/>
            <path class="cls-3" d="M505.73,926.56s-93.61,1.38-93.44,2.53c.16,1.15,102.16,1.64,102.17.66.01-.98.14-3.18.14-3.18h-8.87Z"/>
            <path class="cls-3" d="M512.85,1012.64s-104.78-.86-96.03,0c8.74.86,95.88,4.86,95.91,3.85s.12-3.85.12-3.85Z"/>
            <path class="cls-3" d="M402.37,999.6s111.09,0,105.74,1.25c-5.35,1.25-106.71,2.85-106.43,2.32.28-.53.69-3.57.69-3.57Z"/>
            <path class="cls-3" d="M470.88,1081.49s-114.25,3.76-114.25,3.76c0,0-1.24,5.79,0,5.58s114.25-.96,114.25-2.31v-7.03Z"/>
            <path class="cls-3" d="M357.41,1037.26s96.08,3.54,93.86,4.14c-2.22.6-94.39,1.06-93.86,0s0-4.14,0-4.14Z"/>
          </g>
          <g>
            <path class="cls-4" d="M268.6,144.54c4.68,4.46-15.29,43.05-17.54,47.34-7.81,14.89-17.8,28.81-30.22,40.2-13.49,12.36-28.28,17-43.97,24.85,25.98,16.12,62.36,17.54,87.09,36.67,9.67,7.48,62.86-85.15,61.48-114.82,0,0-26.25-9.4-36.61-17.12-10.36-7.72-20.22-17.12-20.23-17.12Z"/>
            <path class="cls-4" d="M270.02,41.82c-15.61,2.22-31.15,6.97-47.35,8.17-36.96,2.73-74.34-1.49-110.48-9.26,2.47.53-4.1,31.16-5.03,34.29-3.69,12.42-9.76,22.54-18.11,32.26,14.19,10.9,48.54,10.63,65.85,11.83,35.18,2.44,72.5,0,104.76-15.43.32-.15-1.71-22.22-1.55-24.92.86-13.94,6.48-24.67,11.9-36.95Z"/>
            <g>
              <path class="cls-4" d="M72.29,183.1s34.12,85.53-19.69,115.61c0,0,70.87-18.19,83.99-39.01,13.12-20.82,7.22-86.85,7.22-86.85,0,0-28.87,19.44-71.53,10.25Z"/>
              <path class="cls-1" d="M52.61,298.7s-32.15,5.14-43.97-31.61c0,0,67.61.67,73.53-15.45,0,0-3.63,33.54-29.57,47.06Z"/>
            </g>
            <path class="cls-4" d="M214.02,339.23s6.03,22.83,30.32,34.79c0,0-50.91,41.02-57.45,77.16,0,0-46.95-6.19-24.87-40.6,0,0,36.17-62.99,52-71.36Z"/>
            <g>
              <path class="cls-5" d="M89.92,309.99c-8.25,3.14-16.57,6.3-25.26,8-9.29,1.82-18.59,1.22-27.94.39-4.87-.43-9.77-.9-14.32-2.81-.84-.35-1.21,1.02-.38,1.37,3.95,1.65,8.18,2.24,12.41,2.65,4.73.45,9.47.89,14.21,1.03,9.22.28,18.11-1.23,26.89-3.98,4.99-1.57,9.88-3.42,14.76-5.28.84-.32.48-1.69-.38-1.37Z"/>
              <path class="cls-5" d="M69.07,330.69c-9.5,4.09-20.12,5.16-30.25,3.09-.89-.18-1.27,1.18-.38,1.37,10.54,2.15,21.47,1.01,31.34-3.24.84-.36.11-1.58-.72-1.22Z"/>
              <path class="cls-5" d="M226.45,96.03c-6.76,7.2-13.36,14.62-20.58,21.36-6.77,6.32-14.32,11.73-22.58,15.95-4.61,2.36-9.4,4.33-14.33,5.93-.86.28-.49,1.65.38,1.37,8.7-2.82,17.01-6.82,24.61-11.92,7.98-5.35,14.89-11.96,21.49-18.9,4.03-4.24,8.01-8.52,12.02-12.78.62-.66-.38-1.67-1-1Z"/>
              <path class="cls-5" d="M296.68,305.91c-18.32,4.72-38.91,7.89-56.18-1.96-.79-.45-1.51.77-.72,1.22,17.62,10.05,38.58,6.93,57.28,2.11.88-.23.51-1.59-.38-1.37Z"/>
              <path class="cls-5" d="M256.46,324.05c-3.4.88-7.04.16-9.88-1.9-.74-.54-1.45.69-.72,1.22,3.13,2.27,7.23,3.01,10.97,2.04.88-.23.51-1.6-.38-1.37Z"/>
              <path class="cls-5" d="M158.38,383.77c-13.17,12-22.27,28.28-25.74,45.75-.98,4.95-1.51,9.99-1.58,15.04-.01.91,1.41.91,1.42,0,.23-17.52,6.26-34.76,16.8-48.73,3.01-3.99,6.41-7.68,10.11-11.05.68-.62-.33-1.62-1-1Z"/>
              <path class="cls-5" d="M161.45,364.08c-7.94,4.43-14.5,10.83-21.02,17.08-6.59,6.31-13.2,12.97-17.12,21.33-2.03,4.33-3.28,8.98-3.35,13.79-.01.91,1.4.91,1.42,0,.14-8.89,4.49-16.99,10.06-23.7,5.55-6.68,12.12-12.74,18.63-18.47,3.76-3.31,7.72-6.36,12.1-8.81.8-.45.08-1.67-.72-1.22Z"/>
            </g>
          </g>
          <g>
            <path class="cls-12" d="M431.79,1061.72l-1.64,13.98c-.13,1.12-.26,2.29.1,3.36.54,1.62,2.06,2.69,3.53,3.56,9.14,5.48,19.61,8.23,29.51,12.17,3.09,1.23,6.24,2.66,8.4,5.19,2.16,2.53,3.02,6.47,1.14,9.21-28.02-2.49-55.4-5.81-83.22-9.97-1.05-1.08-1.32-2.63-1.37-4.14-.18-5.18.75-10.4,2.69-15.2,1.09-2.69,2.4-5.61,2.79-8.49.56-4.06,1.12-8.13,1.67-12.19,12.23.87,24.17,1.64,36.4,2.51Z"/>
            <path class="cls-12" d="M560.54,1065.66c-.12,4.69-.24,9.38-.36,14.07-.03,1.13-.05,2.3.4,3.34.69,1.56,2.3,2.49,3.84,3.23,9.6,4.62,20.28,6.4,30.5,9.42,3.19.94,6.46,2.08,8.84,4.4s3.59,6.16,1.97,9.07c-28.13.08-55.7-.73-83.78-2.33-1.15-.98-1.55-2.5-1.74-3.99-.65-5.14-.21-10.42,1.3-15.38.84-2.78,1.87-5.8,2-8.71.18-4.1.37-8.19.55-12.29,12.26-.25,24.22-.57,36.48-.82Z"/>
            <path class="cls-5" d="M485.05,838.46c-5.27,43.27-12.5,86.36-18.63,129.5-3.19,22.42-6.47,44.85-10.39,67.16-1.9,10.81-2.41,26.78-8.44,36.37-.23.37-4.59,1.54-.97,1.03,8.59-1.22-59.11,2.61-58.41-5.26,2.9-32.49,5-66.62,9.69-98.9,3.63-24.99,7.16-50,10.42-75.04,2.18-16.76,5.35-34.17,6.37-51.47,0,0-75.11-148.22-73.47-178.59s4.1-41.04,4.1-41.04h100.96s43.83,174.73,38.78,216.24Z"/>
            <path class="cls-5" d="M540.92,835.07c1.21,5.46,1.63,11.21.93,17.41-5.07,45.19-11.31,90.38-17.7,135.46-2.76,19.51-5.6,39.01-8.12,58.55-.79,6.15-5.25,20.45-2.42,26.47,3.01,6.39,38.81,7.29,51.63,5.94,12.15-1.28,15.32-45.65,17.14-54.88,10.64-53.83,23.36-109.62,24.87-164.61,1.38-50.29-12.64-94.22-35.42-138.59-17.46-34.01-37.26-67.22-59.16-98.58,0,0-111.56,0-111.56,0,27.62,38.47,54.86,77.24,81.6,116.33,12.47,18.23,24.84,36.52,36.77,55.1,8.74,13.62,18.09,26.39,21.42,41.41Z"/>
            <path class="cls-16" d="M381.32,409.82s55.02-3.59,83.06,72.04c22.18,59.83,58.84,138.8,54.73,149.72-5.67,15.06-130.24,64.86-168.66,49.91-19.73-7.67-28.38-74.65-39.15-165.61-10.77-90.96,52.4-102.43,52.4-102.43l17.62-3.63"/>
            <g>
              <path class="cls-17" d="M398.63,381.66c.05,1.04,0,1.79-.66,2.45-1.41,1.41-4.36,2.16-5.69,2.67-1.96.75-5.74,2.02-5.19,4.78.03.15.07.3.12.44,1.17,3.3,9.47,19.8,9.47,19.8l-30.51,17.73s-29.16-70.68-28.04-72.12c1.12-1.44,31.3-25.37,40.25-20.09,0,0,6.06,16.96,7.96,18.63,1.9,1.67,12.59,6.18,11.27,8.49-1.32,2.31-4.8,2.72-4.34,3.43,0,0,.18,1.63.77,2.76,0,0,4.53,9.79,4.59,11.04Z"/>
              <path class="cls-5" d="M363.25,367.45c.87-.25,1.36-1.14,1.75-1.96,2.53-5.39-3.05-10.29-.67-15.75,1.23-2.82,7.98-6.89,11.7-8.98,3.29-1.85,2.77-2,3.64.35.12.33.33.69.67.75.35.06.66-.21.9-.47,3.84-4.18,5.91-8.48,4.31-13.92-1.16-3.96-4.14-7.29-7.84-9.1-5.09-2.49-12.34-2.43-16.95,1.15-3.05,2.36-4.59,5.9-6.6,9.08-2.65,4.2-5.14,5.86-10.05,6.47-5.26.66-10.52,2.64-14.23,6.43-3.15,3.23-4.89,7.85-4.3,12.36.74,5.72,5.72,9.43,7.72,14.63,1.68,4.4,1.73,9.22,4.03,13.43,2.61,4.76,9.09,13.67,15.54,11.83,2.48-.71,3.65-2.75,4.6-4.95,1.22-2.81,3.25-10.52,2.03-13.33-3.6,1.04-7.92-.74-9.73-4.02-.37-.67-.65-1.41-.71-2.17-.06-.92.21-1.84.64-2.66.96-1.85,2.75-3.27,4.8-3.67,2.04-.4,4.29.26,5.71,1.79.97,1.04,1.74,2.12,3.03,2.72Z"/>
              <path class="cls-2" d="M389.62,387.94s-14.88,3.61-13.69,8.41c1.18,4.8,16.14,6.13,16.14,6.13,0,0-4.92-10.09-4.92-11.3,0-1.21,2.47-3.24,2.47-3.24Z"/>
            </g>
            <path class="cls-4" d="M404.73,414.2c.81.55.48,1.89.59,2.86,1.54,12.75,3.05,25.53,3.08,38.38,0,3.65-.11,7.35-1.07,10.87-.3,1.09-.8,2.3-1.87,2.67-.99.34-2.05-.17-2.96-.7-4.37-2.59-8.22-5.96-11.97-9.39-14.06-12.86-27.16-26.73-40.08-40.73,6.47-3.38,13.38-5.9,20.5-7.5,0,0,24.8-2.59,33.78,3.55Z"/>
            <path class="cls-13" d="M386.38,415.61c.87-3.73-.95-7.2-.95-7.2,0,0-8.48-2.87-13.59,2.21,0,0,5.5,7.22,8.9,8.24h0s7.22,37.91,10.38,40.62c3.18,2.73,12.3,11.38,15.13,9.38,2.82-2.01,2.01-19.13,1.71-20.2-.27-.98-16.56-29.39-21.58-33.05Z"/>
            <g>
              <path class="cls-5" d="M414.19,497.55c4.32-1,2.77-7.72-1.56-6.72-4.32,1-2.77,7.72,1.56,6.72h0Z"/>
              <path class="cls-5" d="M430,539.83c4.32-1,2.77-7.72-1.56-6.72-4.32,1-2.77,7.72,1.56,6.72h0Z"/>
              <path class="cls-5" d="M443.34,582.68c4.32-1,2.77-7.72-1.56-6.72-4.32,1-2.77,7.72,1.56,6.72h0Z"/>
              <path class="cls-5" d="M456.06,622.1c4.32-1,2.77-7.72-1.56-6.72-4.32,1-2.77,7.72,1.56,6.72h0Z"/>
            </g>
            <path class="cls-10" d="M478.13,519.24s-90.83-48.13-92.03-50.08c-1.21-1.95,85.69,32.75,85.69,32.75l6.34,17.34Z"/>
            <path class="cls-10" d="M508.25,592.01s-140.62-49.06-174.11-90.11c0,0,37.9,87.29,181.91,112.09l-7.8-21.98Z"/>
            <g>
              <g>
                <g>
                  <path class="cls-6" d="M685.19,464.55l75.44-8.74c1.52,4.76,1.3,185.06-2.14,200.13-1.53,6.71-101.21,8-101.21,8l27.92-199.39Z"/>
                  <g>
                    <path class="cls-9" d="M474.57,464.35c35.74-1,192.19-1.65,210.62.2,0,0,7.37,199.39.47,199.39,0,0-218.36,2.9-218.36-5.94v-186.16c0-4.05,3.22-7.37,7.27-7.48Z"/>
                    <g class="cls-15">
                      <path class="cls-6" d="M620.45,614.68s9.77,22.73,25.13,22.92,30.77-13.85,30.77-13.85c0,0-16.11,2.61-25.35-1.52-9.24-4.13-25.12-14.98-25.12-14.98l-5.43,7.44Z"/>
                    </g>
                  </g>
                  <path class="cls-7" d="M474.57,464.35s52.36-9.09,70.21-8.52c17.85.58,216.87-2.25,215.85-.03-1.02,2.22-75.44,8.74-75.44,8.74l-210.62-.2Z"/>
                </g>
                <path class="cls-4" d="M500.67,464.45s-4.49-21.24,0-21.24,232.56-1.31,233.58-1.28c1.02.03,0,20.14,0,20.14l-46.17,2.47-187.41-.1Z"/>
                <path class="cls-3" d="M684.97,442.2s.32,22.13,3.11,22.36c2.79.23,46.17-2.47,46.17-2.47v-20.14l-49.28.26Z"/>
              </g>
              <g>
                <g>
                  <path class="cls-6" d="M668.16,259.69l74.01-17.05c2.04,4.56,21.81,183.78,20.05,199.13-.78,6.84-99.7,19.17-99.7,19.17l5.64-201.25Z"/>
                  <path class="cls-9" d="M458.81,282.84c35.41-4.96,190.83-22.95,209.34-23.15,0,0,29.43,197.34,22.57,198.1,0,0-216.69,27.08-217.67,18.3l-20.64-185.01c-.45-4.03,2.38-7.68,6.4-8.24Z"/>
                  <path class="cls-7" d="M458.81,282.84s51.03-14.84,68.83-16.25c17.8-1.41,215.29-26.28,214.52-23.95-.77,2.32-74.01,17.05-74.01,17.05l-209.34,23.15Z"/>
                </g>
                <path class="cls-4" d="M501.73,278.1s-7.75-33.21-3.75-33.66c3.99-.45,206.27-25.11,207.18-25.15s3.56,31.92,3.56,31.92l-40.56,8.49-166.42,18.4Z"/>
                <path class="cls-3" d="M661.44,224.57s4.19,35.03,6.71,35.12,40.56-8.49,40.56-8.49l-3.56-31.92-43.71,5.29Z"/>
              </g>
              <g>
                <g>
                  <path class="cls-6" d="M557.9,46.99l69.11-31.49c2.91,4.06,58.08,175.72,59.43,191.11.6,6.86-93.86,38.7-93.86,38.7l-34.67-198.32Z"/>
                  <path class="cls-9" d="M357.4,111.48c33.7-11.93,182.4-60.6,200.5-64.5,0,0,68.25,187.48,61.69,189.6,0,0-206.91,69.82-209.63,61.41l-57.18-177.16c-1.24-3.86.8-8,4.62-9.35Z"/>
                  <path class="cls-7" d="M357.4,111.48s47.04-24.74,64.2-29.67S627.3,13.06,627.01,15.49s-69.11,31.49-69.11,31.49l-200.5,64.5Z"/>
                </g>
                <path class="cls-4" d="M398.51,98.26s-14.22-30.99-10.4-32.23C391.93,64.8,585.21.23,586.09,0s9.86,30.56,9.86,30.56l-38.05,16.42-159.39,51.27Z"/>
                <path class="cls-3" d="M544.31,13.91s11.1,33.48,13.59,33.07c2.49-.41,38.05-16.42,38.05-16.42L586.09,0l-41.78,13.91Z"/>
              </g>
              <path class="cls-6" d="M637.61,464.57s-161.52,26.94-163.04,19.23c-1.52-7.71-2.76-18.84-2.76-18.84,0,0-3.91,2.67-4.21,4.77s-.3,24.43-.3,24.43c0,0,1.79,5.76,8.57,6.09,6.78.33,127.24-16.38,161.74-35.68Z"/>
              <path class="cls-6" d="M452.4,289.59s32.85-9.67,32.85-9.67c-.44.13-1.32,2.12-1.57,2.49-1.42,2.16-2.94,4.26-4.53,6.3-4.97,6.35-11.26,12.93-18.8,16.15-1.06.45-4.73,2.24-5.83,1.67-.98-.5-.81-4.27-.92-5.36-.4-3.86-.79-7.72-1.19-11.58Z"/>
            </g>
            <path class="cls-16" d="M361.53,451.63s58.52,41.57,126.58,72.22c68.82,30.98,147.18,51.06,147.41,54.57.46,6.99-10.69,42.13-16.65,42.88-3.05.39-85.23-17.64-156.59-47.67-67.98-28.61-125.29-69.23-128.14-71.72-5.84-5.11,27.39-50.27,27.39-50.27Z"/>
            <path class="cls-17" d="M632.75,592.42s23.76-1.01,29.66,3.2c5.9,4.22,22.26,20.84,13.94,28.12-8.32,7.29-24.84,8.48-28.27,7.57-3.43-.92-25.39-13.6-24.73-14.78.66-1.18,9.4-24.11,9.4-24.11Z"/>
          </g>
          <g>
            <path class="cls-5" d="M766.83,687.83c3.52-5.2,5.73-11.12,7.51-17.1,1.93-6.5,3.56-13.09,5.16-19.67,3.25-13.45,6.02-27.02,8.29-40.67,1.28-7.69,2.4-15.41,3.38-23.15.2-1.59-2.3-1.58-2.5,0-3.4,27-8.65,53.85-15.95,80.08-1.87,6.74-4.1,13.42-8.04,19.26-.9,1.34,1.26,2.59,2.16,1.26h0Z"/>
            <path class="cls-5" d="M789.42,677.38c4.08-15.75,7.63-31.63,10.64-47.62.3-1.57-2.11-2.25-2.41-.66-3.01,15.99-6.56,31.87-10.64,47.62-.4,1.56,2.01,2.22,2.41.66h0Z"/>
          </g>
          <path class="cls-4" d="M371.84,334.14s-7.7,25.19,0,25.49c7.7.3,0-25.49,0-25.49Z"/>
        </g>
      </g>
    </g>
  </g>
</svg>