<?xml version="1.0" encoding="UTF-8"?>
<svg xmlns="http://www.w3.org/2000/svg" xmlns:xlink="http://www.w3.org/1999/xlink" viewBox="0 0 231.9 352.59">
  <defs>
    <style>
      .cls-1 {
        fill: url(#_Áåçûìÿííûé_ãðàäèåíò_89-23);
      }

      .cls-2 {
        fill: url(#_Áåçûìÿííûé_ãðàäèåíò_89-10);
      }

      .cls-3 {
        fill: url(#_Áåçûìÿííûé_ãðàäèåíò_89-6);
      }

      .cls-4 {
        fill: url(#_Áåçûìÿííûé_ãðàäèåíò_89-11);
      }

      .cls-4, .cls-5, .cls-6, .cls-7, .cls-8, .cls-9 {
        fill-rule: evenodd;
      }

      .cls-10 {
        fill: url(#_Áåçûìÿííûé_ãðàäèåíò_89-4);
      }

      .cls-11 {
        fill: url(#_Áåçûìÿííûé_ãðàäèåíò_89-22);
      }

      .cls-5 {
        fill: url(#_Áåçûìÿííûé_ãðàäèåíò_298);
      }

      .cls-12 {
        fill: url(#_Áåçûìÿííûé_ãðàäèåíò_1368-2);
      }

      .cls-13 {
        fill: url(#_Áåçûìÿííûé_ãðàäèåíò_1088-2);
      }

      .cls-6 {
        fill: url(#_Áåçûìÿííûé_ãðàäèåíò_89-16);
      }

      .cls-14 {
        fill: url(#_Áåçûìÿííûé_ãðàäèåíò_89-12);
      }

      .cls-15 {
        fill: url(#_Áåçûìÿííûé_ãðàäèåíò_1088-8);
      }

      .cls-15, .cls-16, .cls-17, .cls-18, .cls-19, .cls-9 {
        mix-blend-mode: multiply;
      }

      .cls-15, .cls-16, .cls-17, .cls-19, .cls-9 {
        opacity: .6;
      }

      .cls-16 {
        fill: url(#_Áåçûìÿííûé_ãðàäèåíò_1088-6);
      }

      .cls-20 {
        fill: url(#_Áåçûìÿííûé_ãðàäèåíò_89-18);
      }

      .cls-17 {
        fill: url(#_Áåçûìÿííûé_ãðàäèåíò_1088-7);
      }

      .cls-21 {
        fill: url(#_Áåçûìÿííûé_ãðàäèåíò_1088-4);
      }

      .cls-22 {
        fill: url(#_Áåçûìÿííûé_ãðàäèåíò_89-13);
      }

      .cls-23 {
        fill: url(#_Áåçûìÿííûé_ãðàäèåíò_600-2);
      }

      .cls-24 {
        fill: url(#_Áåçûìÿííûé_ãðàäèåíò_89-5);
      }

      .cls-25 {
        fill: url(#_Áåçûìÿííûé_ãðàäèåíò_1088-5);
      }

      .cls-26 {
        fill: url(#_Áåçûìÿííûé_ãðàäèåíò_89-20);
      }

      .cls-27 {
        fill: url(#_Áåçûìÿííûé_ãðàäèåíò_1368-9);
      }

      .cls-28 {
        fill: url(#_Áåçûìÿííûé_ãðàäèåíò_89);
      }

      .cls-29 {
        isolation: isolate;
      }

      .cls-7 {
        fill: url(#_Áåçûìÿííûé_ãðàäèåíò_89-8);
      }

      .cls-8 {
        fill: url(#_Áåçûìÿííûé_ãðàäèåíò_89-3);
      }

      .cls-30 {
        fill: url(#_Áåçûìÿííûé_ãðàäèåíò_298-2);
      }

      .cls-31 {
        fill: url(#_Áåçûìÿííûé_ãðàäèåíò_232-2);
      }

      .cls-18 {
        opacity: .9;
      }

      .cls-32 {
        fill: url(#_Áåçûìÿííûé_ãðàäèåíò_1368-8);
      }

      .cls-33 {
        fill: url(#_Áåçûìÿííûé_ãðàäèåíò_1088-3);
      }

      .cls-34 {
        fill: url(#_Áåçûìÿííûé_ãðàäèåíò_1368-4);
      }

      .cls-35 {
        fill: url(#_Áåçûìÿííûé_ãðàäèåíò_89-24);
      }

      .cls-36 {
        fill: url(#_Áåçûìÿííûé_ãðàäèåíò_1368-7);
      }

      .cls-37 {
        fill: url(#_Áåçûìÿííûé_ãðàäèåíò_89-2);
      }

      .cls-38 {
        fill: url(#_Áåçûìÿííûé_ãðàäèåíò_89-19);
      }

      .cls-39 {
        fill: url(#_Áåçûìÿííûé_ãðàäèåíò_232);
      }

      .cls-40 {
        fill: url(#_Áåçûìÿííûé_ãðàäèåíò_600);
      }

      .cls-41 {
        fill: url(#_Áåçûìÿííûé_ãðàäèåíò_1368-3);
      }

      .cls-42 {
        fill: url(#_Áåçûìÿííûé_ãðàäèåíò_89-9);
      }

      .cls-43 {
        fill: url(#_Áåçûìÿííûé_ãðàäèåíò_89-21);
      }

      .cls-44 {
        fill: url(#_Áåçûìÿííûé_ãðàäèåíò_89-14);
      }

      .cls-45 {
        fill: url(#_Áåçûìÿííûé_ãðàäèåíò_89-17);
      }

      .cls-46 {
        fill: url(#_Áåçûìÿííûé_ãðàäèåíò_89-15);
      }

      .cls-47 {
        fill: url(#_Áåçûìÿííûé_ãðàäèåíò_298-3);
      }

      .cls-48 {
        fill: url(#_Áåçûìÿííûé_ãðàäèåíò_55);
      }

      .cls-49 {
        fill: url(#_Áåçûìÿííûé_ãðàäèåíò_1368-6);
      }

      .cls-9 {
        fill: url(#_Áåçûìÿííûé_ãðàäèåíò_1088);
      }

      .cls-50 {
        fill: url(#_Áåçûìÿííûé_ãðàäèåíò_89-7);
      }

      .cls-51 {
        fill: url(#_Áåçûìÿííûé_ãðàäèåíò_1368);
      }

      .cls-52 {
        fill: url(#_Áåçûìÿííûé_ãðàäèåíò_1368-5);
      }
    </style>
    <linearGradient id="_Áåçûìÿííûé_ãðàäèåíò_298" data-name="Áåçûìÿííûé ãðàäèåíò 298" x1="102.32" y1="327" x2="102.32" y2="296.86" gradientUnits="userSpaceOnUse">
      <stop offset="0" stop-color="#b8c3e6"/>
      <stop offset="1" stop-color="#d2c2e3"/>
    </linearGradient>
    <linearGradient id="_Áåçûìÿííûé_ãðàäèåíò_1088" data-name="Áåçûìÿííûé ãðàäèåíò 1088" x1="102.32" y1="327" x2="102.32" y2="296.86" gradientUnits="userSpaceOnUse">
      <stop offset="0" stop-color="#fff"/>
      <stop offset="1" stop-color="#683f78"/>
    </linearGradient>
    <linearGradient id="_Áåçûìÿííûé_ãðàäèåíò_232" data-name="Áåçûìÿííûé ãðàäèåíò 232" x1="76.42" y1="297.76" x2="128.71" y2="297.76" gradientUnits="userSpaceOnUse">
      <stop offset="0" stop-color="#e1dff7"/>
      <stop offset="1" stop-color="#e3e6f5"/>
    </linearGradient>
    <linearGradient id="_Áåçûìÿííûé_ãðàäèåíò_55" data-name="Áåçûìÿííûé ãðàäèåíò 55" x1="100.43" y1="291.51" x2="100.55" y2="303.65" gradientUnits="userSpaceOnUse">
      <stop offset="0" stop-color="#4f4661"/>
      <stop offset=".96" stop-color="#2e2247"/>
    </linearGradient>
    <linearGradient id="_Áåçûìÿííûé_ãðàäèåíò_298-2" data-name="Áåçûìÿííûé ãðàäèåíò 298" x1="99.65" y1="347.5" x2="103.17" y2="292.01" xlink:href="#_Áåçûìÿííûé_ãðàäèåíò_298"/>
    <linearGradient id="_Áåçûìÿííûé_ãðàäèåíò_298-3" data-name="Áåçûìÿííûé ãðàäèåíò 298" x1="99.65" y1="347.5" x2="103.17" y2="292.01" xlink:href="#_Áåçûìÿííûé_ãðàäèåíò_298"/>
    <radialGradient id="_Áåçûìÿííûé_ãðàäèåíò_600" data-name="Áåçûìÿííûé ãðàäèåíò 600" cx="135.37" cy="283.54" fx="135.37" fy="283.54" r="85.5" gradientUnits="userSpaceOnUse">
      <stop offset="0" stop-color="#fff"/>
      <stop offset=".29" stop-color="#fbfbfe"/>
      <stop offset=".55" stop-color="#f0f2fc"/>
      <stop offset=".8" stop-color="#dee1f8"/>
      <stop offset=".98" stop-color="#ccd1f5"/>
    </radialGradient>
    <linearGradient id="_Áåçûìÿííûé_ãðàäèåíò_1088-2" data-name="Áåçûìÿííûé ãðàäèåíò 1088" x1="93.87" y1="292.43" x2="66.69" y2="383.93" xlink:href="#_Áåçûìÿííûé_ãðàäèåíò_1088"/>
    <linearGradient id="_Áåçûìÿííûé_ãðàäèåíò_1088-3" data-name="Áåçûìÿííûé ãðàäèåíò 1088" x1="120.27" y1="290.07" x2="85.74" y2="406.32" xlink:href="#_Áåçûìÿííûé_ãðàäèåíò_1088"/>
    <linearGradient id="_Áåçûìÿííûé_ãðàäèåíò_1088-4" data-name="Áåçûìÿííûé ãðàäèåíò 1088" x1="131.93" y1="293.53" x2="97.39" y2="409.83" xlink:href="#_Áåçûìÿííûé_ãðàäèåíò_1088"/>
    <linearGradient id="_Áåçûìÿííûé_ãðàäèåíò_1088-5" data-name="Áåçûìÿííûé ãðàäèåíò 1088" x1="142.83" y1="296.76" x2="108.28" y2="413.07" xlink:href="#_Áåçûìÿííûé_ãðàäèåíò_1088"/>
    <linearGradient id="_Áåçûìÿííûé_ãðàäèåíò_1088-6" data-name="Áåçûìÿííûé ãðàäèåíò 1088" x1="73.79" y1="342.97" x2="74.15" y2="340.79" xlink:href="#_Áåçûìÿííûé_ãðàäèåíò_1088"/>
    <linearGradient id="_Áåçûìÿííûé_ãðàäèåíò_1088-7" data-name="Áåçûìÿííûé ãðàäèåíò 1088" x1="92.71" y1="407.08" x2="111.58" y2="290.18" xlink:href="#_Áåçûìÿííûé_ãðàäèåíò_1088"/>
    <radialGradient id="_Áåçûìÿííûé_ãðàäèåíò_600-2" data-name="Áåçûìÿííûé ãðàäèåíò 600" cx="103.71" cy="302.85" fx="103.71" fy="302.85" r="34.99" xlink:href="#_Áåçûìÿííûé_ãðàäèåíò_600"/>
    <linearGradient id="_Áåçûìÿííûé_ãðàäèåíò_1088-8" data-name="Áåçûìÿííûé ãðàäèåíò 1088" x1="97.81" y1="370.24" x2="103.58" y2="334.51" xlink:href="#_Áåçûìÿííûé_ãðàäèåíò_1088"/>
    <linearGradient id="_Áåçûìÿííûé_ãðàäèåíò_232-2" data-name="Áåçûìÿííûé ãðàäèåíò 232" x1="70.8" y1="299.96" x2="133.83" y2="299.96" xlink:href="#_Áåçûìÿííûé_ãðàäèåíò_232"/>
    <linearGradient id="_Áåçûìÿííûé_ãðàäèåíò_89" data-name="Áåçûìÿííûé ãðàäèåíò 89" x1="34.63" y1="133.58" x2="34.63" y2="133.51" gradientUnits="userSpaceOnUse">
      <stop offset="0" stop-color="#563f01"/>
      <stop offset="1" stop-color="#849100"/>
    </linearGradient>
    <linearGradient id="_Áåçûìÿííûé_ãðàäèåíò_89-2" data-name="Áåçûìÿííûé ãðàäèåíò 89" x1="88.64" y1="186.29" x2="88.61" y2="185.86" xlink:href="#_Áåçûìÿííûé_ãðàäèåíò_89"/>
    <linearGradient id="_Áåçûìÿííûé_ãðàäèåíò_89-3" data-name="Áåçûìÿííûé ãðàäèåíò 89" x1="137.72" y1="165.94" x2="121.16" y2="212.27" xlink:href="#_Áåçûìÿííûé_ãðàäèåíò_89"/>
    <linearGradient id="_Áåçûìÿííûé_ãðàäèåíò_89-4" data-name="Áåçûìÿííûé ãðàäèåíò 89" x1="-29.93" y1="-133.18" x2="-49.61" y2="-78.14" gradientTransform="translate(120.01 296.83) rotate(18.49)" xlink:href="#_Áåçûìÿííûé_ãðàäèåíò_89"/>
    <linearGradient id="_Áåçûìÿííûé_ãðàäèåíò_89-5" data-name="Áåçûìÿííûé ãðàäèåíò 89" x1="-2.29" y1="-116.3" x2="-9.56" y2="-95.97" gradientTransform="translate(120.01 296.83) rotate(18.49)" xlink:href="#_Áåçûìÿííûé_ãðàäèåíò_89"/>
    <linearGradient id="_Áåçûìÿííûé_ãðàäèåíò_89-6" data-name="Áåçûìÿííûé ãðàäèåíò 89" x1="133.54" y1="177.32" x2="189.66" y2="114.66" xlink:href="#_Áåçûìÿííûé_ãðàäèåíò_89"/>
    <linearGradient id="_Áåçûìÿííûé_ãðàäèåíò_89-7" data-name="Áåçûìÿííûé ãðàäèåíò 89" x1="135.01" y1="178.63" x2="191.12" y2="115.98" xlink:href="#_Áåçûìÿííûé_ãðàäèåíò_89"/>
    <linearGradient id="_Áåçûìÿííûé_ãðàäèåíò_89-8" data-name="Áåçûìÿííûé ãðàäèåíò 89" x1="97.76" y1="210.67" x2="93.96" y2="-67.37" xlink:href="#_Áåçûìÿííûé_ãðàäèåíò_89"/>
    <linearGradient id="_Áåçûìÿííûé_ãðàäèåíò_89-9" data-name="Áåçûìÿííûé ãðàäèåíò 89" x1="20.96" y1="211.71" x2="17.16" y2="-66.31" xlink:href="#_Áåçûìÿííûé_ãðàäèåíò_89"/>
    <linearGradient id="_Áåçûìÿííûé_ãðàäèåíò_89-10" data-name="Áåçûìÿííûé ãðàäèåíò 89" x1="107.23" y1="210.54" x2="103.43" y2="-67.5" xlink:href="#_Áåçûìÿííûé_ãðàäèåíò_89"/>
    <linearGradient id="_Áåçûìÿííûé_ãðàäèåíò_89-11" data-name="Áåçûìÿííûé ãðàäèåíò 89" x1="82.97" y1="188.63" x2="82.97" y2="115.57" xlink:href="#_Áåçûìÿííûé_ãðàäèåíò_89"/>
    <linearGradient id="_Áåçûìÿííûé_ãðàäèåíò_89-12" data-name="Áåçûìÿííûé ãðàäèåíò 89" x1="95.65" y1="169.92" x2="94.25" y2="67.73" xlink:href="#_Áåçûìÿííûé_ãðàäèåíò_89"/>
    <linearGradient id="_Áåçûìÿííûé_ãðàäèåíò_89-13" data-name="Áåçûìÿííûé ãðàäèåíò 89" x1="101.75" y1="294.65" x2="95.25" y2="164.01" xlink:href="#_Áåçûìÿííûé_ãðàäèåíò_89"/>
    <linearGradient id="_Áåçûìÿííûé_ãðàäèåíò_89-14" data-name="Áåçûìÿííûé ãðàäèåíò 89" x1="114.53" y1="271.46" x2="106.14" y2="102.65" xlink:href="#_Áåçûìÿííûé_ãðàäèåíò_89"/>
    <linearGradient id="_Áåçûìÿííûé_ãðàäèåíò_89-15" data-name="Áåçûìÿííûé ãðàäèåíò 89" x1="52.74" y1="207.67" x2="48.3" y2="118.48" xlink:href="#_Áåçûìÿííûé_ãðàäèåíò_89"/>
    <linearGradient id="_Áåçûìÿííûé_ãðàäèåíò_89-16" data-name="Áåçûìÿííûé ãðàäèåíò 89" x1="95.28" y1="297.8" x2="95.28" y2="218.06" xlink:href="#_Áåçûìÿííûé_ãðàäèåíò_89"/>
    <linearGradient id="_Áåçûìÿííûé_ãðàäèåíò_89-17" data-name="Áåçûìÿííûé ãðàäèåíò 89" x1="82.42" y1="297.91" x2="82.42" y2="297.81" xlink:href="#_Áåçûìÿííûé_ãðàäèåíò_89"/>
    <linearGradient id="_Áåçûìÿííûé_ãðàäèåíò_89-18" data-name="Áåçûìÿííûé ãðàäèåíò 89" x1="84.82" y1="224.36" x2="88.62" y2="99.4" xlink:href="#_Áåçûìÿííûé_ãðàäèåíò_89"/>
    <linearGradient id="_Áåçûìÿííûé_ãðàäèåíò_89-19" data-name="Áåçûìÿííûé ãðàäèåíò 89" x1="77.77" y1="211.29" x2="78.3" y2="202.93" xlink:href="#_Áåçûìÿííûé_ãðàäèåíò_89"/>
    <linearGradient id="_Áåçûìÿííûé_ãðàäèåíò_89-20" data-name="Áåçûìÿííûé ãðàäèåíò 89" x1="47.97" y1="252.89" x2="51.87" y2="191.39" xlink:href="#_Áåçûìÿííûé_ãðàäèåíò_89"/>
    <linearGradient id="_Áåçûìÿííûé_ãðàäèåíò_89-21" data-name="Áåçûìÿííûé ãðàäèåíò 89" x1="18.39" y1="196.64" x2="18.46" y2="195.55" xlink:href="#_Áåçûìÿííûé_ãðàäèåíò_89"/>
    <linearGradient id="_Áåçûìÿííûé_ãðàäèåíò_89-22" data-name="Áåçûìÿííûé ãðàäèåíò 89" x1="90.15" y1="217.42" x2="90.3" y2="215.09" xlink:href="#_Áåçûìÿííûé_ãðàäèåíò_89"/>
    <linearGradient id="_Áåçûìÿííûé_ãðàäèåíò_89-23" data-name="Áåçûìÿííûé ãðàäèåíò 89" x1="56" y1="215.85" x2="58.42" y2="177.76" xlink:href="#_Áåçûìÿííûé_ãðàäèåíò_89"/>
    <linearGradient id="_Áåçûìÿííûé_ãðàäèåíò_89-24" data-name="Áåçûìÿííûé ãðàäèåíò 89" x1="83.58" y1="289.49" x2="91.79" y2="160.07" xlink:href="#_Áåçûìÿííûé_ãðàäèåíò_89"/>
    <linearGradient id="_Áåçûìÿííûé_ãðàäèåíò_1368" data-name="Áåçûìÿííûé ãðàäèåíò 1368" x1="-8.72" y1="94.01" x2="175.75" y2="267.92" gradientUnits="userSpaceOnUse">
      <stop offset="0" stop-color="#fff"/>
      <stop offset=".48" stop-color="#5a4889"/>
      <stop offset="1" stop-color="#3b2f84"/>
    </linearGradient>
    <linearGradient id="_Áåçûìÿííûé_ãðàäèåíò_1368-2" data-name="Áåçûìÿííûé ãðàäèåíò 1368" x1="31.91" y1="50.88" x2="216.42" y2="224.82" xlink:href="#_Áåçûìÿííûé_ãðàäèåíò_1368"/>
    <linearGradient id="_Áåçûìÿííûé_ãðàäèåíò_1368-3" data-name="Áåçûìÿííûé ãðàäèåíò 1368" x1="29.07" y1="53.89" x2="213.58" y2="227.84" xlink:href="#_Áåçûìÿííûé_ãðàäèåíò_1368"/>
    <linearGradient id="_Áåçûìÿííûé_ãðàäèåíò_1368-4" data-name="Áåçûìÿííûé ãðàäèåíò 1368" x1="7.48" y1="77.51" x2="229.32" y2="286.64" xlink:href="#_Áåçûìÿííûé_ãðàäèåíò_1368"/>
    <linearGradient id="_Áåçûìÿííûé_ãðàäèåíò_1368-5" data-name="Áåçûìÿííûé ãðàäèåíò 1368" x1="-8.19" y1="93.4" x2="176.33" y2="267.35" xlink:href="#_Áåçûìÿííûé_ãðàäèåíò_1368"/>
    <linearGradient id="_Áåçûìÿííûé_ãðàäèåíò_1368-6" data-name="Áåçûìÿííûé ãðàäèåíò 1368" x1="-3.49" y1="88.45" x2="160.94" y2="243.46" xlink:href="#_Áåçûìÿííûé_ãðàäèåíò_1368"/>
    <linearGradient id="_Áåçûìÿííûé_ãðàäèåíò_1368-7" data-name="Áåçûìÿííûé ãðàäèåíò 1368" x1="-67.63" y1="156.46" x2="116.88" y2="330.41" xlink:href="#_Áåçûìÿííûé_ãðàäèåíò_1368"/>
    <linearGradient id="_Áåçûìÿííûé_ãðàäèåíò_1368-8" data-name="Áåçûìÿííûé ãðàäèåíò 1368" x1="-24.78" y1="111.01" x2="159.74" y2="284.95" xlink:href="#_Áåçûìÿííûé_ãðàäèåíò_1368"/>
    <linearGradient id="_Áåçûìÿííûé_ãðàäèåíò_1368-9" data-name="Áåçûìÿííûé ãðàäèåíò 1368" x1="-46.98" y1="134.54" x2="137.55" y2="308.5" xlink:href="#_Áåçûìÿííûé_ãðàäèåíò_1368"/>
  </defs>
  <g class="cls-29">
    <g id="Layer_2" data-name="Layer 2">
      <g id="_0" data-name="0">
        <g>
          <g>
            <g>
              <polygon class="cls-5" points="70.8 298.84 110.67 296.86 133.83 299.28 122.55 327 80.92 319.74 70.8 298.84 70.8 298.84"/>
              <polygon class="cls-9" points="70.8 298.84 110.67 296.86 133.83 299.28 122.55 327 80.92 319.74 70.8 298.84 70.8 298.84"/>
              <polygon class="cls-9" points="70.8 298.84 110.67 296.86 110.41 299.71 133.83 299.28 122.55 327 80.92 319.74 70.8 298.84 70.8 298.84"/>
              <polygon class="cls-39" points="110.44 297.06 128.09 298.95 128.71 298.68 110.66 296.56 76.42 298.52 77.16 298.76 110.44 297.06"/>
              <path class="cls-48" d="M73.12,301.57s18.8-5.44,21.49-5.7c2.69-.26,14.99,2.22,17,2.53,1.35.21,5.81-.58,7.92-.58s8.39,2.75,8.39,2.75c0,0-20.64,9.98-29.36,10.45-8.71.48-25.45-9.45-25.45-9.45Z"/>
            </g>
            <g>
              <path class="cls-30" d="M133.83,299.28l-37.38,2.13-25.65-2.57c-.11,14.26.68,28.25,2.51,41.92l11.61,10.83h35.31l11.61-10.83c1.3-14.44,1.94-28.25,2-41.48Z"/>
              <path class="cls-47" d="M133.83,299.28c-.05,13.23-.7,27.04-1.99,41.48l-11.61,10.83h-35.31l-10.15-9.47-1.46-1.36c-1.83-13.67-2.62-27.65-2.51-41.92l25.29,2.53.36.04,37.38-2.13Z"/>
              <path class="cls-40" d="M133.81,302.44c-.04,3.49-.12,7.02-.24,10.59l-37.04,2.59s-14.79-1.37-25.54-3.11c-.14-3.69-.19-7.41-.19-11.14l25.61,2.84,37.42-1.77Z"/>
              <g class="cls-19">
                <g>
                  <path class="cls-13" d="M108.12,300.75l-11.67.66h-.01s.86,8.6.08,17.13-23.16,21.94-23.16,21.94l-.96-8.97,16.98-30.81-8.29-.84c-.37,12.46-6.06,20.87-10.09,13.25.34,9.34,1.09,18.56,2.31,27.65l3.51,3.27,19.53-22.31,11.78-20.98Z"/>
                  <path class="cls-33" d="M121.71,299.97c.26,17.62-10.68,28.62-24.84,37.73l-11.84,13.89h1.73l10.46-6.3,36.61-43.68c0-.78.01-1.55.01-2.33l-12.12.69Z"/>
                </g>
                <path class="cls-21" d="M133.46,315.79c-.14,3.61-.32,7.28-.56,10.99-14.93,3.88-22.73,17.8-17.23,24.8h-11.82c7.6-10.01,20.96-25.81,29.61-35.79Z"/>
                <path class="cls-25" d="M132.26,335.71c-.13,1.68-.27,3.35-.42,5.05l-5.75,5.36c.89-1.9,1.76-3.71,2.63-5.38.88-1.7,2.08-3.38,3.55-5.03Z"/>
              </g>
              <path class="cls-16" d="M73.31,340.76l1.46,1.36c-.52-.41-1-.86-1.46-1.36Z"/>
              <path class="cls-17" d="M133.83,299.28c-.05,13.23-.7,27.04-1.99,41.48l-11.61,10.83h-35.31l-10.15-9.47c8.03,6.48,22.44,3.17,22.44,3.17,0,0-1.11-34.45-1.12-43.92l.36.04,37.38-2.13Z"/>
              <path class="cls-23" d="M97.21,345.29c-.53-13.9-.73-28.65-.76-43.88l1.09,7.22s-.96,4.07-.33,36.67Z"/>
              <path class="cls-15" d="M97.21,345.29c-1.31-.16-16.29,3.64-23.9-4.53l11.61,10.83h35.31l11.61-10.83c-16.13,6.66-25.27,5.47-34.63,4.53Z"/>
              <polygon class="cls-31" points="128.71 298.68 128.09 298.95 130.04 299.16 96.09 300.6 74.9 298.87 77.16 298.76 76.42 298.52 70.8 298.84 96.45 301.41 133.83 299.28 128.71 298.68"/>
              <g>
                <path class="cls-28" d="M34.63,133.47s0,.04,0,.05c0,.02,0,0,0-.05Z"/>
                <path class="cls-37" d="M88.54,185.61c.09.23.14.34.14.32,0-.02-.05-.13-.14-.32Z"/>
              </g>
            </g>
            <g>
              <path class="cls-8" d="M100.02,297.97c.95-31.15,2.79-61.15,11.45-87.43,6.4-19.44,17.77-36.31,28.85-52.8l.45.53s-19.79,26.46-30.49,60.47-9.52,79.47-9.52,79.47l-.74-.25Z"/>
              <g>
                <path class="cls-10" d="M175.51,144.84c19.5,9.91,17.34,35.13,17.34,35.13,0,0,8.3-29.32-14.17-38.96-16.56-7.11-29.19,4.99-34.83,11.96,4.27-6.66,9.36-18.66,22.55-24.93,13.19-6.27,46.64,6.16,46.64,6.16,0,0-23.9-16.26-40.67-12.59-12.11,2.65-23.49,20.38-28.88,30.03,4.72-11.74,7.18-34.22-3.25-44.64-10.43-10.42-41.23,4.34-41.23,4.34,0,0,27.12-12.58,41.47.53,14.35,13.11.55,44.01.55,44.01,0,0,13.79-34.92-13.19-39.7-24.32-4.31-39.94,26.26-39.94,26.26,0,0,24.75-36.37,43.7-21.48,18.95,14.89,8.99,35.3,8.99,35.3,0,0-5.11-26.21-20.09-26.33-14.98-.12-20.57,15.81-20.57,15.81,0,0,8.8-18.55,26.16-11.18,8.88,3.77,14.69,17.67,14.29,22.04-1.64-5.22-7.94-21.3-22.32-16.19-17.07,6.07-18.72,18.76-18.72,18.76,0,0,5.82-17.13,20.56-16.77,14.75.36,20.32,15.45,20.32,15.45l.04.51s16.09-.14,21.38,9.16c5.29,9.29-5.34,40.33-5.34,40.33,0,0,14.42-21.75,10.11-36.23-4.31-14.48-25.18-13.56-25.18-13.56,0,0,.08-.07.24-.2.41-.03,1-.06,1.73-.08-.64-.02-1.18-.02-1.61-.01,1.79-1.42,10.56-7.37,25.82-1.49,17.21,6.63,13.76,35.69,13.76,35.69,0,0,6.3-21.84-7.64-33.77s-32.18-.86-32.18-.86c0,0,14.65-22.43,34.15-12.52Z"/>
                <path class="cls-24" d="M165.69,162.87c9.83,5.6,4.5,45.87,4.5,45.87,0,0,10.96-18.52,5.03-36.05-4.87-14.42-25.02-15.11-32.01-14.9,3.81.13,12.65-.52,22.47,5.08Z"/>
              </g>
              <g>
                <path class="cls-3" d="M173.38,118.19c25.5-14.18,46.86-14.29,46.86-14.29,0,0-30.16-.99-48.19,9.69-9.65,5.72-18.01,18.1-23.7,28.36,5.1-7.91,13.07-17.12,25.03-23.77Z"/>
                <path class="cls-50" d="M231.9,131.97s-18.71-6.79-45.54-2.53c-24.92,3.96-43.11,25.37-45.58,28.39-.02-.04-.04-.1-.07-.17.76-1.84,3.49-8.21,7.64-15.7-4.79,7.44-7.04,13.71-7.67,15.63-1.1-2.49-9.37-19.44-29.43-15.85-21.64,3.86-27.05,16.77-27.05,16.77,0,0,9.89-16,30.99-14.14,17.7,1.56,23.74,10.54,25.23,13.4-2.89-3.43-13.77-14.66-25.05-8.64-13.25,7.07-16.22,24.33-16.22,24.33,0,0,4.98-17.1,18.87-21.52,12.5-3.97,20.9,4.53,22.46,6.28l-.04.04s11.07,10.54,4.64,29.82c-6.42,19.27-21.04,32.84-21.04,32.84,0,0,21.36-15.98,25.86-33.65,3.6-14.15-6.82-26.49-8.93-28.8,1.46.17,10.57,1.65,18.16,12.18,8.27,11.48,8.51,37.18,8.51,37.18,0,0,2.01-23.29-3.37-36.06-4.79-11.36-20.15-13.22-23.45-13.47,0,0,0,0,0,0v-.33c2.54-1.87,20.02-14.09,31.99-5.74,16.92,11.8,10.02,50.99,10.02,50.99,0,0,11.8-41.64-7.13-52.55-12.96-7.47-24.69-1.17-30.79,3.54,5.29-4.38,15.37-11.66,30.53-18.24,23.63-10.25,56.46-3.99,56.46-3.99Z"/>
              </g>
            </g>
            <g>
              <path class="cls-7" d="M100.02,298.31s-3.28-61.61-3.64-72.43c-.36-10.82-.6-110.62-.6-110.62l.22-2.12s1.92,115.71,2.04,117.61,2.53,67.33,2.53,67.33l-.56.22Z"/>
              <g>
                <path class="cls-42" d="M19.92,118.6c-.33,1.32-.46,2.12-.44,2.18.02.07.14-.74.44-2.18Z"/>
                <path class="cls-2" d="M147.63,77.55c31.09.12,50.14,27.04,50.14,27.04,0,0-22.51-38.71-56.22-27.51-33.71,11.2-44.78,48.83-44.78,48.83,0,0,3.1-49.19,35.85-61.1,32.75-11.91,51.57,15.96,51.57,15.96,0,0-16.32-28.82-50.02-18.22-33.71,10.6-37.64,60.5-37.64,60.5,0,0-.03-1.07-.14-2.93.74-13.12,3.95-46.44,17.77-59.6,17.39-16.56,58.24-12.74,58.24-12.74,0,0-42.76-10.84-60.86,9.41-13.01,14.55-15.25,43.47-15.49,58.61-1.42-15.19-6.91-49.44-27.74-55.16-26.92-7.38-50.5,15.48-50.5,15.48,0,0,34.06-26.2,57.41-8.1,23.34,18.1,20.6,58,20.6,58,0,0-6.91-55.98-39.3-49.19-27.47,5.76-34.9,33.7-36.6,41.76,2.01-8.18,11.34-36.7,37.79-39.98,25.75-3.19,35.27,34.66,37.68,47.02-4.49-9.11-23.26-43.45-47.09-33.92-27.39,10.96-34.06,45.73-34.06,45.73,0,0,12.15-42.16,40.14-43.23,27.99-1.07,41.69,35.25,41.69,35.25,0,0,26.32-44.42,51.57-31.44,11.81,6.07,18.8,14.07,22.89,20.87-6-12.25-16.82-27.76-32.42-25.04-21.16,3.69-36.13,25.04-40.42,31.85,5.4-11.94,23.97-48.27,49.95-48.17Z"/>
              </g>
              <path class="cls-4" d="M95.74,128.24s-14.42-23.78-39.15-6.18c-24.73,17.6-23.14,60.24-23.14,60.24,0,0,6.82-46.13,29.01-60.39,22.19-14.27,33.61,7.58,33.61,7.58,0,0-20.14-13.13-34.72,4.78s3.33,54.37,3.33,54.37c0,0-11.1-39.63,1.74-55.64,12.84-16.01,29.8-2.38,29.8-2.38,0,0,7.18-19.82,24.25-8.72,25.84,16.8-7.61,66.1-7.61,66.1,0,0,37.09-52.63,9.35-67.53-17.3-9.29-26.47,7.77-26.47,7.77Z"/>
              <path class="cls-14" d="M60.95,86.39c-27.58-4.44-48.43,17.91-48.43,17.91,0,0,29.88-31.23,52.39-20.77s31.15,45.94,31.15,45.94c0,0,23.77-63.54,49.61-62.43,25.84,1.11,31.39,43.75,31.39,43.75,0,0-15.03-40.45-38.37-37.41-23.34,3.04-42.15,56.75-41.68,56.43.48-.32,17.44-26.15,32.34-17.12,14.9,9.04.48,56.75.48,56.75,0,0,14.02-48.02-4.6-53.9-18.61-5.87-29.17,18.7-29.17,18.7,0,0-7.53-43.43-35.11-47.87Z"/>
              <g>
                <path class="cls-22" d="M61.44,99.83c-23.14.95-26.62,32.16-26.81,33.64.36-1.52,11.8-34.38,34.17-29.55,17.65,3.81,24.26,19.44,26.33,26.25-2.94-1.06-11.26-2.94-17.45,6.71-7.26,11.32,9.2,45.1,10.86,48.73-1.41-3.68-13.5-38.37-7.5-48.62,5.13-8.77,11.9-7.03,14.32-6.03.42,1.49.59,2.4.59,2.4,0,0,.2-.88.59-2.38,1.17-1.8,6-8.58,9.83-3.93,4.4,5.32,1.62,48.48,1.62,48.48,0,0,9.49-49.63,1.85-52.41-6.08-2.21-11.11,3.85-12.91,6.42,2.94-10.62,12.61-39.67,30.26-39.67,21.59,0,24.37,32.55,24.37,32.55,0,0,4.42-44.65-22.24-37.78-23.86,6.15-31.47,38.76-32.81,45.54-.19.29-.29.46-.29.46,0,0-.09-.05-.27-.13-1.98-5.23-13-31.55-34.51-30.66Z"/>
                <path class="cls-44" d="M172.94,58.02s-35.67-9.51-57.22,5.55c-16.81,11.74-19.26,45.95-19.52,60.44-.01-.54-.03-1.09-.05-1.68.02-17.97,1.07-60.49,10.06-80.32C117.78,16.49,138.7,0,138.7,0c0,0-14.27,6.82-30.91,33.29-10.73,17.07-12.43,52.58-12.29,75.66-1.26-19.44-4.39-46.23-11.65-55.05-11.73-14.27-49.62-9.04-49.62-9.04,0,0,39.79-4.76,50.25,18.7,7.72,17.31,10.43,45.57,11.33,59.2.19,4.91.4,7.85.4,7.85.05-.22.07-2.22,0-5.46.33-8.15,2.22-24.67,11.09-44.32,12.68-28.06,65.63-22.83,65.63-22.83Z"/>
              </g>
              <path class="cls-46" d="M96.22,130.62s-1.9-65.47-44.86-65.63C25.05,65.15,0,98.6,0,98.6c0,0,29.96-39.31,62.45-26.95,32.5,12.36,33.76,58.97,33.76,58.97Z"/>
            </g>
            <g>
              <path class="cls-6" d="M99.9,297.79c-2.42-29.56-5.12-56.91-8.46-79.57l-.78-.16c3.7,23.09,6.51,50.15,8.77,79.74h.47Z"/>
              <g>
                <path class="cls-45" d="M82.4,297.86c.03.08.04.12.04.12,0,0-.02-.04-.04-.12Z"/>
                <path class="cls-20" d="M120.99,201.33c15.68,1.48,37.86,34.23,37.86,34.23,0,0-10.89-26.54-30.34-34.23s-36.48,15.99-36.56,16.25c-.09.26-.26-31.51,13.05-46.42,13.31-14.91,46.76-3.03,46.76-3.03,0,0-33.86-15.68-47.11.35-13.25,16.02-13.31,49.01-13.31,49.01,0,0,.09-43.05-17.72-54.63-17.81-11.58-45.29,14.35-45.29,14.78s20.45-19.93,41.49-13.05c18.27,5.98,20.39,41.29,20.86,50.74-3.38-3.74-29.66-31.54-56.21-21.7-28.44,10.55-23.68,34.23-23.68,34.23,0,0,5.16-25.92,24.72-33.28,28.27-10.63,55.16,22.18,55.16,22.18,0,0-33.38-15.87-57.15-.65s-19.79,45.9-19.71,45.64c.09-.26-.46-41.63,31.18-48.3,25.28-5.33,46.18,4.21,45.84,4.21s-28.96,2.68-39.85,20.05c-10.89,17.37-7.43,44.08-7.43,44.08,0,0-1.56-25.67,10.55-44.43,9.97-15.46,28.86-18.12,35.2-18.57-2.23,2.12-6.62,8.03-11.42,24.02-6.68,22.2,3.81,52.93,4.54,55.03-.4-1.16-3.52-11.07-3.85-35.84-.35-26.45,12.62-42.79,12.62-42.79,0,0,12.88-7.17,30.17-.26,17.29,6.92,6.05,58.95,6.05,58.95,0,0,10.81-38.47-.86-56.53-11.67-18.07-34.49-3.03-34.49-3.03,0,0,13.28-18.51,28.96-17.03Z"/>
              </g>
              <g>
                <path class="cls-38" d="M84.79,212.49c-3.31-2.98-8.01-6.56-13.62-9.22,5.3,2.92,10.09,6.4,13.62,9.22Z"/>
                <path class="cls-26" d="M38.97,203.11c-17.03,18.81-6.52,55.38-6.52,54.34s-9.77-49.16,13.92-56.57c9.08-2.84,17.67-.98,24.8,2.39-10.81-5.96-23.72-9.55-32.21-.17Z"/>
                <path class="cls-43" d="M18.77,195.67c-.45.61-.7.99-.7,1.05,0,.06.24-.33.7-1.05Z"/>
                <path class="cls-11" d="M89.6,215.27c.79,1.51,1.22,2.4,1.22,2.4,0,0-.28-.63-.81-1.73-.13-.21-.26-.43-.4-.67Z"/>
                <path class="cls-1" d="M54.53,181.18c-19.02-.32-32.18,35.98-32.18,35.98,0,0,10.15-24.89,29.17-30.91,15.72-4.98,32.68,20.15,38.09,29.02-4.25-8.08-19.04-33.82-35.07-34.09Z"/>
                <path class="cls-35" d="M114.76,188.32c-16.51,4.33-22.03,23.79-23.29,29.39-.02,0-.05,0-.07,0,.66-6.06,4.02-24.58,20.87-35.62,20.35-13.34,48.28,9.42,48.28,9.42,0,0-24.44-21.11-46.06-16.38-19.45,4.26-22.64,35.16-23.21,42.57-.02,0-.04,0-.06,0-1.36-5.43-12.48-46.74-35.58-45.85-21.41.82-33.9,19.23-36.87,23.84,3.47-4.68,19.4-23.24,36.08-19.88,16.44,3.32,31.55,32.67,35.16,40.15.45.74.79,1.33,1.02,1.73-.13,0-.2,0-.2,0,0,0-2.31-2.21-6.03-5.18,3.47,3.12,5.41,5.57,5.27,5.57-.44,0-29.09-6.01-41.16,7.29-12.06,13.3,1.96,47.07,1.96,47.07,0,0-7.89-33.56,1.29-46.07s37.17-7.55,37.17-7.55c0,0-8.44,25.03-2.52,48.27s12.14,34.8,11.85,34.06c-.3-.74-8-15.7-10.66-43.83-2.67-28.13,2.96-38.94,2.96-38.94,0,0,.1.04.27.1-.03.39-.04.66-.06.77l.08.46s.01-.36.06-.98c.02-.06.04-.13.06-.2,3.41,1.3,27.27,11.25,27.27,34.49,0,25.03-5.92,50.05-5.92,50.05,0,0,17.03-47.83,3.41-66.78-11.54-16.05-21.67-18.26-24.51-18.56,1.52-4.66,7.23-18.85,21.72-23.85,17.44-6.02,42.32,21.4,42.32,21.4,0,0-21.56-32.02-40.9-26.95Z"/>
              </g>
            </g>
          </g>
          <g class="cls-18">
            <path class="cls-51" d="M88.54,185.61c.09.23.14.34.14.32,0-.02-.05-.13-.14-.32Z"/>
            <path class="cls-12" d="M140.33,155.05c-.19-1.45-.72-3.34-1.55-5.4.76,2.29,1.27,4.23,1.55,5.4Z"/>
            <path class="cls-41" d="M170.19,208.75s10.96-18.52,5.03-36.05c-4.87-14.42-25.02-15.11-32.01-14.9,3.81.13,12.65-.52,22.47,5.08,9.83,5.6,4.5,45.87,4.5,45.87Z"/>
            <path class="cls-34" d="M200.88,130.36c7.03,1.94,12.16,3.84,12.16,3.84,0,0-2.67-1.81-6.83-4.09,14.24-.32,25.69,1.86,25.69,1.86,0,0-11.61-4.21-29.66-3.92-29.45-16.04-44.54-2.29-58.75,23.59,1.27-3.15,2.89-6.03,4.85-9.68-1.44,2.23-2.65,4.36-3.65,6.3,6.93-21.86,2.97-53.74-28.02-43.24,7.24-6.02,15.74-10.42,24.4-9.12,9.02,9.41,10.49,26.5,10.49,26.5,0,0,1.22-12.33-1.5-23.04,8.77,4.98,14.64,11.02,18.54,16.6-8.19,6.33-15.25,16.98-20.25,26,12.25-25.42,62.24-39.77,71.89-38.06.35-.23-35.98-.51-51.34,11.84-4.59-8.51-11.36-17.67-20.3-20.93-2.84-8.53-11.4-13.64-21.85-9.39,30.96-24.17,44.5,12.44,50.31,25.39,0,0-2.2-16.87-10.26-29.66,19.56,7.35,30.97,23.45,30.97,23.45,0,0-13.2-22.7-34.52-28.3-23.03-26.95-47.45,11.25-59.93,33.18-2.28.93-3.82,1.64-4.21,1.83,8.74-52.5,62.66-63.36,85.09-30.52-39.42-51.16-87.63,1.06-87.66,42.28,2.65-59.24,37.11-67.99,76.4-65.03-12.68-3.88-65.47-10.81-72.34,31.35,6.1-45.32,53.71-42.61,71.8-41.59-39.07-9.07-74.73-1.54-76.02,59.35-1.11-48.17,14.2-86.1,42.31-107.13-32.07,18.1-45.86,61.88-43.2,108.95-2.57-58.55-14.02-69.31-61.26-64.09,30.85-2.15,54.19,3.34,58.85,52.14-9.25-54.89-58.12-38.32-75.28-20.87,38.95-29.74,78.86-12.63,77.99,48.87C89.64,53.04,35.61,49.6,0,98.6c29.69-41.59,88.99-41.69,95.8,27.27-9.06-55.2-35.78-65.28-82.51-22.34,2.32-2.26,9.76-9.01,20.41-13.5-9.33,10.37-12.71,23.47-13.79,28.58,1.32-5.38,5.8-19.53,16.22-29.54,26.05-10.86,47.87,4.9,55.5,29.63-31.9-59.3-73.05-10.52-77.4,18.77,8.82-37.16,52.71-69.31,79.78-11.59-18.95-41.96-57.07-27.87-59.39,7.59,6.66-25.76,38.28-47.65,58.51-8.63-29.67-30.6-60.72,19.87-59.38,48.01-6.85,5.75-7.45,6.46-.04.58-.19,2.68-.26,4.88-.28,6.42-8.01,5.83-12.94,13.14-14.66,15.82,1.87-2.52,7.38-9.09,14.66-14.07,0,.45.01.69.01.69,0,0,.04-.28.13-.79,7.66-5.35,18.05-8.63,26.77-3.65.69,2.02,1.37,3.82,1.98,5.36-10.35-5.48-20.14.91-27.08,10.17-28.26,9.33-24.92,34.72-24.47,34.49,0,0,4.87-24.44,23.06-32.59-7.2,10.09-11.49,21.89-11.49,21.89,16.08-43.84,51.43-19.48,67.94-.57-2.01-.75-3.15-2.39-5.49-4.1,1.31,1.18,2.4,2.27,3.25,3.16-8.26-3.42-35.9-12.35-55.25.95,3.53-17.89,25.45-20.55,38.39-13.33-17.76-11.15-35.12-5.97-39.88,14.36-21.3,15.64-17.58,44.37-17.49,44.12.07-.21-.28-27.89,16.87-41.63-4.03,18.06,1.78,38.1,1.78,37.33,0-.69-4.27-21.96-.31-38.44,15.26-12.08,53.1-6.02,57.74-1.24-20.23-3.11-53.44-1.93-44.79,34.69-3.46,14.67-1.56,29.35-1.56,29.35,0,0-.69-11.56,2.5-24.82,2.02,8.67,4.83,15.44,4.83,15.44-10.37-30.77,11.22-51.85,38.41-53.62-19.55,20.59-13.13,65.52-6.88,79.05-4.33-9.67-6.79-58.19,5.31-73.2-6.83,19.59-.47,52.66,8.5,71.25-3-.2-4.87.76-10.26,2.07-3.53.2-11.7.68-15.15.86h0s0,0,0,0h0c0,.85,0,1.69,0,2.54h-.01c.01,3.71.07,7.43.19,11.14,0,0,0,0,0,0,0,.2.01.41.02.61,0,0,0-.01,0-.02.34,9.25,1.1,18.47,2.31,27.64,0,0,0,0,0,0,0,0,0,0,0,0,.85.87,2.62,2.41,3.51,3.27h0c1.19,1.11,7.05,6.57,8.1,7.56h.1,0s18.58,1.01,18.58,1.01c0,0,34.16-.71,35.3-1.77,0,0,64.61-5.29,64.61-5.29l-2.22-2.89-68.6-2.8s1.63-40.58,1.63-40.67c0,0-16.06-1.72-19.68-2.14,5.77-17.88,13.89-55.88-6.64-70.2.91-3.6,1.92-7.07,3.08-10.55,3.92.65,9.5,1.57,13.13,4.46-.11.11-.18.17-.18.17,0,0,.07-.06.2-.15,13.03,11.4,3.15,57.16,3.15,57.16.09-.02,11.33-41.21-1.97-58.09,2.13-1.72,6.43-5.38,10.9-10.23,11.8,10.15,22.53,25.97,22.53,25.97,0,0-7.24-17.62-20.44-28.31,1.18-1.37,2.35-2.82,3.47-4.32,7.97,5.94,13.78,12.33,13.78,12.33,0,0-4.97-7.36-12.26-14.47,3.34-4.93,6.08-10.21,6.98-15.94,6.13,3.35,10.18,6.64,10.18,6.64,0,0-3.96-3.42-10.1-7.2.85-6.79-1.29-13.01-3.79-17.69,3.14.84,5.1,1.53,5.1,1.53,0,0-2.1-.97-5.46-2.18-2.15-3.84-4.46-6.54-5.33-7.5,1.46.17,10.57,1.65,18.16,12.18,9.14,8.32-3.54,37.43-2.82,37.23,0,0,6.2-9.35,9.25-19.87,1.98,10.13,2.08,19.81,2.08,19.81,0,0,1.19-13.82-.72-26,4.52-20.5-20.42-24.77-25.67-23.74,0,0,.08-.07.24-.2.41-.03,1-.06,1.73-.08-.64-.02-1.18-.02-1.61-.01,1.79-1.42,10.56-7.37,25.82-1.49,17.21,6.63,13.76,35.69,13.76,35.69,7.22-20.57-9.08-50.48-38.41-35.38,43.32-28.15,43.96,31.06,40.06,46.61,0,0,11.8-41.64-7.13-52.55-12.96-7.47-24.69-1.17-30.79,3.54,30.71-29.95,50.09,6.09,47.94,25.77,2.59-3.91,5.03-40.61-23.68-41.11,9.63-5.11,20.96-7.94,31.71-8.51ZM166.4,128.04c6.36-3.02,17.43-1.69,27.19.49-18.32,1.37-38.76,11.77-49.74,24.44,4.27-6.66,9.36-18.66,22.55-24.93ZM110.87,212.5c-4.88-.08-9.62,1.4-13.13,2.9-.02-1.1-.04-2.24-.06-3.43,4.13-4.03,10.19-8.73,17.1-10.23-1.46,3.5-2.82,7.1-3.92,10.76ZM96.38,225.88c.32,9.67,2.98,59.93,3.54,70.48-.04,0-.09-.01-.13-.02-2.36-28.66-5-55.19-8.22-77.32.13-.07.3-.14.5-.24.94.38,2.42,1.03,4.22,1.98.03,2.36.06,4.12.1,5.12ZM97.85,221.62c2.71,1.53,5.89,3.64,8.94,6.37-4.21,19.49-5.71,40.55-6.51,62.28-.95-27.53-2.21-55.07-2.43-68.65ZM66.42,132.99c10.79-13.45,24.48-5.98,28.58-3.25.04.14.09.28.13.41-34.97-6.54-11.51,46.41-6.59,55.44-2.82-6.18-21.68-62.36,6.82-54.66.03.14.07.28.1.42-4.87,5.84-7.55,11.08-7.55,11.08,0,0,3.06-4.5,7.86-9.69.19,4.33.03,9.1.11,14.3-9.01,5.12-11.67,11.44-11.67,11.44,0,0,3.79-6.12,11.67-10.35.04,11.81.09,25.28.15,37.7-4.15,13.66-4.59,27.75-4.69,31.13.52-6.65-3.05-62.32-31.06-56.91-.35-10.09.91-20.55,6.14-27.08ZM114.49,175.12c-8.38,1.84-13.74,8.62-17.17,16.33-1.08-8.95,4.32-18.01,11.06-23.23-.2,4.39-.39,7.29-.39,7.29,0,0,.61-3.17,1.39-7.96,4.6-2.78,10.33-3.81,16.07-3.9-1.49,3.86-3.17,7.52-4.8,10.77-2.07.03-4.13.24-6.17.69ZM96.2,212.52c-2.67,2.81-4.23,4.99-4.25,5.06.2-2.66,2.04-5.67,4.22-9.49.01,1.55.02,3.03.04,4.43ZM91.95,215.81c.14-4.72,1.68-9.01,4.17-14.8.64,5.09-3.8,11.2-4.17,14.8ZM92.34,208.98c.48-5.54,1.52-13.03,3.71-20.34.76,6.9-3.16,14.23-3.71,20.34ZM134.71,142.17c-.07,1.01-.15,2.01-.25,3.01-.66-.79-1.37-1.54-2.15-2.22.12-1.2.19-2.39.19-3.55.78.87,1.52,1.8,2.2,2.76ZM118.07,140.43c-1.8.91-3.49.9-5.49,1.11.18-2.77.27-5.41.23-7.79,4.42-1.79,12.4-.86,17.1,3.18.22,1.46.33,2.96.35,4.5-3.19-1.99-7.2-2.77-12.19-1ZM108.76,142.24c-3.14.7-5.9,1.59-8.33,2.6,1.03-1.82,3.69-5.97,7.99-8.89.16,1.92.27,4.05.35,6.29ZM112.38,144.23c6.25.03,13.45,1.87,17.38,3.9-.05.34-.1.69-.16,1.03-5.28-2.93-12.95-2.12-17.95,2.4.28-2.45.54-4.92.73-7.33ZM120.51,129.94c-2.95-.02-5.53.58-7.77,1.56-.48-6.08-1.09-8.93-5.52-8.85,2.19-1.48,4.47-2.76,6.8-3.68,6.64,1.52,13.51,7.9,15.09,14.37-2.41-2.04-5.25-3.36-8.59-3.39ZM96.34,133.65c.98-2.99,4.44-6.08,7.13-8.21,3.89.57,4.06,3.84,4.78,8.76-4.64,3.69-7.12,8.73-7.96,10.7-1.34.56-2.58,1.16-3.72,1.77-.08-4.66-.15-9.05-.22-13.03ZM108.82,144.35c0,.3.01.59.02.89-8.48,6.27-9.48,13.95-9.48,13.95,0,0,2.82-8.28,9.49-13.21.03,2.68.02,5.43-.02,8.14-7.73,8.06-9.68,19.32-9.68,19.32,0,0,2.69-9.21,9.61-15.86-.06,2.63-.15,5.16-.24,7.44-5.8,4.03-8.77,10.62-11.35,17.38-.2-11.61-.4-23.77-.59-34.61,3.37-1.7,7.44-3.04,12.24-3.44ZM109.92,164.18c.41-2.64.84-5.59,1.24-8.66,4.6-3.85,12.81-5.65,18.01-4.09-.71,3.35-1.71,6.71-2.87,9.97-5.8-.41-11.63.19-16.38,2.78ZM130.6,151.83c1.02.32,1.97.71,2.84,1.13-.55,3.38-1.18,6.49-1.76,9.08-1.45-.24-2.92-.44-4.4-.57,1.28-3.15,2.42-6.4,3.31-9.64ZM131.09,149.93c.08-.33.15-.65.23-.98.91.51,1.74,1.04,2.5,1.58-.05.34-.1.68-.15,1.02-.81-.57-1.67-1.12-2.57-1.62ZM134.18,150.8c3.07,2.41,4.71,4.11,5.8,6.46-1.21-1.38-3.31-3.52-5.98-5.47.06-.33.12-.66.18-1ZM140.39,156.61c-.74-2.36-2.44-6.94-5.41-10.78.13-.9.25-1.81.36-2.73,1.42,2.16,2.58,4.44,3.43,6.55-.8-2.38-1.87-5.15-3.28-7.85.67-5.98.87-12.04.1-17.17,13.4,14.36,4.99,31.63,4.99,31.63,0,0-.09-.45-.27-1.22.08.6.1,1.13.06,1.56ZM134.8,140.52c-.72-1.26-1.51-2.49-2.38-3.63-.1-8.84-7.15-16.89-16.13-18.71,15.38-4.45,19.85,8,18.51,22.34ZM113.09,117.73c-1.44-.07-2.78.04-4.05.3,4.52-3.12,10.96-4.66,17.3-2.04-4.79-.58-9.23.17-13.25,1.75ZM111.2,118.55c-3.24,1.42-5.95,3.6-8.74,5.55,2.3-2.48,4.75-6.17,8.74-5.55ZM99.91,126.07c-1.17,1.11-2.11,2.26-2.74,3.13,1.18-3.76,4.16-7.48,8.67-9.66-2.39,2.3-4.41,4.65-5.92,6.53ZM99.45,123.04c1.8-4.91,4.39-9.73,7.47-14.58,1.96-.58,4.18-1.15,6.56-1.6-6.37,5.72-11.17,12-14.03,16.18ZM60.43,163.18c25.7-3.12,30.22,40.13,30.24,52.15-2.88-9.46-11.91-37.96-29.25-42.82-.42-2.93-.78-6.09-.99-9.33ZM93.73,218.11c.71-.26,1.55-.54,2.52-.81,0,.57.01,1.11.02,1.64-.96-.37-1.81-.64-2.53-.82ZM92.79,217.9c-.12-.02-.24-.05-.36-.07.61-.8,1.92-2.43,3.78-4.37,0,.91.02,1.78.02,2.62-1.54.73-2.73,1.39-3.44,1.82ZM97.66,211.03c-.03-1.62-.06-3.31-.09-5.06,4.01-5.76,12.37-12.98,21.2-12.97-1.21,2.43-2.36,4.9-3.44,7.41-7.23,1.68-13.47,6.5-17.67,10.61ZM114.76,188.32c-8.18,2.14-13.65,8-17.25,14.04-.31-9.75,11.1-19.14,20.61-23.11-2.94,5.34-5.26,8.75-5.26,8.75,0,0,2.44-3.46,5.59-8.85,2.87-.91,5.82-1.28,8.75-1.24-2.01,3.29-3.95,6.64-5.79,10.04-2.22-.28-4.45-.2-6.65.37ZM121.11,174.44c1.76-3.26,3.59-6.92,5.26-10.78,1.64,0,3.28.07,4.89.2-.81,3.44-1.44,5.59-1.44,5.59,0,0,.65-2.14,1.52-5.59,1.55.13,3.07.31,4.54.52-2.38,3.58-4.74,7.19-7.03,10.86-2.55-.52-5.15-.8-7.74-.8ZM131.79,162.06c.62-2.55,1.31-5.6,1.96-8.94,3.28,1.65,5.51,3.78,6.46,4.79-1.15,1.72-2.31,3.44-3.46,5.16-1.6-.38-3.26-.73-4.96-1.01ZM140.48,111.87c14.35,13.11.55,44.01.55,44.01,0,0,11.59-29.36-7.28-37.92-7.6-15.07-23.2-2.58-32.5,3.84,3.31-4.49,8.01-10.23,13.57-15.2,8.48-1.42,18.61-1.19,25.66,5.26ZM138.74,93.78c-12.46,1.15-20.32,11.53-31.51,14.17,6.98-11.81,17.02-25.23,31.51-14.17ZM110.51,100.04c.77-1.47,2.01-2.66,3.12-3.82-1.1,1.27-2.14,2.54-3.12,3.82ZM138.69,73.39c4.01-.52,7.78.24,11.26,1.86-13.22,1.53-24.76,9.62-34.73,17.27,6.68-9.81,14.76-18,23.47-19.13ZM108.11,103.34c-.44.64-.87,1.27-1.28,1.9.57-.97,1.16-1.91,1.78-2.83-.17.31-.34.62-.51.93ZM99.11,111.29c.38-.17,1.87-.83,4.12-1.63-1.69,3.59-6.13,14.97-6.45,16.24,0,0,.39-6.15,2.33-14.61ZM64.91,83.54c-6.82-3.17-14.31-2.51-21.45-.05,31.6-20.47,49.61,23.05,51.93,42.17-5.07-11.92-12.31-33.45-30.48-42.11ZM62.45,121.9c17.36-10.51,28.5-1.82,32.19,6.77-18.31-11.28-44.03,3.05-38.46,32.17-7.73,1.96-15.26,6.63-20.54,10.56,3.47-14.55,11.47-39.64,26.81-49.5ZM55.64,171.83c-8.74.34-15.99,3.6-21.71,7.66.33-1.76.83-4.27,1.53-7.29,5.17-3.53,12.71-7.65,21.13-8.74.51,2.95,1.18,5.81,1.93,8.49-.94-.11-1.89-.15-2.87-.11ZM62.53,179.15c11.75,7.73,21.85,25.68,26.12,34.06-4.82-7.87-13.78-23.17-25.16-29.39-.3-1.34-.63-2.91-.97-4.67ZM40.95,191.97c6.57-5.27,15.35-8.81,23.4-4.02.2.43.32.69.32.69,0,0-.06-.21-.16-.61,9.69,5.07,18.47,16.97,23.2,24.24-7.46-7.33-26.47-23.46-46.76-20.3ZM90.08,216.09c.15.18.25.4.36.58-.03-.02-.06-.03-.11-.05-.08-.16-.16-.34-.25-.53ZM50.97,237.72c-1.26,2.02-2.33,4.16-3.23,6.37-1.57-25.43,21.18-27.96,38.29-25.75-8.69,1.56-26.87,6.32-35.05,19.37ZM87.99,257.3c-1.56-21.93-.33-31.55,2.92-37.73,3.52,22.35,6.23,48.35,8.41,76.7-1.07-.15-2.06-.28-2.88-.35-2.56-6.67-6.65-19.64-8.45-38.62ZM118.64,253.01c0,17.51-2.9,35-4.64,43.94-3.65-.86-9.65.52-13.26-.46-.08-7.68.05-39.63,6.82-67.8,5.89,5.53,11.09,13.48,11.09,24.32ZM107.21,226.08c-3.57-3.25-6.78-5.25-9.39-6.47-.02-.86-.03-1.76-.05-2.7,3.12-.72,7.22-1.22,11.99-.77-.94,3.26-1.79,6.58-2.56,9.94ZM125.3,219.67c-3.72-4.77-8.34-6.69-12.94-7.09,1.37-3.86,2.84-7.59,4.36-11.18,6.67-.9,11.78,1.94,17.99,6.84-3.87,5.54-7.55,9.53-9.4,11.43ZM136.4,205.72c-5.31-4-12.68-6.88-19.11-5.67,1.04-2.4,2.09-4.72,3.16-6.97,6.31.55,12.98,3.96,18.8,7.95-.93,1.64-1.89,3.21-2.85,4.68ZM145.08,188.06c-1.21,3.63-2.71,7.06-4.35,10.24-5.3-4.71-11.54-8.87-17.88-10.13,1.86-3.69,3.7-7.13,5.47-10.25,6.46.29,12.8,2.44,18.14,4.94-.32,1.66-.77,3.39-1.37,5.2ZM146.59,182.05c-4.91-2.69-10.74-5.26-16.85-6.61,2.57-4.43,4.91-8.14,6.77-10.96,3.3.5,6.32,1.15,8.78,1.77,1.47,3.91,2.42,9.21,1.3,15.8ZM144.99,165.49c-2.19-.76-4.81-1.56-7.65-2.27,1.76-2.62,2.95-4.27,3.31-4.76.65.68,2.72,3.07,4.34,7.03ZM161.53,167.33c-5.37-6.32-14.54-8.27-18.89-8.84,4.62.36,14.77,1.93,18.89,8.84ZM142.37,155.98c1.41-1.85,4.26-5.23,8.19-8.17-3.71,3.29-6.51,6.25-8.19,8.17Z"/>
            <path class="cls-52" d="M19.92,118.6c-.33,1.32-.46,2.12-.44,2.18.02.07.14-.74.44-2.18Z"/>
            <path class="cls-49" d="M12.52,104.3s.27-.28.78-.78c-.5.49-.78.78-.78.78Z"/>
            <path class="cls-36" d="M82.4,297.86c.03.08.04.12.04.12,0,0-.02-.04-.04-.12Z"/>
            <path class="cls-32" d="M71.18,203.28c5.3,2.92,10.09,6.4,13.62,9.22-3.31-2.98-8.01-6.56-13.62-9.22Z"/>
            <path class="cls-27" d="M18.77,195.67c-.45.61-.7.99-.7,1.05,0,.06.24-.33.7-1.05Z"/>
          </g>
        </g>
      </g>
    </g>
  </g>
</svg>