<?xml version="1.0" encoding="UTF-8"?>
<svg xmlns="http://www.w3.org/2000/svg" xmlns:xlink="http://www.w3.org/1999/xlink" viewBox="0 0 197.93 370.84">
  <defs>
    <style>
      .cls-1 {
        fill: url(#_Áåçûìÿííûé_ãðàäèåíò_52-5);
      }

      .cls-1, .cls-2, .cls-3, .cls-4, .cls-5, .cls-6, .cls-7, .cls-8, .cls-9, .cls-10, .cls-11, .cls-12, .cls-13, .cls-14, .cls-15 {
        mix-blend-mode: multiply;
      }

      .cls-1, .cls-2, .cls-3, .cls-4, .cls-6, .cls-7, .cls-9, .cls-10, .cls-11, .cls-13, .cls-14, .cls-15 {
        opacity: .4;
      }

      .cls-2 {
        fill: url(#_95-3);
      }

      .cls-16 {
        fill: url(#_Áåçûìÿííûé_ãðàäèåíò_404-2);
      }

      .cls-17 {
        fill: url(#_Áåçûìÿííûé_ãðàäèåíò_404);
      }

      .cls-18 {
        fill: url(#_Áåçûìÿííûé_ãðàäèåíò_404-16);
      }

      .cls-3 {
        fill: url(#_Áåçûìÿííûé_ãðàäèåíò_52-2);
      }

      .cls-19 {
        fill: url(#_Áåçûìÿííûé_ãðàäèåíò_404-8);
      }

      .cls-20 {
        fill: url(#_Áåçûìÿííûé_ãðàäèåíò_404-7);
      }

      .cls-4 {
        fill: url(#_Áåçûìÿííûé_ãðàäèåíò_52-7);
      }

      .cls-21 {
        fill: url(#_Áåçûìÿííûé_ãðàäèåíò_404-10);
      }

      .cls-5 {
        fill: url(#_95);
        opacity: .35;
      }

      .cls-22 {
        fill: url(#_Áåçûìÿííûé_ãðàäèåíò_404-13);
      }

      .cls-6 {
        fill: url(#_Áåçûìÿííûé_ãðàäèåíò_52-3);
      }

      .cls-23 {
        isolation: isolate;
      }

      .cls-24 {
        fill: url(#_Áåçûìÿííûé_ãðàäèåíò_404-17);
      }

      .cls-25 {
        fill: url(#_Áåçûìÿííûé_ãðàäèåíò_1346-4);
      }

      .cls-26 {
        fill: #5a3361;
      }

      .cls-27 {
        fill: url(#_Áåçûìÿííûé_ãðàäèåíò_404-19);
      }

      .cls-28 {
        fill: url(#_Áåçûìÿííûé_ãðàäèåíò_404-3);
      }

      .cls-7 {
        fill: url(#_95-6);
      }

      .cls-8 {
        opacity: .9;
      }

      .cls-29 {
        fill: #fff;
        mix-blend-mode: soft-light;
        opacity: .53;
      }

      .cls-9 {
        fill: url(#_Áåçûìÿííûé_ãðàäèåíò_52);
      }

      .cls-10 {
        fill: url(#_Áåçûìÿííûé_ãðàäèåíò_52-4);
      }

      .cls-30 {
        fill: url(#_Áåçûìÿííûé_ãðàäèåíò_1346-2);
      }

      .cls-31 {
        fill: url(#_Áåçûìÿííûé_ãðàäèåíò_410);
        mix-blend-mode: screen;
        opacity: .2;
      }

      .cls-32 {
        fill: url(#_Áåçûìÿííûé_ãðàäèåíò_404-6);
      }

      .cls-11 {
        fill: url(#_Áåçûìÿííûé_ãðàäèåíò_52-6);
      }

      .cls-33 {
        fill: url(#_Áåçûìÿííûé_ãðàäèåíò_404-9);
      }

      .cls-12 {
        fill: url(#_Áåçûìÿííûé_ãðàäèåíò_660);
        opacity: .75;
      }

      .cls-34 {
        fill: url(#_Áåçûìÿííûé_ãðàäèåíò_404-11);
      }

      .cls-35 {
        fill: url(#_Áåçûìÿííûé_ãðàäèåíò_404-14);
      }

      .cls-36 {
        fill: url(#_Áåçûìÿííûé_ãðàäèåíò_404-18);
      }

      .cls-13 {
        fill: url(#_95-4);
      }

      .cls-37 {
        fill: url(#_Áåçûìÿííûé_ãðàäèåíò_1346-3);
      }

      .cls-38 {
        fill: url(#_Áåçûìÿííûé_ãðàäèåíò_1346);
      }

      .cls-39 {
        fill: url(#_Áåçûìÿííûé_ãðàäèåíò_404-4);
      }

      .cls-14 {
        fill: url(#_95-5);
      }

      .cls-40 {
        fill: url(#_Áåçûìÿííûé_ãðàäèåíò_404-12);
      }

      .cls-15 {
        fill: url(#_95-2);
      }

      .cls-41 {
        fill: url(#_Áåçûìÿííûé_ãðàäèåíò_55);
      }

      .cls-42 {
        fill: url(#_Áåçûìÿííûé_ãðàäèåíò_404-5);
      }

      .cls-43 {
        fill: url(#_Áåçûìÿííûé_ãðàäèåíò_404-15);
      }
    </style>
    <linearGradient id="_95" data-name="  95" x1="144.44" y1="558.27" x2="59.93" y2="-4.49" gradientUnits="userSpaceOnUse">
      <stop offset="0" stop-color="#5a4889"/>
      <stop offset="1" stop-color="#3b2f84"/>
    </linearGradient>
    <linearGradient id="_95-2" data-name="  95" x1="86.17" y1="326.63" x2="81.36" y2="294.66" xlink:href="#_95"/>
    <linearGradient id="_95-3" data-name="  95" x1="127.59" y1="321.29" x2="123.83" y2="296.28" xlink:href="#_95"/>
    <linearGradient id="_95-4" data-name="  95" x1="74.38" y1="159.93" x2="52.08" y2="11.39" xlink:href="#_95"/>
    <linearGradient id="_95-5" data-name="  95" x1="150.5" y1="312.13" x2="141.53" y2="252.35" xlink:href="#_95"/>
    <linearGradient id="_95-6" data-name="  95" x1="131.33" y1="205" x2="126.42" y2="172.28" xlink:href="#_95"/>
    <radialGradient id="_Áåçûìÿííûé_ãðàäèåíò_1346" data-name="Áåçûìÿííûé ãðàäèåíò 1346" cx="132.8" cy="324.88" fx="132.8" fy="324.88" r="38.83" gradientUnits="userSpaceOnUse">
      <stop offset=".02" stop-color="#452f57"/>
      <stop offset=".99" stop-color="#1f001a"/>
    </radialGradient>
    <linearGradient id="_Áåçûìÿííûé_ãðàäèåíò_55" data-name="Áåçûìÿííûé ãðàäèåíò 55" x1="103.91" y1="310.22" x2="149.69" y2="310.22" gradientUnits="userSpaceOnUse">
      <stop offset="0" stop-color="#4f4661"/>
      <stop offset=".96" stop-color="#2e2247"/>
    </linearGradient>
    <radialGradient id="_Áåçûìÿííûé_ãðàäèåíò_1346-2" data-name="Áåçûìÿííûé ãðàäèåíò 1346" cx="114.04" cy="345.1" fx="114.04" fy="345.1" r="58.84" xlink:href="#_Áåçûìÿííûé_ãðàäèåíò_1346"/>
    <radialGradient id="_Áåçûìÿííûé_ãðàäèåíò_1346-3" data-name="Áåçûìÿííûé ãðàäèåíò 1346" cx="114.04" cy="345.1" fx="114.04" fy="345.1" r="58.84" xlink:href="#_Áåçûìÿííûé_ãðàäèåíò_1346"/>
    <linearGradient id="_Áåçûìÿííûé_ãðàäèåíò_660" data-name="Áåçûìÿííûé ãðàäèåíò 660" x1="99.24" y1="339.64" x2="167.56" y2="339.64" gradientUnits="userSpaceOnUse">
      <stop offset="0" stop-color="#87009a"/>
      <stop offset="1" stop-color="#fff"/>
    </linearGradient>
    <radialGradient id="_Áåçûìÿííûé_ãðàäèåíò_1346-4" data-name="Áåçûìÿííûé ãðàäèåíò 1346" cx="118.79" cy="311.02" fx="118.79" fy="311.02" r="48.15" xlink:href="#_Áåçûìÿííûé_ãðàäèåíò_1346"/>
    <linearGradient id="_Áåçûìÿííûé_ãðàäèåíò_410" data-name="Áåçûìÿííûé ãðàäèåíò 410" x1="113.49" y1="358.98" x2="105" y2="312.06" gradientUnits="userSpaceOnUse">
      <stop offset="0" stop-color="#000"/>
      <stop offset="1" stop-color="#9d94b4"/>
    </linearGradient>
    <linearGradient id="_Áåçûìÿííûé_ãðàäèåíò_404" data-name="Áåçûìÿííûé ãðàäèåíò 404" x1="88.97" y1="25.4" x2="154.09" y2="449.87" gradientUnits="userSpaceOnUse">
      <stop offset="0" stop-color="#563f01"/>
      <stop offset="1" stop-color="#839000"/>
    </linearGradient>
    <linearGradient id="_Áåçûìÿííûé_ãðàäèåíò_404-2" data-name="Áåçûìÿííûé ãðàäèåíò 404" x1="56.4" y1="30.39" x2="121.51" y2="454.87" xlink:href="#_Áåçûìÿííûé_ãðàäèåíò_404"/>
    <linearGradient id="_Áåçûìÿííûé_ãðàäèåíò_52" data-name="Áåçûìÿííûé ãðàäèåíò 52" x1="118.41" y1="129.99" x2="60.65" y2="175.59" gradientUnits="userSpaceOnUse">
      <stop offset="0" stop-color="#fff"/>
      <stop offset="1" stop-color="#5b2b00"/>
    </linearGradient>
    <linearGradient id="_Áåçûìÿííûé_ãðàäèåíò_404-3" data-name="Áåçûìÿííûé ãðàäèåíò 404" x1="141.67" y1="17.31" x2="206.78" y2="441.79" xlink:href="#_Áåçûìÿííûé_ãðàäèåíò_404"/>
    <linearGradient id="_Áåçûìÿííûé_ãðàäèåíò_52-2" data-name="Áåçûìÿííûé ãðàäèåíò 52" x1="209.96" y1="98.72" x2="155.45" y2="127.21" xlink:href="#_Áåçûìÿííûé_ãðàäèåíò_52"/>
    <linearGradient id="_Áåçûìÿííûé_ãðàäèåíò_404-4" data-name="Áåçûìÿííûé ãðàäèåíò 404" x1="60.69" y1="29.73" x2="125.8" y2="454.21" xlink:href="#_Áåçûìÿííûé_ãðàäèåíò_404"/>
    <linearGradient id="_Áåçûìÿííûé_ãðàäèåíò_404-5" data-name="Áåçûìÿííûé ãðàäèåíò 404" x1="86.39" y1="25.79" x2="151.5" y2="450.27" xlink:href="#_Áåçûìÿííûé_ãðàäèåíò_404"/>
    <linearGradient id="_Áåçûìÿííûé_ãðàäèåíò_52-3" data-name="Áåçûìÿííûé ãðàäèåíò 52" x1="96.41" y1="56.83" x2="88.16" y2="131.24" xlink:href="#_Áåçûìÿííûé_ãðàäèåíò_52"/>
    <linearGradient id="_Áåçûìÿííûé_ãðàäèåíò_404-6" data-name="Áåçûìÿííûé ãðàäèåíò 404" x1="63.43" y1="29.31" x2="128.54" y2="453.79" xlink:href="#_Áåçûìÿííûé_ãðàäèåíò_404"/>
    <linearGradient id="_Áåçûìÿííûé_ãðàäèåíò_404-7" data-name="Áåçûìÿííûé ãðàäèåíò 404" x1="96.01" y1="24.32" x2="161.12" y2="448.79" xlink:href="#_Áåçûìÿííûé_ãðàäèåíò_404"/>
    <linearGradient id="_Áåçûìÿííûé_ãðàäèåíò_404-8" data-name="Áåçûìÿííûé ãðàäèåíò 404" x1="139.82" y1="17.6" x2="204.94" y2="442.07" xlink:href="#_Áåçûìÿííûé_ãðàäèåíò_404"/>
    <linearGradient id="_Áåçûìÿííûé_ãðàäèåíò_52-4" data-name="Áåçûìÿííûé ãðàäèåíò 52" x1="160.9" y1="28.54" x2="131.35" y2="79.09" xlink:href="#_Áåçûìÿííûé_ãðàäèåíò_52"/>
    <linearGradient id="_Áåçûìÿííûé_ãðàäèåíò_404-9" data-name="Áåçûìÿííûé ãðàäèåíò 404" x1="94.46" y1="24.55" x2="159.57" y2="449.03" xlink:href="#_Áåçûìÿííûé_ãðàäèåíò_404"/>
    <linearGradient id="_Áåçûìÿííûé_ãðàäèåíò_404-10" data-name="Áåçûìÿííûé ãðàäèåíò 404" x1="100" y1="23.71" x2="165.11" y2="448.18" xlink:href="#_Áåçûìÿííûé_ãðàäèåíò_404"/>
    <linearGradient id="_Áåçûìÿííûé_ãðàäèåíò_404-11" data-name="Áåçûìÿííûé ãðàäèåíò 404" x1="108.99" y1="22.32" x2="174.1" y2="446.8" xlink:href="#_Áåçûìÿííûé_ãðàäèåíò_404"/>
    <linearGradient id="_Áåçûìÿííûé_ãðàäèåíò_52-5" data-name="Áåçûìÿííûé ãðàäèåíò 52" x1="139.5" y1="12.57" x2="110.28" y2="43.78" xlink:href="#_Áåçûìÿííûé_ãðàäèåíò_52"/>
    <linearGradient id="_Áåçûìÿííûé_ãðàäèåíò_404-12" data-name="Áåçûìÿííûé ãðàäèåíò 404" x1="135.08" y1="335.95" x2="120.68" y2="145" xlink:href="#_Áåçûìÿííûé_ãðàäèåíò_404"/>
    <linearGradient id="_Áåçûìÿííûé_ãðàäèåíò_404-13" data-name="Áåçûìÿííûé ãðàäèåíò 404" x1="95.32" y1="338.95" x2="80.92" y2="147.99" xlink:href="#_Áåçûìÿííûé_ãðàäèåíò_404"/>
    <linearGradient id="_Áåçûìÿííûé_ãðàäèåíò_404-14" data-name="Áåçûìÿííûé ãðàäèåíò 404" x1="174.75" y1="332.96" x2="160.36" y2="142" xlink:href="#_Áåçûìÿííûé_ãðàäèåíò_404"/>
    <linearGradient id="_Áåçûìÿííûé_ãðàäèåíò_404-15" data-name="Áåçûìÿííûé ãðàäèåíò 404" x1="166.42" y1="333.58" x2="152.02" y2="142.63" xlink:href="#_Áåçûìÿííûé_ãðàäèåíò_404"/>
    <linearGradient id="_Áåçûìÿííûé_ãðàäèåíò_404-16" data-name="Áåçûìÿííûé ãðàäèåíò 404" x1="115.74" y1="337.41" x2="101.34" y2="146.46" xlink:href="#_Áåçûìÿííûé_ãðàäèåíò_404"/>
    <linearGradient id="_Áåçûìÿííûé_ãðàäèåíò_52-6" data-name="Áåçûìÿííûé ãðàäèåíò 52" x1="114.09" y1="315.59" x2="101.87" y2="153.56" xlink:href="#_Áåçûìÿííûé_ãðàäèåíò_52"/>
    <linearGradient id="_Áåçûìÿííûé_ãðàäèåíò_404-17" data-name="Áåçûìÿííûé ãðàäèåíò 404" x1="117.96" y1="337.24" x2="103.56" y2="146.29" xlink:href="#_Áåçûìÿííûé_ãðàäèåíò_404"/>
    <linearGradient id="_Áåçûìÿííûé_ãðàäèåíò_404-18" data-name="Áåçûìÿííûé ãðàäèåíò 404" x1="142.22" y1="335.41" x2="127.82" y2="144.46" xlink:href="#_Áåçûìÿííûé_ãðàäèåíò_404"/>
    <linearGradient id="_Áåçûìÿííûé_ãðàäèåíò_404-19" data-name="Áåçûìÿííûé ãðàäèåíò 404" x1="168.98" y1="333.39" x2="154.59" y2="142.44" xlink:href="#_Áåçûìÿííûé_ãðàäèåíò_404"/>
    <linearGradient id="_Áåçûìÿííûé_ãðàäèåíò_52-7" data-name="Áåçûìÿííûé ãðàäèåíò 52" x1="158.62" y1="179.87" x2="154.97" y2="155.58" xlink:href="#_Áåçûìÿííûé_ãðàäèåíò_52"/>
  </defs>
  <g class="cls-23">
    <g id="Layer_2" data-name="Layer 2">
      <g id="_0" data-name="0">
        <g>
          <g class="cls-8">
            <path class="cls-5" d="M145.23,323.94l-.11-1.16c.85-.06,1.7-.11,2.55-.17l-3.17-4.55s0,0-.03,0c0,0-.02,0-.02,0-.02,0-.03,0-.06,0-.02,0-.04,0-.06,0-.03,0-.05,0-.08-.01-.03,0-.06,0-.09-.01-.04,0-.07-.01-.12-.02-.03,0-.07,0-.11-.01-.05,0-.1-.01-.15-.02-.04,0-.09-.01-.14-.02-.06,0-.13-.01-.19-.02-.05,0-.11-.01-.17-.02-.07,0-.14-.02-.22-.02-.06,0-.13-.01-.2-.02-.09,0-.17-.02-.27-.03-.07,0-.15-.01-.23-.02-.1,0-.2-.02-.31-.03-.09,0-.17-.02-.26-.02-.11,0-.22-.02-.34-.03-.1,0-.19-.02-.29-.02-.13-.01-.26-.02-.4-.03-.1,0-.2-.01-.3-.02-.15-.01-.31-.02-.47-.03-.11,0-.21-.01-.32-.02-.18-.01-.38-.02-.57-.04-.1,0-.19-.01-.29-.02-.22-.01-.46-.03-.7-.04-.08,0-.16,0-.25-.01-.33-.02-.67-.03-1.03-.05-.04,0-.09,0-.14,0-.31-.01-.63-.03-.96-.04-.02,0-.03,0-.05,0,0,0,0,0,0,0-4.74-.19-11.63-.29-21.22-.06-1.16-16.14-3.57-47.55-6.13-67.81,0-.04-.01-.07-.01-.11,0-8,1.88-14.05,5.22-18.61,0,0,25.94,8.14,41.21,1.09,15.55-7.17,26.22-32.2,26.22-32.2,0,0-40.45.02-55.44,7.57-12.22,6.15-16.55,30.83-17.66,39.02-1.66-10.56-5.16-23.87-8.99-36.66-.63-14.64-1.23-25.88-2.08-29.1-.67-2.54-2.03-7.47-3.71-13.47-.45-6.86,2.06-11.56,5.03-15.95,0,0,10.49,13.16,32.66,7.48,22.65-5.81,32.42-23.64,32.42-23.64,0,0-5.51-2.06-13.26-3.98-1.45,1.51-3.24,2.86-5.12,3.99-1.91,1.15-4.48,2.25-6.86,1.79-2.27-.43-3.48-2.12-3.54-3.96-.05-1.52.43-3.07,1.19-4.51-7.7-.92-15.69-.89-22.06,1.36-15.04,5.32-20.01,27.64-21.17,34.86-.98-3.51-2.05-7.3-3.13-11.13,2.08-6.03,4.24-12.81,5.15-17.93,1.13-6.38-4.61-12.38-10.02-16.49,4.95-2.59,13.86-7.65,25.41-15.91,18.53-13.25,23.47-47.44,23.47-47.44,0,0-8.31,2.49-18.55,7.19-.04.23-.07.46-.12.69-.38,1.81-.91,5.12-3.28,6.03-1.69.65-3.58-.21-4.73-1.11-.39-.3-.75-.63-1.08-.98-10.14,5.58-20.31,13.01-25.31,22.11-5.93,10.79-5.85,18.76-4.36,24-.05-.03-.08-.04-.08-.04,0,0,.41,29.47,1,35.72.58,6.22,7.64,18.62,7.64,18.62l.47,3.56s5.5,17.1,11.1,35.97c-3.23-4.99-9.11-11.33-18.48-12.41-3.31-8.34-5.73-15.02-6.34-18.28-.36-1.91-.68-3.78-.96-5.59,5.65,3.03,14.94,2.29,14.94,2.29,0,0-1.86-4.83-7.1-10.95-2.22-2.59-5.94-4.2-9.48-5.2-.24-2.96-.34-5.03-.38-5.79.12,0,.19,0,.19,0,0,0,2.45-22.66-1.34-34.21-3.81-11.62-47.39-21.1-47.39-21.1,0,0,14.53,37.82,21.54,46.34,5.69,6.91,20.02,8.51,25.25,8.87.17,1.41.41,3.28.7,5.51-4.23-1.02-7.87-1.19-7.87-1.19,0,0,3.62,6.85,7.85,12.83.5.71,1.14,1.32,1.88,1.85.29,2.02.6,4.11.93,6.24.33,2.13,1.21,5.13,2.48,8.74-.03-.03-.06-.07-.09-.1-.09-.11-.19-.23-.3-.36-.08-.1-.16-.19-.25-.3-.11-.13-.22-.26-.34-.4-.1-.11-.19-.22-.29-.34-.13-.15-.26-.31-.4-.47-.11-.12-.21-.24-.32-.36-.15-.17-.31-.35-.47-.53-.11-.13-.23-.25-.35-.39-.18-.19-.36-.4-.55-.6-.12-.13-.23-.25-.35-.38-.22-.24-.45-.48-.69-.72-.1-.1-.19-.2-.3-.31-.34-.35-.7-.71-1.06-1.08-.05-.05-.1-.1-.15-.15-.32-.32-.64-.64-.98-.96-.13-.13-.27-.25-.4-.38-.26-.25-.53-.5-.8-.75-.16-.15-.33-.3-.5-.45-.25-.23-.51-.46-.77-.69-.18-.16-.37-.32-.56-.48-.26-.22-.52-.45-.78-.67-.19-.16-.39-.33-.59-.49-.27-.22-.54-.44-.81-.66-.1-.08-.2-.17-.31-.25-.01,0-.03-.01-.04-.02-6.6-5.21-14.91-9.74-23.22-8.91-8.36.83-16.87,8.25-23.57,15.95.65.16,1.27.38,1.8.65,1.86.94,3.28,2.66,3.02,4.52-.12.83-.66,1.64-1.48,2.11-1.01.57-2.23.69-3.44.57-.96-.1-1.9-.38-2.8-.69-.75-.26-1.47-.56-2.17-.9-4.96,6.58-8.1,12.05-8.1,12.05,0,0,34.5,6.54,47.9.8,13.61-5.82,14.64-21.68,14.64-21.68,3.82,1.81,7.37,4.49,10.31,9.09.9,2.5,1.97,5.26,3.16,8.22-1.15-.06-2.35-.05-3.6.06-19.39,1.65-32.12,8.13-32.12,8.13,0,0,33.08,16.41,43.77,13.88.38-.09.73-.17,1.09-.26,4.42,10.4,9.02,21.26,12.61,30.91-2.77-4.88-15.22-25.01-33.44-28.2-20.51-3.59-55.73,6.42-55.73,6.42,0,0,17.03,10.42,32.93,15.18,1.64-1.53,3.64-2.91,5.98-3.65,2.33-.74,6.34-.71,6.82,1.91.2,1.09-.34,2.21-.88,3.17-.15.28-.31.55-.47.82,1.79.12,3.5.09,5.08-.14,17.52-2.46,29.71-7.45,29.71-7.45,3.94,3.21,7.28,7.24,10.05,12.06.71,1.91,1.38,3.77,2,5.58,0,.07,0,.13,0,.2-1.76-1.14-3.83-2.11-6.25-2.85-19.57-5.94-35.21-2.14-35.21-2.14l42.45,25.05c.43,8.26.84,15.45,1.24,20.7-2.37-10.71-7.47-24.37-18.12-26.89-7.91-1.88-20.7,2.92-26.53,9.99-7.32,8.88-6.89,20.77-6.89,20.77,0,0,13.19-9.9,27.16-13.29,14.17-3.43,19.24-2.61,19.24-2.61,2.63,2.89,4.2,8.84,5.43,15.5.11,1.21.22,2.26.33,3.11.78,5.96,1.82,11.78,2.83,16.81-7.79.31-13.25.72-17.05,1.11,0,0,.03,0,.03,0-.07,0-.14.02-.21.02-.27.03-.52.06-.77.08-.13.01-.25.03-.37.04-.29.03-.57.07-.84.1-.06,0-.12.01-.18.02-.33.04-.63.08-.93.12-.08.01-.15.02-.23.03-.21.03-.41.06-.6.08-.09.01-.18.03-.27.04-.17.02-.33.05-.48.07-.08.01-.17.03-.25.04-.15.02-.3.05-.44.07-.06.01-.12.02-.18.03-.19.03-.38.07-.55.1-.01,0-.02,0-.04,0-.15.03-.3.06-.43.08-.05.01-.1.02-.15.03-.09.02-.18.04-.26.06-.05.01-.09.02-.13.03-.08.02-.15.03-.21.05-.04,0-.07.02-.11.03-.07.02-.14.03-.2.05-.02,0-.04,0-.06.01-.07.02-.14.04-.2.06-.02,0-.03,0-.05.01-.04.01-.07.02-.1.03-.02,0-.03,0-.04.01-.02,0-.05.02-.06.02-.01,0-.02,0-.03,0-.02,0-.03.01-.04.02,0,0,0,0-.01,0,0,0-.02,0-.02,0l-1.86,4.57c1.01.01,2.03.02,3.05.03l.18,1.1s-.02.01-.06.03c0,0,0,0,0,0-.4.18-2.82,1.34-5.12,3.41-.02.02-.04.04-.07.06-.26.23-.51.47-.76.72,0,0-.02.02-.02.03-.24.25-.48.5-.71.77-.02.02-.04.04-.06.07-.22.26-.44.53-.64.82-.04.05-.07.1-.11.15-.2.28-.4.58-.58.88-.02.03-.03.05-.04.08-.17.29-.32.58-.46.88-.03.06-.05.11-.08.17-.14.31-.27.63-.38.96-.02.07-.05.15-.07.22-.11.34-.2.69-.27,1.04,0,.03,0,.06-.01.09-.06.34-.1.68-.13,1.03,0,.08-.01.16-.02.24-.02.37-.01.74.02,1.12,0,.09.02.18.03.27.04.39.09.79.18,1.19,0,.02,0,.03,0,.04.12.55.26,1.1.42,1.64.05.16.1.32.15.48.11.37.23.74.35,1.11.07.2.14.39.21.58.12.33.25.66.38.98.08.2.16.4.25.6.14.32.28.63.42.95.09.19.17.38.27.57.17.34.34.68.52,1.01.08.15.15.3.23.45.26.47.52.93.8,1.39.09.14.18.28.27.42.2.32.4.64.61.95.12.18.25.37.37.55.18.27.37.53.55.8.13.19.27.38.41.56.19.25.37.5.56.75.14.18.28.36.42.54.2.25.41.51.61.75.13.16.26.32.4.48.26.31.53.61.8.92.08.09.16.18.24.28.35.38.69.76,1.05,1.13.12.13.25.26.38.39.24.25.48.49.71.73.14.14.28.28.43.42.23.22.46.44.68.66.14.13.28.27.42.4.24.22.48.44.72.66.13.11.25.23.38.34.29.26.57.5.86.75.08.07.15.13.23.2.75.64,1.49,1.25,2.22,1.82.06.04.11.09.17.13.31.24.62.48.92.71.06.05.12.09.18.14.31.23.61.46.91.67.04.03.08.06.12.09,2.51,1.82,4.66,3.16,5.99,3.94.52.3.9.51,1.14.65.19.11.31.17.31.17h.61s38.47-.39,38.47-.39h.63s0,0,0,0h0s2.55-1.58,5.83-4.45c4.03-3.54,9.2-9.05,12.11-16.06,1.49-3.59,2.39-7.57,2.24-11.86-.34-9.64-13.7-14.11-13.74-14.12ZM109.1,278.42c.11,3.14.2,6.35.28,9.55-.4-3.62-.78-7.05-1.09-10.02l.81.48ZM108.54,265.38c-.1-.34-.2-.67-.32-1.01-.27-.79-.59-1.58-.96-2.36-1-2.13-2.4-4.2-4.31-6.05-.69-1.73-1.45-3.57-2.26-5.53-.55-10.76-.99-21.68-1.4-31.64,3.95,13.83,7.38,26.98,8.23,33.64.41,3.19.74,7.72,1.03,12.95ZM88.52,155.52c2.68,9.29,5.13,18.49,6.32,24.8.81,4.31,1.57,12.86,2.29,23.52-5.33-17.19-10.81-32.39-12.53-37.09.57-1.94,2.16-6.19,3.92-11.23ZM86.31,216.38c5.44-1.27,8.96-2,10.92-2.39.2-.04.37-.07.54-.11.63,10.59,1.22,22.36,1.77,33.77-3.87-9.28-8.67-20.46-13.23-31.28ZM105.07,276.04c1.79,14.11,3.04,30.51,3.67,39.76-.79-2.81-1.67-6.17-2.64-10.2-1.71-7.08-2.97-18.33-3.95-31.29l2.92,1.72Z"/>
            <path class="cls-15" d="M103.68,313.28c-.26-.46-8.81-14.3-17.16-14.58-8.29-.28-23.59,3.22-23.59,3.22,0,0,18.92-.86,27.88,2.31,9,3.18,12.87,9.05,12.87,9.05Z"/>
            <path class="cls-2" d="M136.24,297.57s-9.76,2.29-15.79,5.16c-5.99,2.84-5.94,11.79-6.03,12.15,0,0,1.05-3.98,5.02-7.09,3.99-3.13,16.8-10.22,16.8-10.22Z"/>
            <path class="cls-13" d="M70.9,74.74c.04-8.4-18.94-44.56-18.94-44.56,0,0-.42,27.58.84,47.67,1.24,19.81,18.69,32.71,18.69,32.71,0,0-.62-27.47-.58-35.82Z"/>
            <path class="cls-14" d="M121.5,267.54c-13.31,14.29-7.25,29.99-7.25,29.99,12.42-22.68,27.35-29.07,63.41-33.98,0,0-42.55-10.62-56.15,3.99Z"/>
            <path class="cls-7" d="M142.4,182.74c.78-.42,1.62-.66,2.53-.82,1.1-.18,2.35-.16,3.45.12,4.26-3.74,7.14-6.85,7.14-6.85,0,0-22.55.62-35.8,2.23-13.1,1.59-18.31,19.36-18.31,19.36,0,0,15.41.3,27.34-2.68,4.1-1.03,8.49-3.53,12.52-6.39-.01,0-.03-.01-.04-.02-1.3-.81-1.38-2.24-.6-3.35.44-.63,1.01-1.19,1.77-1.6Z"/>
          </g>
          <g>
            <path class="cls-38" d="M99.61,308.63s3.93-1.96,27-1.96,30.42,1.96,30.42,1.96c0,0-7.46,2.28-28.52,3.12s-28.9-3.12-28.9-3.12Z"/>
            <path class="cls-41" d="M103.91,310.29s17.04-2.6,19.42-2.67c2.38-.07,26.36,2.38,26.36,2.38,0,0-19.5,2.89-26.72,2.82-7.22-.07-19.06-2.53-19.06-2.53Z"/>
            <path class="cls-26" d="M99.61,308.63s1.46-.73,7.83-1.3c0,0-3.8.52-3.74.8s16.55,1.67,23.3,1.67c8.18,0,24.18-1.2,24.06-1.59-.11-.39-1.61-.65-1.61-.65,5.47.52,7.57,1.08,7.57,1.08,0,0-7.46,2.28-28.52,3.12s-28.9-3.12-28.9-3.12Z"/>
            <path class="cls-30" d="M157.06,315.4l.11-5.97s-9.12,3.12-28.57,3.74c-19.45-.62-28.57-3.74-28.57-3.74l.11,5.97s-11.11,5.57-10.47,16.72c1.31,22.76,20.96,37.73,20.96,37.73h35.93s19.65-14.97,20.96-37.73c.64-11.14-10.47-16.72-10.47-16.72Z"/>
            <path class="cls-37" d="M167.53,332.11c-1.32,22.76-20.97,37.73-20.97,37.73h-35.93s-.46-.34-1.23-1c-4.31-3.71-18.62-17.41-19.74-36.72-.53-9.18,6.93-14.58,9.57-16.2.56-.35.9-.52.9-.52l-.11-5.97s9.12,3.12,28.57,3.73c19.45-.62,28.58-3.73,28.58-3.73l-.11,5.97s11.11,5.57,10.47,16.71Z"/>
            <path class="cls-12" d="M167.53,332.11c-1.32,22.76-20.97,37.73-20.97,37.73h-35.93s18.64-1.48,24.35-6.09c5.72-4.61,13.74-38.43,7.27-43.45-5.36-4.16-33.41-4.42-43.02-4.38.56-.35.9-.52.9-.52l-.11-5.97s9.12,3.12,28.57,3.73c19.45-.62,28.58-3.73,28.58-3.73l-.11,5.97s11.11,5.57,10.47,16.71Z"/>
            <path class="cls-25" d="M157.03,308.63s-10.2,1.88-29.12,1.88-28.29-1.88-28.29-1.88l-2.28,5.32c10.18.57,20.42.86,30.72.86,10.36,0,20.77-.29,31.26-.86l-2.28-5.32Z"/>
            <path class="cls-31" d="M111.49,317.45c-14.61,1.33-17.53,13.01-15.14,20.72,2.39,7.7,17.53,18.32,22.04,15.67,4.51-2.66,7.7-37.71-6.9-36.38Z"/>
            <g>
              <g>
                <path class="cls-17" d="M125.75,308.76h3.55c.1-12.11.45-51.43.81-57.6.42-7.3-20.24-88.07-20.87-102.68-.63-14.61.42-26.92.42-26.92l-1.46-2.92s-.21,13.77,0,29.63c.21,15.86,18.57,78.26,18.99,102.88.33,19.4-.9,46.83-1.43,57.6Z"/>
                <path class="cls-16" d="M110.02,159.18s-12.83-27.39-29.11-27.39c-7.47,0-16.03,6.99-23.1,14.56.56.24,1.09.54,1.53.88,1.55,1.19,2.58,3.2,2.09,5.17-.22.88-.82,1.7-1.63,2.13-.99.52-2.11.53-3.18.28-.85-.2-1.67-.6-2.43-1.02-.64-.35-1.25-.76-1.84-1.19-5.47,6.67-9.15,12.36-9.15,12.36,0,0,30.36,10.33,43.04,5.32,12.68-5.01,15.5-21.76,15.5-21.76,3.43,2.53,6.43,6.16,8.45,12.36l-.16-1.72Z"/>
                <path class="cls-9" d="M110.02,159.18s-3.83-8.18-9.97-15.6c-2.84-3.43-20.99,6.67-35.79,13.57-11.75,5.48-21.08,7.82-21.08,7.82,0,0,30.36,10.33,43.04,5.32,12.68-5.01,15.5-21.76,15.5-21.76,3.43,2.53,6.43,6.16,8.45,12.36l-.16-1.72Z"/>
                <path class="cls-28" d="M178.91,110.01c-1.28,1.34-2.82,2.49-4.42,3.4-1.63.94-3.78,1.76-5.65,1.05-1.79-.68-2.6-2.49-2.49-4.32.09-1.52.63-3,1.36-4.35-6.1-1.76-12.56-2.62-17.95-1.08-15.34,4.38-21.6,35.06-21.6,35.53l.78,2.82c-.17-8.56,2.69-13.67,5.95-18.31,0,0,7.36,14.56,26.14,10.96,18.78-3.6,28.02-20.35,28.02-20.35,0,0-4.17-2.62-10.15-5.35Z"/>
                <path class="cls-3" d="M134.9,124.74s7.36,14.56,26.14,10.96c18.78-3.6,28.02-20.35,28.02-20.35,0,0-26.83,11.29-54.16,9.39Z"/>
                <path class="cls-39" d="M122.7,295.09s2.38-41.07-13.06-46.98c-6.8-2.6-18.88,2.05-25.08,9.77-7.88,9.82-9.13,23.67-9.13,23.67,0,0,13.43-10.83,26.48-13.98,13.06-3.14,17.45-1.94,17.45-1.94,3.14,5.41,3.06,19.42,3.34,31.64v-2.19Z"/>
                <path class="cls-42" d="M109.79,121.92s-17.25-2.65-22.26-12.25c-5.01-9.6-12.73-49.88-12.73-49.88,0,0,35.89,15.03,37.77,27.13s-2.78,35-2.78,35Z"/>
                <path class="cls-6" d="M109.79,121.92c-5.25-24.01-19.34-43.47-34.99-62.13,0,0,35.89,15.03,37.77,27.13s-2.78,35-2.78,35Z"/>
                <path class="cls-32" d="M121.73,301.57c-.18-.54-6.17-16.89-13.59-17.6-7.43-.72-21.8,2.63-21.8,2.63,0,0,17.31-.12,24.97,3.95s10.42,11.02,10.42,11.02Z"/>
              </g>
              <g>
                <path class="cls-20" d="M122.3,287.15c0,7.71.31,15.29.67,21.6h3.47c-.51-3.95-1.09-9.15-1.66-15.95-2.6-30.69,7.06-126.85,5.9-137.81-1.17-10.96-7.66-63.35-7.66-63.35l-1.77.35s6.88,43.63,7.78,62.57c.9,18.94-6.72,114.19-6.72,132.57Z"/>
                <path class="cls-19" d="M157.05,39.72c-.06.21-.1.43-.16.64-.47,1.67-1.19,4.76-3.17,5.32-1.4.4-2.83-.67-3.67-1.68-.28-.34-.54-.7-.77-1.08-8.68,4.03-17.68,9.89-22.73,18.13-11.9,19.41-3.55,31.3-3.55,31.3,0,0,10.23-3.76,26.29-14.4,16.07-10.64,22.96-42.57,22.96-42.57,0,0-6.72,1.25-15.21,4.34Z"/>
                <path class="cls-10" d="M157.05,39.72c-.06.21-.1.43-.16.64-.47,1.67-1.19,4.76-3.17,5.32-1.4.4-2.83-.67-3.67-1.68-.28-.34-.54-.7-.77-1.08-8.68,4.03-17.68,9.89-22.73,18.13-11.9,19.41-3.55,31.3-3.55,31.3,0,0-1.74-5.1,14.16-24.3,15.9-19.2,35.09-32.67,35.09-32.67,0,0-6.72,1.25-15.21,4.34Z"/>
                <path class="cls-33" d="M121.55,146.4s-11.9-.21-14.82-6.89c-2.92-6.68-5.22-14.19-5.22-14.19,0,0,11.48,2.09,15.23,8.97,3.76,6.89,4.8,12.1,4.8,12.1Z"/>
                <path class="cls-21" d="M131.08,303.84c.12-.42,1.08-10.72,6.65-13.71,5.57-2.99,14.25-5.15,14.25-5.15,0,0-11.86,7.48-15.69,10.9-3.83,3.41-5.21,7.96-5.21,7.96Z"/>
                <path class="cls-34" d="M117.06,80.76s-13.15-15.03-11.9-34.75c1.25-19.72,4.7-46.02,4.7-46.02,0,0,11.58,37.25,10.64,45.39s-3.44,35.37-3.44,35.37Z"/>
                <path class="cls-1" d="M117.06,80.76c-5.6-20.49-7.35-48.72-7.2-80.76,0,0,11.58,37.25,10.64,45.39s-3.44,35.37-3.44,35.37Z"/>
              </g>
              <g>
                <path class="cls-40" d="M126.57,308.76h4.2c.77-17.94,2.26-55.43,2.26-78.88,0-31.72-11.48-92.03-11.48-92.03v6.47s10.43,69.28,10.43,88.69c0,15.48-3.85,58.83-5.41,75.75Z"/>
                <path class="cls-22" d="M98.17,193.56c-17.74-5.63-51.13,2.5-51.13,2.5,0,0,14.15,13.04,27.97,19.58,1.69-1.59,3.68-2.97,5.89-3.62,2.19-.64,5.78-.31,5.87,2.64.04,1.23-.6,2.44-1.2,3.47-.17.3-.35.59-.53.89,1.59.26,3.13.35,4.57.22,15.86-1.46,27.13-6.05,27.13-6.05,3.26,4.05,5.82,9.07,7.72,15.03,0,0-8.56-29.01-26.29-34.64Z"/>
                <path class="cls-35" d="M132.4,229.25s6.47-36.94,19.62-43.62c13.15-6.68,45.91-3.34,45.91-3.34,0,0-10.64,25.25-24,31.72-13.36,6.47-34.43-4.17-34.43-4.17-3.44,4.84-5.75,11.55-6.55,20.74l-.54-1.34Z"/>
                <path class="cls-29" d="M197.93,182.29s-10.64,25.25-24,31.72c-13.36,6.47-34.43-4.17-34.43-4.17,22.79-23.39,58.43-27.55,58.43-27.55Z"/>
                <path class="cls-43" d="M142.42,250.58c13.1-15.24,47.58-1.1,47.58-1.1-30.52,3.29-43.91,9.52-57.13,34.43,0,0-3.55-18.1,9.55-33.34Z"/>
                <path class="cls-18" d="M129.06,190.22s-3.76-22.33-20.87-22.33-29.22,5.84-29.22,5.84c0,0,27.13,20.66,36.73,18.78,9.6-1.88,13.36-2.3,13.36-2.3Z"/>
                <path class="cls-11" d="M129.06,190.22c-13.75-12.77-31.56-15.5-50.09-16.49,0,0,27.13,20.66,36.73,18.78,9.6-1.88,13.36-2.3,13.36-2.3Z"/>
                <path class="cls-24" d="M130.94,262.43c-.21-.83,5.63-24.42-10.85-32.35-16.49-7.93-30.89-4.8-30.89-4.8l41.74,37.15Z"/>
                <path class="cls-29" d="M130.94,262.43c-.21-.83,5.63-24.42-10.85-32.35-16.49-7.93-30.89-4.8-30.89-4.8,22.99,3.21,40.05,12.41,41.74,37.15Z"/>
                <path class="cls-36" d="M121.55,140.55s-4.59-13.56-4.38-20.03,3.13-36.31,3.13-36.31c0,0,16.07,12.73,13.15,24.21-2.92,11.48-12.1,31.09-11.9,32.14Z"/>
                <path class="cls-27" d="M150.14,153.91c-11.06.42-17.32,18.57-17.32,18.57,0,0,12.94,1.67,23.16-.42,3.49-.71,7.34-2.93,10.9-5.54-.01,0-.02-.01-.03-.02-.99-.96-.92-2.44-.18-3.52.42-.61.93-1.14,1.59-1.49.67-.36,1.38-.54,2.14-.61.91-.09,1.92.05,2.79.44,3.78-3.44,6.38-6.36,6.38-6.36,0,0-18.36-1.46-29.43-1.04Z"/>
                <path class="cls-4" d="M132.82,172.48s12.94,1.67,23.16-.42c3.49-.71,7.34-2.93,10.9-5.54-.01,0-.02-.01-.03-.02-.99-.96-.92-2.44-.18-3.52.42-.61.93-1.14,1.59-1.49.67-.36,1.38-.54,2.14-.61.91-.09,1.92.05,2.79.44,3.78-3.44,6.38-6.36,6.38-6.36-18.99,3.1-34.89,8.69-46.75,17.53Z"/>
              </g>
            </g>
          </g>
        </g>
      </g>
    </g>
  </g>
</svg>