<svg id="Layer_1" enable-background="new 0 0 512 512" viewBox="0 0 512 512" xmlns="http://www.w3.org/2000/svg"><path d="m480.235 209.236c-18.979 0-35.289-10.914-42.566-28.483-7.277-17.57-3.462-36.822 9.959-50.243 8.875-8.876 8.875-23.319 0-32.195l-33.942-33.941c-8.875-8.876-23.319-8.876-32.196 0-13.418 13.419-32.67 17.236-50.24 9.958-17.57-7.277-28.484-23.588-28.484-42.567-.002-12.552-10.215-22.765-22.767-22.765h-47.997c-12.553 0-22.766 10.212-22.766 22.765 0 18.979-10.914 35.29-28.484 42.567-17.569 7.278-36.821 3.461-50.241-9.958-8.875-8.876-23.319-8.876-32.196 0l-33.94 33.941c-4.3 4.299-6.668 10.016-6.668 16.098s2.368 11.799 6.667 16.098c13.42 13.42 17.236 32.672 9.958 50.242-7.277 17.569-23.588 28.483-42.566 28.483-12.554 0-22.766 10.212-22.766 22.765v47.998c0 12.553 10.212 22.765 22.765 22.765 18.979 0 35.289 10.914 42.566 28.483 7.278 17.57 3.462 36.822-9.957 50.242-4.3 4.3-6.668 10.017-6.668 16.099s2.368 11.798 6.667 16.098l33.941 33.941c8.875 8.876 23.319 8.876 32.196 0 13.438-13.438 32.693-17.27 50.257-9.996 17.56 7.274 28.468 23.599 28.468 42.605 0 12.552 10.213 22.765 22.766 22.765h47.997c12.553 0 22.766-10.212 22.766-22.765 0-18.979 10.914-35.29 28.484-42.567 17.569-7.278 36.821-3.461 50.241 9.958 8.875 8.876 23.319 8.876 32.196 0l33.941-33.941c8.875-8.876 8.875-23.319 0-32.196-13.421-13.42-17.236-32.672-9.959-50.242 7.277-17.569 23.588-28.483 42.566-28.483 12.553 0 22.765-10.212 22.765-22.765v-47.998c.002-12.554-10.21-22.766-22.763-22.766zm8.765 70.763c0 4.833-3.932 8.765-8.765 8.765-24.749 0-46.016 14.226-55.501 37.126-9.485 22.901-4.507 47.999 12.993 65.499 3.418 3.418 3.418 8.979.001 12.397l-33.941 33.94c-3.42 3.419-8.981 3.417-12.397 0-17.5-17.5-42.597-22.48-65.499-12.993-22.9 9.485-37.126 30.752-37.126 55.501 0 4.833-3.933 8.765-8.766 8.765h-47.997c-4.833 0-8.766-3.932-8.766-8.765 0-24.776-14.22-46.058-37.11-55.539-7.672-3.178-15.588-4.729-23.389-4.729-15.474 0-30.478 6.112-42.125 17.759-3.42 3.419-8.981 3.417-12.397 0l-33.941-33.941c-1.655-1.655-2.566-3.856-2.566-6.198s.911-4.543 2.567-6.199c17.5-17.5 22.478-42.598 12.992-65.499-9.486-22.9-30.753-37.126-55.501-37.126-4.833 0-8.765-3.932-8.765-8.765v-47.998c0-4.833 3.932-8.765 8.765-8.765 24.748 0 46.015-14.226 55.501-37.126 9.485-22.901 4.508-47.999-12.992-65.499-1.655-1.655-2.567-3.857-2.567-6.199 0-2.341.911-4.542 2.567-6.198l33.939-33.941c3.42-3.418 8.981-3.417 12.397 0 17.5 17.5 42.596 22.478 65.499 12.993 22.9-9.485 37.126-30.752 37.126-55.501 0-4.833 3.933-8.765 8.766-8.765h47.997c4.833 0 8.766 3.932 8.766 8.765 0 24.749 14.226 46.016 37.126 55.501 22.901 9.485 47.999 4.507 65.498-12.993 3.42-3.418 8.981-3.417 12.397 0l33.941 33.941c3.418 3.417 3.418 8.979.001 12.396-17.501 17.5-22.479 42.598-12.994 65.499 9.485 22.9 30.752 37.126 55.501 37.126 4.833 0 8.765 3.932 8.765 8.765zm-233-170.965c-39.256 0-76.162 15.287-103.92 43.045-27.759 27.758-43.045 64.664-43.045 103.92 0 81.037 65.929 146.965 146.965 146.965 81.037 0 146.966-65.929 146.966-146.965s-65.929-146.965-146.966-146.965zm-90.526 244.259c16.77-34.609 51.782-56.721 90.53-56.721 38.746 0 73.756 22.11 90.524 56.719-23.756 22.119-55.586 35.673-90.528 35.673-34.941.001-66.771-13.553-90.526-35.671zm191.312-10.662c-19.89-36.798-58.369-60.059-100.783-60.059-42.415 0-80.896 23.261-100.789 60.061-20.045-23.287-32.18-53.569-32.18-86.634-.001-35.517 13.83-68.907 38.944-94.021 25.113-25.114 58.504-38.944 94.021-38.944 73.317 0 132.966 59.648 132.966 132.965 0 33.065-12.134 63.345-32.179 86.632zm-100.783-188.146c-31.275 0-56.721 25.441-56.721 56.713 0 31.276 25.445 56.721 56.721 56.721s56.721-25.445 56.721-56.721c0-31.272-25.445-56.713-56.721-56.713zm0 99.433c-23.557 0-42.721-19.165-42.721-42.721 0-23.552 19.164-42.713 42.721-42.713s42.721 19.161 42.721 42.713c0 23.557-19.164 42.721-42.721 42.721z"/></svg>