<svg id="Layer_1" enable-background="new 0 0 512 512" height="512" viewBox="0 0 512 512" width="512" xmlns="http://www.w3.org/2000/svg"><path d="m473.32 449.19-78.23-135.47 20.65-7.64c10.15-3.73 15.82-14.1 13.5-24.67l-7.55-34.12c-.39-1.75-.04-3.21 1.09-4.58l25.83-31.04c6.9-8.31 6.61-20.12-.68-28.1l-23.6-25.78c-1.2-1.31-1.62-2.76-1.32-4.54l6.83-39.8c1.8-10.49-4.5-20.8-14.64-23.99l-33.28-10.51c-1.74-.56-2.8-1.56-3.43-3.29l-14-37.86c-3.69-10.02-14.3-15.81-24.67-13.47l-34.06 7.53c-1.79.38-3.26.03-4.64-1.11l-31.01-25.8-.02-.02c-8.31-6.85-20.12-6.57-28.11.7l-25.72 23.57c-1.36 1.24-2.76 1.66-4.56 1.34l-39.8-6.83c-10.66-1.82-20.75 4.34-23.98 14.63l-10.55 33.34c-.53 1.69-1.57 2.78-3.24 3.41l-37.88 13.96c-10.15 3.73-15.83 14.11-13.5 24.69l7.55 34.13c.39 1.73.04 3.18-1.09 4.55l-25.81 31.05c-6.81 8.16-6.53 20.25.66 28.11l23.6 25.78c1.2 1.31 1.62 2.74 1.32 4.51l-6.83 39.8c-1.82 10.63 4.33 20.73 14.64 24.01l20.93 6.61-79.04 136.9c-1.62 2.81-1.39 6.31.58 8.88s5.3 3.7 8.43 2.86l61.68-16.55 16.52 61.68c.84 3.13 3.48 5.44 6.69 5.87.35.05.7.07 1.05.07 2.83 0 5.49-1.5 6.93-4l78.82-136.52 22.51 18.71c4.03 3.35 8.87 5.01 13.7 5.01 5.17 0 10.32-1.9 14.43-5.69l21.6-19.77 79.82 138.26c1.44 2.5 4.1 4 6.93 4 .35 0 .7-.02 1.05-.07 3.21-.42 5.85-2.74 6.69-5.87l16.52-61.68 61.68 16.55c3.13.84 6.46-.29 8.43-2.86s2.2-6.07.58-8.88zm-336.96 34.05-13.59-50.74c-.55-2.05-1.89-3.8-3.73-4.86s-4.03-1.35-6.08-.8l-50.74 13.61 70.6-122.3c.26.38.48.81.67 1.3l14 37.9c3.68 9.97 14.28 15.75 24.66 13.46l33.38-7.37zm122.84-105.53c-1.99 1.83-4.96 1.9-7.06.16l-31.02-25.78c-3.93-3.29-8.61-4.99-13.5-4.99-1.58 0-3.19.18-4.79.54l-34.13 7.54c-2.64.58-5.24-.83-6.18-3.38l-14-37.9c-2.34-6.36-7.18-10.96-13.61-12.97l-2.7-.85c-.05-.02-.09-.03-.14-.04l-30.45-9.61c-2.6-.83-4.15-3.37-3.69-6.04l6.83-39.82c1.13-6.67-.76-13.08-5.31-18.02l-23.58-25.76c-1.84-2.01-1.92-4.97-.18-7.05l25.83-31.08c4.31-5.21 5.87-11.7 4.4-18.26l-7.54-34.09c-.59-2.66.84-5.28 3.4-6.22l37.92-13.99c6.34-2.38 10.93-7.22 12.92-13.61l10.55-33.32c.81-2.58 3.34-4.13 6-3.66l39.78 6.83c6.65 1.16 13.06-.72 18.1-5.3l25.72-23.56c2.05-1.87 4.97-1.94 7.11-.18l31.04 25.82c5.18 4.29 11.66 5.86 18.29 4.43l34.13-7.55c2.62-.59 5.21.83 6.15 3.38l13.99 37.85c2.32 6.33 7.14 10.95 13.61 13.02l33.32 10.52c2.58.81 4.12 3.33 3.66 6l-6.84 39.83c-1.12 6.69.77 13.1 5.31 18.04l23.58 25.76c1.83 2 1.91 4.97.18 7.05l-25.84 31.05c-4.31 5.21-5.88 11.72-4.4 18.29l7.54 34.09c.58 2.65-.84 5.25-3.4 6.19l-37.86 14c-6.34 2.34-10.95 7.17-12.97 13.61l-10.51 33.3c-.84 2.63-3.32 4.15-6.04 3.68l-39.83-6.84c-4.25-.71-8.4-.19-12.15 1.47-.17.07-.33.15-.5.23-1.91.91-3.72 2.11-5.36 3.61zm139.84 49.13c-2.05-.55-4.24-.26-6.08.8s-3.18 2.81-3.73 4.86l-13.59 50.74-67.74-117.34 32.22 5.53c10.64 1.82 20.74-4.33 24.01-14.64l10.52-33.31c.53-1.7 1.56-2.78 3.25-3.4l1.97-.73 69.92 121.1zm-29.3-229.27c0-62.72-51.02-113.74-113.74-113.74s-113.74 51.02-113.74 113.74c0 62.73 51.02 113.77 113.74 113.77s113.74-51.04 113.74-113.77zm-113.74 97.75c-53.89 0-97.72-43.85-97.72-97.75 0-53.89 43.84-97.72 97.72-97.72s97.72 43.84 97.72 97.72c0 53.9-43.83 97.75-97.72 97.75zm54.08-132.56c3.13 3.13 3.13 8.2 0 11.32l-58.31 58.31c-1.56 1.56-3.61 2.35-5.66 2.35s-4.1-.78-5.66-2.35l-38.52-38.52c-3.13-3.13-3.13-8.2 0-11.32 3.13-3.13 8.2-3.13 11.33 0l32.86 32.86 52.65-52.65c3.11-3.12 8.18-3.12 11.31 0z"/></svg>