<?xml version="1.0" encoding="UTF-8"?>
<svg xmlns="http://www.w3.org/2000/svg" width="512" height="512" viewBox="0 0 128 128"><g><path d="M111.35,81.186a8.266,8.266,0,0,0-11-.334L83.446,93.81a12.381,12.381,0,0,1-3.152,1.749A7.928,7.928,0,0,0,73.23,84.01H53.146a18.679,18.679,0,0,0-12.712-6.783,16.424,16.424,0,0,0-8.929,1.745V72.445a1.749,1.749,0,0,0-1.75-1.75H15.784a1.749,1.749,0,0,0-1.75,1.75V117.99a1.749,1.749,0,0,0,1.75,1.75H29.755a1.749,1.749,0,0,0,1.75-1.75v-3.631l28.507,5.627a34.337,34.337,0,0,0,29.167-7.668l21.893-18.772A8.307,8.307,0,0,0,111.35,81.186ZM28.005,116.24H17.534V74.195H28.005Zm80.786-25.348L86.9,109.662a30.862,30.862,0,0,1-26.211,6.891l-29.184-5.762V83.1a12.681,12.681,0,0,1,8.638-2.386c2.858.238,7.058,1.5,10.828,6.147a1.749,1.749,0,0,0,1.359.648h20.9a4.43,4.43,0,1,1,0,8.86c-.017,0-.032,0-.049,0H52.322a1.75,1.75,0,0,0,0,3.5l23.548,0a16.045,16.045,0,0,0,9.7-3.281l16.969-13.016a4.811,4.811,0,0,1,6.247,7.319Z"/><path d="M56.142,66.374h7.8a.2.2,0,0,1,.2.2v7.8a3.7,3.7,0,0,0,3.7,3.7h4.11a3.7,3.7,0,0,0,3.7-3.7v-7.8a.2.2,0,0,1,.2-.2h7.8a3.7,3.7,0,0,0,3.7-3.7v-4.11a3.7,3.7,0,0,0-3.7-3.7h-7.8a.2.2,0,0,1-.2-.2v-7.8a3.7,3.7,0,0,0-3.7-3.7H67.84a3.7,3.7,0,0,0-3.7,3.7v7.8a.2.2,0,0,1-.2.2h-7.8a3.7,3.7,0,0,0-3.7,3.7v4.11A3.7,3.7,0,0,0,56.142,66.374Zm-.2-7.809a.2.2,0,0,1,.2-.2h7.8a3.7,3.7,0,0,0,3.7-3.7v-7.8a.2.2,0,0,1,.2-.2h4.11a.2.2,0,0,1,.2.2v7.8a3.7,3.7,0,0,0,3.7,3.7h7.8a.2.2,0,0,1,.2.2v4.11a.2.2,0,0,1-.2.2h-7.8a3.7,3.7,0,0,0-3.7,3.7v7.8a.2.2,0,0,1-.2.2H67.84a.2.2,0,0,1-.2-.2v-7.8a3.7,3.7,0,0,0-3.7-3.7h-7.8a.2.2,0,0,1-.2-.2Z"/><path d="M20.04,43.9h7.8a.2.2,0,0,1,.2.2v7.8a3.7,3.7,0,0,0,3.7,3.7h4.11a3.7,3.7,0,0,0,3.7-3.7V44.1a.2.2,0,0,1,.2-.2h7.8a3.7,3.7,0,0,0,3.7-3.7v-4.11a3.7,3.7,0,0,0-3.7-3.7h-7.8a.2.2,0,0,1-.2-.2V24.4a3.7,3.7,0,0,0-3.7-3.7h-4.11a3.7,3.7,0,0,0-3.7,3.7v7.8a.2.2,0,0,1-.2.2h-7.8a3.7,3.7,0,0,0-3.7,3.7V40.2A3.7,3.7,0,0,0,20.04,43.9Zm-.2-7.808a.2.2,0,0,1,.2-.2h7.8a3.7,3.7,0,0,0,3.7-3.7V24.4a.2.2,0,0,1,.2-.2h4.11a.2.2,0,0,1,.2.2v7.8a3.7,3.7,0,0,0,3.7,3.7h7.8a.2.2,0,0,1,.2.2V40.2a.2.2,0,0,1-.2.2h-7.8a3.7,3.7,0,0,0-3.7,3.7v7.8a.2.2,0,0,1-.2.2h-4.11a.2.2,0,0,1-.2-.2V44.1a3.7,3.7,0,0,0-3.7-3.7h-7.8a.2.2,0,0,1-.2-.2Z"/><path d="M80.454,30.563h7.8a.2.2,0,0,1,.2.2v7.8a3.7,3.7,0,0,0,3.7,3.7h4.11a3.7,3.7,0,0,0,3.7-3.7v-7.8a.2.2,0,0,1,.2-.2h7.8a3.7,3.7,0,0,0,3.7-3.7v-4.11a3.7,3.7,0,0,0-3.7-3.7h-7.8a.2.2,0,0,1-.2-.2v-7.8a3.7,3.7,0,0,0-3.7-3.7h-4.11a3.7,3.7,0,0,0-3.7,3.7v7.8a.2.2,0,0,1-.2.2h-7.8a3.7,3.7,0,0,0-3.7,3.7v4.11A3.7,3.7,0,0,0,80.454,30.563Zm-.2-7.809a.2.2,0,0,1,.2-.2h7.8a3.7,3.7,0,0,0,3.7-3.7v-7.8a.2.2,0,0,1,.2-.2h4.11a.2.2,0,0,1,.2.2v7.8a3.7,3.7,0,0,0,3.7,3.7h7.8a.2.2,0,0,1,.2.2v4.11a.2.2,0,0,1-.2.2h-7.8a3.7,3.7,0,0,0-3.7,3.7v7.8a.2.2,0,0,1-.2.2h-4.11a.2.2,0,0,1-.2-.2v-7.8a3.7,3.7,0,0,0-3.7-3.7h-7.8a.2.2,0,0,1-.2-.2Z"/></g></svg>
