<svg id="Layer_1" viewBox="0 0 24 24" xmlns="http://www.w3.org/2000/svg" data-name="Layer 1"><path d="m23.5 9c-.276 0-.5.224-.5.5v8.854c0 .243-.128.457-.342.571-.215.115-.462.104-.665-.031l-4.215-2.811c-.088-.034-.172-.088-.277-.084h-7c-1.93 0-3.5-1.57-3.5-3.5v-7.999c0-1.93 1.57-3.5 3.5-3.5h4c.276 0 .5-.224.5-.5s-.224-.5-.5-.5h-4c-2.31 0-4.197 1.756-4.449 4h-1.551c-2.482 0-4.501 2.019-4.501 4.5v13.854c0 .608.333 1.166.87 1.453.245.131.512.192.779.192.388 0 .637-.09.913-.273l4.089-2.727h6.849c2.182 0 4.003-1.561 4.412-3.625l3.526 2.351c.276.184.594.276.913.276.267 0 .534-.064.779-.195.537-.287.87-.845.87-1.453v-8.853c0-.276-.224-.5-.5-.5zm-10 11h-7c-.099 0-.195.029-.277.084l-4.215 2.811c-.201.135-.45.146-.665.031-.214-.114-.342-.328-.342-.571v-13.855c0-1.93 1.57-3.5 3.5-3.5h1.5v7.5c0 2.481 2.019 4.5 4.5 4.5h6.449c-.245 1.692-1.691 3-3.449 3zm6.5-12c2.206 0 4-1.794 4-4s-1.794-4-4-4-4 1.794-4 4 1.794 4 4 4zm0-7c1.654 0 3 1.346 3 3s-1.346 3-3 3-3-1.346-3-3 1.346-3 3-3z"/></svg>