<?xml version="1.0"?>
<svg xmlns="http://www.w3.org/2000/svg" id="e1f15133-4409-45b5-837c-57d67c87206d" data-name="line" viewBox="0 0 64 64"><path d="M41.28555,19.13414a1.00088,1.00088,0,0,0,1.00083-1.00083V14.303a1.8665,1.8665,0,0,0-1.96355-1.74657H37.141a1.00084,1.00084,0,0,0,0,2.00167l3.14373.0127v3.56253A1.00087,1.00087,0,0,0,41.28555,19.13414Z"/><path d="M20.02032,13.55724a1.00089,1.00089,0,0,0-1.00083-1.00083H15.83764A1.8665,1.8665,0,0,0,13.8741,14.303v3.83033a1.00083,1.00083,0,0,0,2.00166,0V14.55808h3.14373A1.00089,1.00089,0,0,0,20.02032,13.55724Z"/><path d="M24.7601,50.71361a1.00094,1.00094,0,0,0,.00006,2.00167h6.63436a1.00094,1.00094,0,0,0-.00006-2.00167Z"/><path d="M37.53781,42.17136V38.688a7.12085,7.12085,0,0,0-5.24362-6.88719V30.73894c3.22595-2.64618,3.213-6.88841,2.45529-9.91a1.00111,1.00111,0,0,0-1.91773.57476,8.92888,8.92888,0,0,1,.31776,2.13257c-.3458-.03494-.57982-.08014-.59241-.08259-2.40385-.42174-3.76-3.23364-3.77217-3.25954a1.00675,1.00675,0,0,0-1.89025.23658C26.181,23.49214,24.03989,23.023,23.022,23.073c.24764-4.82146,4.13057-5.14045,4.97569-5.03691a5.356,5.356,0,0,1,2.97165.73444,1.00057,1.00057,0,0,0,1.37956-.31618c1.094-2.14173-4.35658-2.52432-4.2696-2.41894-3.3114-.17019-7.23379,2.06788-7.10093,8.02327.00831,1.73875.40549,4.79036,2.88936,6.71841v1.023A7.12118,7.12118,0,0,0,18.62267,38.688v3.48337A2.82788,2.82788,0,0,0,21.44728,44.996H34.71319A2.82788,2.82788,0,0,0,37.53781,42.17136ZM23.04218,25.07353c1.68078.04655,3.57071-.01692,5.06891-2.26592A6.8103,6.8103,0,0,0,33.033,25.53228C32.01558,32.11875,23.56648,31.63917,23.04218,25.07353Zm7.25035,6.7922v.46053l-2.20789,3.29131-2.21522-3.29229V31.872A5.72534,5.72534,0,0,0,30.29253,31.86573Zm2.63011,8.563a1.00088,1.00088,0,0,0-1.00083,1.00083v1.56478H24.23867V41.42953a1.00094,1.00094,0,0,0-2.00167.00006v1.56472h-.78972a.82361.82361,0,0,1-.82295-.82295V38.688a5.08464,5.08464,0,0,1,3.78941-4.94075l2.671,3.96985v2.12518a1.00094,1.00094,0,0,0,2.00167,0V37.71685l2.66279-3.969a5.08493,5.08493,0,0,1,3.7869,4.94014v3.48337a.82361.82361,0,0,1-.823.82295h-.78972V41.42953A1.00087,1.00087,0,0,0,32.92264,40.4287Z"/><path d="M53.557,45.407a1.00047,1.00047,0,0,0-1.41524,0l-6.51225,6.51273-2.44637-2.44637a1.00092,1.00092,0,0,0-1.41518,1.4153l3.15393,3.15393a1.00643,1.00643,0,0,0,1.41524,0L53.557,46.82219A1.00046,1.00046,0,0,0,53.557,45.407Z"/><path d="M52.43984,51.17933a.9973.9973,0,0,0-1.09026.90261c-1.00511,8.27738-12.9165,7.70324-13.15742-.63346a6.63948,6.63948,0,0,1,9.8669-5.73365,1.00131,1.00131,0,0,0,.98636-1.74168A8.64664,8.64664,0,0,0,46.00285,42.943V9.81585A5.82219,5.82219,0,0,0,40.18747,4H15.96519a5.82219,5.82219,0,0,0-5.81538,5.81587V52.17723a5.82218,5.82218,0,0,0,5.81538,5.81587H34.68436a1.00091,1.00091,0,0,0-.00006-2.00166H15.96519a3.81824,3.81824,0,0,1-3.81372-3.81421V9.81585a3.81823,3.81823,0,0,1,3.81372-3.8142h3.07824l1.17969,2.92528a4.072,4.072,0,0,0,4.36013,2.44,1.00092,1.00092,0,0,0-.00012-2.00161,2.20358,2.20358,0,0,1-2.50153-1.1817l-.88013-2.18193H34.9546l-.87328,2.18a1.88657,1.88657,0,0,1-1.75488,1.1836H28.5137a1.00093,1.00093,0,0,0,.00007,2.00167h3.81267a3.88128,3.88128,0,0,0,3.6114-2.4366l1.17328-2.9287h3.07635a3.81822,3.81822,0,0,1,3.81371,3.8142V42.89052a8.60726,8.60726,0,0,0-7.81069,8.55808c.32907,10.85381,15.80843,11.64627,17.152.82087A1.00086,1.00086,0,0,0,52.43984,51.17933Z"/></svg>
