<svg xmlns="http://www.w3.org/2000/svg" width="77" height="24" viewBox="0 0 77 24"><defs><linearGradient id="a" x1="100%" x2="0%" y1="50%" y2="50%"><stop offset="0%" stop-color="#6200EA"/><stop offset="54.751%" stop-color="#6200EA" stop-opacity=".603"/><stop offset="100%" stop-color="#FFF" stop-opacity="0"/></linearGradient></defs><g fill="none" fill-rule="evenodd"><path fill="#101830" d="M72.672 7.585c0-2.327-1.694-3.965-3.907-3.965-2.183 0-3.878 1.638-3.878 3.965s1.695 3.965 3.878 3.965c2.213 0 3.907-1.638 3.907-3.965zm-11.468 0c0-4.281 3.35-7.585 7.574-7.585C73 0 76.39 3.304 76.39 7.585c0 4.281-3.39 7.585-7.613 7.585-4.224 0-7.574-3.304-7.574-7.585zm-4.957-1.408c0-1.695-.862-2.729-2.413-2.729-1.638 0-2.672 1.091-2.672 3.246v6.746a.613.613 0 01-.157.41l-.929 1.034a.817.817 0 01-.607.27h-1.727a.287.287 0 01-.287-.286v-8.69c0-1.696-.862-2.73-2.413-2.73-1.58 0-2.701 1.091-2.701 3.246v8.174a.287.287 0 01-.287.287h-3.132a.287.287 0 01-.287-.287V.353c0-.14.113-.252.252-.252h3.167c.158 0 .287.128.287.287v1.537C43.145.718 44.496 0 46.335 0c1.781 0 3.103.747 3.908 2.069C51.133.776 52.569 0 54.523 0c3.276 0 5.43 2.327 5.43 5.919v8.949a.287.287 0 01-.287.287h-1.718a.817.817 0 01-.606-.27l-.936-1.035a.613.613 0 01-.159-.411V6.177zM36.712.123c.164-.009.301.123.301.287v3.414a.257.257 0 01-.284.257 2.846 2.846 0 00-.066-.007c-.185-.017-2.063-.154-3.232 1.259-.805.973-.8 2.107-.785 2.44v7.095a.287.287 0 01-.287.287h-3.133a.287.287 0 01-.287-.287V.689c0-.158.129-.287.287-.287h3.133c.158 0 .287.129.287.287v2.184c.705-1.845 2.36-2.665 4.066-2.75zM23.838 6.235c-.46-2.069-2.01-2.902-3.562-2.902-1.983 0-3.333 1.063-3.764 2.902h7.326zm-3.218 5.574c1.33 0 2.414-.517 3.069-1.255a.288.288 0 01.36-.06l2.653 1.53a.288.288 0 01.07.441c-1.51 1.692-3.587 2.705-6.209 2.705-4.827 0-7.873-3.304-7.873-7.585C12.69 3.304 15.765 0 20.276 0c4.252 0 7.269 3.362 7.269 7.585 0 .455-.04.87-.103 1.28a.288.288 0 01-.285.243H16.57c.517 1.896 2.098 2.7 4.051 2.7zm-8.903-1.236c0 3.103-2.7 4.597-5.775 4.597-2.762 0-4.834-1.115-5.909-3.168a.288.288 0 01.114-.385l2.694-1.515a.282.282 0 01.401.13c.457 1 1.386 1.577 2.7 1.577 1.178 0 1.983-.402 1.983-1.236 0-2.097-7.413-.948-7.413-6.005C.512 1.638 3.012 0 5.97 0c2.222 0 4.156.97 5.302 2.782.088.14.04.327-.106.407L8.525 4.63a.29.29 0 01-.383-.103c-.453-.772-1.206-1.223-2.171-1.223-.92 0-1.666.403-1.666 1.178 0 2.126 7.412.805 7.412 6.091z"/><path fill="url(#a)" fill-rule="nonzero" d="M12.69 20.936V18.28c0-.169.138-.306.307-.306h34.981c.087 0 .17.037.228.101l.866.963a.204.204 0 00.304 0l4.116-4.584a.306.306 0 01.456 0l3.095 3.452a.204.204 0 00.152.068h2.44c.168 0 .306.137.306.306v2.656c0 .169-.138.306-.307.306h-3.852a.306.306 0 01-.229-.102l-1.683-1.877a.204.204 0 00-.304 0l-4.111 4.578a.306.306 0 01-.456 0L46.72 21.31a.204.204 0 00-.152-.068H12.997a.306.306 0 01-.307-.306z"/></g></svg>