<svg id="Layer_1" viewBox="0 0 512 512" xmlns="http://www.w3.org/2000/svg" data-name="Layer 1"><path d="m158.456 398.492h-68.184c-7.326 0-13.286-5.96-13.286-13.285v-126.727c0-4.418-3.582-8-8-8s-8 3.582-8 8v104.496c0 10.009-3.712 17.665-10.453 21.557-6.211 3.585-14.342 3.522-20.713-.156-6.978-4.028-10.82-11.629-10.82-21.4v-120.603c0-46.439 37.781-84.221 84.222-84.221h89.046c7.438 0 14.822.982 21.948 2.92 2.154.586 4.314 1.269 6.421 2.027 4.155 1.498 8.74-.654 10.239-4.812 1.499-4.156-.655-8.741-4.812-10.239-2.509-.904-5.082-1.718-7.65-2.416-8.495-2.31-17.292-3.48-26.146-3.48h-24.575c29.473-8.644 51.064-35.91 51.064-68.141 0-39.156-31.856-71.013-71.013-71.013s-71.013 31.856-71.013 71.013c0 32.231 21.592 59.497 51.064 68.141h-24.574c-55.263 0-100.222 44.959-100.222 100.221v120.603c0 15.501 6.859 28.352 18.82 35.257 11.405 6.586 25.474 6.646 36.713.156 1.52-.878 2.955-1.858 4.304-2.935 4.163 11.109 14.891 19.037 27.436 19.037h68.184c4.418 0 8-3.582 8-8s-3.582-8-8-8zm-65.725-324.479c0-30.334 24.679-55.013 55.013-55.013s55.013 24.679 55.013 55.013-24.679 55.013-55.013 55.013-55.013-24.679-55.013-55.013zm207.132 371.733h-55.702c-5.326 0-9.659-4.333-9.659-9.659v-105.14c0-4.418-3.582-8-8-8s-8 3.582-8 8v86.696c0 13.821-8.465 18.725-15.715 18.725-8.16 0-16.395-5.79-16.395-18.725v-100.059c0-37.777 30.735-68.512 68.513-68.512h73.877c8.845 0 17.466 1.684 25.625 5.003 4.092 1.663 8.76-.303 10.425-4.396 1.665-4.092-.303-8.76-4.396-10.425-10.082-4.103-20.732-6.183-31.654-6.183h-12.692c21.195-9.352 36.032-30.555 36.032-55.17 0-33.238-27.041-60.279-60.279-60.279s-60.278 27.041-60.278 60.279c0 24.615 14.838 45.818 36.032 55.17h-12.692c-46.6 0-84.512 37.912-84.512 84.512v100.059c0 22.797 16.296 34.725 32.394 34.725 6.318 0 12.667-1.917 18.008-5.683 4.041 8.876 12.995 15.061 23.366 15.061h55.702c4.418 0 8-3.582 8-8s-3.582-8-8-8zm-52.298-267.843c0-24.416 19.863-44.279 44.278-44.279s44.279 19.863 44.279 44.279-19.863 44.279-44.279 44.279-44.278-19.863-44.278-44.279zm261.434 213.574c0-38.346-31.197-69.543-69.543-69.543h-3.81c14.465-8.784 24.149-24.689 24.149-42.812 0-27.598-22.453-50.051-50.051-50.051s-50.052 22.453-50.052 50.051c0 18.124 9.684 34.028 24.149 42.812h-3.81c-38.346 0-69.543 31.197-69.543 69.543v80.483c0 19.158 14.231 29.496 27.621 29.496 4.817 0 9.658-1.3 13.886-3.857 3.801 6.796 11.07 11.4 19.395 11.4h76.707c8.393 0 15.713-4.681 19.487-11.567.2.123.402.243.607.361 8.432 4.867 18.84 4.908 27.161.104 8.672-5.007 13.646-14.46 13.646-25.938v-80.483zm-99.255-146.406c18.775 0 34.051 15.275 34.051 34.051s-15.275 34.051-34.051 34.051-34.052-15.275-34.052-34.051 15.275-34.051 34.052-34.051zm77.61 238.97c-3.338 1.926-7.719 1.884-11.162-.104-3.798-2.193-5.89-6.446-5.89-11.977v-69.735c0-4.418-3.582-8-8-8s-8 3.582-8 8v84.57c0 3.421-2.783 6.204-6.205 6.204h-76.707c-3.422 0-6.205-2.783-6.205-6.204v-84.57c0-4.418-3.582-8-8-8s-8 3.582-8 8v69.735c0 9.951-5.722 13.496-11.076 13.496-5.784 0-11.621-4.173-11.621-13.496v-80.483c0-29.523 24.02-53.543 53.543-53.543h59.425c29.523 0 53.543 24.02 53.543 53.543v80.483c0 5.771-1.951 9.948-5.645 12.08z"/></svg>