<svg id="glipy" height="512" viewBox="0 0 64 64" width="512" xmlns="http://www.w3.org/2000/svg"><path d="m59.16709 32.02a3.27824 3.27824 0 0 0 -5.66146 1.93056c-3.08083 26.33682-40.58063 25.72668-42.96127-.62025a21.46077 21.46077 0 0 1 19.50511-22.83595 3.25608 3.25608 0 0 0 -.51015-6.49169c-26.47691 1.85046-35.38932 39.20033-11.89307 52.38373 9.00236 4.61119 19.185 4.96126 27.94733.14a28.02811 28.02811 0 0 0 14.40374-22.06579 3.21985 3.21985 0 0 0 -.83023-2.44061z"/><path d="m14.4954 32a17.52383 17.52383 0 0 0 17.5046 17.50459c23.22606-.96027 23.21611-34.049 0-35.00918a17.52379 17.52379 0 0 0 -17.5046 17.50459zm18.50485-12.00315v9.1824a3.03561 3.03561 0 0 1 1.82049 1.82049h6.31165a1.00026 1.00026 0 0 1 0 2.00052h-6.31165a2.99586 2.99586 0 1 1 -3.821-3.821v-9.1824a1.00049 1.00049 0 0 1 2.00051-.00001z"/><path d="m32 33.00026a1.00042 1.00042 0 0 0 0-2.00052 1.00042 1.00042 0 0 0 0 2.00052z"/></svg>