<?xml version="1.0" encoding="UTF-8"?>
<svg xmlns="http://www.w3.org/2000/svg" id="Layer_1" data-name="Layer 1" viewBox="0 0 24 24">
  <path d="m7.5,13c2.481,0,4.5-2.019,4.5-4.5s-2.019-4.5-4.5-4.5-4.5,2.019-4.5,4.5,2.019,4.5,4.5,4.5Zm0-8c1.93,0,3.5,1.57,3.5,3.5s-1.57,3.5-3.5,3.5-3.5-1.57-3.5-3.5,1.57-3.5,3.5-3.5Zm7.5,14.5v4.5h-1v-4.5c0-1.93-1.57-3.5-3.5-3.5h-6c-1.93,0-3.5,1.57-3.5,3.5v4.5H0v-4.5c0-2.481,2.019-4.5,4.5-4.5h6c2.481,0,4.5,2.019,4.5,4.5Zm2.5-10.5c2.481,0,4.5-2.019,4.5-4.5S19.981,0,17.5,0s-4.5,2.019-4.5,4.5,2.019,4.5,4.5,4.5Zm0-8c1.93,0,3.5,1.57,3.5,3.5s-1.57,3.5-3.5,3.5-3.5-1.57-3.5-3.5,1.57-3.5,3.5-3.5Zm6.5,14.5v4.5h-1v-4.5c0-1.93-1.57-3.5-3.5-3.5h-6c-.194,0-.381.027-.566.057.219-.333.409-.686.565-1.057,0,0,0,0,.002,0h6c2.481,0,4.5,2.019,4.5,4.5Z"/>
</svg>
