<?xml version="1.0" encoding="UTF-8"?>
<svg id="Layer_2" data-name="Layer 2" xmlns="http://www.w3.org/2000/svg" xmlns:xlink="http://www.w3.org/1999/xlink" viewBox="0 0 4557.81 2921.79">
  <defs>
    <style>
      .cls-1 {
        opacity: .6;
      }

      .cls-2 {
        fill: url(#linear-gradient-15);
      }

      .cls-3 {
        fill: url(#linear-gradient-13);
      }

      .cls-4 {
        fill: #dd8387;
      }

      .cls-5 {
        fill: #fff7f5;
      }

      .cls-6 {
        fill: #454342;
      }

      .cls-7 {
        fill: url(#linear-gradient-2);
      }

      .cls-8 {
        fill: #d1dbed;
      }

      .cls-9 {
        fill: url(#linear-gradient-10);
      }

      .cls-10 {
        fill: url(#linear-gradient-12);
      }

      .cls-11 {
        opacity: .3;
      }

      .cls-12 {
        fill: #fff;
      }

      .cls-13 {
        fill: #f3ce90;
      }

      .cls-14 {
        fill: #eff7fe;
      }

      .cls-15 {
        fill: #4b4b4b;
      }

      .cls-16 {
        fill: url(#linear-gradient-4);
      }

      .cls-17 {
        fill: #3c3c3c;
      }

      .cls-18 {
        fill: #243354;
      }

      .cls-19 {
        fill: #f19a6d;
      }

      .cls-20 {
        fill: url(#linear-gradient-3);
      }

      .cls-21 {
        fill: url(#linear-gradient-5);
      }

      .cls-22 {
        fill: #f18a8b;
      }

      .cls-23 {
        fill: #ff9f55;
      }

      .cls-24 {
        fill: #2f4171;
      }

      .cls-25 {
        fill: #5b5b5b;
      }

      .cls-26 {
        fill: url(#linear-gradient-8);
      }

      .cls-27 {
        fill: url(#linear-gradient-14);
      }

      .cls-28 {
        fill: #ded7d5;
      }

      .cls-29 {
        opacity: .2;
      }

      .cls-30 {
        fill: #5681bf;
      }

      .cls-31 {
        fill: #ef7c59;
      }

      .cls-32 {
        fill: url(#linear-gradient-17);
      }

      .cls-33 {
        fill: url(#linear-gradient-7);
      }

      .cls-34 {
        fill: url(#linear-gradient-9);
      }

      .cls-35 {
        fill: #ffa35f;
      }

      .cls-36 {
        fill: url(#linear-gradient-11);
      }

      .cls-37 {
        fill: url(#linear-gradient-6);
      }

      .cls-38 {
        fill: #f5b0a6;
      }

      .cls-39 {
        fill: #3d5891;
      }

      .cls-40 {
        fill: #99b1da;
      }

      .cls-41 {
        fill: #4b6a9f;
      }

      .cls-42 {
        fill: #6195c9;
      }

      .cls-43 {
        fill: #1a263a;
      }

      .cls-44 {
        fill: #212121;
      }

      .cls-45 {
        fill: #6cabe0;
      }

      .cls-46 {
        fill: url(#linear-gradient-16);
      }

      .cls-47 {
        fill: url(#linear-gradient);
      }

      .cls-48 {
        opacity: .5;
      }

      .cls-49 {
        fill: #5284fc;
      }

      .cls-50 {
        fill: url(#linear-gradient-18);
      }

      .cls-51 {
        fill: #b5cae8;
      }
    </style>
    <linearGradient id="linear-gradient" x1="-4130.33" y1="1986.13" x2="-4001.23" y2="1986.13" gradientTransform="translate(8058.93)" gradientUnits="userSpaceOnUse">
      <stop offset="0" stop-color="#3076a1"/>
      <stop offset="1" stop-color="#48c9b6"/>
    </linearGradient>
    <linearGradient id="linear-gradient-2" x1="-4030.02" y1="2086.21" x2="-3795.32" y2="2086.21" xlink:href="#linear-gradient"/>
    <linearGradient id="linear-gradient-3" x1="-4009.96" y1="2118.26" x2="-3833.8" y2="2118.26" xlink:href="#linear-gradient"/>
    <linearGradient id="linear-gradient-4" x1="-4222.9" y1="1950.2" x2="-3958.37" y2="1950.2" xlink:href="#linear-gradient"/>
    <linearGradient id="linear-gradient-5" x1="3131.86" y1="2222.31" x2="2986.52" y2="1786.27" gradientTransform="translate(7130.42) rotate(-180) scale(1 -1)" xlink:href="#linear-gradient"/>
    <linearGradient id="linear-gradient-6" x1="3042.79" y1="2379.95" x2="3079.36" y2="2247.53" gradientTransform="translate(7130.42) rotate(-180) scale(1 -1)" gradientUnits="userSpaceOnUse">
      <stop offset="0" stop-color="#c9c4c1"/>
      <stop offset="1" stop-color="#fff6de"/>
    </linearGradient>
    <linearGradient id="linear-gradient-7" x1="2983.3" y1="2261.49" x2="3172.61" y2="2261.49" gradientTransform="translate(7110.89) rotate(-180) scale(1 -1)" xlink:href="#linear-gradient-6"/>
    <linearGradient id="linear-gradient-8" x1="3133.96" y1="2189" x2="3540.59" y2="2189" gradientTransform="translate(455.87 4378) scale(1 -1)" gradientUnits="userSpaceOnUse">
      <stop offset="0" stop-color="#bf7741"/>
      <stop offset="1" stop-color="#d88a51"/>
    </linearGradient>
    <linearGradient id="linear-gradient-9" x1="3337.27" y1="2250.05" x2="3337.27" y2="2137.09" gradientTransform="translate(455.87 4333.38) scale(1 -1)" gradientUnits="userSpaceOnUse">
      <stop offset=".37" stop-color="#734a2b"/>
      <stop offset="1" stop-color="#52351f"/>
    </linearGradient>
    <linearGradient id="linear-gradient-10" x1="242.63" y1="2513.93" x2="242.63" y2="2399.88" gradientUnits="userSpaceOnUse">
      <stop offset="0" stop-color="#ff9f55"/>
      <stop offset="1" stop-color="#ffd255"/>
    </linearGradient>
    <linearGradient id="linear-gradient-11" x1="238.61" y1="2256.77" x2="238.61" y2="2414.65" gradientUnits="userSpaceOnUse">
      <stop offset="0" stop-color="#40d5e6"/>
      <stop offset="1" stop-color="#57f"/>
    </linearGradient>
    <linearGradient id="linear-gradient-12" x1="347.26" y1="2264.35" x2="347.26" y2="2146.31" gradientTransform="translate(694.52 4435.02) rotate(-180)" xlink:href="#linear-gradient-10"/>
    <linearGradient id="linear-gradient-13" x1="212.17" y1="1946.98" x2="212.17" y2="2079.59" xlink:href="#linear-gradient-11"/>
    <linearGradient id="linear-gradient-14" x1="312.26" y1="1881.6" x2="312.26" y2="1987.66" xlink:href="#linear-gradient-11"/>
    <linearGradient id="linear-gradient-15" x1="290.86" y1="2358.64" x2="655.11" y2="2358.64" gradientTransform="matrix(1,0,0,1,0,0)" xlink:href="#linear-gradient-8"/>
    <linearGradient id="linear-gradient-16" x1="472.98" y1="2416.87" x2="472.98" y2="2309.12" gradientTransform="matrix(1,0,0,1,0,0)" xlink:href="#linear-gradient-9"/>
    <linearGradient id="linear-gradient-17" x1="47.12" y1="2410.62" x2="307.41" y2="2410.62" gradientTransform="matrix(1,0,0,1,0,0)" xlink:href="#linear-gradient-8"/>
    <linearGradient id="linear-gradient-18" x1="177.26" y1="2452.23" x2="177.26" y2="2375.24" gradientTransform="matrix(1,0,0,1,0,0)" xlink:href="#linear-gradient-9"/>
  </defs>
  <g id="_10" data-name="10">
    <g>
      <g>
        <path class="cls-41" d="M1307.32,2812.84c694.13,157.52,1828.85,175.11,2594.71-156.49,171.17-74.09,309.44-196.18,413.84-347.73H320.13c254.5,277.51,689.56,436.67,987.19,504.23Z"/>
        <path class="cls-42" d="M4273.61,583.21C3928.56,129.33,3267.5-51.74,2633.62,12.58c-747.96,75.89-957.22,530.98-1442.71,879.79-303.88,218.33-885.8,257.8-1058.69,767.83-71.26,210.22,9.68,399.22,115.69,551.42h4130.83c266.12-476.94,239.32-1175.32-105.12-1628.41Z"/>
        <path class="cls-45" d="M326.55,2306.43h3995.74c20.99-30.46,40.61-62.11,58.84-94.81H250.31c23,33.03,48.56,64.63,76.25,94.81Z"/>
      </g>
      <g>
        <rect class="cls-51" x="2886.28" y="612.89" width="592.51" height="680.87"/>
        <g>
          <rect class="cls-8" x="2921.27" y="652.14" width="240.28" height="276.05"/>
          <rect class="cls-8" x="3203.47" y="652.14" width="240.25" height="276.05"/>
          <rect class="cls-8" x="2921.27" y="978.46" width="240.28" height="276.07"/>
          <rect class="cls-8" x="3203.47" y="978.46" width="240.25" height="276.07"/>
        </g>
        <g class="cls-11">
          <polygon class="cls-12" points="2921.77 844.37 3089.2 652.14 3017.65 652.14 2921.77 762.23 2921.77 844.37"/>
        </g>
        <g class="cls-11">
          <polygon class="cls-12" points="2921.77 1254.53 3443.73 652.14 3357.3 652.14 2921.77 1152.15 2921.77 1254.53"/>
        </g>
      </g>
      <g>
        <rect class="cls-5" x="3440.54" y="1804.37" width="439.23" height="529.24" transform="translate(7320.32 4137.97) rotate(-180)"/>
        <path class="cls-28" d="M3548.76,2166.12s-85.38.43-124.42,24.33c0,0-2.62-12.16,16.21-24.33h108.21Z"/>
        <path class="cls-28" d="M3854.16,2020.26s-398.24,25.86-460.4,63.32c0,0,13.43-44.24,39.61-63.32h420.79Z"/>
        <rect class="cls-5" x="3432.81" y="1899.68" width="462.08" height="120.58" transform="translate(7327.7 3919.94) rotate(-180)"/>
        <path class="cls-28" d="M3637.67,2282.42s-161.33,4.64-223.49,42.1c0,0,9.45-24.6,26.18-42.1h197.31Z"/>
        <rect class="cls-5" x="3424.22" y="2205.92" width="371.91" height="76.51" transform="translate(7220.35 4488.34) rotate(-180)"/>
        <rect class="cls-5" x="3593.5" y="1435.21" width="305.62" height="368.25"/>
        <path class="cls-28" d="M3787.04,1686.92s59.41.3,86.57,16.93c0,0,1.82-8.46-11.28-16.93h-75.3Z"/>
        <path class="cls-28" d="M3611.32,1585.43s277.1,18,320.35,44.06c0,0-9.35-30.78-27.56-44.06h-292.79Z"/>
        <rect class="cls-5" x="3582.98" y="1501.53" width="321.52" height="83.9"/>
        <path class="cls-28" d="M3725.18,1767.85s112.25,3.23,155.51,29.29c0,0-6.57-17.12-18.21-29.29h-137.29Z"/>
        <rect class="cls-5" x="3651.7" y="1714.61" width="258.78" height="53.24"/>
        <path class="cls-28" d="M3606.48,1385.62s-63.62,39.15-119.17,112.22l94.57,38.33s48.63-72.74,110.48-117.17l-85.87-33.38Z"/>
        <path class="cls-28" d="M3624.14,1829.31s-67.55-106.02-198.06-201.34l-77.23,150.76s130.41,84.07,207.79,187.57l67.5-137Z"/>
        <path class="cls-6" d="M3900.86,2321.78h0s0-.03,0-.05v.05Z"/>
        <g>
          <path class="cls-47" d="M4054.85,2214.26c-30-19.81-65.11-157.88-67.2-240.12-1.07-42.13-14.33-59.68-26.03-75.16-11.18-14.8-20.84-27.58-15.22-56.93,10.75-56.09-17.51-80.3-17.8-80.54l3.27-3.5c1.26,1.04,30.7,26.01,19.41,84.87-5.26,27.42,3.41,38.89,14.38,53.41,11.51,15.23,25.84,34.2,26.95,77.74,2.25,88.26,38.14,218.62,65.09,236.42l-2.85,3.81Z"/>
          <path class="cls-7" d="M4066.07,2224.49c-3.87,0-8.08-.42-12.68-1.29-11.56-2.2-19.14-7.92-22.53-17.03-8.09-21.72,10.65-57,25.86-74.01.25-.28,25.71-29.5,22.99-69.99-.46-6.79-1.2-13.07-1.87-18.61-1.91-16.02-3.29-27.6,4.03-35.34,6.46-6.82,18.93-9.77,41.69-9.87,39.92-.18,55.71-15.7,68.39-28.17,5.39-5.3,10.47-10.3,16.66-13.47,19.9-10.2,40.97-11.7,50.11-3.57,4.34,3.86,8.01,11.43.81,25.55-6.57,12.9-15.09,21.07-21.94,27.63-9.21,8.83-15.3,14.66-12.13,26.29.74,2.73,1.6,5.49,2.46,8.25,6.15,19.77,13.13,42.18-22.9,57.38-7.65,3.23-14.61,5.79-20.76,8.06-25.15,9.27-40.33,14.86-57.47,48.84-3.32,6.57-6.25,12.81-9.08,18.84-13.51,28.76-23.73,50.51-51.65,50.51ZM4210.99,1960.8c-5.51,2.82-10.11,7.35-15.45,12.6-13.33,13.11-29.92,29.43-71.96,29.61-20.93.09-32.65,2.65-38.01,8.31-5.86,6.18-4.58,16.89-2.81,31.72.67,5.6,1.43,11.94,1.89,18.84,2.84,42.41-23.04,72.04-24.14,73.28-15.05,16.83-32.1,50.34-24.98,69.48,2.77,7.44,9.11,12.15,18.83,14,33.93,6.44,43.3-13.5,58.82-46.53,2.84-6.06,5.79-12.32,9.13-18.95,17.98-35.64,34.75-41.82,60.14-51.18,6.09-2.25,13-4.79,20.54-7.97,32.09-13.54,26.3-32.14,20.17-51.82-.88-2.82-1.75-5.62-2.51-8.4-3.86-14.17,3.75-21.47,13.4-30.71,6.93-6.65,14.79-14.18,21.01-26.38,3.26-6.39,5.94-15.08.25-20.16-7.5-6.68-26.55-4.84-44.32,4.27h0Z"/>
          <path class="cls-20" d="M4053.92,2251.39l-4.95-.25c.24-4.37,6.49-107.41,50.55-137.57,48.33-33.08,63.57-68.64,70.82-92.5,8.55-28.12,52.08-35.64,53.93-35.94l.86,4.59c-.42.07-42.32,7.32-50.02,32.63-7.46,24.53-23.11,61.06-72.67,94.99-42.17,28.86-48.46,133-48.52,134.05Z"/>
          <path class="cls-16" d="M4057.2,2275.65c-6.21,0-14.46-3.98-25.8-12.32l-.48-.35-.25-.52c-.6-1.25-61.36-125.33-122.89-163.34-37.21-22.99-19.54-49.49-2.45-75.11,13.63-20.43,27.72-41.55,19.46-63.7-10.27-27.54-25.63-44.43-39.18-59.33-23.66-26.01-40.75-44.8-8.39-98.49,24.48-40.61.88-74.73-19.94-104.84-13.25-19.16-24.69-35.71-20.29-50.37,2.53-8.43,10.09-15.38,23.14-21.24h0c3.7-1.66,7.59-1.68,11.56-.06,18.89,7.73,34.68,52.87,36.4,57.93,16.52,20.24,35.48,18.94,52.22,17.79,11.08-.76,20.65-1.42,27.14,4.65,5.98,5.59,8.16,16.33,6.88,33.78-4.19,56.93,28.27,68.09,56.92,77.94,16.59,5.7,32.27,11.09,37.86,24.91,5.65,13.99.02,34.9-17.74,65.83-38.66,67.33-18.52,82.25,2.81,98.05,19.04,14.1,38.73,28.68,16.65,78.57-20.78,46.97-19.8,98.03-19.08,135.31.57,29.5.94,49-9.42,53.84-1.54.72-3.23,1.08-5.11,1.08ZM4034.94,2260c12.27,8.97,20.74,12.46,25.16,10.39,7.56-3.54,7.17-23.86,6.67-49.59-.73-37.69-1.72-89.32,19.46-137.18,20.63-46.63,3.25-59.5-15.15-73.13-22-16.29-44.74-33.14-4.1-103.92,17.02-29.65,22.57-49.34,17.47-61.97-4.78-11.83-18.75-16.63-34.92-22.19-28.79-9.89-64.61-22.21-60.16-82.63,1.16-15.79-.61-25.65-5.43-30.15-4.89-4.57-13-4.02-23.28-3.31-17.19,1.18-38.59,2.65-56.79-19.94l-.26-.32-.13-.39c-.16-.48-16.25-48.27-33.78-55.44-2.62-1.07-5.06-1.08-7.43,0h0c-11.68,5.24-18.38,11.23-20.5,18.3-3.79,12.64,7.09,28.37,19.68,46.58,20.52,29.67,46.06,66.6,20.1,109.68-30.65,50.85-15.34,67.69,7.84,93.17,13.84,15.21,29.52,32.45,40.09,60.82,9.05,24.27-6.35,47.35-19.93,67.71-17.27,25.89-32.19,48.26.97,68.74,61.31,37.88,119.5,154.74,124.42,164.78Z"/>
          <path class="cls-21" d="M4159.42,1733.73c-31.31-10.08-24.81,46.59-38.04,88.53-13.23,41.93-147.19,18.29-90.96,123.3,56.23,105.01-71.11,35.12-33.08,126.75,38.04,91.63,3.31,189.64,44.65,164.71,41.34-24.93,23.23-140.32,66.23-154.03,43-13.71,50.02-29.7,7.44-66.98-42.57-37.27,111.56-74.28,73.52-149.55-38.04-75.27,6.41-121.08-29.77-132.73Z"/>
          <path class="cls-12" d="M4056.41,2231c-3.94-15.69-37.57-153.74-6.19-170.42,27.65-14.71,26.97-71.91,22.66-125.93-3.82-47.82,61.58-70.17,64.36-71.09l1.66,4.39c-.65.22-64.61,22.09-61.07,66.36,4.43,55.48,4.91,114.34-25.16,130.33-23.82,12.67-1.89,123.62,8.57,165.3l-4.83,1.07Z"/>
          <polygon class="cls-37" points="3938.28 2181.85 3982.98 2341.13 4082.88 2341.13 4127.59 2181.85 3938.28 2181.85"/>
          <path class="cls-33" d="M3938.28,2181.85s98.42,17.36,98.42,159.28h46.19s44.7-159.28,44.7-159.28h-189.31Z"/>
        </g>
        <g>
          <g>
            <rect class="cls-26" x="3589.83" y="1998.06" width="406.64" height="381.89" transform="translate(7586.3 4378) rotate(-180)"/>
            <rect class="cls-35" x="3745.88" y="1998.06" width="94.53" height="44.39" transform="translate(7586.3 4040.5) rotate(-180)"/>
          </g>
          <path class="cls-34" d="M3734.12,2141.07h118.05c9.04,0,16.38,7.34,16.38,16.38v18.48c0,9.04-7.34,16.38-16.38,16.38h-118.05c-9.04,0-16.38-7.34-16.38-16.38v-18.48c0-9.04,7.34-16.38,16.38-16.38Z" transform="translate(7586.3 4333.38) rotate(-180)"/>
        </g>
      </g>
      <g>
        <path class="cls-18" d="M2564.53,2636.29c0,52.74-42.75,95.5-95.49,95.5-10.08,0-19.8-1.56-28.92-4.46,49.13-1.76,88.41-42.14,88.41-91.69,0-35.61-20.28-66.47-49.91-81.68l1.04.33,22.9-7.45c36.21,13.57,61.98,48.5,61.98,89.45Z"/>
        <circle class="cls-24" cx="2436.77" cy="2635.64" r="91.75"/>
        <circle class="cls-24" cx="1451.97" cy="2289.4" r="84.93"/>
        <path class="cls-18" d="M1561.55,2289.4c0,46.9-38.03,84.93-84.93,84.93-4.19,0-8.3-.3-12.32-.89,41.06-5.97,72.6-41.32,72.6-84.04s-31.53-78.07-72.6-84.03c4.02-.59,8.13-.89,12.32-.89,46.9,0,84.93,38.02,84.93,84.92Z"/>
        <g>
          <path class="cls-12" d="M2450.47,2544.9c-2.18-.32-4.39-.58-6.62-.74.79-.22,1.59-.42,2.38-.62l4.24,1.36Z"/>
          <path d="M2450.14,2547.07c-2.21-.33-4.38-.57-6.46-.73l-12.63-.93,12.2-3.38c.81-.22,1.63-.43,2.45-.63l.6-.15,4.83,1.55-1,4.27Z"/>
        </g>
        <path class="cls-30" d="M3516.61,2374.8l-859.16,230.01-33.83-15.37-40.59-18.45v-730.62c258.94-289.15,542.67-242.41,714.17-170.67,97.33,40.72,158.52,89.49,158.52,89.49v541.2c54.12,20.3,60.89,74.42,60.89,74.42Z"/>
        <path class="cls-39" d="M3297.21,1669.7c-438.81-138.56-673.58,197.73-673.58,197.73v722.01l-40.59-18.45v-730.62c258.94-289.15,542.67-242.41,714.17-170.67Z"/>
        <path class="cls-40" d="M3516.61,2374.8l-859.16,230.01-33.83-15.37v-79.34l832.1-209.72c54.12,20.3,60.89,74.42,60.89,74.42Z"/>
        <g class="cls-11">
          <path class="cls-8" d="M2623.63,2510.1l832.1-209.72s-317.42,51.35-832.1,209.72Z"/>
        </g>
        <path class="cls-30" d="M2657.46,2604.81l-33.83-15.37v-79.34c47.36,27.06,33.83,94.71,33.83,94.71Z"/>
        <path class="cls-24" d="M3408.37,2412.01c0,50.44-48.46,91.33-108.24,91.33-2.12,0-4.22-.05-6.31-.16-37.33-1.8-69.59-19.58-87.34-45.35l169.69-45.43,31.77-8.51c.28,2.68.42,5.38.42,8.12Z"/>
        <path class="cls-18" d="M3408.37,2412.01c0,50.44-48.46,91.33-108.24,91.33-2.12,0-4.22-.05-6.31-.16,70.32-23.6,81.84-66.76,82.35-90.78l31.77-8.51c.28,2.68.42,5.38.42,8.12Z"/>
        <path class="cls-40" d="M3401.61,1799.78v60.89c-290.9,175.89-662.97,108.24-662.97,108.24v-81.18c365.31-311.19,662.97-87.95,662.97-87.95Z"/>
        <path class="cls-39" d="M3401.61,1799.78v60.89c-290.9,175.89-662.97,108.24-662.97,108.24v-18.88c70.2,6.6,397.62,28.66,602.09-109.65v-54.12s-257.07-162.36-602.09,101.48c365.31-311.19,662.97-87.95,662.97-87.95Z"/>
        <path class="cls-51" d="M2751.15,1697.95c-56.28,34.15-112.76,80.61-168.11,142.42v547.97l-286.09-171.16h0l-32.1-19.21-473.3-283.18-155.6,33.83,25.72-205.87c155.6-20.3,684.6-179.74,684.6-179.74,47.35-13.53,67.65,0,121.77,27.06,52.02,26.01,266.56,102.03,283.12,107.89Z"/>
        <path class="cls-51" d="M2344.13,1563.81s-529.01,159.44-684.6,179.74l-25.72,205.87-331.49-777.98c-.29-1.08-.56-2.15-.8-3.21-.08-.34-.14-.67-.22-1.01-.16-.72-.31-1.44-.45-2.16-.07-.38-.14-.76-.2-1.14-.12-.68-.23-1.35-.33-2.02-.06-.37-.11-.74-.17-1.11-.1-.71-.17-1.42-.25-2.13-.04-.31-.08-.62-.11-.92-.09-1.01-.17-2-.23-2.99v-.12c-.05-.94-.07-1.88-.09-2.81v-.92c0-.67,0-1.32.03-1.98,0-.35.02-.69.04-1.03.03-.62.07-1.24.11-1.86.02-.34.05-.68.08-1.01.05-.65.13-1.31.2-1.95.03-.28.05-.55.09-.82.11-.92.25-1.82.4-2.71.02-.09.04-.18.05-.27.14-.8.29-1.6.46-2.39.06-.29.13-.58.2-.87.14-.59.27-1.18.42-1.76.08-.32.17-.64.25-.95.15-.56.31-1.11.47-1.66.09-.31.18-.62.28-.92.18-.59.38-1.17.57-1.75.08-.26.17-.5.26-.76.29-.81.59-1.62.91-2.43.05-.14.11-.26.17-.4.27-.67.54-1.34.83-1.99.12-.29.25-.56.38-.84.23-.5.47-1.01.71-1.52.14-.3.29-.6.44-.9.24-.48.48-.95.73-1.43.15-.29.31-.59.47-.88.27-.5.55-1.01.83-1.5.14-.25.27-.49.41-.74.42-.71.85-1.43,1.29-2.13.12-.19.24-.37.36-.56.33-.53.67-1.05,1.01-1.56.19-.29.38-.56.57-.83.29-.42.57-.84.87-1.26.2-.29.41-.59.62-.87.29-.4.59-.79.88-1.18.22-.29.43-.57.65-.86.32-.41.64-.81.96-1.22.2-.25.4-.5.6-.75.5-.62,1.01-1.23,1.53-1.83.2-.24.41-.47.62-.71.34-.38.67-.77,1.01-1.15.26-.29.52-.56.78-.85.3-.32.59-.65.89-.96.28-.29.55-.59.83-.87.29-.3.59-.6.89-.9.28-.29.56-.58.85-.86.3-.3.6-.59.89-.88.29-.28.57-.56.86-.83.42-.4.84-.79,1.27-1.18.44-.41.89-.81,1.33-1.22.27-.24.53-.48.8-.71.34-.3.68-.59,1.01-.89.26-.22.52-.44.77-.66.35-.29.7-.59,1.05-.88.24-.2.48-.4.72-.59.37-.3.74-.61,1.11-.9.2-.16.4-.32.59-.47,1.41-1.12,2.82-2.19,4.22-3.22.13-.09.25-.19.38-.28.44-.32.88-.63,1.32-.95.15-.11.31-.21.46-.32.44-.31.89-.62,1.33-.92.12-.09.25-.17.37-.26,10.41-7.14,20.34-12.09,26.7-14.92,3.77-1.69,6.28-2.63,6.91-2.86.02-.02.05-.02.07-.03.02,0,.05-.02.05-.02.02,0,.05-.02.05-.02,0,0,131.18-3.01,275.38-6.2,55.12-1.22,112.15-2.46,164.47-3.57,100.72-2.13,184.02-3.76,202.82-3.76,54.12,0,74.42,47.36,74.42,47.36,33.82,81.18,250.31,466.79,250.31,466.79Z"/>
        <g class="cls-11">
          <path class="cls-30" d="M1888.92,1433.69s-76.86,78.14-187.54,114.13c-110.68,35.99-127.77-74.89-127.77-74.89,0,0-22.1-72.6,14.23-163.1,36.33-90.5,138.35-95.76,138.35-95.76l-8.46-34.43c-51.11-32.5-27.8-74.75-27.8-74.75-23.19-12.12-32.4-36.49-35.68-48.7,55.12-1.22,112.15-2.46,164.47-3.57l70.2,381.07Z"/>
        </g>
        <path class="cls-40" d="M1661.67,1742.74l-25.72,205.87-331.49-777.98c-16.87-61.87,45.75-95.68,67.34-105.32.83,28.77,18.33,55.46,18.33,55.46l271.53,621.97Z"/>
        <path class="cls-8" d="M2751.15,1697.95c-56.28,34.15-112.76,80.61-168.11,142.42v210.71c-55.35,7.49-142.6-4.99-243.02-102.47-69.57-67.54-129.35-105.05-192.28-126.09-71.46-23.9-147-26.57-245.61-27.91-185.47-2.51-240.46-51.87-240.46-51.87,155.6-20.29,684.6-179.74,684.6-179.74,47.36-13.53,67.65,0,121.77,27.06,10.47,5.24,27.53,12.5,48.23,20.81,82.14,32.97,221.66,82.41,234.88,87.08Z"/>
        <g class="cls-11">
          <path class="cls-51" d="M2751.15,1697.95c-56.28,34.15-112.76,80.61-168.11,142.42v210.71c-55.35,7.49-142.6-4.99-243.02-102.47-69.57-67.54-129.35-105.05-192.28-126.09,46.05-91.15,335.85-3.05,390.85-73.72,34.03-43.72,6.3-98-22.32-137.92,82.14,32.97,221.66,82.41,234.88,87.08Z"/>
        </g>
        <path class="cls-18" d="M1343.4,1262.03l-24.5,40.53s0,0,0,.02l-29.5,48.82-54.01-147.12,38.77-35.25,30.3,1.6,38.94,91.4Z"/>
        <path class="cls-30" d="M2583.04,2388.33v132.33l-103.39,33.62.6-54.54,67.03-23.42-777.83-459.44-107.78,16.69-182.39,157.18s.57,59.88-1.15,90.97c-1.73,31.09-28.79,33.4-28.79,33.4-35.7,0-37.24-31.67-37.24-31.67v-123.37l158.54-107.21-25.18-59.59-8.56-20.27,254.64-58.23,791.51,473.55Z"/>
        <polygon class="cls-39" points="2583.04 2388.33 2583.04 2401.62 1796.54 1927.13 1545.46 1993.29 1536.9 1973.02 1791.54 1914.78 2583.04 2388.33"/>
        <path class="cls-39" d="M1682.05,2030.43l-194.42,164.47v97.9c-9.6,36.25-49.58,21.25-50.74,20.81,3.6.96,7.73,1.52,12.45,1.52,0,0,27.06-2.31,28.79-33.4,1.72-31.09,1.15-90.97,1.15-90.97l182.39-157.18,20.39-3.16Z"/>
        <path class="cls-24" d="M2112.53,2219.54c-19.38,17.07-52.73,27.98-79.51,22.31-69.06-14.61-76.33-83.65-76.33-83.65h-425.68l61.24-51.81h328.73l191.56,113.15Z"/>
        <path class="cls-18" d="M2132.86,2231.54c-42.73,37.03-99.84,10.31-99.84,10.31,26.78,5.67,60.13-5.24,79.51-22.31l20.32,12Z"/>
        <polygon class="cls-30" points="2480.25 2499.75 1487.63 2194.9 1487.63 2235.36 2479.65 2554.29 2480.25 2499.75"/>
        <polygon class="cls-39" points="1487.63 2194.9 1502.96 2181.94 2480.25 2478.28 2529.29 2465.71 2547.28 2476.33 2480.25 2499.75 1487.63 2194.9"/>
        <path class="cls-30" d="M2479.65,2554.29v66.29c0,19.43-15.75,35.19-35.19,35.19h0c-19.43,0-35.19-15.75-35.19-35.19v-88.91l70.37,22.62Z"/>
        <path class="cls-13" d="M1987.79,1666.96c-3.02,27.93,36.18,61.78,36.18,61.78,0,0-152.11,46.81-253.51,35.1-101.41-11.7-134.56-138.46-151.18-294.17-16.62-155.7,57.57-193.36,57.57-193.36l86.28-33.59c22.17,10.99,126.74,11.76,135.01-16.07l1.02-.06c56.36,4.55,90.69,15.88,111.27,26.67h0c23.57,12.36,29.13,24.03,29.13,24.03l121.01,230.72,145.7,68.05-239.47,68.34-79.02,22.55Z"/>
        <g class="cls-11">
          <path class="cls-31" d="M2045.27,1400.59h-73.2s-5.52,45.96,12.76,75.69c23.14,37.63,71.24,11.54,71.24,11.54l-28.81-69.03,18.01-18.21Z"/>
        </g>
        <path class="cls-13" d="M2023.71,1727.69s-19.89,6.12-50.07,13.38c-53.3,12.82-138.71,29.19-203.45,21.72-101.41-11.7-134.56-138.46-151.18-294.17-16.62-155.7,57.57-193.36,57.57-193.36,0,0,99.43,156.72,114.95,329.29,0,0,88.91-4.17,150.84-1.58,18.38.77,34.37,2.13,44.97,4.38,0,0-4.55,17.48.18,58.55-3.02,27.93,36.18,61.78,36.18,61.78Z"/>
        <g class="cls-11">
          <path class="cls-19" d="M1665.97,1367.07s-34,120.65,54.35,231.59c0,0-62.79-151.82-54.35-231.59Z"/>
        </g>
        <path class="cls-13" d="M2306.01,1575.01l-36.16,10.32-105.26,30.04-98.05,27.98c.51-45.87-5.3-110.33-11.68-166.31,0-.03,0-.05,0-.07h0c-4.46-39.08-9.19-74.02-12.25-95.6,0-.02,0-.04,0-.05-2.01-14.19-3.29-22.6-3.29-22.6-11.18-55.38-28.86-105.73-29.13-106.51,23.57,12.36,29.13,24.02,29.13,24.02l90.73,172.98s0,0,0,.02l30.28,57.72,145.7,68.05Z"/>
        <g class="cls-11">
          <path class="cls-19" d="M2066.54,1643.36c.51-45.87-5.3-110.33-11.68-166.31,0-.03,0-.05,0-.07h0c-4.46-39.08-9.19-74.02-12.25-95.6.95,5.15,36.34,199.45,60.99,216.09,14.47,9.76,42.42,6.78,61,17.9l-98.05,27.98Z"/>
        </g>
        <g>
          <path class="cls-38" d="M2096.12,1654.9s-.02.01-.02.02t.02,0c.49-.39,10.34-8.16,14.53-4.28.83.77.15,3.19-2,6.68-5.6,9.09-21.16,25.44-45.92,38.72h0c-14.43,7.74-32,14.44-52.53,18.05-11.01-12.42-24.47-31.37-22.66-48.17-.44-3.79-.79-7.37-1.08-10.76-1.96-22.94-.8-36.93.12-43.42,8.9-8.22,28.53-25.89,38.15-28.89,2.3-.73,4.04-.61,4.91.68,5.55,8.16-5.64,27.94-5.92,28.44.96-.59,67.8-41.94,75.35-34.38,1.27,1.27,1.01,3.53-.29,6.39-6.25,13.75-36.64,41.67-38.92,43.75-.04.03-.06.05-.08.07,1.86-1.36,47.35-34.53,52.85-27.73,1.37,1.68.59,4.75-1.36,8.43-5.62,10.55-20.95,26.14-23.36,28.59,2.93-2.49,24-20.22,27.7-16.85,1.39,1.28-.59,5.92-3.74,11.4-5.7,9.91-15.23,22.6-15.74,23.29Z"/>
          <g class="cls-1">
            <path class="cls-22" d="M2062.72,1696.03c-14.43,7.74-32,14.44-52.53,18.05-11.01-12.42-24.47-31.37-22.66-48.17-.44-3.79-.79-7.37-1.08-10.76,12.32,14.73,37.82,38.35,76.27,40.89Z"/>
          </g>
          <g class="cls-1">
            <path class="cls-22" d="M2098.78,1583.94c-12.09.35-71.78,36.86-80.85,34.24-9.91-2.86,1.14-20.77,5.78-29.16,1.45-2.63,1.56-4.66,1.01-6.2,2.3-.73,4.04-.61,4.91.68,5.55,8.16-5.64,27.94-5.92,28.44.96-.59,67.8-41.94,75.35-34.38,1.27,1.27,1.01,3.53-.29,6.39Z"/>
          </g>
          <g class="cls-1">
            <path class="cls-22" d="M2111.27,1608.46c-2.59.67-5.68,1.56-8.73,2.67-6.66,2.43-43.47,23.97-42.79,16.66,0,0,0,0,.03-.02,1.86-1.36,47.35-34.53,52.85-27.73,1.37,1.68.59,4.75-1.36,8.43Z"/>
          </g>
          <g class="cls-1">
            <path class="cls-22" d="M2111.86,1631.62l-41.01,20.15,16.94-14.61s.03-.03.08-.07c0,0,.02-.02.03-.02,2.93-2.49,24-20.22,27.7-16.85,1.39,1.28-.59,5.92-3.74,11.4Z"/>
          </g>
          <g class="cls-1">
            <path class="cls-22" d="M2108.64,1657.31c-3.92-.54-11.07.08-22.11,6.55l9.56-8.94h0s0-.02.02-.02c.49-.39,10.34-8.16,14.53-4.28.83.77.15,3.19-2,6.68Z"/>
          </g>
        </g>
        <g class="cls-29">
          <path class="cls-19" d="M1987.35,1607.36c-46.3-9.82-195.81-2.8-195.81-2.8-6.47-71.96-27.53-141.15-49.89-197.38,18.25,19.38,52.06,50.12,70.41,104.66,11.72,34.83,42.23,60.03,78.66,64.85,33.59,4.45,72.24,13.26,96.62,30.67Z"/>
        </g>
        <g class="cls-11">
          <path class="cls-19" d="M2023.71,1727.69s-19.89,6.12-50.07,13.38c-10.87-12.12-20.39-29.58-28.93-52.34-11.5-30.64-5.98-68.27-2.33-85.75,18.38.77,34.37,2.13,44.97,4.38,0,0-4.55,17.48.18,58.55-3.02,27.93,36.18,61.78,36.18,61.78Z"/>
        </g>
        <g class="cls-11">
          <path class="cls-19" d="M2306.01,1575.01l-36.16,10.32c-40.22-14.06-87.52-44.95-100.36-54.47-15.44-11.44-25.73,8.01-32.99,17.15-7.25,9.15-.17-25.16,5.37-40.76,5.48-15.39-11.37-56.9-11.83-58.02l30.28,57.72,145.7,68.05Z"/>
        </g>
        <g class="cls-11">
          <path class="cls-24" d="M2762.18,2099.84v261.23c0,14.04,12.94,24.51,26.66,21.58l213.92-45.6c13.78-2.94,23.63-15.11,23.63-29.2v-241.81c0-20.66-18.69-36.29-39.03-32.64l-199.61,35.86c-14.81,2.66-25.58,15.54-25.58,30.59Z"/>
        </g>
        <path class="cls-51" d="M2775.85,2099.84v261.23c0,14.04,12.93,24.51,26.66,21.58l213.92-45.6c13.78-2.94,23.63-15.11,23.63-29.2v-241.81c0-20.66-18.69-36.29-39.03-32.64l-199.61,35.86c-14.81,2.66-25.58,15.54-25.58,30.59Z"/>
        <polygon class="cls-12" points="2818.29 2135.07 2818.29 2340.84 2995.81 2300.39 2995.81 2102.46 2818.29 2135.07"/>
        <polygon class="cls-8" points="2851.17 2087.79 2851.17 2102.46 2962.18 2082.06 2962.18 2067.38 2851.17 2087.79"/>
        <g class="cls-11">
          <path class="cls-24" d="M3143.94,2010.66v133.8c0,11.59,10.7,20.22,22.03,17.76l110.78-24.03c8.36-1.81,14.32-9.21,14.32-17.76v-130.13c0-11.35-10.29-19.93-21.46-17.87l-110.78,20.36c-8.63,1.59-14.89,9.1-14.89,17.87Z"/>
        </g>
        <g class="cls-11">
          <path class="cls-24" d="M3067.08,2133.65v133.8c0,11.59,10.7,20.22,22.03,17.76l110.78-24.03c8.36-1.81,14.32-9.21,14.32-17.76v-130.13c0-11.35-10.29-19.93-21.46-17.87l-110.78,20.36c-8.63,1.59-14.89,9.1-14.89,17.87Z"/>
        </g>
        <g class="cls-11">
          <path class="cls-24" d="M3302.7,2150.06v83.94c0,7.27,6.71,12.68,13.82,11.14l69.5-15.08c5.24-1.14,8.98-5.78,8.98-11.14v-81.64c0-7.12-6.46-12.5-13.46-11.21l-69.5,12.78c-5.41.99-9.34,5.71-9.34,11.21Z"/>
        </g>
        <path class="cls-12" d="M3159.13,2020.24v133.8c0,11.59,10.7,20.22,22.03,17.76l110.78-24.03c8.36-1.81,14.32-9.21,14.32-17.76v-130.13c0-11.35-10.29-19.93-21.46-17.87l-110.78,20.36c-8.63,1.59-14.89,9.1-14.89,17.87Z"/>
        <path class="cls-8" d="M3316.07,2160.57v83.94c0,7.27,6.71,12.68,13.82,11.14l69.5-15.08c5.24-1.14,8.98-5.78,8.98-11.14v-81.64c0-7.12-6.46-12.5-13.46-11.21l-69.5,12.78c-5.41.99-9.34,5.71-9.34,11.21Z"/>
        <g class="cls-11">
          <path class="cls-19" d="M1868.66,1298.38s32.66,92.04,39.76,156.76c0,0,9.65-81.49-39.76-156.76Z"/>
        </g>
        <path class="cls-24" d="M1318.91,1302.56s0,0,0,.02l-29.5,48.82-54.01-147.12,38.77-35.25,44.75,133.53Z"/>
        <g>
          <path class="cls-38" d="M1950.66,1050.78s-1.53,21.53-24.16,31.01c0,0,2.1,7.23,3.57,18.14,1.36,9.87,2.19,22.75.55,36.07-3.32,26.61-16.63,54.96-55.9,64.32l4.94,25.15-.07,1.28,23.49-1.43c-8.69,29.26-30.71,76.51-30.71,76.51-18.68-12.59-87.87-48.04-111.2-59.61,0,0-.02,0-.02,0l25.12-9.78-.25-2.28-11.32-68.3s-32.24,4.53-45.91-16.66c-3.94-6.12-6.03-12.07-6.8-17.67h0c-2.78-20.11,11.51-35.57,18.63-37.35,0,0-33.3-22.41-26.32-60.22,6.99-37.8,32.1-58.81,64.8-65.96,0,0-10.31-12.4-15.69-12.06,0,0,16.05-10.05,40.78,4.79,0,0,73.83-41.11,123.59,13.14,0,0,25.87,34.6,22.89,80.92Z"/>
          <g class="cls-1">
            <path class="cls-22" d="M1800.84,1189.99c.57,1.04,27.49,39.18,78.82,35.47l-4.95-25.16s-56.07,8.4-73.88-10.32Z"/>
          </g>
          <path class="cls-22" d="M1757.81,1144.35s12.34-33.26-19.65-33.68c0,0,9.37,3.09,11.04,9.49,0,0-12.2,5.91-5.94,16.31,0,0,1.03-11.93,11.37-9.83,0,0,3.75,6.7,3.18,17.71Z"/>
          <g class="cls-1">
            <path class="cls-22" d="M1782.95,1128.61c1.29,9.88,10.35,16.84,20.23,15.55,9.88-1.29,16.84-10.35,15.55-20.23-1.29-9.88-10.35-16.84-20.23-15.55-9.88,1.29-16.84,10.35-15.55,20.23Z"/>
          </g>
          <g class="cls-1">
            <path class="cls-22" d="M1912.86,1120.29c1.18,9.05,8.88,15.65,17.76,15.7,1.65-13.32.81-26.2-.54-36.06-.55.02-1.11.06-1.67.14-9.87,1.29-16.84,10.34-15.55,20.22Z"/>
          </g>
          <path class="cls-44" d="M1815.48,1101.61c.6,4.58,4.8,7.81,9.38,7.21,4.58-.6,7.81-4.8,7.21-9.38-.6-4.58-4.8-7.81-9.38-7.21-4.58.6-7.81,4.8-7.21,9.38Z"/>
          <path class="cls-44" d="M1884.36,1098.5c.6,4.58,4.8,7.81,9.38,7.21,4.58-.6,7.81-4.8,7.21-9.38-.6-4.58-4.8-7.81-9.38-7.21-4.58.6-7.81,4.8-7.21,9.38Z"/>
          <path class="cls-4" d="M1871.14,1107.62c.62.58,13.75,27.77,2.16,32.96-9.63,4.31-15.68-3.24-16.26-6.47-.59-3.23,4.92-24.66,5.33-25.34.41-.68,2.93-6.69,8.77-1.15Z"/>
          <path class="cls-4" d="M1846.61,1172.44c14.06,1.45,37.14-.71,45.66-6.41.29-.19.56-.39.81-.58,0,0,3.82-2.89-4.89-1.81,0,0-21.62,2.7-38.98.72-8.39-.95-12.68.55-13.22,2.52-.59,2.12,3.1,4.78,10.62,5.55Z"/>
          <path d="M1740.61,1090.17c11.25-3.43,19.02,2.71,25.38,3.95,6.35,1.23,18.01-26.81,18.01-26.81l-.83,13.96c9.3,3.5,36.78-25.74,36.78-25.74.59,17.61-22.58,30.66-22.58,30.66,0,0,8.64,7.42,39.27-1.01,30.64-8.43,23.77-33.17,29.81-44.58,6.03-11.4,18.54-1.83,18.54-1.83,4.26-8.52,26.54-6.12,29.25,10.03,2.7,16.16,12.27,32.99,12.27,32.99,11.78-4.93,17.84-13.12,20.94-19.86,2.86-6.2,3.21-11.15,3.21-11.15l.09-1.46c1.2-23.2-4.77-43.36-10.92-57.57-5.93-13.71-12.04-21.88-12.04-21.88-49.77-54.26-123.6-13.14-123.6-13.14-24.73-14.85-40.77-4.79-40.77-4.79,5.38-.34,15.68,12.06,15.68,12.06-32.7,7.17-57.8,28.17-64.79,65.97-6.99,37.81,26.32,60.21,26.32,60.21Z"/>
          <g class="cls-11">
            <path class="cls-15" d="M1950.74,1049.31l-.09,1.46s-.36,4.95-3.21,11.15c-7.93-.47-20.55-3.68-26-18.39-8.24-22.23-32.39-84.5-97.26-37.27,0,0-39.39-9.17-45.93,13.87-6.54,23.04-4.13,58.67-16.18,63.05,0,0,3.64-17.02-8.72-25.83-8.04-5.73-12.47-24.48-5.78-33.5,0,0-31.44,7.12-6.95,66.3,0,0-18.73-12.6-25.15-34.85h0c-2.14-7.42-2.92-15.92-1.17-25.37,6.99-37.8,32.1-58.8,64.8-65.97,0,0,0,0-.02,0-.4-.5-10.4-12.38-15.67-12.05,0,0,16.05-10.05,40.78,4.8h0s0,0,0,0c1.37-.76,74.28-40.6,123.58,13.15,0,0,6.11,8.17,12.04,21.88,6.15,14.21,12.12,34.38,10.92,57.57Z"/>
          </g>
          <path d="M1927.77,969.86c-49.76-33.04-122.34-13.48-123.58-13.15,1.37-.76,74.28-40.6,123.58,13.15Z"/>
          <path d="M1779.09,963.98c-1.6.36-56.83,27.44-63.63,91.33-2.14-7.41-2.92-15.91-1.17-25.36,6.99-37.8,32.1-58.8,64.8-65.97Z"/>
          <path class="cls-17" d="M1840.01,969.99s-19.51.15-20.35,10.82c0,0-24.88-5.11-33.09,6.75,0,0-2.34-19.49,28.81-14.58,0,0,8.99-16.81,24.63-2.99Z"/>
          <path class="cls-44" d="M1884.65,1072.08c-.97,0-1.93-.35-2.7-1.05-1.63-1.49-1.74-4.02-.25-5.65,5.27-5.76,10.91-8.49,16.75-8.14,8.83.54,14.37,8.17,14.6,8.5,1.28,1.8.86,4.3-.93,5.58-1.79,1.28-4.28.87-5.57-.92-.09-.13-3.67-4.9-8.63-5.17-3.3-.17-6.77,1.69-10.32,5.56-.79.86-1.87,1.3-2.95,1.3Z"/>
          <path class="cls-44" d="M1809.86,1075.18c-1.04,0-2.09-.41-2.87-1.22-1.54-1.59-1.5-4.12.09-5.66,11.3-10.95,28.79-6.34,29.53-6.14,2.13.58,3.39,2.78,2.81,4.91-.58,2.13-2.78,3.39-4.9,2.81-.26-.07-13.89-3.55-21.86,4.17-.78.75-1.78,1.13-2.78,1.13Z"/>
        </g>
        <g class="cls-1">
          <path class="cls-22" d="M1903.07,1225.31c-8.69,29.26-30.71,76.51-30.71,76.51-18.68-12.59-87.87-48.04-111.2-59.61,1.13.44,82.98,36.82,99.46,38.85,19.56,2.41,42.45-55.75,42.45-55.75Z"/>
        </g>
        <path class="cls-30" d="M1274.16,1377.09l262.74,595.92,99.05-24.41,99.54-173.84s9.34-10.05,4.61-30.91c-4.73-20.86-70.88-208.94-70.88-208.94l-306.78-270.68c-7.55-6.66-19.29-4.78-24.38,3.9l-63.9,108.95Z"/>
        <path class="cls-39" d="M1755.58,1774.76l-93.91,168.25-25.72,5.59,99.54-173.85s9.34-10.04,4.62-30.91c-4.73-20.86-70.89-208.93-70.89-208.93l-306.77-270.68c-7.55-6.66-19.3-4.78-24.38,3.9,13.52-23.06,38.4-14.3,38.4-14.3l310.52,274.95s67.6,190.07,72.68,211.93c5.08,21.86-4.07,34.04-4.07,34.04Z"/>
        <path class="cls-40" d="M1518.48,1536.92l-32.86,35.18c-2.29,2.45-4.82,4.48-7.5,6.11-16.92,10.25-40.14,4.37-49.43-14.6l-58.26-119.06c-13.64-33.09,22.75-62.25,51.26-46.08,2.26,1.29,4.48,2.85,6.61,4.73l87.35,76.72c16.86,14.8,18.13,40.61,2.83,57.01Z"/>
        <path class="cls-40" d="M1641.02,1771.98l-34.89,49.41c-4.89,6.92-11.3,11.66-18.3,14.32-19.42,7.38-43.33-1.2-51.67-23.2l-50.12-132.26c-5.37-14.19-1.74-30.22,9.22-40.71l44.35-42.4c8.97-8.58,20.54-11.99,31.58-10.85,13.61,1.39,26.4,9.69,32.52,23.72l43.63,99.93c8.89,20.36,6.49,43.89-6.32,62.04Z"/>
        <path class="cls-39" d="M1478.12,1578.21c-16.92,10.25-40.14,4.37-49.43-14.6l-58.26-119.06c-13.64-33.09,22.75-62.25,51.26-46.08-6.75,1.37-14.76,4.19-15.88,10.02l72.32,169.73Z"/>
        <path class="cls-39" d="M1587.84,1835.72c-19.42,7.38-43.33-1.2-51.67-23.2l-50.12-132.26c-5.37-14.19-1.74-30.22,9.22-40.71l44.35-42.4c8.97-8.58,20.54-11.99,31.58-10.85l-62.59,63.46,79.23,185.95Z"/>
        <path class="cls-30" d="M2488.33,2165.09l-223.49,32.87-473.3-283.18s47.36-108.24,67.65-155.6c20.3-47.35,74.42-33.82,74.42-33.82,0,0,189.42,33.82,223.25,40.59,33.82,6.76,54.12,20.3,54.12,20.3l270.6,230.01c27.06,20.3,40.59,47.35,40.59,47.35,27.06,74.42-33.82,101.48-33.82,101.48Z"/>
        <path class="cls-39" d="M2555.98,2131.26c-10.38,41.51-40.59,47.36-40.59,47.36l-218.44,38.55h0l-32.1-19.21,223.49-32.87s60.89-27.06,33.83-101.48c0,0-9.54-19.09-28.62-37.22,69.21,45.6,69.06,78.46,62.45,104.87Z"/>
        <path class="cls-40" d="M2364.21,2084.74l-86.36,30.4-9.14,3.22-114.16-85.36c-10.76-8.05-4.8-29.35-4.8-29.35,0,0,10.13-37.34,25.61-80.02,15.47-42.68,56.55-13.87,56.55-13.87l3.3,2.84,139.67,120.39c19.74,31.47-10.67,51.74-10.67,51.74Z"/>
        <path class="cls-39" d="M2277.85,2115.13l-9.14,3.22-114.16-85.36c-10.76-8.05-4.8-29.35-4.8-29.35,0,0,10.13-37.34,25.61-80.02,15.47-42.68,56.55-13.87,56.55-13.87l3.3,2.84c-11.18,1.77-25.96,7.53-32.95,24.99-12.03,30.09-23.6,80.08-23.6,80.08,0,0-4.63,18.51,8.33,30.08,11.14,9.94,73.51,54.92,90.87,67.39Z"/>
        <path class="cls-40" d="M2140.64,1878.79s-10.76,51.44-25.26,87.45c-14.5,36.01-46.77,21.98-46.77,21.98l-150.03-75.26s0,0-.02,0l-25.33-12.7c-27.12-16.89-17.31-38.97-17.31-38.97,0,0,8.89-36.73,26.2-66.66,17.3-29.93,41.63-17.3,41.63-17.3,0,0,151.06,54.71,178.18,67.81,27.13,13.09,18.71,33.67,18.71,33.67Z"/>
        <path class="cls-39" d="M2121.93,1845.11l-161.43-55.47s-19.73-.79-29.99,17.75c-10.26,18.55-25.26,66.3-25.26,66.3,0,0-6.9,25.25,13.32,39.26l-25.33-12.7c-27.12-16.89-17.31-38.97-17.31-38.97,0,0,8.89-36.73,26.2-66.66,17.3-29.93,41.63-17.3,41.63-17.3,0,0,151.06,54.71,178.18,67.81Z"/>
        <path class="cls-40" d="M3085.56,2139.43v133.8c0,11.59,10.7,20.22,22.03,17.76l110.78-24.03c8.36-1.81,14.32-9.21,14.32-17.76v-130.13c0-11.35-10.29-19.93-21.46-17.87l-110.78,20.36c-8.63,1.59-14.89,9.1-14.89,17.87Z"/>
        <g class="cls-1">
          <path class="cls-22" d="M1774.69,1161.84s-32.24,4.53-45.91-16.66c-3.94-6.12-6.03-12.07-6.8-17.67,14.56,41.5,51.23,23.16,51.23,23.16l1.48,11.17Z"/>
        </g>
        <path class="cls-19" d="M2056.07,1487.83c-16.21,6.07-83.31,11.55-75.32-80.65l64.52-6.58c2.82,20.68,6.28,47.39,9.58,76.38h0s0,.05,0,.07c.41,3.56.81,7.16,1.21,10.78Z"/>
        <g class="cls-11">
          <path class="cls-31" d="M2045.65,1426.88c1.43-1.25-42.23.94-63.19,6.57,0,0,53.18,2.19,63.19-6.57Z"/>
        </g>
      </g>
      <g>
        <g>
          <g>
            <g>
              <path class="cls-43" d="M1064.57,2378.92c0,16.64,13.49,30.14,30.14,30.14s30.14-13.49,30.14-30.14-13.49-30.14-30.14-30.14-30.14,13.49-30.14,30.14Z"/>
              <path class="cls-24" d="M1077.13,2378.92c0,9.71,7.87,17.58,17.58,17.58s17.58-7.87,17.58-17.58-7.87-17.58-17.58-17.58-17.58,7.87-17.58,17.58Z"/>
              <g>
                <path class="cls-25" d="M1083.03,2310.66h23.36c5.63,0,10.24,4.61,10.24,10.24s-4.61,10.24-10.24,10.24h-1.33v48.7c0,5.69-4.66,10.35-10.35,10.35s-10.35-4.66-10.35-10.35v-48.7h-1.33c-5.63,0-10.24-4.61-10.24-10.24s4.61-10.24,10.24-10.24Z"/>
                <g>
                  <path class="cls-12" d="M1088.32,2378.92c0,3.53,2.86,6.39,6.39,6.39s6.39-2.86,6.39-6.39-2.86-6.39-6.39-6.39-6.39,2.86-6.39,6.39Z"/>
                  <path d="M1094.71,2387.52c-4.74,0-8.59-3.85-8.59-8.59s3.85-8.59,8.59-8.59,8.59,3.85,8.59,8.59-3.85,8.59-8.59,8.59ZM1094.71,2374.73c-2.31,0-4.19,1.88-4.19,4.19s1.88,4.19,4.19,4.19,4.19-1.88,4.19-4.19-1.88-4.19-4.19-4.19Z"/>
                </g>
              </g>
            </g>
            <g>
              <path class="cls-43" d="M1124.85,2428.12c0,16.64-13.49,30.14-30.14,30.14s-30.14-13.49-30.14-30.14,13.49-30.14,30.14-30.14,30.14,13.49,30.14,30.14Z"/>
              <path class="cls-24" d="M1112.29,2428.12c0,9.71-7.87,17.58-17.58,17.58s-17.58-7.87-17.58-17.58,7.87-17.58,17.58-17.58,17.58,7.87,17.58,17.58Z"/>
              <g>
                <path class="cls-39" d="M1106.39,2359.86h-23.36c-5.63,0-10.24,4.61-10.24,10.24s4.61,10.24,10.24,10.24h1.33v48.7c0,5.69,4.66,10.35,10.35,10.35s10.35-4.66,10.35-10.35v-48.7h1.33c5.63,0,10.24-4.61,10.24-10.24s-4.61-10.24-10.24-10.24Z"/>
                <path class="cls-12" d="M1101.1,2428.12c0,3.53-2.86,6.39-6.39,6.39s-6.39-2.86-6.39-6.39,2.86-6.39,6.39-6.39,6.39,2.86,6.39,6.39Z"/>
              </g>
            </g>
            <g>
              <path class="cls-43" d="M1336.7,2378.92c0,16.64-13.49,30.14-30.14,30.14s-30.14-13.49-30.14-30.14,13.49-30.14,30.14-30.14,30.14,13.49,30.14,30.14Z"/>
              <path class="cls-24" d="M1324.15,2378.92c0,9.71-7.87,17.58-17.58,17.58s-17.58-7.87-17.58-17.58,7.87-17.58,17.58-17.58,17.58,7.87,17.58,17.58Z"/>
              <g>
                <path class="cls-25" d="M1318.25,2310.66h-23.36c-5.63,0-10.24,4.61-10.24,10.24s4.61,10.24,10.24,10.24h1.33v48.7c0,5.69,4.66,10.35,10.35,10.35s10.35-4.66,10.35-10.35v-48.7h1.33c5.63,0,10.24-4.61,10.24-10.24s-4.61-10.24-10.24-10.24Z"/>
                <g>
                  <path class="cls-12" d="M1312.96,2378.92c0,3.53-2.86,6.39-6.39,6.39s-6.39-2.86-6.39-6.39,2.86-6.39,6.39-6.39,6.39,2.86,6.39,6.39Z"/>
                  <path d="M1306.57,2387.52c-4.74,0-8.59-3.85-8.59-8.59s3.85-8.59,8.59-8.59,8.59,3.85,8.59,8.59-3.85,8.59-8.59,8.59ZM1306.57,2374.73c-2.31,0-4.19,1.88-4.19,4.19s1.88,4.19,4.19,4.19,4.19-1.88,4.19-4.19-1.88-4.19-4.19-4.19Z"/>
                </g>
              </g>
            </g>
            <g>
              <path class="cls-43" d="M1276.43,2428.12c0,16.64,13.49,30.14,30.14,30.14s30.14-13.49,30.14-30.14-13.49-30.14-30.14-30.14-30.14,13.49-30.14,30.14Z"/>
              <path class="cls-24" d="M1288.99,2428.12c0,9.71,7.87,17.58,17.58,17.58s17.58-7.87,17.58-17.58-7.87-17.58-17.58-17.58-17.58,7.87-17.58,17.58Z"/>
              <g>
                <path class="cls-39" d="M1294.89,2359.86h23.36c5.63,0,10.24,4.61,10.24,10.24s-4.61,10.24-10.24,10.24h-1.33v48.7c0,5.69-4.66,10.35-10.35,10.35s-10.35-4.66-10.35-10.35v-48.7h-1.33c-5.63,0-10.24-4.61-10.24-10.24s4.61-10.24,10.24-10.24Z"/>
                <path class="cls-12" d="M1300.18,2428.12c0,3.53,2.86,6.39,6.39,6.39s6.39-2.86,6.39-6.39-2.86-6.39-6.39-6.39-6.39,2.86-6.39,6.39Z"/>
              </g>
            </g>
            <g>
              <path class="cls-18" d="M1322.45,2339.21c5.04-5.18,8.26-12.12,8.26-19.27,0-13.05-10.67-21.98-23.72-19.86l-106.35,17.31,112.34,18.28c3.36.55,6.56,1.79,9.47,3.54Z"/>
              <path class="cls-18" d="M1200.64,2317.39l-106.35-17.31c-13.05-2.12-23.72,6.81-23.72,19.86,0,7.15,3.22,14.09,8.26,19.27,2.91-1.75,6.11-2.99,9.47-3.54l112.34-18.28Z"/>
              <path class="cls-24" d="M1322.45,2339.21c-2.91-1.75-6.11-2.99-9.47-3.54l-112.34-18.28-112.34,18.28c-3.36.55-6.57,1.79-9.47,3.54-8.37,5.04-14.25,14.36-14.25,24.04h0c0,13.05,10.67,21.98,23.72,19.86l112.34-18.28,112.34,18.28c13.05,2.12,23.72-6.81,23.72-19.86h0c0-9.68-5.89-19.01-14.25-24.04Z"/>
              <g class="cls-48">
                <path class="cls-18" d="M1312.98,2365.49l-112.34-18.28-112.34,18.28c-9.91,1.61-18.44-3.17-21.97-11.27-1.09,2.89-1.75,5.93-1.75,9.03h0c0,13.05,10.67,21.98,23.72,19.86l112.34-18.28,112.34,18.28c13.05,2.12,23.72-6.81,23.72-19.86h0c0-3.1-.66-6.14-1.75-9.03-3.53,8.1-12.06,12.88-21.97,11.27Z"/>
              </g>
            </g>
          </g>
          <path class="cls-39" d="M1200.64,2332.4c-11.86,0-21.47-9.61-21.47-21.47V740.44c0-11.86,9.61-21.47,21.47-21.47h332.64c11.86,0,21.47,9.61,21.47,21.47s-9.61,21.47-21.47,21.47h-311.17v1549.02c0,11.86-9.61,21.47-21.47,21.47Z"/>
          <path class="cls-30" d="M1218.85,739.77c-11.86,0-21.47,9.61-21.47,21.47v1570.49c0,.12.03.23.04.35,1.06.16,2.12.33,3.22.33,11.86,0,21.47-9.61,21.47-21.47V761.91h311.17c11.86,0,21.47-9.61,21.47-21.47,0-.12-.03-.23-.03-.35-1.06-.16-2.12-.32-3.22-.32h-332.64Z"/>
        </g>
        <path class="cls-18" d="M1388.67,2002.27c-14.58,0-29.17-3.9-43.11-11.84-30.17-17.19-52.93-50.85-64.09-94.79-12.55-49.43-9.52-108.58,8.74-171.05,17.91-61.28,71.42-89.6,163.57-86.59,17.67.58,36.15,2.25,55.21,4.77,1.71-47.73,2.59-100.42,2.63-157.92.13-206.86-10.91-404.47-11.02-406.44-.12-2.2,1.56-4.09,3.77-4.22,2.2-.12,4.09,1.56,4.22,3.77.11,1.97,11.16,199.78,11.03,406.87-.04,58.1-.91,111.12-2.61,159.04,64.54,9.23,135.38,27.56,204.46,45.43,113.44,29.35,220.6,57.08,266.07,32.87,13.74-7.32,26.14-16.67,36.84-27.8,1.53-1.59,4.06-1.64,5.66-.11,1.59,1.53,1.64,4.06.11,5.66-11.29,11.74-24.36,21.6-38.85,29.32-22.19,11.82-57.49,13.33-111.08,4.76-47.08-7.53-102.29-21.82-160.75-36.95-67.56-17.48-138.5-35.84-202.76-45.11-6.73,177.26-25.11,282.91-54.87,314.79-21.89,23.44-47.5,35.54-73.17,35.54ZM1440.74,1645.79c-71.05,0-125.17,20.57-142.84,81.04-27.43,93.83-22.97,214.16,51.63,256.65,35.04,19.96,74.84,11.66,106.47-22.21,28.16-30.16,46.05-136.42,52.7-310.45-23.82-3.18-46.65-5.03-67.95-5.03Z"/>
        <g>
          <g>
            <g>
              <path class="cls-51" d="M1478.45,813.65h58.86c31.76,0,57.55,25.79,57.55,57.55v120.52c0,31.76-25.79,57.55-57.55,57.55h-58.86c-31.76,0-57.55-25.79-57.55-57.55v-120.52c0-31.76,25.79-57.55,57.55-57.55Z"/>
              <path class="cls-8" d="M1580.24,876.32c0-23.58-19.29-42.87-42.87-42.87h-58.98c-23.58,0-42.87,19.29-42.87,42.87v52.81h144.71v-52.81Z"/>
              <g class="cls-1">
                <path class="cls-30" d="M1435.52,929.13v57.47c0,23.58,19.29,42.87,42.87,42.87h58.98c23.58,0,42.87-19.29,42.87-42.87v-57.47h-144.71Z"/>
              </g>
              <g class="cls-11">
                <path class="cls-12" d="M1584.2,984.72h-70.9c-28.34,0-51.53-23.19-51.53-51.53v-118.41c-23.27,4.95-40.87,25.71-40.87,50.4v132.56c0,28.34,23.19,51.53,51.53,51.53h70.9c28.34,0,51.53-23.19,51.53-51.53v-14.15c-3.44.73-7.01,1.13-10.66,1.13Z"/>
              </g>
              <path class="cls-18" d="M1504.59,1093.58h0c-5.43,0-9.87-4.44-9.87-9.87v-36.09c0-5.43,4.44-9.87,9.87-9.87h0c5.43,0,9.87,4.44,9.87,9.87v36.09c0,5.43-4.44,9.87-9.87,9.87Z"/>
            </g>
            <g class="cls-11">
              <path class="cls-12" d="M1552.56,895.04h0c-4.7,0-8.54-3.84-8.54-8.54v-31.22c0-4.7,3.84-8.54,8.54-8.54h0c4.7,0,8.54,3.84,8.54,8.54v31.22c0,4.7-3.84,8.54-8.54,8.54Z"/>
            </g>
            <g class="cls-11">
              <path class="cls-12" d="M1551.51,915.13h0c-4.12,0-7.49-3.37-7.49-7.49h0c0-4.12,3.37-7.49,7.49-7.49h0c4.12,0,7.49,3.37,7.49,7.49h0c0,4.12-3.37,7.49-7.49,7.49Z"/>
            </g>
          </g>
          <g class="cls-11">
            <circle class="cls-12" cx="1496.48" cy="947.04" r="8.45" transform="translate(-231.35 1335.55) rotate(-45)"/>
            <circle class="cls-12" cx="1540.77" cy="955.49" r="13.19" transform="translate(-248.37 662.36) rotate(-22.5)"/>
          </g>
          <path class="cls-40" d="M1510.03,829.4h0c-6.63,0-12.06-5.43-12.06-12.06v-43.45c0-6.63,5.43-12.06,12.06-12.06h0c6.63,0,12.06,5.43,12.06,12.06v43.45c0,6.63-5.43,12.06-12.06,12.06Z"/>
        </g>
      </g>
    </g>
    <g>
      <rect class="cls-5" x="608.76" y="1991.77" width="393.44" height="504.8"/>
      <path class="cls-28" d="M905.27,2336.81s76.48.41,111.45,23.2c0,0,2.35-11.6-14.52-23.2h-96.93Z"/>
      <rect class="cls-5" x="595.22" y="2082.68" width="413.91" height="115.01"/>
      <path class="cls-28" d="M825.63,2447.75s144.51,4.42,200.19,40.15c0,0-8.46-23.46-23.45-40.15h-176.75Z"/>
      <rect class="cls-5" x="683.69" y="2374.77" width="333.14" height="72.97"/>
      <rect class="cls-5" x="919.45" y="1968.68" width="92.06" height="118.11"/>
      <path class="cls-28" d="M988.82,2049.41s17.89.1,26.08,5.43c0,0,.55-2.71-3.4-5.43h-22.68Z"/>
      <path class="cls-28" d="M924.82,2016.86s83.46,5.77,96.49,14.13c0,0-2.82-9.87-8.3-14.13h-88.19Z"/>
      <rect class="cls-5" x="916.28" y="1989.95" width="96.84" height="26.91"/>
      <path class="cls-28" d="M970.19,2075.36s33.81,1.04,46.84,9.39c0,0-1.98-5.49-5.49-9.39h-41.35Z"/>
      <rect class="cls-5" x="936.98" y="2058.29" width="77.95" height="17.07"/>
      <polygon class="cls-28" points="1002.21 2197.69 785.34 2198.64 1002.21 2238.88 1002.21 2197.69"/>
      <path class="cls-28" d="M802.18,2365.19h-193.42l-21.15,27.58s26.45-10.82,214.56-27.58Z"/>
      <g>
        <path class="cls-9" d="M57.84,2417.02h400.57v106.34H57.85c-17.11,0-31-13.89-31-31v-44.34c0-17.11,13.89-31,31-31Z"/>
        <path class="cls-23" d="M527.5,2427.97v84.45h7.05v10.95H243c-16.21,0-29.35-13.14-29.35-29.35v-47.65c0-16.21,13.14-29.35,29.35-29.35h291.55v10.95h-7.05Z"/>
        <path class="cls-14" d="M266.18,2427.97h261.31v84.45h-261.31c-17.11,0-31-13.89-31-31v-22.45c0-17.11,13.89-31,31-31Z"/>
        <path class="cls-36" d="M38.95,2293.34h438.26v123.67H38.96C17.46,2417.02,0,2399.56,0,2378.06v-45.76C0,2310.8,17.45,2293.34,38.95,2293.34Z"/>
        <path class="cls-49" d="M555.32,2306.08v98.22h6.08v12.73h-239.49c-20.37,0-36.88-16.51-36.88-36.88v-49.92c0-20.37,16.51-36.88,36.88-36.88h239.49v12.73h-6.08Z"/>
        <path class="cls-14" d="M342.52,2306.07h212.8v98.22h-212.8c-21.5,0-38.95-17.45-38.95-38.95v-20.31c0-21.5,17.46-38.96,38.96-38.96Z"/>
        <path class="cls-10" d="M202.13,2141.7h332.42v151.62H202.13c-23.27,0-42.16-18.89-42.16-42.16v-67.31c0-23.27,18.89-42.16,42.16-42.16Z" transform="translate(694.52 4435.02) rotate(180)"/>
        <path class="cls-23" d="M100.01,2157.31v120.41h-6.12v15.61h238.61c22.04,0,39.91-17.87,39.91-39.91v-71.81c0-22.04-17.87-39.91-39.91-39.91H93.89v15.61h6.12Z"/>
        <path class="cls-14" d="M141.93,2157.3h208.77v120.41h-208.77c-23.13,0-41.9-18.78-41.9-41.9v-36.6c0-23.13,18.78-41.91,41.91-41.91Z" transform="translate(450.71 4435.02) rotate(180)"/>
        <path class="cls-3" d="M58.08,1990.04h352.51v151.62H58.07c-24.46,0-44.32-19.86-44.32-44.32v-62.98c0-24.46,19.86-44.32,44.32-44.32Z"/>
        <path class="cls-49" d="M474.1,2005.65v120.41h6.49v15.61h-253.1c-23.17,0-41.96-18.79-41.96-41.96v-67.72c0-23.17,18.78-41.96,41.96-41.96h253.1v15.61h-6.49Z"/>
        <path class="cls-14" d="M251.69,2005.64h222.41v120.41h-222.41c-24.36,0-44.13-19.78-44.13-44.13v-32.14c0-24.36,19.78-44.13,44.13-44.13Z"/>
        <path class="cls-27" d="M141.36,1875.25h369.32v114.74H141.36c-15.18,0-27.51-12.33-27.51-27.51v-59.72c0-15.18,12.33-27.51,27.51-27.51Z"/>
        <path class="cls-49" d="M574.19,1887.07v91.12h6.49v11.81h-269.02c-14.38,0-26.04-11.66-26.04-26.04v-62.66c0-14.38,11.66-26.04,26.04-26.04h269.02v11.81h-6.49Z"/>
        <path class="cls-14" d="M332.92,1887.06h241.27v91.12h-241.27c-15.18,0-27.51-12.33-27.51-27.51v-36.1c0-15.18,12.33-27.51,27.51-27.51Z"/>
      </g>
      <g>
        <g>
          <rect class="cls-2" x="290.86" y="2176.51" width="364.25" height="364.25"/>
          <rect class="cls-35" x="430.64" y="2176.51" width="84.68" height="42.34"/>
        </g>
        <path class="cls-46" d="M421.82,2312.92h102.33c9.04,0,16.38,7.34,16.38,16.38v16.11c0,9.04-7.34,16.38-16.38,16.38h-102.33c-9.04,0-16.38-7.34-16.38-16.38v-16.11c0-9.04,7.34-16.38,16.38-16.38Z"/>
      </g>
      <g>
        <g>
          <rect class="cls-32" x="47.12" y="2280.47" width="260.29" height="260.29"/>
          <rect class="cls-35" x="147.01" y="2280.47" width="60.51" height="30.25"/>
        </g>
        <path class="cls-50" d="M140.7,2377.95h73.12c6.46,0,11.71,5.25,11.71,11.71v11.52c0,6.46-5.25,11.71-11.71,11.71h-73.12c-6.46,0-11.71-5.25-11.71-11.71v-11.51c0-6.46,5.25-11.71,11.71-11.71Z"/>
      </g>
    </g>
    <path class="cls-28" d="M2234.21,1202.74s-68.67-111.07-94.1-276.6l187.84-5.13s14.46,160.39,75.55,279.59l-169.3,2.14Z"/>
    <path class="cls-28" d="M2310.89,559.84s-88.79,40.83-188.96,150.92l105.65,88.44s114.71-129.59,194.12-163.88l-110.81-75.48Z"/>
    <path class="cls-28" d="M2449.31,788.25s76.72,7.19,163.32,50.54l-65.34,81.35s-80.24-46.32-158.03-59.38l60.05-72.51Z"/>
  </g>
</svg>