<?xml version="1.0" encoding="UTF-8"?>
<svg id="Layer_2" data-name="Layer 2" xmlns="http://www.w3.org/2000/svg" xmlns:xlink="http://www.w3.org/1999/xlink" viewBox="0 0 485.79 156.62">
  <defs>
    <style>
      .cls-1 {
        fill: url(#linear-gradient);
      }
    </style>
    <linearGradient id="linear-gradient" x1="78.31" y1="0" x2="78.31" y2="156.62" gradientUnits="userSpaceOnUse">
      <stop offset="0" stop-color="#0039bf"/>
      <stop offset=".11" stop-color="#0041b5"/>
      <stop offset=".28" stop-color="#00589c"/>
      <stop offset=".5" stop-color="#007e74"/>
      <stop offset=".76" stop-color="#00b33c"/>
      <stop offset="1" stop-color="#00eb01"/>
    </linearGradient>
  </defs>
  <g id="Layer_1-2" data-name="Layer 1">
    <g>
      <g>
        <path d="M167.84,53.35h11.27l12.58,26.64,12.66-26.64h11.1v49.34h-12v-21.96l-10.77,23.6h-1.97l-10.77-23.76v22.12h-12.09v-49.34Z"/>
        <path d="M223.34,53.35h32.64v10.69h-20.56v8.88h19v10.53h-19v8.88h21.46v10.36h-33.55v-49.34Z"/>
        <path d="M262.72,53.35h17.19c14.55,0,25.82,10.69,25.82,24.59,0,13.16-10.03,24.75-25.82,24.75h-17.19v-49.34ZM279.66,91.67c7.73,0,13.65-5.43,13.65-13.73,0-7.65-5.18-13.65-13.65-13.65h-4.85v27.38h4.85Z"/>
        <path d="M313.95,53.35h12.09v49.34h-12.09v-49.34Z"/>
        <path d="M333.93,53.35h12.09v38.98h21.46v10.36h-33.55v-49.34Z"/>
        <path d="M373.31,53.35h12.09v49.34h-12.09v-49.34Z"/>
        <path d="M393.29,53.35h12.75l19.16,29.27v-29.27h12v49.34h-12.58l-19.24-29.36v29.36h-12.09v-49.34Z"/>
        <path d="M445.09,53.35h12.09v22.04h.16l14.23-22.04h13.32l-16.94,23.44,17.84,25.9h-13.32l-15.13-23.93h-.16v23.93h-12.09v-49.34Z"/>
      </g>
      <path class="cls-1" d="M156.62,64.9v26.81c0,6.57-5.32,11.89-11.89,11.89h-41.13v41.13c0,6.57-5.32,11.89-11.88,11.89h-26.82c-6.56,0-11.89-5.32-11.89-11.89v-9.19c4.51-6.06,17.54-17.3,26.05-24.36.03-.03.07-.06.1-.08.09-.08.18-.15.27-.22,2.96-2.47,5.32-4.38,6.53-5.34.28-.24.5-.41.65-.53.14-.11.21-.17.21-.17,1.38-1.13,2.83-2.34,4.29-3.56,5.33-4.48,10.67-9.14,12.39-11.22,4.26-5.13,6.24-10,6.24-15.31s-1.78-9.94-5-13.43c-3.25-3.52-7.71-5.47-12.57-5.47-3.64,0-6.96,1.14-9.88,3.41-1.53,1.19-2.86,2.6-3.99,4.18-1.12-1.59-2.47-2.99-3.99-4.18-2.93-2.26-6.24-3.41-9.87-3.41-4.85,0-9.31,1.95-12.58,5.47-3.21,3.49-4.98,8.25-4.98,13.43s1.98,10.18,6.24,15.31c2.02,2.44,9.05,8.46,15.17,13.54H11.88c-6.56,0-11.88-5.32-11.88-11.89v-26.81c0-6.57,5.32-11.89,11.88-11.89h41.13V11.88c0-6.56,5.33-11.88,11.89-11.88h26.82c6.56,0,11.88,5.32,11.88,11.88v41.13h41.13c6.57,0,11.89,5.32,11.89,11.89Z"/>
      <path d="M74.45,105.24s12.46-3.17,20.46-11.89,11.83-17.17,11.97-22.43-2.18,1.83-2.18,1.83c0,0-4.16,9.22-8.73,13.34s-9.31,4.14-10.37,2.93-.16-3.69,4.02-7.05,4.49-3.81,4.13-5.23-1.28.63-2.88,1.29c-3.15,3.18-8.72,2.67-13.18,7.63-4.29,4.77-5.18,12.15-4.86,14.22.64,4.21,1.62,5.36,1.62,5.36Z"/>
    </g>
  </g>
</svg>