<?xml version="1.0" encoding="UTF-8"?>
<svg id="Layer_2" data-name="Layer 2" xmlns="http://www.w3.org/2000/svg" xmlns:xlink="http://www.w3.org/1999/xlink" viewBox="0 0 3818.54 2400">
  <defs>
    <style>
      .cls-1 {
        opacity: .33;
      }

      .cls-2 {
        fill: url(#linear-gradient-15);
      }

      .cls-3 {
        fill: url(#linear-gradient-13);
      }

      .cls-4 {
        fill: #e8a69e;
      }

      .cls-5 {
        fill: #fff7f5;
      }

      .cls-6 {
        fill: #454342;
      }

      .cls-7 {
        fill: url(#linear-gradient-2);
      }

      .cls-8 {
        fill: #d1dbed;
      }

      .cls-9 {
        opacity: .51;
      }

      .cls-10 {
        fill: #40947e;
      }

      .cls-11 {
        fill: url(#linear-gradient-10);
      }

      .cls-12 {
        fill: url(#linear-gradient-12);
      }

      .cls-13 {
        fill: #7a8db0;
      }

      .cls-14 {
        fill: #fff;
      }

      .cls-15 {
        opacity: .46;
      }

      .cls-16 {
        fill: #818181;
      }

      .cls-17 {
        fill: #6fc183;
      }

      .cls-18 {
        fill: #f3ce90;
      }

      .cls-19 {
        fill: #eff7fe;
      }

      .cls-20 {
        fill: none;
      }

      .cls-21 {
        fill: url(#linear-gradient-4);
      }

      .cls-22 {
        fill: #243354;
      }

      .cls-23 {
        fill: #f19a6d;
      }

      .cls-24 {
        opacity: .49;
      }

      .cls-25 {
        fill: #234f41;
      }

      .cls-26 {
        fill: url(#linear-gradient-3);
      }

      .cls-27 {
        opacity: .36;
      }

      .cls-28 {
        fill: url(#linear-gradient-5);
      }

      .cls-29 {
        fill: #f18a8b;
      }

      .cls-30 {
        fill: #ff9f55;
      }

      .cls-31 {
        fill: #2f4171;
      }

      .cls-32 {
        fill: url(#linear-gradient-8);
      }

      .cls-33 {
        fill: #343434;
      }

      .cls-34 {
        fill: url(#linear-gradient-14);
      }

      .cls-35 {
        fill: #ded7d5;
      }

      .cls-36 {
        fill: #5681bf;
      }

      .cls-37 {
        opacity: .43;
      }

      .cls-38 {
        fill: #151515;
      }

      .cls-39 {
        fill: #a8a8a8;
      }

      .cls-40 {
        fill: url(#linear-gradient-17);
      }

      .cls-41 {
        fill: url(#linear-gradient-7);
      }

      .cls-42 {
        fill: url(#linear-gradient-9);
      }

      .cls-43 {
        fill: #ffa35f;
      }

      .cls-44 {
        fill: url(#linear-gradient-11);
      }

      .cls-45 {
        opacity: .35;
      }

      .cls-46 {
        opacity: .39;
      }

      .cls-47 {
        fill: url(#linear-gradient-6);
      }

      .cls-48 {
        fill: #f5b0a6;
      }

      .cls-49 {
        opacity: .45;
      }

      .cls-50 {
        fill: #ebebeb;
      }

      .cls-51 {
        fill: #3d5891;
      }

      .cls-52 {
        opacity: .37;
      }

      .cls-53 {
        fill: #f5f5f7;
      }

      .cls-54 {
        fill: #99b1da;
      }

      .cls-55 {
        fill: #2a2a2a;
      }

      .cls-56 {
        fill: #212121;
      }

      .cls-57 {
        fill: #255143;
      }

      .cls-58 {
        opacity: .38;
      }

      .cls-59 {
        fill: url(#linear-gradient-16);
      }

      .cls-60 {
        fill: #2c2c2c;
      }

      .cls-61 {
        fill: #2e6857;
      }

      .cls-62 {
        fill: url(#linear-gradient);
      }

      .cls-63 {
        clip-path: url(#clippath);
      }

      .cls-64 {
        fill: #ce6851;
      }

      .cls-65 {
        fill: #5284fc;
      }

      .cls-66 {
        fill: url(#linear-gradient-18);
      }

      .cls-67 {
        fill: #b5cae8;
      }
    </style>
    <clipPath id="clippath">
      <rect class="cls-8" x="135.15" y="38.57" width="733.32" height="744" transform="translate(1003.62 821.14) rotate(180)"/>
    </clipPath>
    <linearGradient id="linear-gradient" x1="2582.11" y1="2209.35" x2="2582.11" y2="2127.49" gradientUnits="userSpaceOnUse">
      <stop offset="0" stop-color="#ff9f55"/>
      <stop offset="1" stop-color="#ffd255"/>
    </linearGradient>
    <linearGradient id="linear-gradient-2" x1="2579.23" y1="2024.76" x2="2579.23" y2="2138.09" gradientUnits="userSpaceOnUse">
      <stop offset="0" stop-color="#40d5e6"/>
      <stop offset="1" stop-color="#57f"/>
    </linearGradient>
    <linearGradient id="linear-gradient-3" x1="2657.22" y1="2030.2" x2="2657.22" y2="1945.47" gradientTransform="translate(5314.44 3993.16) rotate(-180)" xlink:href="#linear-gradient"/>
    <linearGradient id="linear-gradient-4" x1="2560.25" y1="1802.4" x2="2560.25" y2="1897.58" xlink:href="#linear-gradient-2"/>
    <linearGradient id="linear-gradient-5" x1="2632.1" y1="1755.46" x2="2632.1" y2="1831.6" xlink:href="#linear-gradient-2"/>
    <linearGradient id="linear-gradient-6" x1="2616.73" y1="2097.88" x2="2878.19" y2="2097.88" gradientUnits="userSpaceOnUse">
      <stop offset="0" stop-color="#bf7741"/>
      <stop offset="1" stop-color="#d88a51"/>
    </linearGradient>
    <linearGradient id="linear-gradient-7" x1="2747.46" y1="2139.68" x2="2747.46" y2="2062.34" gradientUnits="userSpaceOnUse">
      <stop offset=".37" stop-color="#734a2b"/>
      <stop offset="1" stop-color="#52351f"/>
    </linearGradient>
    <linearGradient id="linear-gradient-8" x1="2441.78" y1="2135.2" x2="2628.61" y2="2135.2" xlink:href="#linear-gradient-6"/>
    <linearGradient id="linear-gradient-9" x1="2535.19" y1="2165.07" x2="2535.19" y2="2109.8" xlink:href="#linear-gradient-7"/>
    <linearGradient id="linear-gradient-10" x1="-11064.61" y1="1810.26" x2="-10935.51" y2="1810.26" gradientTransform="translate(-10706.52) rotate(-180) scale(1 -1)" gradientUnits="userSpaceOnUse">
      <stop offset="0" stop-color="#3076a1"/>
      <stop offset="1" stop-color="#48c9b6"/>
    </linearGradient>
    <linearGradient id="linear-gradient-11" x1="-10964.3" y1="1910.35" x2="-10729.6" y2="1910.35" xlink:href="#linear-gradient-10"/>
    <linearGradient id="linear-gradient-12" x1="-10944.24" y1="1942.4" x2="-10768.08" y2="1942.4" xlink:href="#linear-gradient-10"/>
    <linearGradient id="linear-gradient-13" x1="-11157.18" y1="1774.34" x2="-10892.65" y2="1774.34" xlink:href="#linear-gradient-10"/>
    <linearGradient id="linear-gradient-14" x1="8888.07" y1="2046.45" x2="8742.72" y2="1610.41" gradientTransform="translate(-8599.93)" xlink:href="#linear-gradient-10"/>
    <linearGradient id="linear-gradient-15" x1="8798.99" y1="2204.09" x2="8835.56" y2="2071.67" gradientTransform="translate(-8599.93)" gradientUnits="userSpaceOnUse">
      <stop offset="0" stop-color="#c9c4c1"/>
      <stop offset="1" stop-color="#fff6de"/>
    </linearGradient>
    <linearGradient id="linear-gradient-16" x1="8739.5" y1="2085.62" x2="8928.82" y2="2085.62" gradientTransform="translate(-8580.4)" xlink:href="#linear-gradient-15"/>
    <linearGradient id="linear-gradient-17" x1="8890.16" y1="2013.14" x2="9296.79" y2="2013.14" gradientTransform="translate(-8599.93)" xlink:href="#linear-gradient-6"/>
    <linearGradient id="linear-gradient-18" x1="9093.48" y1="2074.19" x2="9093.48" y2="1961.23" gradientTransform="translate(-8599.93)" xlink:href="#linear-gradient-7"/>
  </defs>
  <g id="_14" data-name="14">
    <g>
      <path class="cls-53" d="M3257.1,1132.46c-130.03-310.04-382.41-643.91-833.69-504.03-92.96,28.81-238.36,10.41-425.31-108.59-9.49-6.05-18.94-12.35-28.31-18.92-5.11-3.6-10.22-7.26-15.29-11.02-63.67-47.04-136.56-103.89-185.64-177.1-28.14-41.97-61.35-79.1-98.62-111.49-23.24-20.19-48.06-38.54-74.24-55.11-16.7-10.57-33.96-20.4-51.7-29.52-47.2-24.25-97.87-43.39-150.87-57.59-5.16-1.38-10.32-2.71-15.52-4.01-12.08-3-24.26-5.73-36.55-8.22-8.42-1.72-16.89-3.31-25.41-4.78-10.42-1.81-20.91-3.46-31.46-4.89,0,0-57.92-6.67-87.35-8.09-5.57-.27-23.9-.88-27.46-.95-10.95-.23-21.92-.29-32.9-.18-274.17,2.67-558.15,214.22-732.82,410.6-87.94,98.88-147.45,219.87-162.57,360.55-5.57,51.94-5.11,106.58,2.2,163.77.22,1.75.44,3.46.68,5.17.37,2.77.77,5.56,1.19,8.35,1.5,10.49,3.26,21.08,5.27,31.75,4.42,23.68,7.43,48.52,16.82,72.29,81.21,205.66-48.51,263.62-99.42,370.62-290.42,610.38,367.67,728.26,735.99,723.33,133.75-1.79,266.49-22.67,394.72-60.75,404.83-120.23,456.23,88.3,962.58,87.59,0,0,1360.65,15.16,1001.79-1053.95-1.69-5.04-4.02-9.87-6.09-14.82Z"/>
      <g class="cls-46">
        <path class="cls-36" d="M243.12,947.93c0,25.75,3.65,37.29,10.14,74.57h2952.56c-18.11-37.29-30.46-42.41-38.13-70.93l-2924.57-3.64Z"/>
      </g>
      <ellipse class="cls-13" cx="1719.65" cy="2096.6" rx="1660.25" ry="303.4"/>
      <g>
        <path class="cls-31" d="M1901.02,2248.21c0-36.04,20.53-67.28,50.52-82.68l-1.05.33-23.18-7.54c-36.65,13.74-62.74,49.1-62.74,90.54,0,53.39,43.28,96.67,96.66,96.67,10.2,0,20.04-1.58,29.28-4.51-49.73-1.78-89.49-42.65-89.49-92.81Z"/>
        <circle class="cls-22" cx="1993.89" cy="2248.2" r="92.87" transform="translate(-1005.72 2068.38) rotate(-45)"/>
        <circle class="cls-22" cx="2990.73" cy="1897.74" r="85.96" transform="translate(-465.94 2670.6) rotate(-45)"/>
        <path class="cls-31" d="M2978.25,1812.68c-4.07-.6-8.23-.91-12.47-.91-47.48,0-85.97,38.48-85.97,85.96s38.49,85.97,85.97,85.97c4.24,0,8.4-.3,12.47-.91-41.57-6.04-73.48-41.82-73.48-85.06s31.92-79.02,73.48-85.06Z"/>
        <path class="cls-14" d="M1980.03,2156.36c2.21-.33,4.44-.59,6.7-.75-.8-.22-1.61-.43-2.41-.62l-4.29,1.38Z"/>
        <path class="cls-36" d="M1122.94,1270.46c-98.52,41.22-160.46,90.58-160.46,90.58v547.81c-54.78,20.54-61.63,75.32-61.63,75.32l869.66,232.82,34.24-15.56,41.09-18.68v-739.55c-262.11-292.69-549.3-245.38-722.89-172.75Z"/>
        <path class="cls-54" d="M1122.94,1270.46c444.17-140.26,681.81,200.14,681.81,200.14v730.84l41.09-18.68v-739.55c-262.11-292.69-549.3-245.38-722.89-172.75Z"/>
        <path class="cls-36" d="M900.85,1984.18l869.66,232.82,34.24-15.56v-80.31l-842.27-212.28c-54.78,20.54-61.63,75.32-61.63,75.32Z"/>
        <path class="cls-14" d="M1804.75,2121.14c-520.96-160.3-842.27-212.28-842.27-212.28l842.27,212.28Z"/>
        <path class="cls-54" d="M1770.51,2217l34.24-15.56v-80.31c-47.93,27.39-34.24,95.87-34.24,95.87Z"/>
        <path class="cls-22" d="M1010.84,2013.63c-.28,2.71-.43,5.45-.43,8.22,0,51.05,49.05,92.44,109.56,92.44,2.15,0,4.27-.05,6.38-.16,37.78-1.83,70.44-19.82,88.4-45.9l-171.76-45.99-32.16-8.61Z"/>
        <path class="cls-31" d="M1043,2022.24l-32.16-8.61c-.28,2.71-.43,5.45-.43,8.22,0,51.05,49.05,92.44,109.56,92.44,2.15,0,4.27-.05,6.38-.16-71.18-23.89-82.84-67.58-83.36-91.89Z"/>
        <path class="cls-14" d="M1017.26,1402.13v61.63c294.45,178.04,671.07,109.56,671.07,109.56v-82.17c-369.78-314.99-671.07-89.02-671.07-89.02Z"/>
        <path class="cls-51" d="M1688.33,1491.15c-369.78-314.99-671.07-89.02-671.07-89.02v61.63c294.45,178.04,671.07,109.56,671.07,109.56v-19.11c-71.06,6.68-402.48,29.01-609.44-110.99v-54.78s260.21-164.34,609.44,102.72Z"/>
        <path class="cls-23" d="M3145.02,742.26c-.03-.63-.07-1.26-.11-1.88-.02-.34-.05-.68-.08-1.02-.05-.66-.13-1.32-.21-1.98-.03-.28-.05-.56-.09-.83-.11-.93-.25-1.84-.4-2.75-.02-.09-.04-.18-.05-.27-.14-.81-.3-1.62-.46-2.42-.06-.3-.13-.59-.2-.88-.14-.59-.27-1.19-.43-1.78-.08-.33-.17-.65-.25-.97-.15-.56-.31-1.13-.48-1.68-.09-.31-.18-.62-.28-.94-.18-.6-.38-1.19-.58-1.77-.08-.26-.17-.51-.26-.77-.29-.82-.59-1.64-.92-2.46-.05-.14-.11-.27-.17-.4-.27-.68-.55-1.35-.84-2.02-.12-.29-.25-.57-.38-.85-.24-.51-.47-1.03-.72-1.54-.14-.3-.3-.61-.45-.91-.24-.49-.49-.97-.74-1.45-.15-.3-.31-.59-.47-.89-.27-.51-.56-1.02-.84-1.52-.14-.25-.27-.49-.42-.75-.43-.72-.86-1.45-1.3-2.16-.12-.19-.24-.37-.37-.56-.33-.53-.68-1.07-1.03-1.58-.19-.29-.38-.56-.58-.84-.29-.43-.58-.85-.88-1.27-.21-.3-.42-.59-.63-.88-.3-.4-.59-.8-.89-1.19-.22-.29-.43-.58-.65-.87-.32-.41-.65-.82-.97-1.23-.2-.25-.4-.51-.61-.76-.5-.62-1.02-1.24-1.54-1.86-.21-.24-.42-.48-.63-.72-.34-.39-.68-.78-1.02-1.16-.27-.29-.53-.57-.79-.86-.3-.33-.6-.65-.91-.97-.28-.3-.56-.59-.84-.88-.3-.3-.59-.61-.9-.91-.28-.29-.57-.59-.86-.87-.3-.3-.61-.59-.91-.89-.29-.28-.58-.56-.87-.84-.43-.4-.85-.8-1.29-1.19-.44-.42-.9-.82-1.35-1.23-.27-.24-.54-.49-.81-.72-.34-.3-.68-.6-1.03-.9-.27-.22-.52-.45-.78-.67-.36-.3-.71-.59-1.07-.89-.24-.21-.49-.4-.73-.6-.37-.3-.75-.62-1.12-.91-.21-.16-.4-.32-.6-.47-1.42-1.13-2.85-2.22-4.28-3.26-.13-.09-.25-.19-.38-.28-.44-.32-.89-.64-1.33-.96-.15-.11-.31-.21-.46-.33-.45-.31-.9-.63-1.35-.94-.12-.09-.25-.18-.37-.26-10.54-7.23-20.59-12.23-27.03-15.1-3.81-1.71-6.35-2.66-6.99-2.9-.02-.02-.05-.02-.07-.03-.02,0-.05-.02-.05-.02-.02,0-.05-.02-.05-.02,0,0-132.78-3.05-278.75-6.28-55.79-1.23-113.52-2.49-166.48-3.61-101.95-2.15-186.27-3.8-205.3-3.8-54.78,0-75.32,47.93-75.32,47.93-34.24,82.17-253.36,472.49-253.36,472.49,0,0,535.47,161.39,692.97,181.94l26.04,208.38,335.54-787.48c.3-1.1.56-2.18.81-3.25.08-.34.14-.68.22-1.02.16-.73.31-1.46.46-2.19.07-.39.14-.77.21-1.16.12-.68.24-1.36.34-2.05.06-.37.11-.75.17-1.13.1-.72.17-1.44.25-2.15.04-.31.08-.62.11-.93.09-1.02.18-2.02.23-3.03v-.12c.05-.95.08-1.9.09-2.85v-.93c0-.68,0-1.34-.03-2.01,0-.35-.02-.7-.04-1.04Z"/>
        <path class="cls-18" d="M3071.88,658.69c-.84,29.13-18.56,56.14-18.56,56.14l-274.85,629.57,26.04,208.38,335.54-787.48c17.08-62.63-46.31-96.85-68.17-106.6Z"/>
        <path class="cls-20" d="M1962.24,1189.85c-10.6,5.3-27.87,12.65-48.82,21.06-83.15,33.37-224.37,83.41-237.75,88.14,56.97,34.57,114.14,81.59,170.17,144.16v213.28c56.03,7.58,144.34-5.05,245.99-103.72,70.42-68.36,130.93-106.33,194.63-127.63,72.33-24.19,148.8-26.9,248.62-28.25,187.73-2.54,243.4-52.5,243.4-52.5-157.5-20.54-692.97-181.94-692.97-181.94-47.93-13.7-68.48,0-123.26,27.39Z"/>
        <path class="cls-54" d="M3140.04,765.29l-39.42,92.51,24.8,41.03s0,0,0,.02l29.86,49.42,54.67-148.91-39.24-35.68-30.67,1.62Z"/>
        <path class="cls-36" d="M2896.1,1598l8.67-20.52-257.75-58.94-801.18,479.34v133.95l104.66,34.04-.61-55.21-67.85-23.7,787.34-465.06,109.1,16.9,184.62,159.1s-.58,60.61,1.16,92.08c1.75,31.47,29.14,33.8,29.14,33.8,36.13,0,37.69-32.05,37.69-32.05v-124.88l-160.48-108.52,25.49-60.32Z"/>
        <polygon class="cls-31" points="1845.83 1997.88 1845.83 2011.33 2641.94 1531.04 2896.1 1598 2904.76 1577.48 2647.01 1518.54 1845.83 1997.88"/>
        <path class="cls-31" d="M2964.26,1889.97c-1.74-31.47-1.16-92.08-1.16-92.08l-184.62-159.1-20.63-3.2,196.79,166.48v99.1c9.72,36.7,50.19,21.51,51.37,21.06-3.64.97-7.82,1.54-12.6,1.54,0,0-27.39-2.34-29.14-33.8Z"/>
        <path class="cls-22" d="M2515.99,1712.49l-193.9,114.53c19.61,17.28,53.37,28.32,80.48,22.58,69.9-14.79,77.26-84.67,77.26-84.67h430.88l-61.99-52.45h-332.74Z"/>
        <path class="cls-31" d="M2322.1,1827.02l-20.57,12.15c43.25,37.48,101.06,10.43,101.06,10.43-27.11,5.74-60.87-5.3-80.48-22.58Z"/>
        <polygon class="cls-36" points="1950.49 2165.86 2954.63 1843.03 2954.63 1802.08 1949.88 2110.66 1950.49 2165.86"/>
        <polygon class="cls-31" points="1949.88 2088.92 1900.24 2076.2 1882.03 2086.95 1949.88 2110.66 2954.63 1802.08 2939.12 1788.96 1949.88 2088.92"/>
        <path class="cls-36" d="M1950.49,2232.96c0,19.67,15.95,35.62,35.62,35.62h0c19.67,0,35.62-15.95,35.62-35.62v-90l-71.23,22.9v67.1Z"/>
        <g class="cls-1">
          <path class="cls-22" d="M1638.61,1674.9l-202.05-36.29c-20.58-3.7-39.5,12.12-39.5,33.04v244.77c0,14.26,9.97,26.58,23.92,29.56l216.54,46.16c13.9,2.96,26.99-7.63,26.99-21.84v-264.42c0-15.23-10.91-28.27-25.9-30.96Z"/>
        </g>
        <path class="cls-51" d="M1624.77,1674.9l-202.05-36.29c-20.58-3.7-39.5,12.12-39.5,33.04v244.77c0,14.26,9.97,26.58,23.92,29.56l216.54,46.16c13.9,2.96,26.99-7.63,26.99-21.84v-264.42c0-15.23-10.91-28.27-25.9-30.96Z"/>
        <polygon class="cls-14" points="1428.02 1908.86 1607.71 1949.81 1607.71 1741.52 1428.02 1708.51 1428.02 1908.86"/>
        <polygon class="cls-36" points="1462.06 1687.86 1574.43 1708.51 1574.43 1693.66 1462.06 1673 1462.06 1687.86"/>
        <g class="cls-1">
          <path class="cls-22" d="M1263.01,1597.5l-112.14-20.61c-11.3-2.08-21.72,6.6-21.72,18.09v131.72c0,8.66,6.04,16.14,14.5,17.98l112.14,24.32c11.46,2.49,22.3-6.25,22.3-17.98v-135.43c0-8.88-6.34-16.49-15.07-18.09Z"/>
        </g>
        <g class="cls-1">
          <path class="cls-22" d="M1340.81,1721.99l-112.14-20.61c-11.3-2.08-21.72,6.6-21.72,18.09v131.72c0,8.66,6.04,16.14,14.5,17.98l112.14,24.32c11.46,2.49,22.3-6.25,22.3-17.98v-135.43c0-8.88-6.34-16.49-15.07-18.09Z"/>
        </g>
        <g class="cls-1">
          <path class="cls-22" d="M1107.93,1745.34l-70.35-12.93c-7.09-1.3-13.63,4.14-13.63,11.35v82.63c0,5.43,3.79,10.13,9.09,11.28l70.35,15.26c7.19,1.56,13.99-3.92,13.99-11.28v-84.96c0-5.57-3.98-10.34-9.45-11.35Z"/>
        </g>
        <path class="cls-67" d="M1247.64,1607.19l-112.14-20.61c-11.3-2.08-21.72,6.6-21.72,18.09v131.72c0,8.66,6.04,16.14,14.5,17.98l112.14,24.32c11.46,2.49,22.3-6.25,22.3-17.98v-135.43c0-8.88-6.34-16.49-15.07-18.09Z"/>
        <path class="cls-8" d="M1094.39,1755.98l-70.35-12.93c-7.09-1.3-13.63,4.14-13.63,11.35v82.63c0,5.43,3.79,10.13,9.09,11.28l70.35,15.26c7.19,1.56,13.99-3.92,13.99-11.28v-84.96c0-5.57-3.98-10.34-9.45-11.35Z"/>
        <path class="cls-31" d="M3125.42,898.83s0,0,0,.02l29.86,49.42,54.67-148.91-39.24-35.68-45.29,135.16Z"/>
        <path class="cls-54" d="M1322.1,1727.84l-112.14-20.61c-11.3-2.08-21.72,6.6-21.72,18.09v131.72c0,8.66,6.04,16.14,14.5,17.98l112.14,24.32c11.46,2.49,22.3-6.25,22.3-17.98v-135.43c0-8.88-6.34-16.49-15.07-18.09Z"/>
        <g>
          <g class="cls-49">
            <path class="cls-64" d="M2775.84,816.21c-2.46-16.95-20.11-25.79-31.29-38.34-3.99-4.48-7.2-9.65-9.55-15.22.16-1.89.34-3.76.46-5.6,2.07-31.06-19.39-71.93-44.8-88-17.58-11.11-39.86-14.39-60.23-8.86-3.13.85-6.34,1.91-9.5,1.38-2.67-.44-4.69-3.26-7.41-3.18-26.5.77-47.24,10.57-60.62,24.93-9.05,5.05-16.65,12.91-21.41,22.25-3.86,7.57-6.1,16.32-12.2,22.18-9.06,8.7-23.07,7.88-35.09,5.73-12.02-2.15-25.19-4.89-36,1.35-10.27,5.92-15.37,19.04-14,30.82.13,1.1.32,2.18.54,3.25-4.65,18.04,4.02,38.28,19.57,47.27,1.2,2.06,2.74,3.88,4.66,5.31l1.65-2.39c.08.03.16.06.24.09.55,4.24,1.1,8.49,1.65,12.73,1.1,8.47,2.25,17.12,6.02,24.67,2.81,5.64,6.98,10.44,11.62,14.61.86.78,1.75,1.53,2.65,2.26l2.79,2.12c-.95-.68-1.88-1.39-2.79-2.12l-.92-.7,79.12,423.99c10.48,7.73,65.87,16.27,65.87,16.27,0,0,25.65-90.22,54.32-194.35,39.2-142.42-8.73-164.86-23.49-179.14,10.82,6.63,24.57,12.03,40.89,11.48,5.15.6,10.44.56,15.62.15,9.74-.77,20.06-3.54,28.99-8.24,6.9-1.86,13.37-5.59,18.33-10.91,9.91-10.61,13.35-26.99,8.5-40.44-2.22-6.15-6.01-11.7-7.27-18.16-3.76-19.29,15.92-37.69,13.09-57.17ZM2535.76,723.97c-3.96,6.1-7.66,12.49-12.9,16.62l13.53-23.42c-.33,2.25-.55,4.52-.63,6.81ZM2618.05,916.4l-.02.03-60.4-31.81c21.58.94,43.54,9.63,60.07,22.04,5.12,3.84,9.89,8.13,14.63,12.45-11.35-6.47-14.29-2.72-14.29-2.72ZM2591.76,708.38l2.67-1.82,26.47-10.67c1.99.47,3.95,1.05,5.87,1.74l14.52,35.8-49.54-25.05ZM2651.01,738.34c-.52-5.12-1.48-10.16-3.03-15.04-2.69-8.44-7.32-16.35-13.66-22.27,1.01.56,2.01,1.15,2.99,1.78,13.74,8.88,22.99,24.44,24.71,41.09l-11.01-5.57Z"/>
          </g>
          <g class="cls-49">
            <path class="cls-64" d="M2482.81,873.43c.91.73,1.84,1.44,2.79,2.12l-2.79-2.12Z"/>
          </g>
          <g>
            <path d="M2704.97,814.3c-6.17-9.55-16.7-15.25-23.63-24.23-4.95-6.42-7.9-14.45-8.33-22.7-.23-4.36.22-8.77-.35-13.08-.57-4.31-2.37-8.72-5.98-10.96l-115.47-58.4c-14.03-2.83-29.61,2.83-39.04,14.18-7.94,9.55-12.69,23.38-24.26,27.33-11.06,3.77-22.15-3.65-33.39-6.1-19.79-4.3-42.09,9.45-48.16,29.46-6.07,20.01,4.75,43.3,23.45,50.97,4.06,1.67,8.69,2.88,11.25,6.49,2.18,3.07,2.32,7.15,2.74,10.95,1.83,16.61,9.73,31.15,23.85,39.68,12.19,7.36,30.28,12.4,44.54,10.11,26.43-4.24,55.87,5.51,76.7,21.14,10.43,7.83,19.4,17.48,29.63,25.58,11.8,9.34,29.2,19.51,51.3,18.75,15.13-.52,20.45-2.62,31.48-13.5,10.11-9.97,14.92-24.48,15.88-38.64.96-14.15-1.56-28.19-4.12-42.04-1.61-8.7-3.33-17.64-8.07-24.98Z"/>
            <path d="M2721.88,849.87c-.5-6.26,4.35-11.57,7.83-16.87,11.73-17.88,7.88-44.27-8.34-57.13-4.36-3.45-9.54-6.13-12.55-10.85-4.6-7.22-2.77-16.79-2.19-25.51,2.07-31.06-19.39-71.93-44.8-88-17.58-11.11-39.86-14.39-60.23-8.86-3.13.85-6.34,1.91-9.5,1.38-2.67-.44-4.69-3.26-7.41-3.18-58.49,1.7-88.94,47.42-74.07,88.96,12.27-19.08,25.73-39.2,46.17-48.27,16.68-7.41,36.66-5.95,51.69,3.76,15.03,9.71,24.69,27.41,25,45.79.24,14.05-4.61,27.87-5.12,41.93-.5,14.06,5.37,30.1,18.58,33.69l-12.34,26.57c-3.92,17.26-7.87,34.88-6.21,52.36,1.66,17.48,9.96,35.1,25.12,43.06,9.61,5.05,20.95,5.77,31.86,4.91,23.03-1.82,49.37-14.77,52.61-38.18,1.73-12.49-3.79-24.7-10.87-34.78-2.31-3.29-4.9-6.69-5.23-10.78Z"/>
            <path class="cls-56" d="M2641.04,783.85c-1.55-.86-3.14-1.5-4.69-2.42-1.5-.89-2.89-1.87-4.15-2.95-2.71-2.33-4.83-5-6.49-8.15-1.74-3.31-2.73-7.04-3-10.85-.34-4.71.17-9.44.61-14.12.88-9.22,1.04-18.52-.29-27.71-1.2-8.26-3.71-16.27-8.07-23.43-3.9-6.4-9.07-12.09-15.55-15.94-.79-.47-1.59-.91-2.41-1.32-.48-.24-.89.46-.42.72,6.62,3.6,12.07,9.19,15.91,15.64,4.2,7.05,6.67,15.06,7.89,23.15,1.37,9.13,1.04,18.42.15,27.58-.46,4.7-1.06,9.41-.89,14.14.15,4.24.97,8.35,2.7,12.23,3,6.72,8.51,12.22,15.33,15.01.92.38,1.77.55,2.75.67,1.22.15,1.59-1.7.61-2.24Z"/>
            <path class="cls-56" d="M2594.82,676.74c-5.8-2.31-12.17-1.1-17.9.78-5.95,1.95-11.75,4.33-17.44,6.93-10.27,4.7-20.14,10.21-30.1,15.52-2.9,1.54-5.82,3.06-8.74,4.57-1.56.81-3.15,1.57-4.71,2.38-1.62.85-3.14,1.85-4.66,2.86-.97.65-.39,2.33.83,1.96,1.56-.48,3.11-1,4.61-1.64,1.42-.61,2.79-1.32,4.17-2.02,2.64-1.33,5.26-2.7,7.86-4.1,4.94-2.65,9.83-5.38,14.76-8.06,10.17-5.52,20.53-10.63,31.28-14.91,3.21-1.28,6.49-2.46,9.87-3.22,3.26-.73,6.63-.88,9.86.09.75.22,1-.87.31-1.14Z"/>
            <path d="M2743.67,785.83c-4.51-6.73-10.85-11.96-16.93-17.2-3.09-2.66-6.15-5.36-8.95-8.33-3.14-3.33-5.76-7.03-8.01-11.01-4.62-8.19-7.14-17.6-7.43-27-.07-2.34,0-4.68.22-7.02.06-.68-1.1-.85-1.2-.16-1.39,9.2-.61,18.58,2.38,27.4,2.91,8.61,7.81,16.13,14.27,22.5,5.7,5.63,12.15,10.47,17.69,16.27,5.21,5.46,9.42,12.02,9.84,19.75.45,8.2-2.86,16.05-6.06,23.42-3.32,7.65-6.99,15.41-7.71,23.83-.37,4.4.29,8.77,1.84,12.89,1.74,4.64,4.3,8.92,5.94,13.6,2.79,7.99,2.55,16.8-.15,24.78-2.74,8.11-8.16,15.15-15.48,19.64-3.61,2.22-7.56,3.8-11.69,4.73-4.03.9-8.29,1.41-12.42,1.03-2.02-.19-4.01-.58-5.96-1.13-1.62-.46-2.24,1.95-.69,2.49,8.27,2.89,17.29,2.77,25.47-.34,8.39-3.2,15.57-8.96,20.26-16.64,4.62-7.56,6.85-16.69,6.18-25.53-.36-4.68-1.54-9.11-3.41-13.4-1.98-4.57-4.55-8.91-5.76-13.78-2.02-8.11.7-16.34,3.76-23.81,3.19-7.82,7.21-15.49,8.71-23.87.74-4.13.83-8.31-.05-12.42-.82-3.82-2.48-7.46-4.65-10.7Z"/>
            <g>
              <path d="M2416.31,768.46s.01.02.05.06c-.02-.02-.03-.04-.05-.06Z"/>
              <path d="M2407.5,748.43h0c-.02-.14.04.32,0,0Z"/>
              <path d="M2482.65,713.14s-.02,0-.04.01c-.15.07-.03.01.04-.01Z"/>
              <path d="M2460.59,714.83s-.02,0-.03,0c-.19-.02-.01,0,.03,0Z"/>
              <path d="M2407.49,739.9s0-.04,0-.06c0,0,0-.01,0-.02.03-.24,0,.04-.01.07Z"/>
              <path d="M2528.11,662.9c-7.38,2.79-13.89,7.41-19.15,13.27-2.64,2.94-4.98,6.15-6.92,9.58-1.97,3.48-3.46,7.19-5.09,10.83-1.55,3.48-3.35,7.2-5.68,10.06-2.4,2.94-5.08,4.93-8.55,6.47-.06.03-.08.04-.11.05.01,0,.02,0,.04-.01-.06.03-.19.08-.04.01-.08.03-.15.06-.23.09-.21.08-.42.16-.63.24-.45.17-.91.32-1.36.47-.86.27-1.74.5-2.62.69-.41.09-.83.17-1.24.25-.39.07-1.11.18-1.3.21-.16.02-.87.1-1.22.14-.46.05-.92.08-1.38.11-3.79.25-7.6.02-11.36-.44-.23-.03-.47-.06-.7-.09,0,0,0,0-.02,0,0,0,.02,0,.03,0-.04,0-.22-.03-.03,0-.12-.02-.25-.03-.37-.05-.46-.07-.92-.13-1.39-.21-.91-.14-1.82-.3-2.73-.46-2.09-.38-4.18-.77-6.28-1.13-4.29-.73-8.63-1.37-12.99-1.49-4.19-.12-8.46.25-12.48,1.49-3.9,1.2-7.5,3.19-10.55,5.91-5.47,4.9-8.92,11.96-10.13,19.14-1.35,8.02.03,16.03,3.4,23.38,3.39,7.4,8.71,13.88,14.85,19.17,6.9,5.96,14.72,10.59,22.8,14.74.96.49,1.91.98,2.87,1.46.58.29,1.16.57,1.77.79.42.15.97.26,1.35.47.81.42,1.83.21,2.31-.6.44-.76.2-1.88-.6-2.31-.44-.23-.85-.61-1.26-.9-.49-.35-.98-.66-1.51-.95-.97-.54-1.95-1.08-2.92-1.62-1.91-1.07-3.81-2.15-5.69-3.26-3.78-2.24-7.55-4.54-11.12-7.11-1.83-1.32-3.22-2.4-4.98-3.9-1.52-1.3-2.98-2.66-4.37-4.09-1.39-1.43-2.7-2.92-3.94-4.48-.05-.06-.31-.4-.3-.38.02.02.03.04.05.06-.03-.04-.04-.06-.05-.06-.11-.15-.23-.3-.34-.45-.32-.43-.63-.86-.94-1.3-.55-.78-1.08-1.58-1.59-2.4-1.05-1.68-1.99-3.43-2.82-5.23-.1-.23-.2-.45-.3-.68-.04-.1-.08-.19-.13-.29.02.04.1.25,0,.02-.2-.49-.4-.98-.58-1.48-.35-.93-.66-1.87-.94-2.82-.27-.92-.51-1.85-.71-2.79-.1-.49-.2-.98-.29-1.47-.04-.21-.07-.42-.11-.63-.02-.14-.04-.28-.06-.42,0-.04-.01-.07-.01-.08h0c.04.32-.02-.14,0,0-.23-1.78-.31-3.57-.25-5.36.03-.86.09-1.72.18-2.58.02-.22.05-.43.08-.65,0,.02,0,.04,0,.06,0-.04.04-.32.01-.07,0,0,0,.01,0,.02.02-.11.03-.22.05-.33.07-.44.14-.89.23-1.33.34-1.76.81-3.5,1.42-5.18.14-.39.29-.78.44-1.16.04-.09.07-.18.11-.27-.03.08-.14.33.02-.04.09-.2.18-.41.27-.61.37-.81.77-1.6,1.21-2.38.43-.77.9-1.52,1.4-2.25.23-.34.47-.67.71-1,.06-.07.11-.15.17-.22-.06.08.04-.05.06-.08-.02.03-.04.05-.06.08,0-.01.01-.02.03-.04.16-.2.31-.39.47-.58,1.1-1.32,2.33-2.53,3.67-3.61.08-.06.15-.12.23-.18-.11.08.04-.03.06-.05-.02.02-.04.03-.06.05.01,0,.01,0,.03-.02.18-.13.35-.26.53-.39.36-.25.72-.5,1.09-.73.84-.53,1.7-1.01,2.59-1.43.2-.1.4-.19.6-.28.12-.05.24-.1.35-.16-.07.03.02,0,.05-.02-.02,0-.03.02-.05.02.02,0,.04-.02.08-.03.51-.21,1.02-.4,1.54-.57.93-.31,1.88-.58,2.84-.8.5-.11,1-.21,1.5-.3.22-.04.43-.07.65-.11.14-.02.29-.04.43-.07.04,0,.07-.01.09-.01-.23.03.13-.02,0,0,.01,0,.02,0,.03,0,1.02-.13,2.04-.21,3.07-.26,8.28-.4,15.97,1.51,24.13,2.77,7.45,1.15,15.25,1.71,22.62-.27,3.66-.98,7.05-2.65,10.01-5.02,3.05-2.44,5.38-5.68,7.21-9.1,1.85-3.46,3.28-7.18,4.81-10.75,1.55-3.61,3.29-7.11,5.5-10.37,4.22-6.25,9.9-11.66,16.29-15.64,1.57-.98,3.16-1.92,4.81-2.76.78-.4.24-1.76-.61-1.44Z"/>
              <path d="M2430.25,715.75c.13-.02-.23.03,0,0h0Z"/>
              <path d="M2417.92,720.66s.04-.03.06-.05c-.03.02-.17.13-.06.05Z"/>
              <path d="M2423.13,717.64s.03-.02.05-.02c-.04.02-.12.05-.05.02Z"/>
              <path d="M2413.52,725.07s.04-.05.06-.08c-.02.03-.12.16-.06.08Z"/>
            </g>
            <g>
              <path d="M2475.25,863.65c-.37-.04.05.01,0,0h0Z"/>
              <path d="M2445.34,844.39s-.01-.02-.02-.03c-.03-.04-.04-.05.02.03Z"/>
              <path d="M2490.17,861.94c-1.52.67-3.16,1.2-4.79,1.51-1.51.29-3.27.36-4.87.43-1.72.08-3.44,0-5.15-.21-.05,0-.07,0-.11-.01.05.01-.37-.04,0,0-.01,0-.04,0-.1-.02-.18-.03-.35-.05-.53-.08-.42-.07-.84-.15-1.26-.23-.84-.17-1.67-.39-2.49-.61-3.39-.93-6.01-2.08-9.07-3.85-1.48-.86-2.91-1.79-4.29-2.8-1.3-.94-2.31-1.74-3.62-2.86-2.59-2.22-5.04-4.62-7.25-7.21-.25-.3-.5-.6-.75-.9-.11-.14-.22-.28-.33-.42.02.02-.17-.22-.24-.3,0,0,.01.02.02.03-.06-.08-.05-.07-.02-.03-.53-.7-1.05-1.41-1.53-2.14-.94-1.39-1.79-2.84-2.55-4.34-3.1-6.17-4.33-13.28-5.43-20.17-1.37-8.58-2.52-17.19-4.08-25.73-.19-1.04-1.93-.81-1.85.25.62,7.99,1.54,15.95,2.41,23.92.81,7.42,1.93,14.91,4.86,21.82,2.78,6.57,7.33,12.2,12.58,16.97,5.31,4.83,11.35,8.95,18.19,11.25,3.81,1.28,7.94,1.84,11.95,1.63,4.07-.21,8.12-1.55,11.68-3.54.64-.36.85-1.23.49-1.86-.4-.69-1.18-.78-1.86-.49Z"/>
            </g>
            <path class="cls-60" d="M2714.16,815.55c-1.03-7.43-4.79-14.08-8.37-20.55-1.83-3.31-3.66-6.63-5.16-10.1-1.59-3.69-2.65-7.63-3.13-11.62-1.06-8.95.05-17.89,1.68-26.7.4-2.19.84-4.37,1.28-6.55.14-.67-.86-.96-1.04-.29-2.23,8.54-4.41,17.17-4.93,26.01-.25,4.35-.03,8.69.85,12.96.79,3.85,2.18,7.53,3.84,11.08,3.08,6.63,7.27,12.74,9.71,19.66,1.18,3.33,1.92,6.79,1.87,10.34-.05,3.6-.9,7.11-2,10.52-2.26,7.02-5.69,13.72-7.03,21.02-.67,3.67-.79,7.39.03,11.05.89,3.94,2.87,7.51,4.18,11.31,1.36,3.96,1.52,8.01.67,12.11-.78,3.74-2.14,7.37-3.88,10.77-3.05,5.98-7.27,11.28-12.3,15.72-9.8,8.64-22.63,13.74-35.74,13.52-.82-.01-1.65-.04-2.47-.02-.81.02-1.65.2-2.46.28-1.46.15-1.73,2-.34,2.53,1.69.65,3.32,1.02,5.14,1.09,1.69.07,3.39,0,5.07-.13,3.39-.26,6.75-.84,10.03-1.74,6.62-1.81,12.94-4.85,18.52-8.85,5.67-4.07,10.62-9.05,14.55-14.83,4.34-6.38,7.68-14.01,8.23-21.77.31-4.41-.72-8.52-2.39-12.57-1.47-3.57-3.18-7.14-3.48-11.04-.56-7.32,2.53-14.35,5.08-21.04,2.72-7.12,5.06-14.49,3.99-22.19Z"/>
            <path class="cls-60" d="M2690.62,796.9c-.43-.69-1.5-.07-1.09.64,5.07,8.93,6.84,19.63,5.36,29.76-.75,5.09-2.12,10.07-4.4,14.69-2.39,4.86-5.92,9.09-8.05,14.09-1.19,2.79-1.82,5.7-1.83,8.74,0,3.12.54,6.22,1.05,9.28.41,2.54.77,5.07.8,7.65.02,1.15-.02,2.31-.1,3.46-.07,1.06-.19,2.18-.32,2.99-.34,2.25-.87,4.48-1.55,6.65-.71,2.25-1.46,4.11-2.45,6.14-1,2.04-2.14,4.01-3.4,5.89-1.3,1.93-2.45,3.41-4.02,5.16-1.51,1.68-3.14,3.26-4.86,4.72-.96.81-1.54,1.26-2.52,1.96-.89.64-1.79,1.23-2.72,1.81-3.91,2.44-7.69,4-12.09,5.28-1.03.3-2.07.57-3.13.79-1.36.29-1.07,2.52.33,2.44,2.31-.13,4.7-.4,6.93-1.07,2.26-.68,4.47-1.58,6.59-2.63,4.21-2.08,8.04-4.91,11.41-8.17,6.76-6.55,11.8-15.06,14.01-24.23,1.09-4.54,1.51-9.26,1.05-13.92-.59-5.98-2.82-12.14-1.58-18.18,1.12-5.44,4.7-9.91,7.36-14.66,2.63-4.69,4.47-9.82,5.44-15.11,1.9-10.33.43-21.39-4.3-30.78-.59-1.16-1.23-2.3-1.91-3.4Z"/>
            <g>
              <path class="cls-60" d="M2674.73,787.22s-.08-.03-.12-.05c0,0,.02.01.12.05Z"/>
              <path class="cls-60" d="M2661.59,776.95c.06.08.04.05,0,0-.04-.06-.07-.09,0,0Z"/>
              <path class="cls-60" d="M2667.83,783.19s-.03-.02-.04-.03c-.17-.12-.02-.01.04.03Z"/>
              <path class="cls-60" d="M2657.08,769.23s-.02-.04-.02-.06c-.01-.03-.01-.03.02.06Z"/>
              <path class="cls-60" d="M2677.9,788.72c-.39-.24-.77-.54-1.18-.73-.56-.26-1.15-.44-1.72-.67-.08-.03-.36-.15-.38-.16.04.02.08.03.12.05-.09-.04-.12-.05-.12-.05-.18-.08-.36-.16-.53-.24-.46-.21-.91-.43-1.36-.66-1.71-.88-3.32-1.92-4.87-3.06-.04-.03-.04-.03-.07-.05.01.01.03.02.04.03-.06-.04-.21-.15-.04-.03-.08-.06-.16-.13-.24-.19-.19-.15-.37-.3-.55-.45-.37-.3-.72-.61-1.08-.93-.73-.66-1.43-1.34-2.1-2.05-.67-.71-1.32-1.46-1.93-2.22-.06-.07-.11-.14-.17-.21-.01-.02-.08-.1-.12-.16.04.05.06.08,0,0-.07-.09-.04-.05,0,0-.04-.06-.11-.15-.12-.17-.07-.1-.14-.19-.21-.29-.3-.41-.59-.82-.88-1.24-1.08-1.61-2.05-3.31-2.87-5.07-.09-.19-.18-.38-.26-.57-.02-.04-.16-.37-.19-.44,0,.02.02.04.02.06-.04-.09-.04-.09-.02-.06-.19-.45-.37-.91-.53-1.36-.34-.93-.64-1.88-.91-2.84-.25-.93-.47-1.87-.64-2.82-.08-.45-.16-.91-.22-1.37,0,.03,0,.02-.01-.06,0,.02,0,.04.01.06,0-.08-.06-.46-.06-.5-.03-.26-.05-.51-.08-.77-.22-2.46-.19-4.94,0-7.4.75-9.94,4-19.57,4.06-29.59.05-8.14-2.22-16.28-6.25-23.33-3.97-6.93-9.7-12.91-16.66-16.88-.85-.48-1.71-.93-2.59-1.36-.92-.44-1.72.91-.8,1.38,7.07,3.61,12.93,9.28,17.02,16.06,4.14,6.87,6.44,14.78,6.49,22.81.06,9.94-3.29,19.51-4.46,29.31-.56,4.64-.57,9.33.38,13.92.81,3.93,2.31,7.78,4.35,11.23,4.12,6.95,10.4,12.48,17.88,15.52.43.17.88.39,1.33.49.55.12,1.15.12,1.71.14,1.71.07,2.18-2.26.84-3.1Z"/>
              <path class="cls-60" d="M2654.75,760.78s0-.04-.01-.06c.01.08.01.09.01.06Z"/>
            </g>
            <path class="cls-60" d="M2666.9,787.97c-1.4.16-2.87.25-4.27.19-1.49-.06-2.46-.2-3.93-.61-2.55-.71-4.99-2.06-7.08-3.73-4.82-3.87-7.64-9.52-9.42-15.33-1.06-3.48-1.78-7.05-2.4-10.64-.17-.98-1.87-.76-1.75.24.85,6.79,2.05,13.66,5.16,19.83,2.89,5.74,7.58,10.44,13.69,12.62,1.64.59,3.42.98,5.17,1.05,1.8.06,3.53-.17,5.2-.85.65-.26,1.12-.8,1.01-1.54-.09-.62-.68-1.3-1.38-1.22Z"/>
            <g>
              <path class="cls-60" d="M2414.85,780.36c.06.14.04.1.01.03-.04-.08-.1-.22-.01-.03Z"/>
              <path class="cls-60" d="M2413.25,774.58s0-.1-.01-.15c0-.06,0-.05.01.15Z"/>
              <polygon class="cls-60" points="2413.23 768.43 2413.23 768.42 2413.23 768.42 2413.23 768.43"/>
              <path class="cls-60" d="M2499.51,731.43c-5.56,5.56-13.49,7.33-21.12,7.52-9.59.23-19.04-2.14-28.64-1.39-4.79.37-9.47,1.49-13.95,3.2-4.03,1.53-7.95,3.42-11.55,5.79-6.71,4.41-12.61,10.68-14.67,18.64-1.01,3.92-1.06,8.03-.28,12,.39,1.98,1.05,3.88,1.89,5.72.8,1.76,1.81,3.65,3.2,5.02.68.67,1.65,1.19,2.45,1.7,1.26.79,2.85-.79,2.05-2.05-.22-.35-.45-.7-.64-1.07-.22-.43-.36-.9-.62-1.31-.49-.78-1.03-1.51-1.49-2.3-.47-.79-.88-1.61-1.26-2.46,0,0-.01-.03-.02-.05.03.07.04.11-.01-.03-.08-.19-.02-.05.01.03-.03-.07-.07-.16-.08-.19-.08-.2-.16-.4-.23-.6-.17-.46-.33-.93-.47-1.41-.26-.86-.48-1.73-.66-2.61-.04-.21-.08-.43-.12-.64-.01-.06-.06-.39-.07-.49,0,.05,0,.1.01.15-.02-.19-.02-.21-.01-.15-.05-.42-.1-.83-.13-1.25-.07-.93-.08-1.87-.05-2.81.02-.44.05-.87.09-1.31.02-.22.04-.43.07-.65,0,0,0,0,0,0,0,0,0,0,0,0,0,0,0,0,0,0,.05-.41.01-.09,0,0,0,0,0,0,0,0,.02-.15.05-.31.07-.46.15-.9.35-1.78.6-2.66.13-.45.28-.9.44-1.34.08-.21.15-.42.23-.63.05-.12.1-.24.14-.36-.08.2-.05.11.02-.04.77-1.75,1.73-3.41,2.84-4.96.13-.18.26-.36.4-.54.01-.02.01-.02.02-.03-.02.02-.03.04-.05.06.02-.03.13-.17.05-.06.06-.08.13-.16.19-.24.32-.4.65-.79.99-1.17.64-.72,1.3-1.41,2-2.07.67-.64,1.37-1.26,2.09-1.86.17-.14.35-.29.52-.43.1-.08.2-.16.3-.24.01,0,.05-.04.09-.07,0,0-.02.01-.02.02.14-.11.09-.07.02-.02.38-.29.76-.57,1.15-.85,3.29-2.35,6.89-4.29,10.61-5.85,4.03-1.7,8.45-3.02,12.85-3.52,9.44-1.09,18.92.83,28.38.4,7.48-.34,15.33-2.27,21.07-7.32.72-.63,1.39-1.31,2.02-2.03.44-.49-.26-1.2-.73-.73Z"/>
              <path class="cls-60" d="M2417.94,757.48s.03-.04.05-.06c.08-.11-.02.03-.05.06Z"/>
              <path class="cls-60" d="M2424.15,751.36s.02-.01.02-.02c.07-.05.12-.09-.02.02Z"/>
            </g>
            <g>
              <path class="cls-60" d="M2429.47,801.06c-.2-.25.06.08,0,0h0Z"/>
              <polygon class="cls-60" points="2426.16 795.61 2426.16 795.6 2426.16 795.6 2426.16 795.61"/>
              <path class="cls-60" d="M2424.71,790.18s0-.04,0-.05c.05.33.02.16,0,.05Z"/>
              <path class="cls-60" d="M2465.87,751.51c-11.75,1.53-23.69,4.29-33.05,11.97-4.08,3.35-7.59,7.56-9.8,12.38-1.13,2.47-1.93,4.99-2.29,7.68-.35,2.62-.3,5.22.1,7.83.42,2.73,1.32,5.4,2.65,7.82,1.38,2.52,3.4,4.6,5.95,5.94,1.38.72,2.78-1.01,1.68-2.17-.38-.4-.73-.82-1.09-1.24-.17-.2-.34-.4-.5-.6-.02-.03-.04-.05-.05-.07.06.08-.2-.25,0,0,0-.01-.02-.03-.04-.05-.12-.16-.23-.32-.35-.48-.09-.13-.68-.93-.4-.55-.17-.23-.34-.46-.5-.7-.33-.48-.63-.97-.91-1.47-.26-.46-.51-.91-.74-1.38-.13-.26-.25-.53-.37-.79,0,0,0,0,0-.01,0,0,0,0,0,0,0,0,0,0,0,0-.14-.31-.03-.08,0,0,0,0,0,0,0,0-.06-.16-.13-.32-.19-.49-.42-1.11-.75-2.25-.99-3.4-.11-.51-.19-1.02-.27-1.53.01.11.04.28,0-.05,0,.02,0,.04,0,.05,0-.02,0-.04,0-.05-.02-.15-.03-.3-.05-.45-.03-.33-.06-.66-.08-.99-.07-1.14-.06-2.29.04-3.44.02-.3.05-.6.09-.9,0-.06.02-.12.02-.19,0,.03,0,0,.02-.17,0,.06-.01.12-.02.17,0-.05.05-.31.05-.35.1-.6.22-1.19.35-1.78.26-1.16.6-2.3,1.01-3.41.37-1,.79-1.95,1.42-3.12.59-1.1,1.25-2.17,1.96-3.19.17-.24.33-.47.5-.7.1-.13.19-.26.29-.39,0,0,.04-.05.07-.09,0,0,0,0-.01.01.09-.12.06-.07.01-.01.4-.5.8-.99,1.23-1.48.83-.95,1.71-1.85,2.63-2.71,3.77-3.51,8.33-6.28,13.17-8.39,5.95-2.59,12.35-4.16,18.68-5.49.86-.18.69-1.68-.21-1.57Z"/>
              <path class="cls-60" d="M2424.72,784.17c0-.06.01-.12.02-.17-.02.17-.03.2-.02.17Z"/>
              <path class="cls-60" d="M2430.37,771.15s0,0,.01-.01c.05-.06.08-.1-.01.01Z"/>
            </g>
            <g>
              <path class="cls-60" d="M2471.55,857.46s-.07-.05-.1-.08c.07.05.1.07.1.08Z"/>
              <path class="cls-60" d="M2467.52,853.46s-.02-.03-.04-.05c0,0,0,0,0,0,.01.02.02.03.04.05Z"/>
              <path class="cls-60" d="M2464.51,848.29s-.03-.07-.05-.11c.07.17.08.17.05.11Z"/>
              <path class="cls-60" d="M2462.84,835.71c-.02.16-.01.11,0,.02.01-.11.02-.2,0-.02Z"/>
              <path class="cls-60" d="M2489.6,801.94c-5.94,2.9-11.1,7.24-16.04,11.57-4.75,4.15-9.36,8.79-12.16,14.53-4.13,8.46-3.12,18.93,2.23,26.64,1.63,2.34,3.57,4.37,5.84,6.1,1.07.82,2.2,1.57,3.43,2.14,1.4.66,2.98,1.24,4.54,1.23.61,0,1.17-.43,1.33-1.02.18-.64-.14-1.18-.64-1.56-.85-.65-2.1-1.31-3.15-1.91-.99-.56-1.97-1.15-2.89-1.81-.18-.13-.36-.26-.54-.39,0,0-.04-.02-.1-.08.03.03.07.05.1.08.04.03-.38-.3-.45-.36-.45-.37-.88-.75-1.29-1.15-.81-.77-1.55-1.6-2.25-2.46-.02-.02-.04-.05-.06-.08.01.02.02.03.04.05-.02-.02-.03-.04-.04-.05-.07-.09-.13-.18,0,0,0,0,0,0,0,0-.08-.11-.16-.21-.24-.32-.15-.21-.3-.42-.44-.63-.32-.46-.62-.94-.9-1.42-.52-.89-.98-1.8-1.39-2.75.03.06.02.06-.05-.11.02.04.03.07.05.11-.04-.11-.17-.42-.2-.49-.09-.24-.18-.47-.26-.71-.19-.55-.37-1.1-.53-1.66-.29-1.04-.51-2.1-.68-3.17,0-.02,0-.03,0-.05,0,.04,0,.07.01.11,0-.06-.06-.37-.01-.11-.01-.11-.03-.23-.04-.34-.03-.25-.05-.5-.07-.75-.05-.55-.07-1.1-.09-1.65-.02-1.05.03-2.09.13-3.13.01-.15.03-.3.05-.44,0,0,.01-.09.02-.17-.01.09-.02.14,0-.02.02-.18.01-.09,0,.02.01-.08.03-.2.03-.21.02-.12.04-.25.06-.37.09-.56.21-1.12.34-1.67.25-1.01.56-2,.94-2.97,0,0,.05-.11.08-.2-.03.08-.05.13,0,0,.05-.13.03-.08,0,0,.03-.08.08-.19.08-.2.13-.29.26-.57.39-.85.34-.7.71-1.38,1.1-2.05.74-1.27,1.58-2.51,2.46-3.66,1.79-2.33,3.9-4.5,5.99-6.59,2.47-2.47,5-4.91,7.56-7.3,2.61-2.43,5.36-4.7,8.41-6.56.75-.46.09-1.55-.69-1.17Z"/>
              <path class="cls-60" d="M2462.85,842.32s0-.07-.01-.11c-.04-.26,0,.05.01.11Z"/>
              <path class="cls-60" d="M2464.29,830.31c-.05.13-.03.08,0,0,.03-.08.05-.13,0,0Z"/>
            </g>
            <g>
              <path class="cls-60" d="M2526.29,695.35s.04-.05.05-.07c-.08.1-.08.11-.05.07Z"/>
              <path class="cls-60" d="M2519.35,707.05c.11-.28-.12.26,0,0h0Z"/>
              <path class="cls-60" d="M2589.5,672.31c-3.19-1.82-6.59-3.12-10.18-3.86-3.62-.75-7.35-1.03-11.04-.86-7.42.35-14.61,2.44-21.22,5.77-6.38,3.2-12.31,7.46-17.47,12.37-4.97,4.73-9.29,10.23-12.41,16.34-1.56,3.05-2.84,6.26-3.72,9.56-.45,1.68-.82,3.4-1,5.13-.18,1.67-.1,3.3.11,4.97.11.88.25,1.73.49,2.58.3,1.06,2.1,1.22,2.31,0,.51-3.06.9-6.17,1.54-9.3.32-1.6.75-3.17,1.25-4.72.23-.68.47-1.36.72-2.04.14-.37.29-.73.44-1.1.02-.06.03-.09.05-.12-.12.26.11-.28,0,0,.01-.03.03-.06.05-.12.11-.24.21-.48.32-.72,1.34-2.97,2.98-5.81,4.84-8.49.46-.66.93-1.31,1.42-1.96.1-.14.21-.27.31-.41-.03.04-.03.03.05-.07-.02.02-.04.05-.05.07.06-.07.23-.29.23-.29.25-.32.5-.63.75-.95,1.06-1.31,2.17-2.57,3.33-3.79,4.66-4.92,9.8-8.99,15.64-12.39,5.98-3.48,12.49-6.05,19.39-7.1,7.7-1.17,15.86-.21,22.99,2.98,1,.45,1.87-.93.88-1.5Z"/>
            </g>
            <path class="cls-60" d="M2531.51,668.83c-6.55,4.41-11.24,10.95-14.74,17.93-3.82,7.61-6.48,16.17-5.7,24.76.43,4.67,1.8,9.27,4.54,13.12.87,1.23,2.68.19,2.02-1.18-3.34-6.98-4.07-14.98-2.7-22.55,1.41-7.78,4.76-15.24,9.09-21.84,2.28-3.47,5.02-6.63,8.31-9.17.61-.47-.19-1.5-.82-1.07Z"/>
          </g>
          <g>
            <g>
              <path class="cls-4" d="M2209.78,982.68l-83.41-176.97-65.75,6.05s18.83,267.71,110.09,307.33c27.92,12.12,56.29,12.4,82.22,6.97,58.83-12.36,105.12-54.18,105.12-54.18l-49.78-139.08c-4.62-.27-98.5,49.88-98.5,49.88Z"/>
              <g>
                <g class="cls-15">
                  <path class="cls-29" d="M2209.78,982.68c17.68,18.6,59.59,78.91,43.15,143.38,58.83-12.36,105.12-54.18,105.12-54.18l-49.78-139.08c-4.62-.27-98.5,49.88-98.5,49.88Z"/>
                </g>
                <path class="cls-17" d="M2377.23,867.15c-60.82,20.66-159.54,94.12-159.54,94.12l40.27,65.49,33.22,54.08,143.57-58.52,40.9-16.67c-32.72-47.88,27.67-141.72,27.67-141.72,0,0-69.41-16.06-126.09,3.22Z"/>
                <g class="cls-52">
                  <path class="cls-10" d="M2422.38,911.59s-85.44,3.45-111.95,64.35c-13.97,32.01-35.33,45.39-52.47,50.82l33.22,54.08,143.57-58.52c12.69-27.75,22.98-44.28,17.44-59-5.53-14.77-29.81-51.72-29.81-51.72Z"/>
                </g>
                <g>
                  <path class="cls-17" d="M2629.58,934.1l-100.95-67.09c-174.63-39.7-300.84,340.4-346.39,428.74,0,0,231.28,116.05,376.94,118.49,0,0,30.4-160.62,44.86-241.94,6.96-38.89,12.93-80.98,15.22-120.68,4.02-66.59,38.27-91.29,10.31-117.51Z"/>
                  <polygon class="cls-17" points="2532.07 1017.2 2634.27 1138.51 2589.21 898.87 2532.07 1017.2"/>
                </g>
              </g>
            </g>
            <g>
              <path class="cls-4" d="M2089.19,733.62c-12.51-14.55-37.41-21.3-42.81-19.68-5.39,1.61-6.43,9.02-3.34,15.04,2.63,5.12,6.38,10.32,6.38,10.32,0,0-22.2.43-25.59,7.65-3.39,7.22,4.57,13.35,4.57,13.35,0,0-16.38,10.1-11.27,27.18,0,0-9.27,11.58-9.37,21.09-.1,9.5,6.35,32.74,15.43,27.09,0,0,7.32-2.9,6.52-10.43,0,0,2.39,11.84,8.84,22.32,5.38,8.74,13.59,16.54,25.59,15.74l62.24-57.58s-2.18-5.08-5.57-12.6c-8.02-17.8-22.82-49.27-31.62-59.49Z"/>
              <path class="cls-29" d="M2056.58,733.63c-26.19-18.51-7.16,5.68-7.16,5.68,22.59,7.55,48.56,35.32,48.56,35.32,0,0-15.21-22.47-41.41-40.99Z"/>
              <path class="cls-29" d="M2049.38,792.62c-6.85-25.81-20.98-32.33-20.98-32.33,0,0,3.15,22.22,9.3,31.12s.57,22.69-4.92,20.52c-5.5-2.17-10.83-4.81-15.64-24.46,0,0-.46,24.05,14.87,35.89,8.82,6.81,11.89-14.89,18.86-9.96,15.15,10.72,36.15,8.02,36.15,8.02,0,0-30.79-2.99-37.63-28.8Z"/>
            </g>
          </g>
          <g>
            <g>
              <g>
                <path class="cls-48" d="M2509.35,879.03s-3.54,9.1,36.16,32.88c30.65,18.32,50.09,9.74,50.09,9.74l34.25-103.12-84.75-1.37-35.74,61.87Z"/>
                <path class="cls-48" d="M2579.88,674.9c-15.12,15.12-36.05,39.93-48.69,66.37-4.59,9.69-8.12,19.66-9.85,29.4-2.53,14.73-.94,29.05,7.28,41.53,6.56,10,21.03,16.37,38.37,17.92,37.59,3.34,70.12-10.76,86.81-29.66,21.01-23.76,1.15-161.3-73.91-125.56Z"/>
                <path class="cls-29" d="M2542.7,823.92l-1.06-.59-16.91,30.22c39.36,17.92,77.13-22.38,79.43-24.91-1.06.51-8.48,4.24-21.37,4.97-14,.82-27.88-2.84-40.09-9.68Z"/>
                <path class="cls-48" d="M2637.96,790.11l-13.43,15.25c-3.64,7.02-1.69,15.98,7.59,18,3.3.72,6.77.17,9.98-.89,8.99-2.95,16.54-9.98,20.13-18.73,1.43-3.49,2.22-7.55.63-10.97-2.2-4.74-14.69-14.45-24.9-2.66Z"/>
              </g>
              <g>
                <path class="cls-29" d="M2583.25,736.24c-.95-.39-2.03.07-2.42,1.02-.08.19-7.55,18.39-16.38,27.4-5.24-2.65-15.2-6.91-18.41-3.05-3.24,3.9,1.12,16.65,3.14,21.95.28.74.99,1.2,1.74,1.2.22,0,.44-.04.66-.12.96-.37,1.44-1.44,1.07-2.4-3.17-8.31-4.93-16.84-3.76-18.25.87-1.05,7.77.76,15.03,4.58.7.37,1.56.25,2.13-.29,9.83-9.18,17.88-28.79,18.22-29.62.39-.95-.07-2.03-1.02-2.42Z"/>
                <path class="cls-38" d="M2599.78,762.54c-2.17-1.71-5.56-1.03-7.56,1.51-2.01,2.55-1.87,6,.3,7.71,2.17,1.71,5.56,1.03,7.56-1.51,2.01-2.55,1.87-6-.3-7.71Z"/>
                <path class="cls-38" d="M2556.16,737.54c-2.17-1.71-5.56-1.03-7.56,1.51-2.01,2.54-1.87,6,.3,7.71,2.17,1.71,5.56,1.03,7.56-1.51,2.01-2.55,1.87-6-.3-7.71Z"/>
                <path class="cls-29" d="M2542.55,794.38c-.94.4-1.38,1.5-.98,2.44.4.94,1.5,1.38,2.44.98.14-.06,13.68-5.65,23.63,7.62.36.49.92.74,1.49.74.39,0,.78-.12,1.11-.37.82-.62.99-1.78.37-2.6-11.68-15.57-27.9-8.87-28.06-8.81Z"/>
                <path class="cls-29" d="M2606.37,780.73c-9.92-5.76-21.76-3.89-26.45,4.17-4.68,8.07-.44,19.28,9.49,25.04,9.92,5.76,21.76,3.9,26.45-4.17,4.68-8.07.44-19.28-9.49-25.04Z"/>
                <path class="cls-29" d="M2531.18,741.28c-4.59,9.69-8.12,19.66-9.85,29.4,6.34.27,12.14-2.36,15.11-7.47,3.96-6.78,1.54-15.84-5.27-21.93Z"/>
              </g>
              <path class="cls-33" d="M2600.4,738.72c-1.02.03-1.83.88-1.8,1.91.03,1.02.88,1.84,1.9,1.81.77-.01,18.78-.24,19.65,17.7.05.99.87,1.77,1.85,1.77.03,0,.06,0,.09,0,1.03-.05,1.82-.92,1.77-1.95-1.05-21.6-23.24-21.23-23.46-21.23Z"/>
              <path class="cls-33" d="M2547.85,718.3c-.9.49-1.23,1.62-.74,2.52.49.9,1.62,1.23,2.52.74,15.75-8.64,24.97,6.83,25.36,7.49.34.6.97.93,1.61.93.31,0,.63-.08.93-.25.89-.51,1.19-1.65.68-2.54-.11-.19-11.4-19.3-30.37-8.89Z"/>
            </g>
            <g>
              <path d="M2667.83,663.63c-7.44-4.31-13.59-10.01-21-14.36-15.33-8.99-33.72-12.51-51.33-10.55-23.5,2.61-76.6,19.9-74.57,85.57,20.47-26.66,75.71-31.84,95.6-11.07-6.75,28.53,9.57,69.53,17.01,77.23,32.24,33.32,32.19-.85,46.02-24.14,4.42-7.44,7.51-15.58,10.59-23.67,1.93-5.09,3.87-10.2,5.16-15.48,3.66-15.01,1.65-31.15-6.29-44.48-5.03-8.44-12.83-14.2-21.19-19.04Z"/>
              <g>
                <path class="cls-60" d="M2538.93,702.52s.07-.06.11-.09c-.1.07-.12.09-.11.09Z"/>
                <path class="cls-60" d="M2526.45,715.1s.06-.08.09-.12c-.08.1-.1.13-.09.12Z"/>
                <path class="cls-60" d="M2554.4,693.45s.05-.02.08-.03c.18-.08-.04.02-.08.03Z"/>
                <path class="cls-60" d="M2612.83,690.12c-7.6-2.99-15.7-5.13-23.85-5.77-8.19-.65-16.49-.12-24.52,1.66-7.23,1.6-14.17,4.32-20.57,8.04-6.01,3.49-11.57,7.85-16.35,12.91-2.42,2.56-4.63,5.31-6.61,8.23-1.98,2.92-3.79,6-4.94,9.34-.27.8-.53,1.6-.77,2.4-.52,1.75,2.06,2.85,2.96,1.25,1.62-2.89,3.34-5.76,5.12-8.56.91-1.43,1.88-2.82,2.9-4.18.08-.11.17-.22.25-.33,0,0,.02-.02.09-.12-.03.04-.06.08-.09.12.01-.01.14-.18.21-.26.27-.35.54-.69.82-1.03.53-.66,1.07-1.31,1.63-1.96,2.18-2.52,4.55-4.89,7.08-7.07.64-.56,1.3-1.1,1.96-1.63.26-.21.52-.41.78-.62-.01,0,.01-.01.11-.09-.04.03-.07.06-.11.09.02-.02.29-.22.35-.27.18-.13.35-.27.53-.4,1.34-1,2.72-1.95,4.13-2.85,2.84-1.82,5.82-3.45,8.89-4.85.37-.17.75-.34,1.12-.5.17-.08.35-.15.52-.23,0,0,0,0,.01,0-.03.01-.05.02-.08.03.03-.01.25-.11.08-.03.09-.04.18-.08.27-.11.79-.33,1.58-.64,2.38-.93,1.83-.68,3.66-1.32,5.53-1.87,7.64-2.26,15.42-3.26,23.38-3.16,7.97.1,15.94,1.04,23.65,3.1.94.25,1.88.52,2.81.8.74.22,1-.86.31-1.13Z"/>
              </g>
              <g>
                <path class="cls-60" d="M2561.07,658.15c-5.14,1.55-10.01,4-14.55,6.85-5.41,3.4-10.55,7.33-15.15,11.77-4.74,4.58-9.09,9.66-12.6,15.25-3.21,5.12-5.77,10.89-6.78,16.87-.49,2.89-.67,5.83-.34,8.75.34,3.01,1.06,6.16,2.62,8.79.43.72.88,1.34,1.49,1.92,1.09,1.02,2.65-.01,2.39-1.39-.26-1.39-.83-2.68-1.27-4.02-.43-1.3-.75-2.65-1.01-3.99-.06-.32-.12-.63-.17-.95-.01-.09-.03-.18-.04-.27,0-.03-.01-.05-.02-.08,0,.07.01.14.04.2-.11-.26-.07-.29-.04-.2-.01-.12-.02-.25-.03-.35-.07-.66-.12-1.33-.14-1.99-.05-1.36,0-2.73.14-4.09.02-.16.03-.32.05-.49,0-.08.02-.16.03-.22,0,.04-.01.08-.02.12.04-.25.03-.23.02-.12.05-.33.1-.67.15-1,.12-.68.25-1.35.41-2.02.32-1.39.73-2.76,1.19-4.11.24-.7.5-1.39.78-2.08.06-.15.12-.3.19-.45-.01.03-.02.05-.03.08,0-.01.13-.31.05-.11,0,.01,0,.02-.01.03.03-.07.06-.13.08-.2.15-.35.3-.69.46-1.03.63-1.37,1.32-2.71,2.06-4.03,1.53-2.72,3.23-5.34,5.08-7.84.24-.32.48-.65.73-.97.04-.05.08-.11.12-.16-.02.02-.04.05-.05.06-.01.02-.02.03,0,0,.02-.02.05-.07.07-.09,0,0-.02.02-.02.03.02-.02.02-.03.05-.06.13-.17.27-.34.4-.51.51-.64,1.02-1.27,1.54-1.89,1.02-1.21,2.06-2.39,3.14-3.55,4.23-4.54,8.84-8.79,13.81-12.5,4.32-3.23,8.93-6.24,13.86-8.45.51-.23,1.02-.45,1.54-.65.52-.21.33-1.03-.24-.86Z"/>
                <path class="cls-60" d="M2515.68,710.63s.01-.08.02-.12c.01-.11.02-.14-.02.12Z"/>
                <path class="cls-60" d="M2515.68,717.85c-.02-.05-.03-.13-.04-.2-.03-.1-.07-.06.04.2Z"/>
                <path class="cls-60" d="M2518.39,700.93s.02-.05.03-.08c0-.01,0-.02.01-.03.08-.2-.04.1-.05.11Z"/>
                <path class="cls-60" d="M2526.92,686.69s.03-.04.05-.06c0,0,.02-.02.02-.03-.02.02-.05.07-.07.09Z"/>
              </g>
              <path class="cls-60" d="M2642.12,790.38c-1.44-1.95-2.76-4-3.94-6.11-2.46-4.39-4.27-8.84-5.74-13.65-3.02-9.88-4.39-20.24-4.7-30.54-.17-5.65.02-11.3.57-16.92.03-.29-.46-.36-.51-.07-1.74,10.23-2.42,20.73-1.46,31.08.97,10.44,3.45,20.76,8.22,30.15,1.26,2.48,2.68,4.89,4.28,7.17.86,1.22,1.8,2.38,2.78,3.5.46.53.94,1.05,1.43,1.56.52.54,1.16.99,1.76,1.44,1.02.77,2.5-.75,1.76-1.76-1.5-2.08-2.97-3.83-4.46-5.83Z"/>
              <g>
                <path class="cls-60" d="M2646.21,790.68c-.29-1.4-.55-2.81-.78-4.22-.11-.67-.22-1.33-.32-2-.05-.35-.1-.71-.15-1.06-.02-.17-.05-.34-.07-.51,0,.02,0,.01-.01-.08,0,.03,0,.05.01.08,0-.05-.03-.27-.04-.33-.74-5.72-1.05-11.49-1.04-17.26,0-3.26.14-6.52.4-9.77.08-1.05-.99-2.06-2.02-2.02-1.18.05-1.9.89-2.02,2.02-1.17,11.74-.61,23.56,1.61,35.15.31,1.61.67,3.18,1.11,4.76.24.86.49,1.69.85,2.51.34.77.77,1.51,1.2,2.23.67,1.13,2.49.66,2.49-.67,0-1.52-.08-2.98-.38-4.47-.29-1.45-.54-2.9-.84-4.34Z"/>
                <path class="cls-60" d="M2644.88,782.88s0-.05-.01-.08c.01.09.01.1.01.08Z"/>
              </g>
              <path class="cls-60" d="M2660.26,699.66c-4.45,6.43-8.24,13.26-11.28,20.48-3,7.13-5.28,14.52-6.85,22.1-.91,4.39-1.58,8.83-2.04,13.29-.11,1.09,1.04,2.13,2.09,2.09,1.2-.05,1.99-.92,2.09-2.09.15-1.9.34-3.81.57-5.7.12-.98.19-1.48.34-2.53.14-.95.29-1.89.45-2.84.64-3.74,1.45-7.44,2.42-11.11,1.95-7.35,4.48-14.51,7.6-21.45,1.76-3.93,3.74-7.76,5.91-11.48.49-.84-.75-1.54-1.3-.76Z"/>
            </g>
          </g>
        </g>
        <path class="cls-18" d="M2085.5,1162.46c-47.93-13.7-68.48,0-123.26,27.39-52.66,26.33-269.82,103.28-286.58,109.21,56.97,34.57,114.14,81.59,170.16,144.16v554.66l289.59-173.25h0l32.5-19.45,479.09-286.64,157.5,34.24-26.04-208.38c-157.5-20.54-692.97-181.94-692.97-181.94Z"/>
        <g class="cls-58">
          <path class="cls-23" d="M1890.83,1350.52c-34.44-44.26-6.38-99.2,22.59-139.61-83.15,33.37-224.37,83.41-237.75,88.14,56.97,34.57,114.14,81.59,170.17,144.16v213.28c56.03,7.58,144.34-5.05,245.99-103.72,70.42-68.36,130.93-106.33,194.63-127.63-46.61-92.27-339.95-3.09-395.63-74.62Z"/>
        </g>
        <path class="cls-36" d="M3081.36,860.04l-310.53,273.99s-66.97,190.37-71.75,211.49c-4.78,21.12,4.67,31.28,4.67,31.28l100.75,175.97,100.26,24.7,265.95-603.21-64.68-110.28c-5.15-8.79-17.04-10.69-24.68-3.95Z"/>
        <path class="cls-31" d="M3067.18,849.52l-314.32,278.31s-68.42,192.4-73.57,214.51c-5.14,22.13,4.12,34.46,4.12,34.46l95.06,170.31,26.04,5.66-100.75-175.97s-9.45-10.17-4.67-31.29c4.79-21.11,71.76-211.49,71.76-211.49l310.52-273.99c7.64-6.74,19.53-4.84,24.68,3.95-13.69-23.34-38.86-14.47-38.86-14.47Z"/>
        <path class="cls-18" d="M3021.38,995.91c-2.29,1.3-4.53,2.88-6.7,4.79l-88.42,77.66c-17.07,14.98-18.35,41.11-2.86,57.7l33.26,35.61c2.31,2.48,4.88,4.53,7.59,6.19,17.13,10.38,40.63,4.43,50.03-14.78l58.97-120.51c13.8-33.49-23.03-63.01-51.88-46.65Z"/>
        <path class="cls-18" d="M2902,1197.03c-9.08-8.69-20.79-12.14-31.96-10.99-13.77,1.41-26.72,9.81-32.91,24.01l-44.16,101.15c-9,20.61-6.57,44.43,6.4,62.8l35.31,50.02c4.95,7.01,11.44,11.8,18.52,14.49,19.65,7.47,43.86-1.21,52.3-23.48l50.73-133.87c5.44-14.36,1.77-30.59-9.34-41.21l-44.89-42.92Z"/>
        <path class="cls-36" d="M2503.21,1326.8s-191.74,34.24-225.97,41.09c-34.24,6.85-54.78,20.54-54.78,20.54l-273.91,232.82c-27.39,20.54-41.09,47.93-41.09,47.93-27.39,75.32,34.24,102.72,34.24,102.72l226.22,33.27,479.09-286.64s-47.93-109.56-68.48-157.5c-20.54-47.93-75.32-34.24-75.32-34.24Z"/>
        <path class="cls-31" d="M1907.46,1669.19s9.66-19.32,28.97-37.68c-70.05,46.15-69.9,79.42-63.21,106.15,10.51,42.01,41.09,47.93,41.09,47.93l221.11,39.02h0l32.5-19.45-226.22-33.27s-61.63-27.39-34.24-102.72Z"/>
        <path class="cls-18" d="M2258.5,1527.49c-15.66-43.2-57.24-14.04-57.24-14.04l-3.34,2.88-141.38,121.87c-19.98,31.86,10.8,52.38,10.8,52.38l87.41,30.77,9.25,3.26,115.56-86.4c10.9-8.15,4.86-29.7,4.86-29.7,0,0-10.26-37.8-25.92-81Z"/>
        <path class="cls-31" d="M2258.5,1527.49c-15.66-43.2-57.24-14.04-57.24-14.04l-3.34,2.88c11.31,1.79,26.28,7.62,33.35,25.3,12.18,30.46,23.89,81.05,23.89,81.05,0,0,4.69,18.74-8.43,30.45-11.28,10.06-74.41,55.59-91.98,68.21l9.25,3.26,115.56-86.4c10.9-8.15,4.86-29.7,4.86-29.7,0,0-10.26-37.8-25.92-81Z"/>
        <path class="cls-18" d="M2535.07,1396.89c-17.51-30.3-42.14-17.52-42.14-17.52,0,0-152.9,55.38-180.35,68.64-27.46,13.25-18.94,34.09-18.94,34.09,0,0,10.89,52.07,25.56,88.52,14.68,36.45,47.34,22.25,47.34,22.25l151.86-76.18s0,0,.02,0l25.64-12.86c27.45-17.1,17.52-39.45,17.52-39.45,0,0-9-37.18-26.52-67.48Z"/>
        <path class="cls-31" d="M2535.07,1396.89c-17.51-30.3-42.14-17.52-42.14-17.52,0,0-152.9,55.38-180.35,68.64l163.4-56.15s19.97-.8,30.36,17.97c10.39,18.78,25.56,67.11,25.56,67.11,0,0,6.98,25.56-13.48,39.74l25.64-12.86c27.45-17.1,17.52-39.45,17.52-39.45,0,0-9-37.18-26.52-67.48Z"/>
        <path class="cls-31" d="M3021.38,995.91c6.83,1.38,14.94,4.25,16.08,10.14l-73.2,171.8c17.13,10.38,40.63,4.43,50.03-14.78l58.97-120.51c13.8-33.49-23.03-63.01-51.88-46.65Z"/>
        <path class="cls-31" d="M2902,1197.03c-9.08-8.69-20.79-12.14-31.96-10.99l63.36,64.24-80.2,188.23c19.65,7.47,43.86-1.21,52.3-23.48l50.73-133.87c5.44-14.36,1.77-30.59-9.34-41.21l-44.89-42.92Z"/>
      </g>
      <g>
        <rect class="cls-51" x="99.83" width="809.98" height="821.14"/>
        <g>
          <rect class="cls-8" x="135.15" y="38.57" width="733.32" height="744" transform="translate(1003.62 821.14) rotate(180)"/>
          <g class="cls-63">
            <g>
              <g>
                <polygon class="cls-67" points="182.03 761.41 255.1 761.41 255.1 284.94 182.03 337.89 182.03 761.41"/>
                <rect class="cls-67" x="240.48" y="458.1" width="72.02" height="303.31"/>
                <rect class="cls-67" x="312.5" y="308.12" width="67.85" height="453.29"/>
                <rect class="cls-67" x="373.04" y="510.93" width="35.49" height="250.48"/>
                <rect class="cls-67" x="400.18" y="408.47" width="39.66" height="352.94"/>
                <polygon class="cls-67" points="433.59 761.41 515 761.41 515 172.66 433.59 268.33 433.59 761.41"/>
                <rect class="cls-67" x="507.69" y="319.92" width="86.64" height="441.49"/>
                <rect class="cls-67" x="585.98" y="512.02" width="39.66" height="249.39"/>
                <rect class="cls-67" x="619.38" y="385.64" width="50.1" height="375.77"/>
                <polygon class="cls-67" points="668.44 323.29 668.44 761.41 774.91 761.41 774.91 323.29 721.57 268.29 668.44 323.29"/>
                <g class="cls-27">
                  <rect class="cls-36" x="764.47" y="453.04" width="110.64" height="308.37"/>
                </g>
                <rect class="cls-67" x="843.73" y="249.55" width="70.98" height="510.58"/>
                <rect class="cls-39" x="928.35" y="407.54" width="59.5" height="353.87"/>
                <rect class="cls-67" x="99.42" y="413.81" width="94.55" height="347.6"/>
                <rect class="cls-39" x="37.18" y="462.12" width="69.42" height="299.29"/>
              </g>
              <g>
                <polygon class="cls-54" points="769.93 784.53 843 784.53 843 424.26 769.93 371.31 769.93 784.53"/>
                <rect class="cls-54" x="712.52" y="615.64" width="72.02" height="168.89"/>
                <rect class="cls-54" x="644.68" y="465.67" width="67.85" height="318.86"/>
                <rect class="cls-54" x="664.63" y="343.9" width="27.94" height="355.11"/>
                <rect class="cls-54" x="675.91" y="187.82" width="5.38" height="453.29"/>
                <rect class="cls-54" x="616.49" y="588.68" width="35.49" height="195.85"/>
                <rect class="cls-54" x="585.18" y="538.13" width="39.66" height="246.4"/>
                <polygon class="cls-54" points="510.03 784.53 591.44 784.53 591.44 272.5 510.03 342.66 510.03 784.53"/>
                <rect class="cls-54" x="430.7" y="477.47" width="86.64" height="307.07"/>
                <rect class="cls-54" x="399.38" y="669.57" width="39.66" height="114.97"/>
                <rect class="cls-54" x="355.54" y="543.19" width="50.1" height="241.35"/>
                <polygon class="cls-54" points="250.12 480.84 250.12 784.53 356.59 784.53 356.59 480.84 303.46 425.83 250.12 480.84"/>
                <rect class="cls-54" x="149.91" y="610.59" width="110.64" height="173.94"/>
                <rect class="cls-54" x="89.37" y="242.24" width="70.98" height="542.29"/>
                <rect class="cls-16" x="37.18" y="565.09" width="59.5" height="219.44"/>
                <rect class="cls-54" x="831.06" y="571.36" width="94.55" height="213.17"/>
                <rect class="cls-16" x="918.43" y="619.66" width="69.42" height="164.87"/>
                <g class="cls-27">
                  <rect class="cls-36" x="562.72" y="356.41" width="11.87" height="51.6"/>
                </g>
                <g class="cls-27">
                  <rect class="cls-36" x="533.03" y="356.41" width="11.87" height="51.6"/>
                </g>
                <g class="cls-27">
                  <rect class="cls-36" x="562.72" y="454.46" width="11.87" height="51.6"/>
                </g>
                <g class="cls-27">
                  <rect class="cls-36" x="533.03" y="454.46" width="11.87" height="51.6"/>
                </g>
                <g class="cls-27">
                  <rect class="cls-36" x="562.72" y="552.51" width="11.87" height="51.6"/>
                </g>
                <g class="cls-27">
                  <rect class="cls-36" x="533.03" y="552.51" width="11.87" height="51.6"/>
                </g>
                <g class="cls-27">
                  <rect class="cls-36" x="562.72" y="650.56" width="11.87" height="51.6"/>
                </g>
                <g class="cls-27">
                  <rect class="cls-36" x="533.03" y="650.56" width="11.87" height="51.6"/>
                </g>
                <g class="cls-27">
                  <rect class="cls-36" x="483.26" y="514.91" width="11.87" height="51.6"/>
                </g>
                <g class="cls-27">
                  <rect class="cls-36" x="453.58" y="514.91" width="11.87" height="51.6"/>
                </g>
                <g class="cls-27">
                  <rect class="cls-36" x="483.26" y="612.96" width="11.87" height="51.6"/>
                </g>
                <g class="cls-27">
                  <rect class="cls-36" x="453.58" y="612.96" width="11.87" height="51.6"/>
                </g>
                <g class="cls-27">
                  <rect class="cls-36" x="381.88" y="563.57" width="11.87" height="51.6"/>
                </g>
                <g class="cls-27">
                  <rect class="cls-36" x="352.2" y="563.57" width="11.87" height="51.6"/>
                </g>
                <g class="cls-27">
                  <rect class="cls-36" x="381.88" y="661.61" width="11.87" height="51.6"/>
                </g>
                <g class="cls-27">
                  <rect class="cls-36" x="352.2" y="661.61" width="11.87" height="51.6"/>
                </g>
                <g class="cls-27">
                  <rect class="cls-36" x="307.9" y="507.54" width="11.87" height="51.6"/>
                </g>
                <g class="cls-27">
                  <rect class="cls-36" x="278.22" y="507.54" width="11.87" height="51.6"/>
                </g>
                <g class="cls-27">
                  <rect class="cls-36" x="226.79" y="335.94" width="11.87" height="51.6"/>
                </g>
                <g class="cls-27">
                  <rect class="cls-36" x="195.58" y="410.57" width="11.87" height="51.6"/>
                </g>
                <g class="cls-27">
                  <rect class="cls-36" x="195.58" y="494.98" width="11.87" height="51.6"/>
                </g>
                <g class="cls-27">
                  <rect class="cls-36" x="225.54" y="494.98" width="11.87" height="51.6"/>
                </g>
                <g class="cls-27">
                  <rect class="cls-36" x="226.56" y="410.57" width="11.87" height="51.6"/>
                </g>
                <g class="cls-27">
                  <rect class="cls-36" x="307.9" y="605.59" width="11.87" height="51.6"/>
                </g>
                <g class="cls-27">
                  <rect class="cls-36" x="278.22" y="605.59" width="11.87" height="51.6"/>
                </g>
                <g class="cls-27">
                  <rect class="cls-36" x="130.72" y="445.61" width="11.87" height="51.6"/>
                </g>
                <rect class="cls-39" x="101.04" y="445.61" width="11.87" height="51.6"/>
                <g class="cls-27">
                  <rect class="cls-36" x="130.72" y="543.66" width="11.87" height="51.6"/>
                </g>
                <rect class="cls-39" x="101.04" y="543.66" width="11.87" height="51.6"/>
                <g class="cls-27">
                  <rect class="cls-36" x="685.1" y="488.37" width="11.87" height="51.6"/>
                </g>
                <g class="cls-27">
                  <rect class="cls-36" x="655.42" y="488.37" width="11.87" height="51.6"/>
                </g>
                <g class="cls-27">
                  <rect class="cls-36" x="685.1" y="586.42" width="11.87" height="51.6"/>
                </g>
                <g class="cls-27">
                  <rect class="cls-36" x="655.42" y="586.42" width="11.87" height="51.6"/>
                </g>
                <g class="cls-27">
                  <rect class="cls-36" x="813.87" y="444.14" width="11.87" height="51.6"/>
                </g>
                <g class="cls-27">
                  <rect class="cls-36" x="784.19" y="444.14" width="11.87" height="51.6"/>
                </g>
                <g class="cls-27">
                  <rect class="cls-36" x="813.87" y="542.19" width="11.87" height="51.6"/>
                </g>
                <g class="cls-27">
                  <rect class="cls-36" x="784.19" y="542.19" width="11.87" height="51.6"/>
                </g>
              </g>
            </g>
            <g class="cls-24">
              <circle class="cls-14" cx="780.64" cy="140.46" r="43.09" transform="translate(464.59 867.95) rotate(-76.72)"/>
            </g>
          </g>
        </g>
        <g class="cls-45">
          <polygon class="cls-14" points="207.42 38.57 868.47 782.57 868.47 714.45 268.77 38.57 207.42 38.57"/>
        </g>
        <g class="cls-45">
          <polygon class="cls-14" points="511.51 40.34 347.25 39.39 868.61 602.53 865.6 329.87 511.51 40.34"/>
        </g>
        <rect class="cls-51" x="495.27" y="30.27" width="19.11" height="760.59"/>
        <rect class="cls-31" x="0" y="821.14" width="960.93" height="31.9"/>
      </g>
      <g>
        <path class="cls-48" d="M2462.46,1168.36l-181.77-48.16-43.35,66.21s186.92,121.42,240.68,127.95c75.12,9.12,154.19-183.05,154.19-183.05l-115.56-63.75-54.19,100.8Z"/>
        <path class="cls-17" d="M2629.58,934.1c-64.63,17.63-97.69,73.8-97.69,73.8,0,0-67.49,122.05-71.8,124.67-4.31,2.62,139.43,107.87,139.43,107.87,0,0,25.84-48.35,63.09-149.72,37.25-101.37-33.03-156.62-33.03-156.62Z"/>
        <g>
          <path class="cls-29" d="M2246.26,1083.85c2.72,20.47,35.21,36,35.21,36,0,0-15.85-33.1-16.45-44.8-.6-11.7-21.48-11.66-18.76,8.81Z"/>
          <g>
            <path class="cls-48" d="M2234.78,1071.5c-12.07-5.99-66.41-23.34-70.89-10.25-2.6,7.56,16.24,13.95,30.22,17.58-14.41-2.69-34.74-4.71-36.2,5.01-.95,6.36,8.39,10.55,19.56,13.27-8.57.17-15.36,2.17-15.31,8.09.06,6.24,13.58,10.71,26.68,13.57-9.83-.73-18.95.13-19.15,5.84-.47,13.75,46.09,21.71,46.09,21.71,4.03,30.41,18.3,46.26,31.65,51.28.29.34,7.57-1.35,7.57-1.35,0,0,10.21-46.49,27.36-75.79-5.64-7.45-13.57-15.72-19.08-22.51-7.03-8.67-20.4-22.46-28.48-26.46Z"/>
            <g>
              <path class="cls-29" d="M2223.07,1085.07c-34.76-12.57-55.66-8.09-55.08-8.1,13.69-.16,34.32,4.08,40.07,5.36,5.73,1.27,9.23,1.69,14.97,2.96.14.03.17-.17.04-.22Z"/>
              <path class="cls-29" d="M2221.15,1106.46c-16.07-7.02-36.39-9.66-43.53-9.48-.58.02-.43.25.14.36,7.35,1.42,36.11,7.53,43.35,9.3.11.03.14-.13.03-.18Z"/>
              <path class="cls-29" d="M2186.82,1118.64c-.57-.02-.34.35.24.45,11.31,1.9,20.2,3.3,33.55,6.28.21.05.35-.3.12-.38-14.84-5.2-22.01-6.03-33.92-6.34Z"/>
            </g>
          </g>
        </g>
        <g class="cls-52">
          <path class="cls-10" d="M2545.44,992.15l-84.96,145.8,125.01,94.68s-57.75-82.25-71.9-107.44c-14.15-25.19,31.85-133.04,31.85-133.04Z"/>
        </g>
      </g>
      <g>
        <g>
          <g>
            <g>
              <path class="cls-51" d="M3374.06,1913.15c-16.85,0-30.5,13.66-30.5,30.5s13.66,30.5,30.5,30.5,30.5-13.66,30.5-30.5-13.66-30.5-30.5-30.5Z"/>
              <path class="cls-55" d="M3374.06,1925.86c-9.83,0-17.79,7.97-17.79,17.79s7.97,17.79,17.79,17.79,17.79-7.97,17.79-17.79-7.97-17.79-17.79-17.79Z"/>
              <g>
                <path d="M3385.88,1874.56h-23.65c-5.7,0-10.36,4.66-10.36,10.36s4.66,10.36,10.36,10.36h1.35v49.3c0,5.76,4.71,10.48,10.48,10.48s10.48-4.71,10.48-10.48v-49.3h1.35c5.7,0,10.36-4.66,10.36-10.36s-4.66-10.36-10.36-10.36Z"/>
                <path class="cls-14" d="M3374.06,1937.18c-3.57,0-6.47,2.9-6.47,6.47s2.9,6.47,6.47,6.47,6.47-2.9,6.47-6.47-2.9-6.47-6.47-6.47Z"/>
              </g>
            </g>
            <g>
              <path class="cls-36" d="M3374.06,1962.95c-16.85,0-30.5,13.66-30.5,30.5s13.66,30.5,30.5,30.5,30.5-13.66,30.5-30.5-13.66-30.5-30.5-30.5Z"/>
              <path class="cls-55" d="M3374.06,1975.66c-9.83,0-17.79,7.97-17.79,17.79s7.97,17.79,17.79,17.79,17.79-7.97,17.79-17.79-7.97-17.79-17.79-17.79Z"/>
              <g>
                <path class="cls-54" d="M3385.88,1924.36h-23.65c-5.7,0-10.36,4.66-10.36,10.36s4.66,10.36,10.36,10.36h1.35v49.3c0,5.76,4.71,10.48,10.48,10.48s10.48-4.71,10.48-10.48v-49.3h1.35c5.7,0,10.36-4.66,10.36-10.36s-4.66-10.36-10.36-10.36Z"/>
                <path class="cls-14" d="M3374.06,1986.98c-3.57,0-6.47,2.9-6.47,6.47s2.9,6.47,6.47,6.47,6.47-2.9,6.47-6.47-2.9-6.47-6.47-6.47Z"/>
              </g>
            </g>
            <g>
              <circle class="cls-51" cx="3159.61" cy="1943.65" r="30.5" transform="translate(-362.04 777.92) rotate(-13.28)"/>
              <path class="cls-55" d="M3159.75,1925.95c-9.83,0-17.79,7.97-17.79,17.79s7.97,17.79,17.79,17.79,17.79-7.97,17.79-17.79-7.97-17.79-17.79-17.79Z"/>
              <g>
                <path d="M3171.43,1874.56h-23.65c-5.7,0-10.36,4.66-10.36,10.36s4.66,10.36,10.36,10.36h1.35v49.3c0,5.76,4.71,10.48,10.48,10.48s10.48-4.71,10.48-10.48v-49.3h1.35c5.7,0,10.36-4.66,10.36-10.36s-4.66-10.36-10.36-10.36Z"/>
                <path class="cls-14" d="M3159.61,1937.18c-3.57,0-6.47,2.9-6.47,6.47s2.9,6.47,6.47,6.47,6.47-2.9,6.47-6.47-2.9-6.47-6.47-6.47Z"/>
              </g>
            </g>
            <g>
              <circle class="cls-36" cx="3159.61" cy="1993.45" r="30.5" transform="translate(-197.23 3633.16) rotate(-58.28)"/>
              <circle class="cls-55" cx="3159.61" cy="1993.45" r="17.79" transform="translate(864.51 4941.25) rotate(-84.34)"/>
              <g>
                <path class="cls-54" d="M3171.43,1924.36h-23.65c-5.7,0-10.36,4.66-10.36,10.36s4.66,10.36,10.36,10.36h1.35v49.3c0,5.76,4.71,10.48,10.48,10.48s10.48-4.71,10.48-10.48v-49.3h1.35c5.7,0,10.36-4.66,10.36-10.36s-4.66-10.36-10.36-10.36Z"/>
                <path class="cls-14" d="M3159.61,1986.98c-3.57,0-6.47,2.9-6.47,6.47s2.9,6.47,6.47,6.47,6.47-2.9,6.47-6.47-2.9-6.47-6.47-6.47Z"/>
              </g>
            </g>
            <g>
              <path class="cls-22" d="M3135.17,1883.95c0,7.23,3.26,14.26,8.36,19.51,2.94-1.77,6.18-3.03,9.59-3.58l113.72-18.51-107.65-17.52c-13.21-2.15-24.01,6.9-24.01,20.1Z"/>
              <path class="cls-22" d="M3374.48,1863.84l-107.65,17.52,113.72,18.51c3.41.55,6.65,1.81,9.59,3.58,5.1-5.24,8.36-12.27,8.36-19.51,0-13.21-10.81-22.25-24.01-20.1Z"/>
              <path class="cls-31" d="M3390.14,1903.45c-2.94-1.77-6.18-3.03-9.59-3.58l-113.72-18.51-113.72,18.51c-3.41.55-6.65,1.81-9.59,3.58-8.47,5.1-14.42,14.54-14.42,24.34,0,13.21,10.81,22.25,24.01,20.1l113.72-18.51,113.72,18.51c13.21,2.15,24.01-6.9,24.01-20.1,0-9.8-5.96-19.24-14.42-24.34Z"/>
              <path class="cls-22" d="M3380.55,1930.06l-113.72-18.51-113.72,18.51c-10.03,1.63-18.66-3.2-22.24-11.41-1.11,2.93-1.77,6.01-1.77,9.14,0,13.21,10.81,22.25,24.01,20.1l113.72-18.51,113.72,18.51c13.21,2.15,24.01-6.9,24.01-20.1,0-3.13-.67-6.21-1.77-9.14-3.58,8.2-12.21,13.04-22.24,11.41Z"/>
            </g>
          </g>
          <path class="cls-22" d="M3266.83,263.42h-336.71c-12,0-21.73,9.73-21.73,21.73s9.73,21.73,21.73,21.73h314.98v1567.95c0,12,9.73,21.73,21.73,21.73s21.73-9.73,21.73-21.73V285.15c0-12-9.73-21.73-21.73-21.73Z"/>
          <path class="cls-31" d="M3248.4,284.47h-336.71c-1.12,0-2.19.17-3.26.33,0,.12-.04.23-.04.35,0,12,9.73,21.73,21.73,21.73h314.98v1567.95c0,12,9.73,21.73,21.73,21.73,1.12,0,2.19-.17,3.26-.33,0-.12.04-.23.04-.35V306.2c0-12-9.73-21.73-21.73-21.73Z"/>
        </g>
        <path class="cls-22" d="M2952.04,1200.87c-1.79-48.87-2.71-102.9-2.75-161.9-.13-209.43,11.05-409.5,11.16-411.49.07-1.25-.89-2.33-2.14-2.4-1.25-.08-2.33.89-2.4,2.14-.11,2-11.3,202.17-11.17,411.74.04,59.1.96,113.39,2.75,162.55-66.09,9.33-138.79,25.14-208.01,43.85-176.41,47.68-216.91,44.16-263.55,19.33-14.08-7.5-26.77-17.08-37.74-28.48-.87-.91-2.31-.93-3.22-.06-.91.87-.93,2.31-.06,3.22,11.3,11.75,24.38,21.62,38.88,29.34,22.11,11.77,44.64,26.88,100.02,19,47.69-6.79,107.29-20.34,166.42-35.64,69.13-17.89,141.75-36.68,207.43-45.99,1.94,51.39,4.85,97.09,8.7,136.73,9.58,98.55,25.19,160.03,46.39,182.73,21.8,23.35,47.28,35.39,72.8,35.39,14.45,0,28.92-3.87,42.72-11.73,30.12-17.16,52.86-50.84,64.03-94.85,12.62-49.73,9.57-109.27-8.83-172.21-24.59-84.12-113.53-95.85-221.43-81.27ZM3116.03,1545.25c-36.23,20.64-77.33,12.11-109.94-22.81-28.84-30.89-47.14-139.41-53.87-316.99,106.02-14.38,193.18-3.16,216.9,77.98,39.87,136.41.43,231.34-53.09,261.83Z"/>
        <rect class="cls-54" x="2420.92" y="1220.54" width="47.05" height="29.66" rx="7.44" ry="7.44" transform="translate(-93.88 2264.13) rotate(-48.87)"/>
        <g>
          <g>
            <g>
              <path class="cls-51" d="M2925.35,359.25h60.98c31.76,0,57.55,25.79,57.55,57.55v123.4c0,31.76-25.79,57.55-57.55,57.55h-60.98c-31.76,0-57.55-25.79-57.55-57.55v-123.4c0-31.76,25.79-57.55,57.55-57.55Z"/>
              <path class="cls-14" d="M2985.69,379.29h-59.7c-23.87,0-43.39,19.53-43.39,43.39v53.46h146.48v-53.46c0-23.86-19.53-43.39-43.39-43.39Z"/>
              <path class="cls-54" d="M2882.59,534.31c0,23.87,19.53,43.39,43.39,43.39h59.7c23.87,0,43.39-19.53,43.39-43.39v-58.17h-146.48v58.17Z"/>
              <g class="cls-58">
                <path class="cls-14" d="M3002.51,360.4v119.86c0,28.69-23.47,52.16-52.16,52.16h-71.76c-3.7,0-7.3-.4-10.79-1.15v14.33c0,28.69,23.47,52.16,52.16,52.16h71.76c28.69,0,52.16-23.47,52.16-52.16v-134.18c0-24.99-17.81-46-41.37-51.01Z"/>
              </g>
              <path class="cls-51" d="M2959.17,586.09c-5.49,0-9.99,4.49-9.99,9.99v36.53c0,5.49,4.49,9.99,9.99,9.99s9.99-4.49,9.99-9.99v-36.53c0-5.49-4.49-9.99-9.99-9.99Z"/>
            </g>
            <path class="cls-14" d="M2910.61,392.74c-4.76,0-8.65,3.89-8.65,8.65v31.6c0,4.76,3.89,8.65,8.65,8.65s8.65-3.89,8.65-8.65v-31.6c0-4.76-3.89-8.65-8.65-8.65Z"/>
            <path class="cls-14" d="M2911.68,446.81c-4.17,0-7.58,3.41-7.58,7.58s3.41,7.58,7.58,7.58,7.58-3.41,7.58-7.58-3.41-7.58-7.58-7.58Z"/>
          </g>
          <g>
            <path class="cls-50" d="M2967.38,485.71c-4.73,0-8.56,3.83-8.56,8.56s3.83,8.56,8.56,8.56,8.56-3.83,8.56-8.56-3.83-8.56-8.56-8.56Z"/>
            <circle class="cls-50" cx="2922.55" cy="502.82" r="13.35"/>
          </g>
          <path class="cls-51" d="M2953.66,306.8c-6.71,0-12.21,5.49-12.21,12.21v43.98c0,6.71,5.49,12.21,12.21,12.21s12.21-5.49,12.21-12.21v-43.98c0-6.71-5.49-12.21-12.21-12.21Z"/>
        </g>
      </g>
      <g>
        <ellipse class="cls-23" cx="3609.9" cy="1912.75" rx="134.42" ry="20.35"/>
        <g>
          <path class="cls-10" d="M3629.04,1212.95c-21.76,9.82-40.41,24.34-56.35,42.17-5.45,20.91-9.27,43.02-9.27,43.02l-4.52-25.9c-1.37,1.89-2.73,3.79-4.06,5.74-1.08,18.15-1.2,36-1.2,36l-5.75-25.18c-75.59,123.86-65.5,335.26-42.93,367.69,28.65,41.16,67.52,21.94,67.52,21.94,51.95-8.01,50.34-112.28,53.86-200-10.68,7.97-18.88,14.87-18.88,14.87l20.24-41.97c1.69-26.63,4.54-50.33,10.5-67.37,26.49-75.71,152.16-243.8-9.15-171.01Z"/>
          <path class="cls-25" d="M3614.11,1283.12c-9.42,10.5-18.34,24.43-26.52,41.4-21.56,44.71-36.65,107.12-44.84,185.48-9.68,92.65,10.49,199.58,29.12,272.96,20.17,79.47,42.94,137.83,43.17,138.41l2.79-1.1c-.23-.58-22.93-58.79-43.06-138.09-33.63-132.5-34.35-220.98-29.04-271.87,8.15-78.02,23.14-140.09,44.55-184.49,14.23-29.5,31.73-50.8,46.82-56.95l-1.13-2.78c-4.75,1.94-12.39,6.47-21.86,17.03Z"/>
          <path class="cls-17" d="M3417.72,1431.23l2.73,25.73s-6.68-16.94-14.56-33.88c-2.21-1.44-4.45-2.83-6.7-4.21l4.39,26.04s-12.43-19.86-26.26-38.07c-24.58-12.05-50.99-20.12-79.21-22.75-209.19-19.52-5.4,101.64,52.33,165.5,12.99,14.37,24.9,36.04,36.57,60.85l38.28,33.69s-11.8-4.04-26.81-8.33c36.13,82.36,72.53,182.05,134.25,173.66,0,0,51.02,6.31,68.34-41.68,13.65-37.8-52.43-242.03-183.35-336.56Z"/>
          <path class="cls-25" d="M3504.3,1640c-37.99-72.03-77.93-126.74-118.71-162.63-15.46-13.61-30.64-24.09-45.12-31.17-14.51-7.1-24.75-9.04-30.78-9.41l-.19,2.99c28.8,1.8,64,30.95,74.1,39.84,40.5,35.64,80.22,90.07,118.04,161.78,44.67,84.69,61.42,156.1,67.59,201.09,6.69,48.75,2.77,77.84,2.73,78.13l2.97.42c.04-.29,4.02-29.69-2.71-78.8-6.2-45.26-23.02-117.08-67.93-202.23Z"/>
          <g>
            <g class="cls-9">
              <path class="cls-57" d="M3817.86,1334.11c1.82,19.93-20.78,62.98-47.41,131.88-11.73,31.27-20.58,55.38-26.93,75.37-6.34,20-10.17,35.89-11.87,50.71-4.28,37.37-5.67,69.48-6.28,97.29,8.34-65.34,23.04-63.11,55.92-170.96,45.19-148.2,36.6-184.35,36.6-184.35l-.02.05Z"/>
            </g>
            <path class="cls-61" d="M3813.82,1325.03c-12.43-11.18-44.78,7.12-57.83,14.46-11.29,6.35-36.49,22.72-59.62,57.2l-5.44,53.65-7.19-32.35c-4.48,8.55-8.78,17.84-12.69,28.14-21.45,56.43-7.43,75.01-14.3,130.36l11.86,42.15-15.01-22.22c-1.16,6.12-2.54,12.6-4.24,19.59-15.98,65.8-32.86,70.08-36.14,122.89-2.91,46.72,5.87,114.59,36.14,122.89,21.18,5.81,45.23-19.63,48.8-23.49,40.58-44.01,17.93-110.22,33.49-246.22,3.39-29.64,15.35-63.54,38.8-126.08,31.87-82.43,57.94-127.86,43.37-140.97Z"/>
            <path class="cls-25" d="M3762.02,1380.62l-.61-1.37-.61-1.37c-.51.23-12.76,5.85-27.52,27.87-24.43,36.45-36.34,89.13-42.03,126.89-19.66,130.44-53.88,411.09-54.22,413.91l2.98.36c.34-2.82,34.56-283.42,54.21-413.82,5.62-37.32,17.36-89.35,41.34-125.35,14.3-21.47,26.35-27.07,26.47-27.12l-.61-1.37.61,1.37Z"/>
          </g>
        </g>
        <path class="cls-18" d="M3742.89,1910.62c-3.66,7.84-61.37,14.08-132.23,14.08s-132.59-6.65-132.59-14.86c0-.04.05-.08.06-.12-22.52,24.9-35.99,56.3-35.99,90.46,0,19.59,4.45,38.27,12.47,55.35-8.02,13.32-12.47,27.89-12.47,43.17,0,63.06,75.2,114.19,167.96,114.19s167.96-51.12,167.96-114.19c0-15.28-4.45-29.85-12.47-43.16,8.02-17.08,12.47-35.76,12.47-55.36,0-33.75-13.15-64.8-35.17-89.56Z"/>
        <g class="cls-37">
          <path class="cls-23" d="M3773.59,2033.62c-62.73,15.53-172.1,28.23-328.13-4.44,2.11,9.12,5.19,17.93,9.15,26.36-3.77,6.26-6.72,12.81-8.82,19.57,71.58,14.56,133.69,20.01,186.31,20.01,60.09,0,107.87-7.03,143.58-15.44-2.08-8.39-5.47-16.47-10.09-24.14,3.31-7.05,5.97-14.38,8-21.92Z"/>
        </g>
      </g>
    </g>
    <g>
      <rect class="cls-5" x="2844.92" y="1834.55" width="282.41" height="362.34"/>
      <path class="cls-35" d="M3057.76,2082.22s54.89.29,80,16.66c0,0,1.68-8.33-10.42-16.66h-69.58Z"/>
      <rect class="cls-5" x="2835.21" y="1899.8" width="297.11" height="82.55"/>
      <path class="cls-35" d="M3000.59,2161.85s103.73,3.18,143.7,28.82c0,0-6.07-16.84-16.83-28.82h-126.87Z"/>
      <rect class="cls-5" x="2898.71" y="2109.47" width="239.13" height="52.38"/>
      <rect class="cls-5" x="3067.94" y="1817.97" width="66.08" height="84.78"/>
      <path class="cls-35" d="M3117.73,1875.92s12.84.07,18.72,3.9c0,0,.39-1.95-2.44-3.9h-16.28Z"/>
      <path class="cls-35" d="M3071.79,1852.55s59.91,4.14,69.26,10.14c0,0-2.02-7.09-5.96-10.14h-63.3Z"/>
      <rect class="cls-5" x="3065.66" y="1833.24" width="69.51" height="19.32"/>
      <path class="cls-35" d="M3104.36,1894.55s24.27.74,33.62,6.74c0,0-1.42-3.94-3.94-6.74h-29.68Z"/>
      <rect class="cls-5" x="3080.52" y="1882.29" width="55.95" height="12.26"/>
      <polygon class="cls-35" points="3127.34 1982.36 2971.67 1983.04 3127.34 2011.93 3127.34 1982.36"/>
      <path class="cls-35" d="M2983.76,2102.59h-138.83l-15.18,19.79s18.99-7.76,154.01-19.79Z"/>
      <g>
        <path class="cls-62" d="M2458.22,2139.79h278.78v76.33h-278.78c-17.11,0-31-13.89-31-31v-14.33c0-17.11,13.89-31,31-31Z"/>
        <path class="cls-30" d="M2786.59,2147.65v60.62h5.06v7.86h-209.27c-11.63,0-21.07-9.43-21.07-21.07v-34.2c0-11.63,9.43-21.07,21.07-21.07h209.27v7.86h-5.06Z"/>
        <path class="cls-19" d="M2607.07,2147.65h179.51v60.62h-179.52c-16.73,0-30.31-13.58-30.31-30.31h0c0-16.73,13.58-30.31,30.31-30.31Z"/>
        <path class="cls-7" d="M2446.91,2051.02h303.59v88.77h-303.59c-21.5,0-38.96-17.46-38.96-38.96v-10.86c0-21.5,17.45-38.95,38.95-38.95Z"/>
        <path class="cls-65" d="M2806.56,2060.16v70.5h4.36v9.14h-171.91c-14.62,0-26.47-11.85-26.47-26.47v-35.83c0-14.62,11.85-26.47,26.47-26.47h171.91v9.14h-4.36Z"/>
        <path class="cls-19" d="M2661.1,2060.15h145.46v70.5h-145.46c-19.45,0-35.25-15.79-35.25-35.25h0c0-19.45,15.79-35.25,35.25-35.25Z"/>
        <path class="cls-26" d="M2564.94,1942.16h226.72v108.83h-226.72c-23.27,0-42.16-18.89-42.16-42.16v-24.52c0-23.27,18.89-42.16,42.16-42.16Z" transform="translate(5314.44 3993.16) rotate(180)"/>
        <path class="cls-30" d="M2479.75,1953.37v86.43h-4.39v11.2h171.27c15.82,0,28.65-12.83,28.65-28.65v-51.54c0-15.82-12.83-28.65-28.65-28.65h-171.27v11.2h4.39Z"/>
        <path class="cls-19" d="M2521.66,1953.37h138.03v86.43h-138.03c-23.13,0-41.9-18.78-41.9-41.9v-2.62c0-23.13,18.78-41.91,41.91-41.91Z" transform="translate(5139.43 3993.16) rotate(180)"/>
        <path class="cls-21" d="M2462.15,1833.3h240.52v108.83h-240.52c-24.46,0-44.32-19.86-44.32-44.32v-20.19c0-24.46,19.86-44.32,44.32-44.32Z"/>
        <path class="cls-65" d="M2748.26,1844.51v86.43h4.66v11.2h-181.68c-16.63,0-30.12-13.48-30.12-30.12v-48.61c0-16.63,13.48-30.12,30.12-30.12h181.68v11.2h-4.66Z"/>
        <path class="cls-19" d="M2600.15,1844.51h148.11v86.43h-148.11c-23.85,0-43.22-19.36-43.22-43.22h0c0-23.85,19.36-43.22,43.22-43.22Z"/>
        <path class="cls-28" d="M2517.18,1750.91h257.33v82.36h-257.33c-15.18,0-27.51-12.33-27.51-27.51v-27.34c0-15.18,12.33-27.51,27.51-27.51Z"/>
        <path class="cls-65" d="M2820.11,1759.39v65.41h4.66v8.48h-193.1c-10.32,0-18.69-8.37-18.69-18.69v-44.98c0-10.32,8.37-18.69,18.69-18.69h193.1v8.48h-4.66Z"/>
        <path class="cls-19" d="M2654.68,1759.39h165.42v65.41h-165.42c-15.18,0-27.51-12.33-27.51-27.51v-10.39c0-15.18,12.33-27.51,27.51-27.51Z"/>
      </g>
      <g>
        <g>
          <rect class="cls-47" x="2616.73" y="1967.15" width="261.46" height="261.46"/>
          <rect class="cls-43" x="2717.07" y="1967.15" width="60.78" height="30.39"/>
        </g>
        <path class="cls-41" d="M2715.36,2065.07h64.2c9.04,0,16.38,7.34,16.38,16.38v2.32c0,9.04-7.34,16.38-16.38,16.38h-64.2c-9.04,0-16.38-7.34-16.38-16.38v-2.32c0-9.04,7.34-16.38,16.38-16.38Z"/>
      </g>
      <g>
        <g>
          <rect class="cls-32" x="2441.78" y="2041.78" width="186.83" height="186.83"/>
          <rect class="cls-43" x="2513.48" y="2041.78" width="43.43" height="21.72"/>
        </g>
        <path class="cls-42" d="M2512.26,2111.75h45.88c6.46,0,11.71,5.25,11.71,11.71v1.66c0,6.46-5.25,11.71-11.71,11.71h-45.88c-6.46,0-11.71-5.25-11.71-11.71v-1.66c0-6.46,5.25-11.71,11.71-11.71Z"/>
      </g>
      <polyline class="cls-5" points="2844.04 1472.36 3126.45 1472.36 3126.45 1834.71 2844.04 1834.71"/>
      <path class="cls-35" d="M3056.87,1720.04s54.89.29,80,16.66c0,0,1.68-8.33-10.42-16.66h-69.58Z"/>
      <polyline class="cls-5" points="2834.32 1537.62 3131.43 1537.62 3131.43 1620.17 2834.32 1620.17"/>
      <path class="cls-35" d="M2999.71,1799.66s103.73,3.18,143.7,28.82c0,0-6.07-16.84-16.83-28.82h-126.87Z"/>
      <rect class="cls-5" x="2897.82" y="1747.28" width="239.13" height="52.38"/>
      <rect class="cls-5" x="3067.05" y="1455.79" width="66.08" height="84.78"/>
      <path class="cls-35" d="M3116.85,1513.74s12.84.07,18.72,3.9c0,0,.39-1.95-2.44-3.9h-16.28Z"/>
      <path class="cls-35" d="M3070.9,1490.37s59.91,4.14,69.26,10.14c0,0-2.02-7.09-5.96-10.14h-63.3Z"/>
      <rect class="cls-5" x="3064.78" y="1471.06" width="69.51" height="19.32"/>
      <path class="cls-35" d="M3103.47,1532.37s24.27.74,33.62,6.74c0,0-1.42-3.94-3.94-6.74h-29.68Z"/>
      <rect class="cls-5" x="3079.63" y="1520.11" width="55.95" height="12.26"/>
      <polygon class="cls-35" points="3126.45 1620.17 2970.78 1620.85 3126.45 1649.74 3126.45 1620.17"/>
      <path class="cls-35" d="M2828.86,1760.2s18.99-7.76,154.01-19.79h-138.83"/>
    </g>
    <g>
      <rect class="cls-5" x="406.92" y="1628.5" width="439.23" height="529.24"/>
      <path class="cls-35" d="M737.93,1990.26s85.38.43,124.42,24.33c0,0,2.62-12.16-16.21-24.33h-108.21Z"/>
      <path class="cls-35" d="M432.53,1844.4s398.24,25.86,460.4,63.32c0,0-13.43-44.24-39.61-63.32h-420.79Z"/>
      <rect class="cls-5" x="391.81" y="1723.82" width="462.08" height="120.58"/>
      <path class="cls-35" d="M649.03,2106.56s161.33,4.64,223.49,42.1c0,0-9.45-24.6-26.18-42.1h-197.31Z"/>
      <rect class="cls-5" x="490.56" y="2030.05" width="371.91" height="76.51"/>
      <rect class="cls-5" x="387.57" y="1259.35" width="305.62" height="368.25" transform="translate(1080.77 2886.95) rotate(180)"/>
      <path class="cls-35" d="M499.66,1511.06s-59.41.3-86.57,16.93c0,0-1.82-8.46,11.28-16.93h75.3Z"/>
      <path class="cls-35" d="M675.37,1409.57s-277.1,18-320.35,44.06c0,0,9.35-30.78,27.56-44.06h292.79Z"/>
      <rect class="cls-5" x="382.19" y="1325.67" width="321.52" height="83.9" transform="translate(1085.9 2735.24) rotate(180)"/>
      <path class="cls-35" d="M561.52,1591.99s-112.25,3.23-155.51,29.29c0,0,6.57-17.12,18.21-29.29h137.29Z"/>
      <rect class="cls-5" x="376.21" y="1538.75" width="258.78" height="53.24" transform="translate(1011.21 3130.74) rotate(-180)"/>
      <path class="cls-35" d="M680.21,1209.76s63.62,39.15,119.17,112.22l-94.57,38.33s-48.63-72.74-110.48-117.17l85.87-33.38Z"/>
      <path class="cls-35" d="M662.56,1653.45s67.55-106.02,198.06-201.34l77.23,150.76s-130.41,84.07-207.79,187.57l-67.5-137Z"/>
      <path class="cls-6" d="M385.84,2145.92h0s0-.03,0-.05v.05Z"/>
      <g>
        <path class="cls-11" d="M231.85,2038.39c30-19.81,65.11-157.88,67.2-240.12,1.07-42.13,14.33-59.68,26.03-75.16,11.18-14.8,20.84-27.58,15.22-56.93-10.75-56.09,17.51-80.3,17.8-80.54l-3.27-3.5c-1.26,1.04-30.7,26.01-19.41,84.87,5.26,27.42-3.41,38.89-14.38,53.41-11.51,15.23-25.84,34.2-26.95,77.74-2.25,88.26-38.14,218.62-65.09,236.42l2.85,3.81Z"/>
        <path class="cls-44" d="M168.97,1998.12c-2.83-6.03-5.76-12.26-9.08-18.84-17.14-33.97-32.32-39.57-57.47-48.84-6.14-2.27-13.11-4.83-20.76-8.06-36.03-15.21-29.05-37.61-22.9-57.38.86-2.77,1.72-5.52,2.46-8.25,3.17-11.63-2.92-17.46-12.13-26.29-6.85-6.56-15.37-14.73-21.94-27.63-7.19-14.12-3.53-21.69.81-25.55,9.14-8.13,30.21-6.64,50.11,3.57,6.18,3.17,11.27,8.17,16.66,13.47,12.68,12.47,28.47,28,68.39,28.17,22.76.1,35.23,3.05,41.69,9.87,7.33,7.73,5.95,19.31,4.03,35.34-.66,5.54-1.41,11.82-1.87,18.61-2.72,40.5,22.74,69.71,22.99,69.99,15.21,17.01,33.94,52.29,25.86,74.01-3.39,9.1-10.97,14.83-22.53,17.03-4.61.87-8.81,1.29-12.68,1.29-27.92,0-38.14-21.75-51.65-50.51ZM75.7,1784.94c-17.77-9.11-36.82-10.95-44.32-4.27-5.7,5.07-3.01,13.76.25,20.16,6.22,12.2,14.08,19.74,21.01,26.38,9.64,9.24,17.26,16.54,13.4,30.71-.76,2.78-1.63,5.59-2.51,8.4-6.13,19.69-11.92,38.28,20.17,51.82,7.54,3.18,14.44,5.73,20.54,7.97,25.39,9.36,42.16,15.54,60.14,51.18,3.34,6.63,6.29,12.89,9.13,18.95,15.52,33.03,24.89,52.97,58.82,46.53,9.72-1.85,16.06-6.56,18.83-14,7.13-19.14-9.92-52.65-24.98-69.48-1.1-1.24-26.98-30.87-24.14-73.28.46-6.9,1.22-13.24,1.89-18.84,1.77-14.83,3.05-25.54-2.81-31.72-5.36-5.65-17.08-8.21-38.01-8.31-42.03-.19-58.63-16.5-71.96-29.61-5.33-5.25-9.94-9.78-15.45-12.6h0Z"/>
        <path class="cls-12" d="M232.77,2075.53l4.95-.25c-.24-4.37-6.49-107.41-50.55-137.57-48.33-33.08-63.57-68.64-70.82-92.5-8.55-28.12-52.08-35.64-53.93-35.94l-.86,4.59c.42.07,42.32,7.32,50.02,32.63,7.46,24.53,23.11,61.06,72.67,94.99,42.17,28.86,48.46,133,48.52,134.05Z"/>
        <path class="cls-3" d="M224.39,2098.7c-10.37-4.85-9.99-24.34-9.42-53.84.72-37.28,1.7-88.34-19.08-135.31-22.08-49.89-2.39-64.47,16.65-78.57,21.33-15.79,41.47-30.71,2.81-98.05-17.76-30.92-23.39-51.84-17.74-65.83,5.59-13.82,21.26-19.21,37.86-24.91,28.64-9.84,61.11-21,56.92-77.94-1.29-17.45.9-28.19,6.88-33.78,6.49-6.07,16.06-5.41,27.14-4.65,16.74,1.15,35.7,2.45,52.22-17.79,1.72-5.06,17.51-50.2,36.4-57.93,3.97-1.62,7.86-1.6,11.56.06h0c13.04,5.86,20.61,12.8,23.14,21.24,4.4,14.67-7.04,31.22-20.29,50.37-20.82,30.11-44.42,64.23-19.94,104.84,32.36,53.69,15.27,72.48-8.39,98.49-13.55,14.9-28.92,31.79-39.18,59.33-8.26,22.15,5.83,43.28,19.46,63.7,17.09,25.62,34.76,52.12-2.45,75.11-61.52,38.01-122.28,162.1-122.89,163.34l-.25.52-.48.35c-11.33,8.34-19.59,12.32-25.8,12.32-1.88,0-3.57-.36-5.11-1.08ZM376.18,1919.36c33.16-20.49,18.24-42.85.97-68.74-13.58-20.36-28.98-43.45-19.93-67.71,10.58-28.37,26.26-45.61,40.09-60.82,23.18-25.48,38.49-42.32,7.84-93.17-25.96-43.07-.42-80,20.1-109.68,12.59-18.21,23.47-33.94,19.68-46.58-2.12-7.07-8.82-13.05-20.5-18.3h0c-2.38-1.07-4.81-1.07-7.43,0-17.53,7.17-33.62,54.96-33.78,55.44l-.13.39-.26.32c-18.21,22.59-39.6,21.12-56.79,19.94-10.27-.71-18.39-1.26-23.28,3.31-4.82,4.5-6.59,14.37-5.43,30.15,4.45,60.43-31.37,72.74-60.16,82.63-16.17,5.56-30.14,10.36-34.92,22.19-5.1,12.63.45,32.32,17.47,61.97,40.64,70.78,17.89,87.63-4.1,103.92-18.4,13.63-35.78,26.5-15.15,73.13,21.18,47.86,20.19,99.49,19.46,137.18-.5,25.73-.89,46.05,6.67,49.59,4.43,2.07,12.89-1.43,25.16-10.39,4.92-10.04,63.11-126.9,124.42-164.78Z"/>
        <path class="cls-34" d="M127.28,1557.87c31.31-10.08,24.81,46.59,38.04,88.53,13.23,41.93,147.19,18.29,90.96,123.3-56.23,105.01,71.11,35.12,33.08,126.75-38.04,91.63-3.31,189.64-44.65,164.71-41.34-24.93-23.23-140.32-66.23-154.03-43-13.71-50.02-29.7-7.44-66.98,42.57-37.27-111.56-74.28-73.52-149.55s-6.41-121.08,29.77-132.73Z"/>
        <path class="cls-14" d="M230.28,2055.14c3.94-15.69,37.57-153.74,6.19-170.42-27.65-14.71-26.97-71.91-22.66-125.93,3.82-47.82-61.58-70.17-64.36-71.09l-1.66,4.39c.65.22,64.61,22.09,61.07,66.36-4.43,55.48-4.91,114.34,25.16,130.33,23.82,12.67,1.89,123.62-8.57,165.3l4.83,1.07Z"/>
        <polygon class="cls-2" points="348.42 2005.98 303.71 2165.26 203.81 2165.26 159.11 2005.98 348.42 2005.98"/>
        <path class="cls-59" d="M348.42,2005.98s-98.42,17.36-98.42,159.28h-46.19s-44.7-159.28-44.7-159.28h189.31Z"/>
      </g>
      <g>
        <g>
          <rect class="cls-40" x="290.23" y="1822.19" width="406.64" height="381.89"/>
          <rect class="cls-43" x="446.28" y="1822.19" width="94.53" height="44.39"/>
        </g>
        <path class="cls-66" d="M434.52,1965.21h118.05c9.04,0,16.38,7.34,16.38,16.38v18.48c0,9.04-7.34,16.38-16.38,16.38h-118.05c-9.04,0-16.38-7.34-16.38-16.38v-18.48c0-9.04,7.34-16.38,16.38-16.38Z"/>
      </g>
    </g>
    <path class="cls-35" d="M1816.81,907.55s-68.67-111.07-94.1-276.6l187.84-5.13s14.46,160.39,75.55,279.59l-169.3,2.14Z"/>
    <path class="cls-35" d="M1893.49,264.64s-88.79,40.83-188.96,150.92l105.65,88.44s114.71-129.59,194.12-163.88l-110.81-75.48Z"/>
    <path class="cls-35" d="M2031.92,493.06s76.72,7.19,163.32,50.54l-65.34,81.35s-80.24-46.32-158.03-59.38l60.05-72.51Z"/>
  </g>
</svg>