<svg height="512" viewBox="0 0 520 520" width="512" xmlns="http://www.w3.org/2000/svg"><g id="_20-Checked" data-name="20-Checked"><path d="m212.907 420.621a10 10 0 0 1 -8.624-4.938c-33.338-56.8-122.22-177.735-123.113-178.95a10 10 0 0 1 1.026-13.04l27.332-27.007a10 10 0 0 1 12.754-1.086l88.543 61.828c59.239-75.972 114.263-128.448 150.463-159.412 40.75-34.856 66.691-50.542 67.775-51.192a10 10 0 0 1 5.146-1.426h44.215a10 10 0 0 1 6.651 17.468c-125.566 111.842-262.114 350.309-263.475 352.704a10 10 0 0 1 -8.624 5.051z"/><path d="m381.576 474.6h-340a10 10 0 0 1 -10-10v-340a10 10 0 0 1 10-10h220.489a10 10 0 0 1 0 20h-210.489v320h320v-210.488a10 10 0 1 1 20 0v220.488a10 10 0 0 1 -10 10z"/></g></svg>