<svg id="Layer_1" height="512" viewBox="0 0 50 50" width="512" xmlns="http://www.w3.org/2000/svg"><g id="XMLID_4602_"><g id="XMLID_4622_"><path d="m18.6 19.5h12.7v16.9h-12.7z" fill="#fbc791"/></g><g id="XMLID_4616_"><g id="XMLID_4618_"><g id="XMLID_4621_"><path d="m34.5 14.7c0 5.8-4.2 13.2-9.5 13.2-5.2 0-9.5-7.4-9.5-13.2s4.2-9 9.5-9c5.2 0 9.5 3.2 9.5 9z" fill="#ffe0b2"/></g><g id="XMLID_4620_"><ellipse cx="34.5" cy="17.1" fill="#ffe0b2" rx="2.2" ry="1.4" transform="matrix(.261 -.965 .965 .261 8.959 45.897)"/></g><g id="XMLID_4619_"><ellipse cx="15.5" cy="17.1" fill="#ffe0b2" rx="2.2" ry="1.4" transform="matrix(-.261 -.965 .965 -.261 3.091 36.555)"/></g></g><g id="XMLID_4617_"><path d="m16 18.4s-4-9.9 3.3-15.3 12.7 1.3 12.7 1.3 6.5.5 2 14c0 0 .3-7.4-3.1-10.3 0 0-1.2 1.7-9.4 2.6-7 .7-5.5 7.7-5.5 7.7z" fill="#525252"/></g></g><g id="XMLID_4615_"><path d="m32.7 31.5v-4c-.9-.1-1.5-.1-1.5-.1l-6.2 4.8-6.1-4.8s-.7 0-1.8.2v4.1h-2.7v16.1h19.4v-16.3z" fill="#56b3e5"/></g><g id="XMLID_4614_"><path d="m27.5 47.4-1.6-12.2h-1.8l-1.6 12.2z" fill="#676767"/></g><g id="XMLID_4613_"><path d="m31.4 23.9 2.2 3.7-5.2 7.5-3.4-3c0 .1 4.3-3.6 6.4-8.2z" fill="#98d0f1"/></g><g id="XMLID_4612_"><path d="m18.6 23.9-2.2 3.7 5.2 7.5 3.4-3c0 .1-4.3-3.6-6.4-8.2z" fill="#98d0f1"/></g><g id="XMLID_4611_"><path d="m25.9 35.2 1.2-1.1-2.1-1.9-2.1 1.9 1.2 1.1z" fill="#525252"/></g><g id="XMLID_4610_"><path d="m33.6 27.7-1.1 1.6-7.5 16.8-7.5-16.8-1.1-1.6c-4.3 1-12.7 5.7-12.7 11.4v7.9c0 1.1.9 2 2 2h38.7c1.1 0 2-.9 2-2v-7.9c-.1-5.8-8.5-10.4-12.8-11.4z" fill="#e6e6e5"/></g><g id="XMLID_4609_"><path d="m33.8 33.9c-.6 1.4-.7 3.1-.4 4.8.2 1.1.6 2.1 1.1 3v.1l.9-.2-.1-.1c-.5-.9-.9-1.9-1.1-2.9-.6-3.2.5-6 2.4-6.3h.3c1.8-.1 3.7 2.1 4.2 5.1.2 1 .2 2.1 0 3.1v.1l.9-.2v-.1c.2-1 .1-2.1-.1-3.2-.6-3.4-2.9-5.9-5.1-5.8-.1 0-.1 0-.2 0-.3-.7-1-2.1-1.8-3.4-.4-.1-.8-.3-1.2-.3l-.1.1c1 1.3 1.8 3 2.2 3.9-.8.4-1.4 1.2-1.9 2.3z" fill="#cdcccc"/></g><g id="XMLID_4606_"><g id="XMLID_4608_"><circle cx="34.8" cy="41.8" fill="#676767" r=".9"/></g><g id="XMLID_4607_"><circle cx="41.6" cy="40.6" fill="#676767" r=".9"/></g></g><g id="XMLID_4605_"><path d="m10.9 40.4c.6-6.8 3.2-9.9 5.3-12.7-.4.1-.9.3-1.4.4-2.1 3-4.2 5.9-4.8 12.2z" fill="#cdcccc"/></g><g id="XMLID_4604_"><circle cx="10.4" cy="40.4" fill="#cdcccc" r="2"/></g><g id="XMLID_4603_"><circle cx="10.4" cy="40.4" fill="#b4b4b4" r="1"/></g></g></svg>