<?xml version="1.0" encoding="iso-8859-1"?>
<!-- Generator: Adobe Illustrator 19.0.0, SVG Export Plug-In . SVG Version: 6.00 Build 0)  -->
<svg version="1.1" id="Capa_1" xmlns="http://www.w3.org/2000/svg" xmlns:xlink="http://www.w3.org/1999/xlink" x="0px" y="0px"
	 viewBox="0 0 512 512" style="enable-background:new 0 0 512 512;" xml:space="preserve">
<path style="fill:#576574;" d="M198.029,0C141.257,0,95.237,46.02,95.237,102.792v40.677c6.87-6.368,16.643-9.829,26.184-8.555
	v-5.122c0-4.072,3.477-7.288,7.508-6.983c39.742,2.855,80.188-9.774,110.769-29.751c2.855-1.866,6.635-1.402,8.955,1.092
	c26.145,28.103,25.987,27.016,25.987,30.684v10.058c10.458-1.567,19.734,1.664,26.179,7.656v-39.757
	C300.821,46.02,254.802,0,198.029,0z"/>
<path style="fill:#3E4B5A;" d="M122.828,102.792c0-52.09,38.753-95.1,88.996-101.844C207.309,0.342,202.71,0,198.029,0
	C141.257,0,95.238,46.02,95.238,102.792v40.678c6.87-6.368,16.643-9.829,26.184-8.555v-5.122c0-1.581,0.529-3.029,1.406-4.197
	C122.828,125.596,122.828,102.792,122.828,102.792z"/>
<g>
	<path style="fill:#F2BB88;" d="M273.28,130.808v56.309c0,0.61-0.032,1.213-0.047,1.821c19.927,3.017,35.533-11.381,35.533-29.063
		C308.766,142.158,293.147,127.83,273.28,130.808z"/>
	<path style="fill:#F2BB88;" d="M122.783,187.117V130.83c-17.348-2.317-35.487,10.997-35.487,29.046
		c0,17.659,15.572,32.083,35.532,29.062C122.813,188.33,122.783,187.725,122.783,187.117z"/>
</g>
<g>
	<path style="fill:#E3A76F;" d="M298.209,137.368c-6.368-5.283-15.129-8.029-24.929-6.561v56.309c0,0.61-0.032,1.213-0.046,1.821
		c9.829,1.488,18.603-1.266,24.975-6.557L298.209,137.368L298.209,137.368z"/>
	<path style="fill:#E3A76F;" d="M122.783,182.385c-6.549-5.438-10.558-13.555-10.558-22.51c0-8.713,4.234-16.315,10.558-21.595
		v-7.451c-17.348-2.317-35.487,10.997-35.487,29.046c0,17.659,15.571,32.083,35.531,29.062c-0.015-0.607-0.044-1.213-0.044-1.821
		V182.385z"/>
</g>
<path style="fill:#F2BB88;" d="M199.125,261.271c-16.607,0-31.201-4.559-43.137-12.186v40.342l42.952,53.018l42.952-53.018v-41.479
	C229.724,256.341,214.992,261.271,199.125,261.271z"/>
<path style="fill:#E3A76F;" d="M183.496,259.85c-10.24-1.9-19.478-5.634-27.508-10.765v40.342l27.508,33.954V259.85z"/>
<path style="fill:#E4EAF8;" d="M355.52,330.708l-113.628-44.005l-42.951,53.018l-42.953-53.018l-113.51,44.005
	c0,0-42.026,17.278-42.026,65.187v106.328c0,5.399,4.377,9.776,9.776,9.776h377.626c5.352,0,9.691-4.339,9.691-9.691V395.896
	C397.546,347.986,355.52,330.708,355.52,330.708z"/>
<path style="fill:#D8DCE5;" d="M27.96,502.224V383.517c0-32.87,19.781-51.318,32.2-59.664l-17.681,6.855
	c0,0-42.027,17.277-42.027,65.187v106.328c0,5.399,4.377,9.776,9.776,9.776h27.508C32.337,512,27.96,507.623,27.96,502.224z"/>
<path style="fill:#F2D1A5;" d="M248.654,91.427c-2.32-2.494-6.101-2.957-8.956-1.092c-30.581,19.977-71.027,32.606-110.769,29.751
	c-4.031-0.305-7.508,2.911-7.508,6.983v61.409c0,39.468,30.925,75.516,77.703,75.516c41.64,0,75.517-33.877,75.517-75.516v-66.367
	C274.641,118.443,274.799,119.53,248.654,91.427z"/>
<path style="fill:#F2BB88;" d="M148.929,188.479v-68.233c-6.653,0.354-13.336,0.32-20-0.159c-4.031-0.306-7.508,2.911-7.508,6.983
	v61.409c0,39.468,30.925,75.516,77.703,75.516c4.316,0,8.541-0.383,12.661-1.082C176.154,256.869,148.929,225.802,148.929,188.479z"
	/>
<g>
	<path style="fill:#D8DCE5;" d="M250.801,366.964l32.119-64.371l-41.028-15.89l-42.952,53.018l41.877,29.741
		C244.206,371.87,248.944,370.684,250.801,366.964z"/>
	<path style="fill:#D8DCE5;" d="M147.138,366.964l-32.119-64.371l41.028-15.89l42.952,53.018l-41.877,29.741
		C153.733,371.87,148.995,370.684,147.138,366.964z"/>
</g>
<path style="fill:#EE5253;" d="M198.995,339.758v-0.037l-0.026,0.018l-0.026-0.018v0.037l-30.458,21.632l14.397,21.668
	c11.615,0,20.56,0,32.174,0l14.397-21.668L198.995,339.758z"/>
<path style="fill:#FF6B6B;" d="M161.058,512h75.822l-21.824-128.942c-11.615,0-20.56,0-32.174,0L161.058,512z"/>
<path style="fill:#D83941;" d="M214.211,350.564l-15.216-10.807v-0.037l-0.026,0.018l-0.026-0.018v0.037l-30.458,21.632
	l14.397,21.669c11.202,0,19.902,0,30.484,0l-11.821-17.792c-1.435-2.16-0.896-5.07,1.219-6.572L214.211,350.564z"/>
<path style="fill:#EE5253;" d="M182.882,383.058L161.058,512h30.484l21.824-128.942
	C202.738,383.058,194.127,383.058,182.882,383.058z"/>
<path style="fill:#D8DCE5;" d="M79.772,512v-99.848c0-4.267-3.459-7.727-7.727-7.727s-7.727,3.459-7.727,7.727V512H79.772z"/>
<path style="fill:#A85140;" d="M498.799,333.495H296.09c-7.041,0-12.749,5.708-12.749,12.749v152.875
	c0,7.041,5.708,12.749,12.749,12.749h202.709c7.041,0,12.749-5.708,12.749-12.749V346.244
	C511.548,339.203,505.84,333.495,498.799,333.495z"/>
<path style="fill:#9B4338;" d="M303.945,499.119V346.244c0-7.041,5.708-12.749,12.749-12.749H296.09
	c-7.041,0-12.749,5.708-12.749,12.749v152.875c0,7.041,5.708,12.749,12.749,12.749h20.605
	C309.653,511.869,303.945,506.161,303.945,499.119z"/>
<path style="fill:#576574;" d="M454.496,341.221c-4.267,0-7.727-3.459-7.727-7.727c0-16.299-13.26-29.56-29.559-29.56h-39.531
	c-16.299,0-29.56,13.26-29.56,29.56c0,4.267-3.459,7.727-7.727,7.727c-4.267,0-7.727-3.459-7.727-7.727
	c0-24.82,20.193-45.013,45.013-45.013h39.531c24.82,0,45.013,20.193,45.013,45.013C462.223,337.762,458.763,341.221,454.496,341.221
	z"/>
<path style="fill:#C46F5F;" d="M498.799,333.495H296.09c-7.041,0-12.749,5.708-12.749,12.749v61.824h31.304v-16.423
	c0-3.211,2.603-5.814,5.814-5.814h20.139c3.211,0,5.814,2.603,5.814,5.814v16.423h101.602v-16.423c0-3.211,2.603-5.814,5.814-5.814
	h20.139c3.211,0,5.814,2.603,5.814,5.814v16.423h31.767v-61.824C511.548,339.203,505.84,333.495,498.799,333.495z"/>
<path style="fill:#B45F4A;" d="M303.945,346.244c0-7.041,5.708-12.749,12.749-12.749H296.09c-2.2,0-4.27,0.557-6.077,1.539
	c-3.974,2.159-6.672,6.37-6.672,11.211v61.824h20.605v-61.825H303.945z"/>
<g>
	<path style="fill:#E4EAF8;" d="M340.597,385.831h-20.139c-3.211,0-5.814,2.603-5.814,5.814v33.606c0,3.211,2.603,5.814,5.814,5.814
		h20.139c3.211,0,5.814-2.603,5.814-5.814v-33.606C346.411,388.434,343.808,385.831,340.597,385.831z"/>
	<path style="fill:#E4EAF8;" d="M473.967,385.831h-20.139c-3.211,0-5.814,2.603-5.814,5.814v33.606c0,3.211,2.603,5.814,5.814,5.814
		h20.139c3.211,0,5.814-2.603,5.814-5.814v-33.606C479.781,388.434,477.178,385.831,473.967,385.831z"/>
</g>
<g>
	<path style="fill:#D8DCE5;" d="M332.665,425.251v-33.606c0-3.211,2.603-5.814,5.814-5.814h-18.021
		c-3.211,0-5.814,2.603-5.814,5.814v33.606c0,3.211,2.603,5.814,5.814,5.814h18.021
		C335.268,431.066,332.665,428.462,332.665,425.251z"/>
	<path style="fill:#D8DCE5;" d="M466.035,425.251v-33.606c0-3.211,2.603-5.814,5.814-5.814h-18.021
		c-3.211,0-5.814,2.603-5.814,5.814v33.606c0,3.211,2.603,5.814,5.814,5.814h18.021
		C468.638,431.066,466.035,428.462,466.035,425.251z"/>
</g>
<g>
</g>
<g>
</g>
<g>
</g>
<g>
</g>
<g>
</g>
<g>
</g>
<g>
</g>
<g>
</g>
<g>
</g>
<g>
</g>
<g>
</g>
<g>
</g>
<g>
</g>
<g>
</g>
<g>
</g>
</svg>
