<?xml version="1.0" encoding="UTF-8"?>
<svg id="Layer_2" data-name="Layer 2" xmlns="http://www.w3.org/2000/svg" viewBox="0 0 485.79 156.62">
  <defs>
    <style>
      .cls-1 {
        fill: #231f20;
      }
    </style>
  </defs>
  <g id="Layer_1-2" data-name="Layer 1">
    <path class="cls-1" d="M167.84,53.35h11.27l12.58,26.64,12.66-26.64h11.1v49.34h-12v-21.96l-10.77,23.6h-1.97l-10.77-23.76v22.12h-12.09v-49.34ZM223.34,53.35h32.64v10.69h-20.56v8.88h19v10.53h-19v8.88h21.46v10.36h-33.55v-49.34ZM262.72,53.35h17.19c14.55,0,25.82,10.69,25.82,24.59,0,13.16-10.03,24.75-25.82,24.75h-17.19v-49.34ZM279.66,91.67c7.73,0,13.65-5.43,13.65-13.73,0-7.65-5.18-13.65-13.65-13.65h-4.85v27.38h4.85ZM313.95,53.35h12.09v49.34h-12.09v-49.34ZM333.93,53.35h12.09v38.98h21.46v10.36h-33.55v-49.34ZM373.31,53.35h12.09v49.34h-12.09v-49.34ZM393.29,53.35h12.75l19.16,29.27v-29.27h12v49.34h-12.58l-19.24-29.36v29.36h-12.09v-49.34ZM445.09,53.35h12.09v22.04h.16l14.23-22.04h13.32l-16.94,23.44,17.84,25.9h-13.32l-15.13-23.93h-.16v23.93h-12.09v-49.34ZM144.73,53.01h-41.13V11.88c0-6.56-5.32-11.88-11.88-11.88h-26.82c-6.56,0-11.89,5.32-11.89,11.88v41.13H11.88c-6.56,0-11.88,5.32-11.88,11.89v26.81c0,6.57,5.32,11.89,11.88,11.89h56.41c-6.12-5.08-13.15-11.1-15.17-13.54-4.26-5.13-6.24-10-6.24-15.31s1.77-9.94,4.98-13.43c3.27-3.52,7.73-5.47,12.58-5.47,3.63,0,6.94,1.15,9.87,3.41,1.52,1.19,2.87,2.59,3.99,4.18,1.13-1.58,2.46-2.99,3.99-4.18,2.92-2.27,6.24-3.41,9.88-3.41,4.86,0,9.32,1.95,12.57,5.47,3.22,3.49,5,8.25,5,13.43s-1.98,10.18-6.24,15.31c-1.72,2.08-7.06,6.74-12.39,11.22-1.46,1.22-2.91,2.43-4.29,3.56,0,0-.07.06-.21.17-.15.12-.37.29-.65.53-1.21.96-3.57,2.87-6.53,5.34-.09.07-.18.14-.27.22-.03.02-.07.05-.1.08-8.51,7.06-21.54,18.3-26.05,24.36v9.19c0,6.57,5.33,11.89,11.89,11.89h26.82c6.56,0,11.88-5.32,11.88-11.89v-41.13h41.13c6.57,0,11.89-5.32,11.89-11.89v-26.81c0-6.57-5.32-11.89-11.89-11.89ZM74.66,106.69s9.75-2.48,16.02-9.31,9.26-13.44,9.37-17.56-1.71,1.43-1.71,1.43c0,0-3.26,7.22-6.83,10.45s-7.28,3.24-8.12,2.29-.12-2.89,3.15-5.52,3.51-2.98,3.23-4.09-1,.5-2.26,1.01c-2.47,2.49-6.82,2.09-10.32,5.97-3.36,3.74-4.05,9.51-3.81,11.13.5,3.29,1.27,4.19,1.27,4.19Z"/>
  </g>
</svg>