<svg height="511pt" viewBox="-13 1 511 511.999" width="511pt" xmlns="http://www.w3.org/2000/svg"><path d="m429.664062 346.179688-126.097656-33.160157v-4.832031h-121.03125v4.832031l-126.097656 33.160157c-33.457031 8.800781-55.9375 37.957031-55.9375 72.554687v78.257813c0 8.285156 6.71875 15 15.003906 15l455.09375.007812c3.980469 0 7.792969-1.582031 10.609375-4.394531 2.8125-2.816407 4.394531-6.628907 4.394531-10.609375v-78.261719c0-34.597656-22.480468-63.753906-55.9375-72.554687zm0 0" fill="#f6efea"/><path d="m429.664062 346.179688-126.097656-33.160157v-4.832031h-60.515625v203.808594l227.546875.003906c3.980469 0 7.796875-1.582031 10.609375-4.394531 2.8125-2.816407 4.394531-6.628907 4.394531-10.609375v-78.261719c0-34.597656-22.480468-63.753906-55.9375-72.554687zm0 0" fill="#eee1dc"/><path d="m303.5625 313.3125-50.910156 39.828125c-5.398438 4.226563-12.976563 4.25-18.40625.0625l-51.710938-39.890625v-65.890625h121.027344zm0 0" fill="#fdd1a3"/><path d="m243.050781 247.421875v108.890625c3.382813.078125 6.789063-.96875 9.601563-3.171875l50.910156-39.828125v-65.890625zm0 0" fill="#ffbb85"/><path d="m131.289062 96.140625c-.828124 5.511719-1.261718 11.148437-1.261718 16.882813v58.011718c0 62.324219 50.703125 113.023438 113.023437 113.023438 62.324219 0 113.023438-50.699219 113.023438-113.023438v-58.011718c0-5.734376-.433594-11.371094-1.261719-16.882813zm0 0" fill="#ffe4c1"/><path d="m354.8125 96.140625h-111.761719v187.917969c62.320313 0 113.023438-50.699219 113.023438-113.023438v-58.011718c0-5.734376-.433594-11.371094-1.261719-16.882813zm0 0" fill="#fdd1a3"/><path d="m390.582031 437.414062h-15.503906v-14.824218c0-8.289063-6.71875-15.003906-15.003906-15.003906-8.285157 0-15.003907 6.714843-15.003907 15.003906v14.824218h-15.503906c-8.285156 0-15 6.71875-15 15.003907 0 8.285156 6.714844 15.003906 15 15.003906h15.503906v16.179687c0 8.285157 6.71875 15.003907 15.003907 15.003907 8.285156 0 15.003906-6.71875 15.003906-15.003907v-16.179687h15.503906c8.285157 0 15.003907-6.71875 15.003907-15.003906 0-8.285157-6.71875-15.003907-15.003907-15.003907zm0 0" fill="#00ccb1"/><path d="m296.917969 13.683594-54.859375 77.238281c30.695312 28.480469 70.21875 47.578125 114.015625 52.722656v-30.621093c0-42.832032-23.949219-80.171876-59.15625-99.339844zm0 0" fill="#873f2e" fill-rule="evenodd"/><path d="m306.570312 19.585938c-18.113281-12.351563-39.988281-19.585938-63.519531-19.585938-62.324219 0-113.023437 50.703125-113.023437 113.023438v49.871093c86.292968-1.46875 158.140625-62.234375 176.542968-143.308593zm0 0" fill="#bb5d4c"/><path d="m243.050781 0v121.660156c31.410157-25.546875 54.25-61.230468 63.519531-102.074218-18.113281-12.351563-39.988281-19.585938-63.519531-19.585938zm0 0" fill="#a34f3e"/></svg>