<?xml version="1.0" encoding="UTF-8"?>
<svg id="Layer_2" data-name="Layer 2" xmlns="http://www.w3.org/2000/svg" viewBox="0 0 362.11 419.65">
  <defs>
    <style>
      .cls-1 {
        fill: #894f3c;
      }

      .cls-2 {
        fill: #c38a69;
      }

      .cls-3 {
        fill: #3a302d;
      }

      .cls-4 {
        fill: #f2e5dd;
      }

      .cls-5 {
        fill: #fff;
      }

      .cls-6 {
        fill: #fffffa;
      }

      .cls-7 {
        fill: #84726e;
      }

      .cls-8 {
        fill: #a69386;
      }

      .cls-9 {
        fill: #b57255;
      }

      .cls-10 {
        fill: #ab8ba3;
      }

      .cls-11 {
        fill: #4c2c43;
      }
    </style>
  </defs>
  <g id="OBJECTS">
    <path class="cls-4" d="M176.19,355.34c-28.85,1.44-56.01-17.64-70.48-42.64-14.48-25-18.05-54.92-17.21-83.8.84-28.88,5.76-57.51,6.94-86.37.71-17.31.08-34.73,2.35-51.91,2.26-17.18,7.69-34.47,19-47.6,14.11-16.39,35.53-24.4,56.48-29.76,32.74-8.38,68.57-11.61,99.43,2.16,38.44,17.15,61.92,57.98,69.88,99.31,7.96,41.33,2.94,83.89-.89,125.81-2.34,25.65-4.79,52.9-20.34,73.43-13.75,18.15-35.9,28.19-58.16,33-22.26,4.81-45.21,5.1-67.82,7.78"/>
    <g>
      <path class="cls-3" d="M275.48,134.33c-2-18.14-5.87-36.12-9.68-53.94-.9-4.22-1.81-8.43-2.72-12.65-2.12-23.65-7.95-44.31-33.77-51.24-14.36-3.86-30.51-.14-42.97,9.13-5.75,4.28-10.73,9.64-14.54,16.18-4.1,7.04-6.36,15.09-7.41,23.41-.6,4.77-.91,9.58-1.26,14.38-.36,4.98-.69,9.96-1.01,14.94-.64,10.03-1.12,20.07-1.55,30.11-.42,9.99-.67,19.98-.79,29.97-.11,9.6-.29,19.22-1.43,28.74-.35,2.92-.8,5.82-1.35,8.7,9.86-.25,19.72-.35,29.58-.42,20.18-.14,40.35-.23,60.53-.29,8.68-.03,17.36-.05,26.04-.08,0-.13-.02-.27-.02-.4,0-.1-.01-.2-.02-.3.77-.19,1.48-.74,1.59-1.54,2.45-18.14,2.79-36.51.78-54.71ZM264.76,94.86c0-.09-.01-.18-.02-.27.56,3.22,1.12,6.44,1.71,9.65,1.64,8.83,3.26,17.68,4.35,26.6,1.09,8.94,1.63,17.94,1.66,26.94.02,5.11-.14,10.22-.47,15.33-.5-6.4-1.07-12.79-1.7-19.17-1.92-19.68-4.23-39.32-5.54-59.07Z"/>
      <g>
        <path class="cls-2" d="M239.47,128.93c-1.3,10.55-10.86,19.38-22.12,19.38-9.63,0-20.48-6.45-28.46-23.77,4.09-4.48,6.33-13.52,6.12-21.35-.01-1.44.02-.71-.07-3.82-.79-1.07-1.43-2.22-.2-4.53.04-.4-.24-1.29.49-2.25.69-.95,2.7-1.34,3.91-.07.07.08.13.15.2.25.15.19.29.44.4.9,8.4,1.88,20.28,4.12,30.63,8.41.19.09,0,0,.47.28h.01c.4.31.9.56,1.58,1.3h.01c4.25,4.82-.56,14.79,3.02,21.36.82,1.51,2.08,2.85,3.99,3.9t-.02.02s.02-.01.03-.01Z"/>
        <path class="cls-1" d="M235.47,125.02c-13.87.55-29.61-4.4-34.7-15.11-.55-1.18-1.09-2.35-1.59-3.51.12-2.34.1-4.7.02-7.02-1.15-1.2-1.1-3.17-.19-4.55,0-.19-.02-.4-.02-.59-.03-.6.11-1.08.35-1.47.15.19.29.44.4.9,8.4,1.88,20.28,4.12,30.63,8.41.19.09,0,0,.47.28h.01c.4.31.9.56,1.58,1.3h.01c4.25,4.82-.56,14.79,3.02,21.36Z"/>
        <path class="cls-4" d="M258.02,99.52c-.08-.99-.15-1.24-.56-2.15-.18-.39-.49-.73-.75-1.04-.04-.04-.07-.08-.11-.11-.29-.25-.59-.5-.91-.7-.69-.42-1.54-.63-2.34-.63-.83,0-1.64.22-2.37.62-.36.2-.7.47-.99.76-.01.02-.03.03-.04.05,0,0,0,0,0,0-.59.34-1.05.81-1.39,1.4-.38.59-.55,1.53-.54,2.21,0,.75.21,1.39.56,2.04.04.08.09.16.15.23.25.34.54.82.9,1.12.31.26.63.55.99.76.35.2.73.34,1.12.46.07.02.15.04.23.05.17.03.79.15,1.15.13.43-.02.89-.05,1.3-.2.32-.12.85-.28,1.18-.53.29-.21.78-.52,1.05-.87.23-.29.59-.69.78-1.08.19-.4.4-.82.48-1.27.06-.32.17-.86.13-1.26Z"/>
        <path class="cls-2" d="M257.85,76.23c-.07,1.07-.16,2.2-.25,3.35-.05.64-.1,1.29-.17,1.97-.32,3.49-.79,7.23-1.61,10.91-.16.7-.32,1.41-.51,2.1-2.25,8.56-6.65,16.46-15.85,19.75-15.18,5.45-37.91,1.2-44.66-13.32-2.81-6.04-4.98-11.9-6.56-17.56-.59-2.18-1.11-4.3-1.54-6.41-7.92-39.19,23.43-51.21,47.76-48.37,13.65,1.59,25.8,13.47,23.39,47.58Z"/>
        <path class="cls-9" d="M216.26,90.09c-.72,3.5-5.3,5.49-10.22,4.45-4.93-1.04-8.33-4.71-7.62-8.21.72-3.5,5.3-5.49,10.22-4.45,4.93,1.04,8.33,4.71,7.62,8.21Z"/>
        <path class="cls-9" d="M257.44,81.55c-.32,3.49-.79,7.23-1.61,10.91-.16.7-.32,1.41-.51,2.1-4.46.24-8.24-1.92-8.71-5.15-.52-3.53,3.09-7,8.07-7.75.96-.15,1.88-.18,2.77-.12Z"/>
        <path class="cls-3" d="M214.21,76.06c-.18,2.86,1.09,5.33,2.83,5.53,1.74.2,3.3-1.96,3.47-4.81.18-2.86-1.09-5.33-2.83-5.53-1.74-.2-3.3,1.96-3.47,4.81Z"/>
        <path class="cls-3" d="M241.95,75.44c-.22,2.85,1.01,5.35,2.75,5.57,1.74.22,3.32-1.91,3.54-4.76.22-2.85-1.01-5.35-2.75-5.57-1.74-.22-3.32,1.91-3.54,4.76Z"/>
        <path class="cls-1" d="M243.33,85.27c-.71-2.3-2.2-4.28-3.08-6.51-.89-2.26-1.5-4.61-2.07-6.96-.65-2.66-1.2-5.37-1.72-8.06-.11-.54-.95-.4-.93.14.1,2.86.18,5.67.59,8.51.4,2.84,1.17,5.59,2.3,8.22.54,1.26,1.22,2.44,1.84,3.66.59,1.16,1.23,2.53.85,3.86-.7,2.5-4.02,3.11-6.14,3.63-.83.2-.6,1.46.22,1.46,2.35,0,4.64-.25,6.5-1.82,1.81-1.54,2.34-3.86,1.64-6.11Z"/>
        <path class="cls-2" d="M189.52,75.43c-2.61-2.09-5.95-3.81-9.37-3.52-4.3.37-7.34,3.83-8.51,7.45-1.68,5.19-.37,11.17,3.46,15.62,4.23,4.91,14.11,9.56,20.8,6.45,6.7-3.12,3.28-10.82,1.24-15.88-1.54-3.82-4.16-7.36-7.61-10.12Z"/>
        <path class="cls-3" d="M256.29,54.28c-.28-1.49-1.34-2.91-2.48-3.85-1.24-1.01-2.76-1.55-4.36-1.47-1.54.08-2.87.79-4.03,1.77-1.04.87-1.91,2.01-3.06,2.74-.31.2-.63.36-.98.46-.39.12-.8.24-1.02.63-.28.51-.06.98.32,1.34.04.07.08.14.15.2,2.03,1.86,4.59.65,6.58-.59,1.12-.7,2.31-1.57,3.67-1.6,1.38-.03,2.78.74,4,1.32.67.32,1.37-.22,1.23-.95Z"/>
        <path class="cls-3" d="M224.47,37.13c-.01.09-.02.18-.03.26-.27,2.01-.69,4-1.18,5.95-.25.98-.5,1.96-.76,2.94-.04.16-.09.33-.13.5.98-.19,2.05-.17,3.02-.28,1.41-.16,2.81-.26,4.23-.36,1.31-.09,2.62-.19,3.93-.3.24-.27.47-.54.68-.81,2.03-2.49,3.69-5.49,4.78-8.7-.04.57-.08,1.14-.15,1.7-.23,1.91-.68,3.85-1.37,5.62-.24.63-.53,1.27-.84,1.9.42-.04.85-.07,1.27-.11.92-.09,1.84-.18,2.75-.28,1.04-1.87,1.75-4.01,2.16-6.15.36-1.89.54-3.9.48-5.89.57,1.5.86,3.13.95,4.72.15,2.37-.04,4.79-1.75,6.58-.22.22-.44.43-.68.62,1.47-.15,2.94-.3,4.41-.44.05,0,.1-.01.14-.02,1.06-2.1,1.29-4.51,1.14-6.95-.21-3.2-.57-6.74-2.37-9.49-.95-1.45-2.46-2.96-4.17-3.73-.12-.2-.21-.4-.34-.59,0,0-12.8-3.5-17.99-3.39-5.25.11-10.38,1.56-14.76,4.89-2.26,1.72-4.33,3.73-6.4,5.71-2.18,2.08-4.33,4.19-6.47,6.31-2.05,2.04-4.18,4.02-6.12,6.19-1.93,2.17-3.36,4.68-4.48,7.47-2.48,6.14-3.91,12.81-3.13,19.56.04.35.28.61.56.76.07.19.2.36.43.47,2.61,1.29,4.48,4.17,5.72,6.95.71,1.6,1.29,3.28,1.89,4.94.46,1.27.87,3.29,2.32,3.56,1.46.26,2.42-1.48,2.9-2.76.52-1.4.74-2.88.83-4.39.22-3.75.22-7.52.38-11.28.03-.7.05-1.39.08-2.09,1.98-.49,3.89-1.44,5.66-2.59,1.55-1.01,3.04-2.15,4.49-3.33,1.5-1.22,3.03-2.39,4.48-3.67,5.48-4.83,10.48-10.78,12.92-18.22.2-.6.37-1.21.52-1.82Z"/>
        <path class="cls-7" d="M211.76,43.09c-1.29,2.53-3.29,4.78-5.39,6.65-2.16,1.92-4.55,3.37-7.16,4.55-.42.19-.12.83.29.73,2.88-.65,5.65-2.19,7.86-4.15,1.1-.98,2.08-2.1,2.93-3.3.89-1.27,1.54-2.67,2.15-4.09.2-.45-.44-.85-.68-.39Z"/>
        <path class="cls-7" d="M219.25,26.73c-1.8,3.95-4.68,7.48-7.76,10.49-3.17,3.1-6.76,5.65-10.5,8.01-2.13,1.34-4.31,2.62-6.53,3.78-.66.35-.09,1.29.56,1,8.19-3.56,16.09-8.65,21.29-16.15,1.47-2.11,2.61-4.37,3.62-6.74.2-.46-.47-.86-.69-.39Z"/>
        <path class="cls-7" d="M191.58,56.99c-.08-.34-.66-.28-.62.08.21,1.95.17,3.89.08,5.84-.09,1.97-.15,3.97-.42,5.92-.1.7.9,1.01,1.08.29.51-2.01.85-4,.81-6.09-.04-2.03-.45-4.07-.94-6.04Z"/>
        <path class="cls-7" d="M188.59,64.04c-.05-.31-.43-.51-.71-.42-.33.1-.47.4-.42.72,0,.02.03.23.02.1,0,.05.01.1.01.15,0,.12.01.23.01.35,0,.23-.02.46-.03.7,0,.05,0,.1-.01.15,0,.03,0,.04,0,.04,0,.02,0,.04,0,.06-.02.12-.04.23-.06.35-.05.23-.09.45-.14.68-.03.17.03.35.18.44.14.08.36.07.47-.06.74-.91.87-2.12.69-3.25Z"/>
        <path class="cls-7" d="M183.5,104.82c-.02-.26-.37-.26-.4,0-.12,1.2-.53,2.42-.92,3.55-.38,1.13-.88,2.22-1.47,3.26-.95,1.67-2.18,3.57-4.01,4.34-.74.31-.21,1.43.51,1.27,2.41-.55,3.85-2.57,4.83-4.72.54-1.2,1-2.44,1.28-3.73.29-1.33.26-2.61.17-3.96Z"/>
        <path class="cls-1" d="M189.23,91.11c-.36-1.2-.92-2.34-1.66-3.35-.71-.96-1.5-1.83-2.44-2.56-.52-.4-1.05-.78-1.6-1.13-.54-.33-1.12-.56-1.71-.8-1.18-.46-2.19,1.37-1.24,2.18.81.68,1.4,1.12,2.19,1.89.35.34.7.69,1.02,1.05.17.19.33.39.49.59.01.02.03.04.05.07.08.11.15.22.23.34.27.42.52.87.72,1.33,0,.02.05.11.07.17.03.08.09.24.09.26.08.24.15.48.21.73.06.24.1.49.15.73,0,.01,0,.02,0,.03.01.14.02.28.03.42.03.71-.09,1.52.35,2.13.67.93,1.85,1.24,2.75.38,1.12-1.07.69-3.13.29-4.46Z"/>
        <path class="cls-1" d="M230.05,93.86c-1.01-.37-2.12-.47-3.19-.32-1.08.15-2.06.56-2.93,1.23-.53.41-.67,1.16-.34,1.74.33.59,1.02.82,1.65.59.1-.03.2-.06.29-.1.01,0,.01,0,.02-.01.01,0,.02,0,.04,0,.18-.04.35-.07.53-.09.18-.03.36-.06.54-.08.1-.01.2-.01.3-.02.19.01.38.02.57.04.15.02.42.02.54.1-.06-.02-.13-.03-.19-.05.06.02.12.03.17.05.08.03.15.05.23.08.18.06.35.13.52.21.07.03.13.06.2.09.02,0,.02,0,.03.01.1.06.2.13.3.2.28.2.56.4.82.63.49.43.98.86,1.46,1.31.36.35,1.02.32,1.42.09.48-.27.67-.76.65-1.29-.09-2.09-1.77-3.73-3.62-4.4Z"/>
      </g>
      <path class="cls-2" d="M276.27,197.08c-.26-7.23-2.43-14.26-4.47-21.19-2.4-8.14-4.84-16.29-7.41-24.4-.71-2.27-1.44-4.52-2.15-6.79,0-.13.01-.27.01-.4.07-1.18.23-2.39.31-3.6.05-.74.07-1.49,0-2.22-.37-4.03-4.06-5.49-7.81-6.6-8.06-2.39-16.67-2.77-25.1-2.88-8.37-.11-16.8-.27-25.14.63-8.42.9-16.42,2.97-23.82,6.84-3.67,1.91-7.2,4.09-10.66,6.3-1.6,1.03-3.09,2.11-4.21,3.58-.97,1.27-1.44,2.73-1.7,4.23-.05.3-.1.59-.14.88-1.14,8.18-1.38,16.53-1.44,24.77-.05,8.27.26,16.53.87,24.78,1.21,16.72,3.59,33.36,6.33,49.93.69,4.16,1.4,8.3,2.11,12.43.36,2.03.71,4.07,1.07,6.09.35,1.99.51,4.12,1.1,6.07.58,1.91,2.12,2.82,4.21,2.97,2.22.17,4.47.18,6.7.22,4.42.09,8.85.07,13.27-.07,17.6-.51,35.17-2.71,52.27-6.55,2.2-.5,4.38-1.02,6.56-1.57,1.88-.48,4.03-.82,5.74-1.71,3.87-2.03,3.02-6.86,2.63-10.27-.86-7.8-3.33-15.42-3.69-23.29-.16-3.45.09-6.96,1.17-10.29.51-1.59,1.22-3.19,2.24-4.58,1.13-1.54,2.56-2.86,3.89-4.24,2.62-2.71,4.72-5.57,5.93-9.03,1.11-3.23,1.46-6.69,1.34-10.06Z"/>
      <g>
        <path class="cls-2" d="M359.85,112.97c-2.73-3.29-7.66-4.59-11.65-5.36-9.12-1.8-18.55-.08-27.24,2.93-6.77,2.35-13.42,5.26-20.4,6.83-1.98.45-3.99.8-6.04.98-2.4.22-4.77.27-7.18-.03-2.35-.29-4.66-.94-7.04-1.01-4.53-.11-8.93-.65-13.46-.09-2.15.27-4.33.46-6.46.88-2.27.44-4.42,1.23-6.54,2.14-.43.19-.85.39-1.27.6-.24.12-.47.24-.7.38-.39.21-.79.43-1.18.66-1.03.6-2.03,1.23-3.05,1.85-.31.19-.61.36-.92.54-.88.53-1.79,1.03-2.72,1.45-.68.31-1.37.59-2.08.81-.2.07-.39.12-.59.17-.51.13-1.04.24-1.56.3-.44.06-.87.08-1.32.07-.88-.01-1.76-.17-2.59-.53-1.81-.78-3.31,1.67-1.55,2.76.09.06.19.1.27.15-.22.41-.33.9-.23,1.46,1.89,10.57,4.53,20.98,7.93,31.13,2.75,8.33,6.01,16.5,9.73,24.46.14.33.29.65.45.98.78,1.64,2.87,1.23,3.74,0,1.21-1.71,2.57-3.28,4.04-4.75,1.04-1.03,2.14-2.01,3.28-2.94,2.45-2.02,5.09-3.81,7.79-5.48,1.49-.93,2.98-1.81,4.48-2.67,7.96-4.6,16.18-8.83,24.73-12.2,4.07-1.61,8.39-3.11,12.76-4.59,20.35-6.91,42.09-13.56,47.81-29.84,1.4-3.97,1.6-8.59-1.27-12.03Z"/>
        <g>
          <path class="cls-2" d="M238.16,3.04c.13.49.29.97.48,1.44-.35.07-.71.13-1.06.23-.49.11-.9.76-.71,1.26.43,1.07.89,2.12,1.56,2.98h0c.52.66,1.16,1.21,2.04,1.54,1.61.64,3.42.22,5.07-.05,2.01-.32,4.03-.63,6.07-.86.12.11.23.23.36.35h0c.38.4.77.78,1.13,1.17h.01c.12.12.24.26.33.39-.2.01-.41.02-.62.06-1.12.17-1.85.8-2.64,1.57-.39.39-.78.78-1.17,1.18-.01,0-.03-.01-.04,0-.9-.26-1.93-.3-2.44.56-.4.65-.47,1.51-.43,2.33-.44.44-.89.89-1.33,1.33-1.07,1.06-2.23,2.22-3.16,3.23l-.02.03c-1.13,1.2-1.94,2.17-1.91,2.47,0,.04,0,.07.02.12,0,.01,0,0,0,0,.12.54.74,1.77,2.61,2.59.45.18.92.19,1.36.05.02,0,.04,0,.06,0,.62-.19,1.21-.57,1.75-.94,1.15-.77,2.3-1.56,3.45-2.34.09.12.18.23.27.35h0c.21.27.42.53.64.79.46.55.94,1.07,1.44,1.59.08.08.17.17.25.26h0c.13.14.23.25.36.38-1.24,1.06-2.5,2.12-3.85,3.01-.47.3-.56.94-.18,1.34.19.19.37.35.58.49h.01c2.44,1.88,5.72.9,8.2-.61.06.04.1.08.16.12.09.07.17.13.25.2,1.2.95,2.23,1.9,2.9,3.31.68,1.45,1.31,2.93,1.96,4.41.65,1.44,1.32,2.88,2.01,4.32.64,1.35,1.15,2.46,2.6,3.08,2.59,1.12,5.37,1.9,8.11,2.57,5.43,1.35,11.14,2.2,16.75,2.07.12,0,.22-.02.3-.05.34-.1.55-.38.64-.69.4-.19.65-.64.71-1.11.26-1.97.51-3.93.77-5.91.09-.81.17-1.57-.14-2.34-.34-.85-1.06-1.47-1.68-2.13-1.14-1.21-2.26-2.41-3.38-3.62-1.54-1.68-3.07-3.38-4.58-5.1-4.68-5.3-9.22-10.7-13.83-16.07-2.34-2.71-4.69-5.41-7.11-8.07-1.13-1.25-2.28-2.7-3.64-3.71-1.28-.98-2.88-.95-4.43-1.1-3.47-.33-6.95-.64-10.42-.99-.95-.11-1.89-.2-2.83-.29-.77-.08-1.55-.25-2.3-.24-1.77.03-1.67,1.77-1.34,3.04ZM254.72,19.45l2.19-1.12s5.3.49,5.61.49c.29,0-5.19,3.06-5.29,3.16-.02.02-.14-.07-.3-.23-.51-.47-1.49-1.53-1.96-2.04-.15-.15-.25-.26-.25-.26Z"/>
          <path class="cls-1" d="M282.14,46.44c-3.17.25-6.26-.5-8.33-3.1-2.12-2.66-2.58-5.97-3.14-9.23-.12-.72-.25-1.46-.5-2.14-.31-.88-.9-1.46-1.59-2.06-.68-.6-1.37-1.19-2.06-1.79-.34-.3-.69-.59-1.03-.89-.15-.13-.38-.45-.56-.51-.32-.12-.38-.03-.69.15-1.51.89-2.99,1.86-4.43,2.86-1.41.98-2.75,2.09-4.27,2.89-2.29,1.2-6.78,1.72-7.85-1.43-.03-.09.08-.13.14-.08,1.13.93,2.57,1.49,4.04,1.32,1.55-.18,2.99-1.08,4.25-1.96,1.38-.96,2.71-1.98,4.11-2.9.69-.46,1.4-.88,2.12-1.3.64-.37,1.39-.93,2.13-1.07.63-.11,1.09.22,1.57.6.75.59,1.47,1.24,2.2,1.86,1.19,1.02,2.59,1.97,3.2,3.48.57,1.42.53,3.03.76,4.53.25,1.65.66,3.33,1.42,4.81.82,1.61,2.03,3.01,3.66,3.81,1.53.74,3.31.98,4.96,1.28.52.09.36.85-.12.89Z"/>
          <path class="cls-1" d="M270.49,21.14c-1.71-.03-3.38-.51-5.01-.97-.85-.24-1.73-.64-2.62-.71-.82-.06-1.48.37-2.13.84-1.52,1.1-3,2.26-4.51,3.37-.77.56-1.54,1.14-2.32,1.69-.74.52-1.51,1.13-2.39,1.36-.15.04-.29-.13-.2-.27.49-.8,1.3-1.37,2.02-1.94.81-.64,1.64-1.25,2.45-1.88,1.57-1.2,3.13-2.46,4.77-3.55.03-.02.06-.04.09-.06-.39,0-.78,0-1.18,0-1.08.01-2.24-.07-3.31.13-.99.19-1.86,1.09-2.65,1.68-1.76,1.33-3.52,2.68-5.31,3.98-.8.58-1.63,1.15-2.51,1.59-.41.21-.84.38-1.28.51-.46.13-.86.05-1.33.09-.12.01-.13-.17-.03-.21.43-.15.88-.48,1.29-.68.46-.22.91-.47,1.34-.73.93-.56,1.78-1.23,2.63-1.9,1.84-1.46,3.7-2.9,5.55-4.35.8-.63,1.49-1.07,2.52-1.16,1.06-.1,2.15-.1,3.21-.05,1.07.06,2.15.17,3.21.28.99.1,2.02.17,2.93.61.13.06.15.18.12.28,1.57.46,3.18.79,4.72,1.35.34.13.32.69-.09.68Z"/>
          <path class="cls-1" d="M261.39,12.18c-1.13-.02-2.23.16-3.36.11-.08,0-.15,0-.23-.01-.09.03-.18.02-.28-.01-.92-.05-1.84-.1-2.76-.13-2.18-.06-3.54,1.26-4.94,2.78-1.56,1.7-3.14,3.39-4.81,4.98-.8.76-1.61,1.5-2.43,2.25-.81.75-1.63,1.67-2.61,2.19-.29.15-.71-.18-.49-.49.68-.95,1.69-1.68,2.54-2.47.88-.82,1.73-1.67,2.57-2.53,1.7-1.73,3.4-3.44,5.02-5.24,1.29-1.43,2.62-2.61,4.64-2.63.67,0,1.34.03,2.02.09-.18-.26-.35-.51-.52-.74-.28-.38-.42-.77-.9-.81-.48-.05-1.09.15-1.57.22-1.91.28-3.8.64-5.7.99-3.13.57-6.66,1.01-9.22-1.34-.22-.2.08-.62.33-.43,3.15,2.41,7.36.87,10.83.21.95-.18,1.91-.35,2.87-.5.86-.14,1.77-.36,2.64-.39.8-.03,1.19.57,1.64,1.15.4.52.98,1.13,1.29,1.78,1.15.11,2.27.36,3.42.48.31.03.33.51,0,.51Z"/>
          <path class="cls-1" d="M258.31,3.07c-5.93.24-11.81.72-17.69,1.58-.35.05-.52-.45-.15-.55,5.76-1.62,11.87-2.29,17.84-1.84.51.04.53.79,0,.81Z"/>
        </g>
        <path class="cls-2" d="M361.33,115.31c-1.44-4.49-4.42-8.64-6.97-12.55-2.52-3.86-5.24-7.59-8.08-11.21-5.71-7.29-11.95-14.16-18.5-20.69-13.08-13.04-27.32-25.02-42.04-36.1-1.82-1.37-3.67-2.7-5.5-4.05-1.73-1.27-3.85,1.16-2.18,2.59.55.47,1.11.94,1.67,1.41-2.11,1.96-2.01,5.24-.97,8.04.74,1.99,1.96,3.8,3.03,5.62,1.34,2.26,2.69,4.53,4.03,6.79,2.63,4.45,5.54,8.72,8.16,13.18,2.65,4.49,5.09,9.1,7.35,13.81,4.08,8.52,6.81,17.61,10.88,26.15,3.93,8.25,8.71,16.5,14.77,23.35,2.87,3.24,6.13,6.04,10.49,6.85,3.94.73,8.09-.22,11.65-1.97,7.74-3.81,15.17-11.95,12.2-21.22Z"/>
        <path class="cls-1" d="M336,129.22c-1.11-.44-2.38-.61-3.54-.92-1.1-.29-2.19-.6-3.24-1.04-2.22-.91-4.31-2.2-6.14-3.76-1.76-1.5-3.35-3.2-4.76-5.04-1.41-1.85-2.89-3.8-3.83-5.95-.18-.4-.87-.12-.71.29.34.88.61,1.79.98,2.66.39.9.83,1.78,1.24,2.67.8,1.73,2.13,3.39,3.39,4.79,2.72,3.02,6.19,5.33,9.98,6.73,1.99.73,4.51,1.46,6.62.9.72-.19.6-1.1,0-1.34Z"/>
      </g>
      <g>
        <path class="cls-4" d="M276.27,197.08c-.26-7.23-2.43-14.26-4.47-21.19-1.66-5.64-3.34-11.28-5.08-16.91-.76-2.5-1.54-5-2.33-7.49-.71-2.27-1.44-4.52-2.15-6.79,0-.13.01-.27.01-.4.07-1.18.23-2.39.31-3.6-3.14.35-6.27.7-9.41,1.04-2.91.33-5.8.64-8.71.96-18.88,2.07-37.78,4.04-56.69,5.79-2.85.27-5.69.53-8.54.77-1.77.17-3.53.32-5.3.48-3.27.29-6.52.56-9.79.84-.05.3-.1.59-.14.88-1.14,8.18-1.38,16.53-1.44,24.77-.05,8.27.26,16.53.87,24.78.82,11.29,2.17,22.57,3.81,33.8.1.66.2,1.34.29,2,.69,4.72,1.44,9.43,2.22,14.13.03.2.07.39.1.59.66,3.96,1.33,7.91,2.01,11.85.36,2.03.71,4.07,1.07,6.09.35,1.99.51,4.12,1.1,6.07.58,1.91,2.12,2.82,4.21,2.97,2.22.17,4.47.18,6.7.22,4.42.09,8.85.07,13.27-.07,17.6-.51,35.17-2.71,52.27-6.55,2.2-.5,4.38-1.02,6.56-1.57,1.88-.48,4.03-.82,5.74-1.71,2.43-1.27,2.99-3.65,2.98-6.07,0-1.46-.21-2.93-.35-4.2-.86-7.8-3.33-15.42-3.69-23.29-.16-3.45.09-6.96,1.17-10.29.46-1.44,1.08-2.87,1.94-4.16.1-.14.2-.29.29-.42,1.13-1.54,2.56-2.86,3.89-4.24,2.62-2.71,4.72-5.57,5.93-9.03,1.11-3.23,1.46-6.69,1.34-10.06Z"/>
        <path class="cls-8" d="M245.78,144.44c-.75.39-1.36.98-1.82,1.67-1.47-1.05-3.49-1.29-5.26-1.04-2.01.28-3.87,1.26-5.09,2.81-3.07-2.16-7.74-1.88-11.22-.63-1.09.39-2.07.99-2.87,1.76-1.79-1.18-4.09-1.34-6.24-1.06-2.66.35-5.27,1.46-7.01,3.58,0,0-.01.02-.02.02-1.78-1.26-4.05-1.92-6.18-1.36-1.55.4-2.45,1.47-2.94,2.77-.18-.14-.35-.29-.54-.41-1.02-.66-2.2-1.01-3.41-.98-.75.02-.75,1.19,0,1.17,1.37-.03,2.63.52,3.61,1.43-.11.59-.15,1.19-.15,1.8,0,1.04-.1,2.64.65,3.47.8.88,2.03.48,2.26-.65.39-1.84-.39-3.74-1.64-5.11.19-.61.49-1.17.96-1.61,1.47-1.36,3.97-.95,5.59-.11.37.19.72.42,1.06.67-1.09,1.89-1.47,4.23-.68,6.29.47,1.22,1.54,2.42,2.91,2.53,1.48.11,2.33-1.2,2.37-2.55.08-2.49-1.11-4.88-2.89-6.55.73-1.04,1.74-1.85,2.93-2.43,2.49-1.21,6.21-1.62,8.65-.1-.7.93-1.16,2.03-1.25,3.31-.08,1.27.31,2.57,1.11,3.56.8,1,2.19,1.43,3.1.31.78-.95.79-2.38.6-3.54-.19-1.17-.71-2.25-1.44-3.18-.04-.05-.09-.09-.13-.13,1.16-1.4,2.89-2.19,4.62-2.62,2.04-.51,4.26-.49,6.23.31.52.21,1,.49,1.45.81-.25.43-.46.88-.61,1.37-.41,1.37-.4,2.83-.08,4.22.25,1.07.89,2.63,2.15,2.76,1.27.13,1.8-1.35,1.98-2.37.2-1.16.04-2.38-.38-3.47-.31-.8-.73-1.48-1.22-2.07.02-.04.04-.08.06-.12,1.01-1.64,2.97-2.66,4.83-2.9,1.25-.16,2.7.01,3.76.7-.55,1.18-.69,2.56-.24,3.83.17.49.38,1,.88,1.21.57.24,1.11-.08,1.37-.61.54-1.11.33-2.4-.21-3.46-.09-.19-.22-.34-.33-.51.32-.64.81-1.19,1.41-1.55.79-.48.11-1.66-.7-1.25ZM197.75,155.31c.51.77.85,1.67.89,2.6,0,.21.04.51-.03.71-.13.37-.44.45-.68.13-.31-.41-.26-1.12-.28-1.6-.03-.62-.05-1.3,0-1.98.03.05.07.09.11.14ZM208.02,155.9c.32.82.52,1.75.46,2.63-.02.25-.07.76-.31.9-.26.15-.67-.12-.86-.27-1.36-1.1-1.41-3.41-.97-4.94.06-.22.14-.43.22-.63.62.67,1.13,1.46,1.46,2.32ZM221.14,155.06c-.05.23-.21.97-.52,1.04-.22.05-.53-.53-.66-.76-.76-1.3-.5-2.99.21-4.28.29.38.53.82.71,1.32.31.85.44,1.79.26,2.68ZM235.45,151.94c.26.89.3,1.81.04,2.7-.08.28-.27,1.01-.56,1.14-.43.2-.64-.71-.71-1-.36-1.61-.33-3.26.27-4.76.42.57.75,1.21.96,1.92ZM244.93,150.28s-.05.12-.08.23c-.04-.2-.15-.42-.19-.62-.12-.58-.08-1.22.08-1.81.1.21.19.44.25.69.11.48.12,1.04-.06,1.52Z"/>
        <path class="cls-2" d="M176.51,153.38c.29-3.03-.36-6.11.35-9.11.02-.07.05-.17.09-.25.05-.34.09-.89.05-.7.1-.42.26-.85.48-1.22.35-.57.87-1.1,1.38-1.53,1.19-1,2.49-1.78,3.88-2.45,1.53-.73,3.12-1.37,4.7-1.98.69-.27,1.4-.51,2.1-.77.3-.11.6-.23.89-.34.08-.03.17-.07.25-.1,1.57-.72,3.08-1.57,4.61-2.37.01-.14.04-.28.05-.43.2-2.39.16-4.81-.1-7.19-.08-.63-.35-1.08-.73-1.39.39-.67.74-1.37,1.02-2.12.72-1.96-2.06-3.02-2.95-1.17-1.66,3.44-5.45,5.78-9.22,6.18-.34.04-.69.07-1.03.07-.64.01-1.27-.07-1.87-.2-1.68-.36-3.19-1.2-4.79-2.02-.22-.11-.45-.23-.67-.34-2.05-1.07-4.11-2.22-6.26-3.05-5.18-1.99-10.4-1.54-15.45.69-4.63,2.03-8.61,5.14-12.07,8.83-7.95,8.49-9.91,19.94-10.98,31.14-.45,4.7-.86,9.39-1.27,14.09-.68,7.82-1.32,15.65-1.97,23.47-.52,6.28-2.46,32.17-2.43,38.47.02,5.19.23,10.4,1.8,15.38,1.45,4.63,4.41,8.86,8.58,11.36,9.1,5.47,15.56,4.02,20.11-1.14,3.38-3.8,5.7-9.64,7.3-16.19.02-.07.04-.13.05-.2,3.35-14,5.8-30.15,8.11-46.58,1.41-10.1,2.76-20.31,4.25-30.21.29-1.96.07-4.58.9-6.54-.1-3.35.51-6.74.83-10.06Z"/>
        <path class="cls-4" d="M183.35,126.41s11.71,28.85,11.21,28.85-16.48,1.68-16.54,1.01,5.32-29.86,5.32-29.86Z"/>
        <path class="cls-4" d="M182.81,157.21c.25-1.25.51-2.5.76-3.76.1-2.59.11-5.18,0-7.77-.02-.59-.07-1.18-.13-1.77-.02-.16-.04-.32-.06-.49,0,0-.05-.42-.06-.48-.14-.94-.32-1.87-.53-2.8-.41-1.84-.96-3.65-1.59-5.42-.62-1.74-1.26-3.47-1.93-5.19-.56-1.43-1.17-2.84-1.64-4.3-.65-.31-1.3-.65-1.96-.99-2.27-1.16-4.54-2.48-6.93-3.39-5.18-1.99-10.4-1.54-15.45.69-4.63,2.03-8.61,5.14-12.07,8.83-7.95,8.49-9.91,19.94-10.98,31.14-.45,4.7-.86,9.39-1.27,14.09,5,2.94,9.9,6.05,14.79,9.14,7.1,4.52,14.24,9.01,21.7,12.91,1.67.88,3.36,1.72,5.07,2.53.22.11.43.21.64.31.81.38,1.63.74,2.45,1.12.02.01.05.02.08.03.13.06.27.11.42.17,2.47-12.05,4.77-24.11,7.04-36.2.52-2.81,1.08-5.6,1.65-8.4Z"/>
        <path class="cls-5" d="M174.3,122.94c-2.18-1.68-4.74-2.56-7.42-3.06-2.96-.56-6.12-1.07-9.13-.74-5.26.56-10.18,3.55-13.97,7.12-7.78,7.33-11.59,17.85-13.3,28.17-1.13,6.85-1.52,13.81-2.3,20.71-.11.98,1.41.96,1.53,0,.72-5.89,1.27-11.79,2.21-17.66.87-5.44,2.03-10.93,4.13-16.04,3.5-8.54,9.91-17,19.11-19.76,3.22-.96,6.51-.62,9.78-.12,2.76.42,5.68,1.04,7.94,2.79.43.33.99.42,1.41,0,.34-.34.43-1.08,0-1.41Z"/>
        <path class="cls-8" d="M174.08,142.42c-.89-4.45-2.33-8.81-4.61-12.73-.19-.32-.63-.05-.49.28,3.13,7.5,4.15,15.53,4.1,23.62-.05,8.41-1.09,16.74-1.94,25.09-.52,5.16-.98,10.32-1.42,15.48-.06.66,1.04.81,1.15.15,1.51-9.01,2.79-18.06,3.64-27.16.77-8.21,1.19-16.59-.43-24.73Z"/>
        <path class="cls-4" d="M314.15,157.67c-.72.5-1.57.86-2.28,1.25-1.26.66-2.51,1.32-3.77,1.96-2.75,1.38-5.53,2.71-8.31,4.01-9.16,4.29-18.47,8.32-27.3,13.27-1.82,1.03-3.64,2.09-5.42,3.2-.73.45-2.03.36-2.6-.36-.32-.41-.62-.81-.92-1.22-4.57-6.02-8.62-12.38-12.33-18.93-1.5-2.61-2.93-5.26-4.33-7.92-.17-1.54-.35-3.07-.45-4.62-.21-3.35-.31-6.71-.54-10.06-.29-4.19-1.88-12.53-1.88-12.53t-.01-.02c.93-.43,1.84-.92,2.72-1.44,1.33-.77,2.64-1.61,3.98-2.38.39-.23.79-.45,1.18-.66.23-.13.46-.25.7-.38.42-.21.84-.41,1.27-.6,2.12-.92,4.27-1.7,6.54-2.14,2.13-.42,4.3-.62,6.46-.88,4.53-.56,8.93-.02,13.46.09,2.37.07,4.69.72,7.04,1.01,2.4.3,4.77.25,7.18.03,2.05-.19,4.06-.53,6.04-.98.85,2.67,1.79,5.32,2.74,7.95,1.39,3.86,2.81,7.71,4.23,11.56,1.43,3.87,2.79,7.77,3.95,11.74.61,2.08,1.2,4.16,1.81,6.23.27.94.56,1.89.84,2.83Z"/>
        <path class="cls-5" d="M299.3,116.6c-6.85,2.07-13.96,1.48-20.93.47-3.51-.5-7.04-1.04-10.6-1.05-3.46,0-6.79.59-9.98,1.95-1.78.75-3.45,1.7-5.12,2.68-1.81,1.06-3.64,2.09-5.42,3.2-.43.27-.06.87.38.67,3.28-1.45,6.5-3.01,9.79-4.42,3.16-1.35,6.45-2.04,9.88-2.08,7.02-.09,13.89,1.86,20.91,1.97,3.91.06,7.84-.35,11.59-1.49,1.22-.37.71-2.28-.51-1.91Z"/>
        <path class="cls-8" d="M306.34,150.64c-.69-2.72-1.44-5.41-2.24-8.1-.8-2.68-1.59-5.38-2.47-8.03-.89-2.67-1.95-5.27-2.86-7.92-.05-.15-.28-.09-.24.06.75,2.7,1.31,5.44,1.98,8.16.68,2.72,1.41,5.42,2.08,8.14.67,2.72,1.33,5.44,2.01,8.16.66,2.62,1.12,5.49,2.33,7.93.24.47.96.24.96-.26,0-2.72-.9-5.51-1.56-8.13Z"/>
        <path class="cls-5" d="M312.55,155.03c-5.57,2.8-11.14,5.61-16.71,8.41-2.78,1.4-5.54,2.84-8.3,4.26-2.6,1.34-5.18,2.71-7.63,4.31-2.66,1.75-5.17,3.76-7.46,5.97-.44.42.2.99.65.65,4.55-3.5,9.45-6.41,14.6-8.95,5.5-2.71,11-5.42,16.48-8.17,3.13-1.57,6.26-3.14,9.39-4.71,1.18-.59.16-2.37-1.01-1.77Z"/>
        <path class="cls-8" d="M290.09,155.62c-4.92,2.76-9.44,6.11-13.32,10.25-3.86,4.13-7.12,8.88-9.48,14.04-1.33,2.91-2.44,5.92-2.87,9.1-.13.93,1.05,1.25,1.4.37.99-2.54,1.88-5.13,2.97-7.64,1.1-2.51,2.37-4.96,3.81-7.29,2.89-4.67,6.44-8.83,10.52-12.47,2.31-2.06,4.79-3.92,7.46-5.48.56-.33.07-1.2-.5-.89Z"/>
      </g>
      <path class="cls-3" d="M223.62,58.41c.05-.68-.86-1.1-1.32-.42-.92,1.37-3.18,1.17-4.58,1.05-1.79-.16-3.63-.48-5.4.04-2.98.87-4.68,3.84-5.43,6.69-.17.66.62,1.05,1.09.63,1.29-1.16,2.89-1.92,4.64-1.97,1.84-.05,3.63.58,5.48.48,1.53-.08,3.04-.61,4-1.88.95-1.27,1.28-2.79,1.52-4.32.02-.11,0-.21-.02-.3Z"/>
      <path class="cls-11" d="M183.44,211.18c-3.29,13.83-7.94,27.32-13.6,40.35-.03-.2-.07-.39-.1-.59-.88-5.37-1.74-10.75-2.51-16.13.25-.67.5-1.35.74-2.03,3.18-8.89,5.83-17.97,7.87-27.2,2.03-9.23,3.34-17.96,3.97-27.23.42-6.31.5-12.65.21-18.99-.14-3.11-.38-6.21-.71-9.31-.02-.25-.05-.52-.09-.78-.46-4.16-1.15-8.7-1.96-13.08-.76-4.09-1.46-8.19-2.25-12.28.22.11.45.23.67.34,1.6.82,3.1,1.66,4.79,2.02.6.13,1.22.21,1.87.2.34,0,.69-.02,1.03-.07.93,3.29,1.78,6.62,2.47,9.98.81,4.02,1.46,8.06,1.93,12.11.12.96.22,1.92.32,2.9.08.7.14,1.4.2,2.1,1.63,19.32-.37,38.88-4.83,57.69Z"/>
      <path class="cls-11" d="M263.61,241.89c.36,7.87.92,8.87,1.78,16.67.14,1.27.35,2.74.35,4.2.01,2.42-.56,4.8-2.98,6.07-1.7.9-3.86,1.24-5.74,1.71-2.17.55-4.36,1.07-6.56,1.57-17.1,3.85-34.67,6.05-52.27,6.55-4.42.13-8.85.15-13.27.07-2.23-.04-4.48-.06-6.7-.22-2.09-.15-3.63-1.06-4.21-2.97-.59-1.95-.75-4.08-1.1-6.07-.36-2.02-.71-4.06-1.07-6.09-.68-3.93-1.35-7.89-2.01-11.85-.03-.2-.07-.39-.1-.59-.78-4.71-1.53-9.42-2.22-14.13,1.28-2.39,2.5-4.8,3.61-7.29,2.39-5.43,4.48-11.34,6.17-17.34,1.67-5.95,2.87-12,3.77-18.12.87-6.05,1.28-12.18,1.89-18.26-.01-.08-.03-.14-.04-.21-.25-1.75.94-4.04,2.84-4.31,7.32-1.02,14.6-2.34,21.87-3.64,11.54-2.06,23.08-3.97,34.68-5.6,1.4-.2,2.79-.39,4.18-.57,1.57-.21,3.15-.41,4.72-.61,2.43-.32,4.86-.62,7.3-.91-.15-.31-.32-.6-.46-.91-1.99-4.09-4.15-8.11-6.47-12.01-1.78-3.01-3.68-5.92-5.68-8.77-.61-.87-1.23-1.75-1.87-2.61-1.14-1.55-2.7-3.4-4-5.48-.59-.95-1.2-2.02-1.56-3.11.45.01.88-.01,1.32-.07.52-.06,1.05-.17,1.56-.3.2-.04.39-.1.59-.17.71-.22,1.4-.5,2.08-.81t-.01-.02c.93-.43,1.84-.92,2.72-1.44t.01.01c.47.84.92,1.7,1.47,2.51.07.09.57.76.72.97.01.02.02.03.04.06.24.33.5.66.74.99.83,1.08,1.65,2.18,2.46,3.28,2.67,3.68,5.1,7.54,7.34,11.49,2.26,3.98,4.25,8.07,6,12.29.43,1.03.81,2.07,1.16,3.12h.04c3.74,12.42,9.09,25.12,9.55,38.09.65,18.28-13.68,22.56-12.66,44.81Z"/>
      <path class="cls-11" d="M141.64,419.6c7.79-.02,15.57-.04,23.36-.05,12.26-.03,24.52-.05,36.78-.06l10.88-48.14v48.13c11.86-.01,23.72-.02,35.58-.02,10.94,0,21.88,0,32.83-.01.46-15.09-3.64-70.16-4.25-83.65-1.09-23.97-1.91-48.16-6.93-71.7-2.74-12.86-6.75-25.48-12.87-37.13.71-2.15-.51-5.11-3.22-4.9-19.16,1.49-38.18,4.66-57.16,7.69-2.4.39-4.82.78-7.23,1.17-1.56.25-3.38.41-4.93,1.02-1.53-.31-3.24.33-4,1.78-5.91,11.5-11.74,23.03-17.41,34.65-5.54,11.35-11.32,22.62-15.62,34.52-4.23,11.71-7.02,23.88-9.57,36.05-2.62,12.51-4.98,25.08-7.09,37.69-2.37,14.28-4.41,28.63-6.14,43.01,5.66-.07,11.32-.03,16.98-.05Z"/>
      <path class="cls-6" d="M195.55,100.47s0-.04-.01-.06c0-.01,0-.03,0-.04-.13-.32-.26-.63-.38-.95l-.32-.42c-.18-.32-.43-.56-.74-.75-.19-.15-.29-.26-.47-.35-.04-.02-.08-.04-.12-.05-.34-.15-.68-.3-1.03-.42-.05-.02-.09-.03-.14-.04-.04-.01-.08-.02-.13-.03-.36-.06-.74-.11-1.1-.14-.02,0-.04,0-.06,0-.34.04-.67.09-1.01.13-.01,0-.02,0-.04,0-.08.02-.9.36-.97.4-.02.01-.05.03-.07.04-.01,0-.03.02-.04.03-.15.1-.3.21-.43.33-.31.18-.56.43-.74.74-.11.14-.21.28-.32.42-.04.11-.09.22-.13.33,0,0,0,.01-.01.02-.03.05-.06.1-.09.16-.12.26-.25.58-.34.86-.01.03-.02.06-.03.09-.05.18-.06.4-.08.58-.02.19-.07.41-.06.61,0,.03,0,.06,0,.08.03.3.07.63.12.92.01.07.03.13.05.19.05.16.13.33.19.48.06.15.12.32.19.48.03.06.05.11.09.16.1.15.23.31.33.44.1.13.21.29.33.43.04.05.08.09.13.13.28.23.57.46.87.66.06.04.11.07.17.1.14.07.37.15.46.19.09.04.31.14.46.19.04.01.08.03.13.04.02,0,.04,0,.05,0,.23.04.71.11.93.12.04,0,.08,0,.12,0,.16-.01.46-.06.49-.06.02,0,.34-.03.49-.07.03,0,.06-.01.09-.02.15-.05.44-.18.47-.19.13-.05.33-.13.48-.2.03-.02.06-.03.09-.05.01,0,.02-.02.04-.03.2-.14.61-.46.8-.62.02-.02.05-.04.07-.06.02-.02.04-.04.06-.07.01-.02.03-.03.04-.05.2-.26.45-.57.63-.84.03-.05.07-.1.09-.16.07-.16.16-.39.2-.5.03-.09.14-.34.2-.5.01-.04.02-.09.03-.13.07-.46.18-.98.12-1.46-.04-.37-.08-.75-.14-1.12Z"/>
      <path class="cls-10" d="M254.04,199.36c-.26-2.96-.6-5.91-.98-8.86-.19-1.47-.38-2.95-.62-4.41-.18-1.09-.63-2.18-1.79-2.47-.6-.15-1.24-.01-1.84.07-.76.11-1.53.21-2.29.32-1.48.21-2.97.41-4.45.62-2.97.41-5.94.81-8.91,1.21-5.94.8-11.89,1.54-17.81,2.44-1.48.22-2.96.45-4.43.68-.64.1-.5,1.21.15,1.15,11.33-1.15,22.62-2.71,33.93-4.07,1.4-.17,2.79-.34,4.19-.51.4-.05.99-.24,1.25.14.3.42.31,1.21.4,1.7.29,1.66.55,3.33.78,4.99-11.79,1.99-23.66,3.47-35.54,4.87-3.1.36-6.29.57-9.36,1.19-.07-.47-.14-.93-.22-1.4-.22-1.4-.45-2.81-.69-4.21-.17-1.03-1.66-.59-1.53.41,1.65,12.01,3.54,24,5.39,35.98.21,1.35.31,2.79,1.27,3.84.83.91,2.1,1.37,3.17,1.9,2.67,1.31,5.34,2.63,8.02,3.95,2.71,1.34,5.42,2.67,8.13,4.01,1.22.6,2.48,1.38,3.81,1.69,1.22.28,2.4.02,3.44-.68,1.07-.72,1.99-1.68,2.92-2.56,1.02-.97,2.02-1.95,3.02-2.94,1.98-1.99,3.91-4.04,5.78-6.14.93-1.05,1.86-2.11,2.78-3.17.86-.99,1.75-1.99,2.14-3.28.4-1.31.37-2.75.43-4.1.06-1.49.1-2.98.13-4.47.09-5.96-.13-11.93-.66-17.87ZM252.98,221.16c-.05,1.31,0,2.71-.33,3.99-.33,1.28-1.23,2.24-2.04,3.23-3.41,4.13-7.21,7.98-11.11,11.62-.89.83-1.77,1.77-2.78,2.44-1.13.75-2.15.56-3.33,0-2.56-1.19-5.07-2.49-7.6-3.73-2.55-1.25-5.1-2.51-7.65-3.76l-3.77-1.85c-1.01-.5-2.25-.93-2.62-2.11-.41-1.32-.47-2.8-.68-4.16-.21-1.41-.42-2.82-.63-4.23-.43-2.86-.87-5.72-1.3-8.58-.72-4.73-1.45-9.47-2.2-14.2,2.78-.02,5.58-.43,8.33-.73,3.02-.33,6.03-.68,9.04-1.06,5.9-.75,11.8-1.56,17.68-2.43,3.29-.49,6.58-.96,9.86-1.43.07.51.14,1.03.2,1.54.65,5.61.98,11.26,1.04,16.9.03,2.85,0,5.69-.11,8.54Z"/>
      <path class="cls-10" d="M200.78,175c-3.44.57-6.88,1.05-10.28,1.83-.74.17-.44,1.29.3,1.14,3.41-.66,6.75-1.61,10.11-2.48.33-.08.19-.55-.13-.5Z"/>
      <path class="cls-10" d="M220.37,171.64c-2.54.01-5.09.35-7.6.73-2.57.39-5.13.8-7.65,1.46-.62.16-.36,1.03.25.95,2.53-.35,5.04-.83,7.56-1.25,2.51-.41,5.03-.77,7.51-1.35.3-.07.24-.55-.07-.54Z"/>
      <path class="cls-10" d="M229.07,170.01c-.69.1-1.38.17-2.06.3-.68.12-1.35.26-2.03.39-.48.09-.38.9.11.87.72-.05,1.43-.14,2.14-.26.69-.12,1.37-.34,2.04-.56.46-.15.28-.8-.19-.73Z"/>
      <path class="cls-10" d="M244.73,167.13c-2.94.23-5.85.73-8.73,1.39-.76.17-.45,1.32.3,1.17,2.84-.58,5.69-1.12,8.53-1.71.46-.1.37-.88-.11-.84Z"/>
      <path class="cls-10" d="M258.46,165.13c-1.04.1-2.1.18-3.13.35-1.02.17-2.03.35-3.05.56-.74.15-.59,1.43.17,1.33,1.05-.13,2.09-.28,3.13-.44,1.02-.16,2.02-.41,3.03-.64.63-.15.52-1.23-.15-1.16Z"/>
      <path class="cls-10" d="M176.32,235.34c-.15-.79-1.34-.47-1.2.32.74,4.02,1.45,8.05,2.38,12.04.15.66,1.07.38.98-.26-.58-4.06-1.4-8.07-2.17-12.1Z"/>
      <path class="cls-10" d="M177.54,254.8c-.33-.09-.78.13-.84.5-.55,3.66-2.33,6.86-4.59,9.72-.22.28.07.82.43.57,3.13-2.31,4.95-6.11,5.49-9.93.05-.37-.1-.74-.49-.85Z"/>
      <path class="cls-10" d="M168.32,271.69c-3.63,5.85-6.72,12.27-8.24,19.04-.12.52.58.67.77.2,2.51-6.38,5.04-12.72,8.36-18.73.32-.58-.54-1.08-.89-.51Z"/>
      <path class="cls-10" d="M157.61,297.01c-.39-.1-.7.15-.83.49-1,2.53-2.02,5.07-2.76,7.69-.13.45.54.74.76.31,1.29-2.46,2.3-5.07,3.32-7.65.14-.35-.16-.76-.49-.84Z"/>
      <path class="cls-10" d="M151.08,312.37h0c-.44.63-.66,1.51-.93,2.24-.26.72-.5,1.44-.73,2.17-.47,1.51-.9,3.04-1.31,4.56-.16.61.7.8.92.24.58-1.48,1.15-2.97,1.67-4.47.25-.72.49-1.45.7-2.18.22-.75.54-1.55.57-2.34.02-.54-.66-.58-.88-.23Z"/>
      <path class="cls-10" d="M147.01,327.93c-.93,3.41-1.86,6.83-2.73,10.26-.1.39.5.67.67.27,1.38-3.33,2.3-6.76,2.82-10.33.07-.49-.62-.71-.76-.2Z"/>
      <path class="cls-10" d="M143.82,345.82s-.02,0-.02.01c-.08-.28-.43-.49-.66-.2-.43.55-.54,1.4-.68,2.08-.17.79-.31,1.59-.44,2.39-.24,1.56-.32,3.17-.44,4.74-.04.53.79.63.91.12.36-1.51.77-3.03,1.01-4.56.12-.78.22-1.55.3-2.33.07-.66.27-1.61.03-2.25Z"/>
      <path class="cls-10" d="M140.55,361.3c-.67.11-.99,1.49-1.16,2.02-.28.86-.5,1.73-.71,2.61-.44,1.82-.63,3.64-.77,5.51-.05.63.97.77,1.09.14.36-1.92.79-3.83,1.18-5.75.19-.95.42-1.89.58-2.84.04-.24.34-1.77-.22-1.68Z"/>
      <path class="cls-10" d="M137.21,377.59c-.43-.12-.97.16-1.06.63-.21,1.08-.45,2.17-.63,3.25-.18,1.11-.31,2.23-.45,3.35-.04.33.29.63.58.66.33.04.64-.16.73-.49.29-1.04.57-2.08.82-3.14.24-1.05.43-2.12.64-3.19.09-.47-.15-.95-.62-1.08Z"/>
      <path class="cls-10" d="M133.69,393.34c-.63,4.01-1.26,8.05-1.53,12.1-.05.75,1.15.91,1.29.17.79-3.99,1.23-8.05,1.66-12.09.09-.82-1.29-1-1.42-.19Z"/>
      <path class="cls-10" d="M132.12,412.79c-.39-.09-.8.13-.91.54-.12.48-.2.97-.23,1.46-.03.5.02.98.1,1.47.03.17.19.37.34.44.14.07.29.1.44.08.33-.04.65-.35.62-.71-.03-.42-.03-.84-.01-1.26,0-.1.01-.19.02-.29,0-.03,0-.06.01-.1,0-.06,0-.06,0,0-.04.12.01-.07.02-.1.03-.21.08-.41.13-.62.1-.38-.14-.83-.53-.92Z"/>
      <path class="cls-10" d="M218.23,364.49c-.11-.92-1.54-.94-1.44,0,.45,4.24.61,8.51.81,12.77.03.62.87.6.93,0,.43-4.27.22-8.52-.29-12.77Z"/>
      <path class="cls-10" d="M217.95,385.02c-.11,3.25-.22,6.48-.03,9.72.04.64.89.61.96,0,.41-3.23.51-6.47.62-9.72.03-1.01-1.52-1.01-1.55,0Z"/>
      <path class="cls-10" d="M219.34,400.3c0-.95-1.44-.95-1.45,0,0,1.11-.06,2.23-.02,3.33.05,1.12.13,2.22.24,3.33.06.66.94.66,1.01,0,.11-1.11.19-2.22.24-3.33.05-1.11,0-2.23-.02-3.33Z"/>
      <path class="cls-10" d="M218.61,414.08c-.35.02-.65.29-.65.66v1.03c0,.21,0,.41.03.62.01.09.02.17.04.26.05.15.12.27.22.39.17.19.53.19.7,0,.11-.12.17-.24.22-.39.03-.08.03-.17.04-.26.03-.21.03-.41.03-.62v-1.03c0-.34-.3-.67-.65-.66Z"/>
      <path class="cls-10" d="M261.42,242.83c-2.6,1.36-5.18,2.74-7.88,3.9-2.69,1.16-5.44,2.18-8.2,3.14-5.62,1.95-11.41,3.5-17.2,4.82-11.72,2.66-23.93,4.16-35.95,3.38-6.79-.44-13.43-1.65-20.09-2.97-1.15-.23-1.61,1.47-.47,1.8,5.87,1.69,12.04,2.34,18.12,2.6,6.08.26,12.19.15,18.25-.36,12.13-1.02,24.23-3.33,35.91-6.76,3.22-.95,6.4-1.98,9.51-3.26,3.09-1.27,6.21-2.64,9.04-4.43,1.15-.73.17-2.48-1.04-1.85Z"/>
      <g>
        <g>
          <path class="cls-2" d="M146.09,213.72c-4.55-6.64-9.68-12.94-15.18-18.8-2.04-2.17-5.13-4.96-8.72-8.02-10.13-8.6-24.3-19.27-30.29-23.73-1.81-1.34-2.87-2.12-2.87-2.12,0,0-14.73,6.56-12.39,10.74.81,1.45,1.63,2.87,2.44,4.32h.01c7.98,14.07,16.32,27.93,24.82,41.7,4.65,7.54,9.36,15.06,13.99,22.62,2.28,3.72,4.55,7.44,6.88,11.13,1.52,2.4,2.94,5.19,4.82,7.47.01,0,.01,0,.01.02.63.75,1.3,1.43,2.04,2.04,6.04,4.89,13.93-1.88,17.57-6.76,4.2-5.66,5.68-12.37,5.43-19.33-.27-7.96-4.17-14.85-8.55-21.27Z"/>
          <g>
            <path class="cls-2" d="M93.18,164.49c-.42-.44-.84-.89-1.28-1.32-4.64-4.67-10.05-8.69-15.63-12.12-3.06-1.89-6.25-3.74-9.58-5.1-1.86-.77-3.31-.23-5.09.41-1.91.65-3.79,1.33-5.67,2.05-1.88.73-3.78,1.49-5.67,2.17-1.87.67-3.64.58-5.57.33-.13-.02-.28-.03-.41-.06-.07-.02-.17-.02-.23-.03-.91-3.59-2.98-7.47-6.81-8.03-.01,0-.03,0-.04,0-.3-.05-.62-.07-.94-.07-.71.02-1.19.67-1.03,1.37.4,2.03.6,4.14.76,6.23-.21,0-.43,0-.65.01h-.01c-.16-.02-.3-.01-.45,0-.92.02-1.82.05-2.73.13-.41.03-.84.07-1.26.13h-.01c-.19.01-.36.03-.56.05-.35-1.75-.68-3.51-1.02-5.26-.16-.8-.36-1.71-.75-2.44,0,0-.01,0-.01-.02-.01,0-.02-.02-.03-.03-.28-.54-.68-.95-1.26-1.2-2.42-.97-4.08-.43-4.67-.06-.06.04-.1.07-.13.1-.3.24-.43,1.85-.48,3.96,0,.02,0,.03,0,.06t0,.02h0c-.05,1.74-.06,3.83-.05,5.75.02.8.03,1.61.03,2.4-.77.71-1.46,1.55-1.69,2.48-.3,1.24.65,2.13,1.68,2.73.01,0,.05.02.06.03-.01.72,0,1.42,0,2.13.02,1.41.1,2.66.96,3.81.16.23.34.43.51.63-.21.02-.44.03-.63.02t-.02,0c-.7.02-1.38,0-2.08.01h-.01c-.21,0-.42,0-.63,0-1.62-2.06-3.15-4.17-4.68-6.31-1.26-1.75-2.51-3.77-4.54-4.67-1.09-.49-2.16-.61-3.2-.49h-.01c-1.37.16-2.71.68-4.05,1.26-.62.26-.83,1.23-.48,1.77.23.42.5.79.74,1.18-.58.25-1.15.52-1.71.85-1.43.83-3.07,2.32-1.51,3.95.67.71,1.53,1.27,2.28,1.89.93.78,1.87,1.55,2.81,2.33,3.43,2.84,6.83,5.73,10.25,8.62,1.51,1.27,2.92,2.75,4.96,3.04,2.12.34,4.45.09,6.58,0,4.55-.2,9.08-.46,13.59-.78,8.93-.61,17.85-1.33,26.78-1.82,3.73-.21,7.45-.38,11.2-.5h.01c1.24-.03,2.48-.06,3.72-.08,1.14-.02,2.35.07,3.41-.38.97-.42,1.58-1.17,2.21-1.98,1.52-2,3.06-4,4.58-6.01.37-.48.54-1.1.34-1.65.25-.46.29-1.03-.17-1.52ZM32.11,159.7c.86-.04,2.74-.07,3.6-.03.29.01.45.03.46.07,0,.18,2.2,7.93,1.94,7.67-.28-.28-5.47-4.69-5.47-4.69l-.98-3.01s.17,0,.45-.02Z"/>
            <path class="cls-1" d="M80.46,160.9c-2.62-3.11-6.08-5.27-10.26-4.82-4.28.46-7.65,3.02-11.06,5.43-.75.53-1.53,1.08-2.36,1.47-1.07.5-2.11.49-3.26.4-1.15-.09-2.3-.18-3.44-.27-.57-.05-1.15-.1-1.72-.14-.25-.02-.74.06-.96-.05-.39-.19-.37-.33-.49-.77-.57-2.18-1.03-4.4-1.43-6.61-.39-2.17-.61-4.38-1.27-6.5-.99-3.17-4.56-7.73-8.33-5.88-.11.05-.05.2.05.21,1.85.19,3.64,1.01,4.81,2.5,1.23,1.58,1.73,3.7,2.07,5.64.38,2.12.67,4.26,1.11,6.37.22,1.04.47,2.07.75,3.1.25.92.42,2.11.97,2.91.47.68,1.18.8,1.94.89,1.21.15,2.42.23,3.64.33,1.98.17,4.08.59,5.98-.21,1.78-.76,3.18-2.24,4.72-3.38,1.69-1.26,3.56-2.39,5.57-3.04,2.17-.7,4.51-.86,6.69-.08,2.04.73,3.85,2.13,5.61,3.38.55.39,1.08-.44.69-.9Z"/>
            <path class="cls-1" d="M47.35,172.6c-1.56-1.53-3.49-2.62-5.37-3.7-.98-.56-2.13-1.01-2.99-1.76-.79-.69-1.01-1.69-1.17-2.69-.38-2.38-.68-4.77-1.05-7.15-.19-1.21-.36-2.43-.57-3.63-.2-1.14-.35-2.39-.93-3.4-.1-.17-.37-.15-.42.05-.28,1.16-.05,2.42.09,3.59.16,1.31.35,2.62.53,3.93.34,2.51.62,5.07,1.12,7.55,0,.05.02.09.03.14-.35-.36-.71-.71-1.06-1.08-.96-1-2.08-1.98-2.86-3.14-.72-1.07-.7-2.68-.88-3.93-.4-2.81-.77-5.62-1.23-8.42-.2-1.26-.44-2.51-.84-3.72-.18-.56-.41-1.11-.7-1.63-.3-.53-.73-.83-1.11-1.29-.1-.12-.27.03-.21.16.26.53.36,1.23.56,1.79.22.61.4,1.25.55,1.89.33,1.35.5,2.73.67,4.11.35,2.99.74,5.98,1.11,8.97.16,1.3.39,2.32,1.23,3.34.86,1.05,1.84,2.05,2.84,2.97,1.01.93,2.08,1.81,3.14,2.68.98.81,1.97,1.69,3.18,2.12.17.06.3-.02.36-.14,1.82,1.03,3.57,2.19,5.45,3.09.42.2.9-.33.53-.69Z"/>
            <path class="cls-1" d="M31.18,172.34c-1.03-1.02-1.86-2.17-2.92-3.16-.07-.07-.14-.13-.21-.2-.06-.1-.14-.18-.26-.24-.87-.8-1.75-1.59-2.6-2.4-2.02-1.93-2.06-4.36-1.96-7.01.11-2.95.2-5.91.11-8.86-.04-1.41-.11-2.83-.17-4.24-.06-1.42.02-2.98-.39-4.35-.12-.4-.8-.49-.88,0-.23,1.47.03,3.05.08,4.54.06,1.54.07,3.08.06,4.62-.01,3.1,0,6.19-.16,9.29-.12,2.46.03,4.74,1.82,6.6.59.62,1.24,1.2,1.89,1.76-.39.07-.78.14-1.12.19-.59.09-1.06.31-1.53-.09-.48-.4-.85-1.13-1.22-1.63-1.47-2-2.85-4.05-4.24-6.1-2.31-3.37-5.09-6.99-9.49-7.2-.38-.02-.48.63-.09.68,4.99.7,7.39,5.93,9.93,9.69.7,1.03,1.41,2.05,2.13,3.07.65.91,1.27,1.94,2.02,2.76.7.76,1.58.57,2.5.46.83-.1,1.89-.13,2.74-.43,1.14.95,2.36,1.75,3.5,2.7.31.26.76-.16.45-.46Z"/>
            <path class="cls-1" d="M20.28,177.72c-5.11-5.63-9.98-11.43-14.5-17.56-.27-.37-.87-.07-.63.36,3.74,6.71,8.63,12.89,14.4,17.93.5.43,1.18-.23.73-.73Z"/>
          </g>
        </g>
        <path class="cls-1" d="M155.79,224.76c-1.89-3.88-4.39-7.42-7.06-10.81-2.81-3.58-5.76-7.08-8.79-10.49-1.75-1.96-3.52-3.9-5.35-5.78-.89-.91-1.79-1.81-2.72-2.69-.98-.93-2.03-1.78-3.02-2.7-.24-.22-.54.14-.33.37,1.51,1.7,2.92,3.5,4.4,5.23,1.46,1.7,2.94,3.38,4.4,5.07,2.92,3.37,5.78,6.79,8.55,10.28,5.04,6.36,9.97,13.4,11.11,21.6.6,4.33.11,8.74-1.68,12.76-.29.65.61,1.06.98.48,4.5-7.03,2.96-16.22-.49-23.31Z"/>
      </g>
      <path class="cls-8" d="M158.63,184.22c-4.33-2.82-8.55-5.81-12.86-8.65-2.07-1.36-4.18-2.67-6.32-3.91-2.14-1.23-4.38-2.59-6.78-3.22-.92-.24-1.34.99-.6,1.5,2.07,1.42,4.4,2.45,6.58,3.69,2.11,1.2,4.2,2.46,6.31,3.67,4.43,2.54,8.94,4.94,13.36,7.5.37.21.68-.35.32-.58Z"/>
    </g>
    <g>
      <g>
        <path class="cls-5" d="M145.21,73.72c-2.12-3.14-6.4-4.86-10.07-3.68-1.82.58-3.53,1.67-4.75,3.15-1.27,1.53-1.78,3.46-2.15,5.38-.42,2.13,2.58,2.92,3.26.85.45-1.37,1.56-2.34,2.6-3.29.84-.77,1.91-1.26,3.05-1.35,2.34-.17,4.32,1.53,4.18,3.82-.09,1.51-.79,2.99-1.35,4.37-.69,1.7-1.28,3.33-1.45,5.17-.33,3.54.46,7.2,2.63,10.05.51.67,1.74.36,1.48-.6-1.13-4.17-.79-8.11,1.18-11.96,1.9-3.72,4.08-7.96,1.41-11.91Z"/>
        <path class="cls-5" d="M148.55,104.01c-.07-.17-.14-.34-.21-.52-.14-.27-.33-.48-.58-.63-.21-.19-.46-.32-.75-.39-.09-.01-.17-.03-.26-.04-.37-.1-.74-.1-1.12,0-.38.1-.72.29-1,.57l-.36.47c-.19.34-.28.7-.29,1.09-.01.29.05.57.18.82.09.28.24.53.47.73.28.28.61.47,1,.57.37.1.74.1,1.12,0,.09-.01.17-.03.26-.04l.52-.21c.27-.14.48-.33.63-.58.14-.14.23-.3.28-.49.13-.25.19-.52.18-.81-.02-.18-.05-.36-.07-.55Z"/>
      </g>
      <g>
        <path class="cls-5" d="M312.5,214.49c0-3.79-2.6-7.6-6.31-8.67-1.83-.53-3.86-.58-5.7-.04-1.91.56-3.41,1.88-4.78,3.26-1.53,1.53.51,3.87,2.23,2.53,1.13-.89,2.6-1.08,3.99-1.28,1.12-.17,2.29.02,3.28.58,2.04,1.16,2.73,3.68,1.34,5.5-.92,1.2-2.32,2.04-3.56,2.88-1.52,1.02-2.92,2.05-4.09,3.49-2.25,2.76-3.63,6.23-3.42,9.81.05.84,1.24,1.26,1.56.32,1.39-4.09,3.87-7.17,7.64-9.27,3.65-2.03,7.83-4.33,7.82-9.1Z"/>
        <path class="cls-5" d="M298.4,241.49c.04-.18.08-.36.11-.55.03-.3,0-.58-.13-.85-.07-.28-.2-.52-.41-.74-.06-.06-.13-.12-.19-.18-.26-.29-.56-.49-.93-.62-.37-.13-.76-.16-1.15-.08l-.56.19c-.35.17-.63.42-.84.74-.17.24-.28.5-.31.78-.08.28-.09.57-.02.87.08.39.25.73.51,1.03.26.29.56.49.93.62.08.04.16.07.24.11.18.04.36.08.55.11.3.03.58,0,.85-.13.19-.04.36-.12.51-.25.25-.14.44-.33.59-.57.08-.16.16-.33.25-.49Z"/>
      </g>
      <g>
        <path class="cls-5" d="M287.83,93.65c2.21-1.91,4.42-3.99,4.47-7.13.05-2.74-1.86-5.26-4.48-5.98-1.23-.34-2.62-.15-3.74.47-1.08.6-1.71,1.61-2.33,2.64-.38.64.61,1.24,1.07.69,1.07-1.24,3.66-1.07,4.8-.03,1.32,1.2,1.22,2.87.16,4.21-1.4,1.78-3.24,3.09-4.32,5.13-.99,1.87-1.83,4.64-.73,6.64.21.38.89.32,1.03-.08.45-1.31.54-2.61,1.29-3.83.68-1.11,1.8-1.89,2.77-2.73Z"/>
        <path class="cls-5" d="M283.11,103.6c-1.92,0-1.92,2.98,0,2.98s1.92-2.98,0-2.98Z"/>
      </g>
    </g>
  </g>
</svg>