<?xml version="1.0" encoding="UTF-8"?>
<svg id="Layer_2" data-name="Layer 2" xmlns="http://www.w3.org/2000/svg" xmlns:xlink="http://www.w3.org/1999/xlink" viewBox="0 0 950.48 1821.5">
  <defs>
    <style>
      .cls-1 {
        fill: url(#linear-gradient-15);
      }

      .cls-2 {
        fill: url(#linear-gradient-13);
      }

      .cls-3 {
        fill: url(#linear-gradient-2);
      }

      .cls-4 {
        fill: url(#linear-gradient-25);
      }

      .cls-5 {
        fill: url(#linear-gradient-10);
      }

      .cls-6 {
        fill: url(#linear-gradient-12);
      }

      .cls-7 {
        fill: #fff;
      }

      .cls-8 {
        fill: url(#linear-gradient-26);
      }

      .cls-9 {
        fill: url(#linear-gradient-4);
      }

      .cls-10 {
        fill: url(#linear-gradient-3);
      }

      .cls-11 {
        fill: url(#linear-gradient-5);
      }

      .cls-12 {
        fill: url(#linear-gradient-22);
      }

      .cls-13 {
        fill: url(#linear-gradient-24);
      }

      .cls-14 {
        fill: url(#linear-gradient-8);
      }

      .cls-15 {
        fill: url(#linear-gradient-14);
      }

      .cls-16 {
        fill: url(#linear-gradient-20);
      }

      .cls-17 {
        fill: url(#linear-gradient-17);
      }

      .cls-18 {
        fill: url(#linear-gradient-7);
      }

      .cls-19 {
        fill: url(#linear-gradient-9);
      }

      .cls-20 {
        fill: url(#linear-gradient-11);
      }

      .cls-21 {
        fill: url(#linear-gradient-19);
      }

      .cls-22 {
        fill: url(#linear-gradient-6);
      }

      .cls-23 {
        fill: url(#linear-gradient-21);
      }

      .cls-24 {
        fill: url(#linear-gradient-16);
      }

      .cls-25 {
        fill: #bdd0fb;
      }

      .cls-26 {
        fill: url(#linear-gradient);
      }

      .cls-27 {
        fill: url(#linear-gradient-23);
      }

      .cls-28 {
        fill: url(#linear-gradient-18);
      }
    </style>
    <linearGradient id="linear-gradient" x1="9540.84" y1="1636.92" x2="8928.1" y2="2303.41" gradientTransform="translate(-8965.15 -58.88) rotate(.54)" gradientUnits="userSpaceOnUse">
      <stop offset="0" stop-color="#09005d"/>
      <stop offset="1" stop-color="#1a0f91"/>
    </linearGradient>
    <linearGradient id="linear-gradient-2" x1="9599.37" y1="702.33" x2="9077.97" y2="1409.02" gradientTransform="translate(-8966.8 89.03) rotate(.54) scale(1 1.05)" xlink:href="#linear-gradient"/>
    <linearGradient id="linear-gradient-3" x1="9413.41" y1="1510.43" x2="8800.65" y2="2176.95" xlink:href="#linear-gradient"/>
    <linearGradient id="linear-gradient-4" x1="9155.83" y1="1683.52" x2="9202.82" y2="1683.52" gradientTransform="translate(-8965.15 -58.88) rotate(.54)" gradientUnits="userSpaceOnUse">
      <stop offset="0" stop-color="#febbba"/>
      <stop offset="1" stop-color="#ff928e"/>
    </linearGradient>
    <linearGradient id="linear-gradient-5" x1="9505.84" y1="567.71" x2="8984.42" y2="1274.44" gradientTransform="translate(-8966.77 147.51) rotate(.54) scale(1 1.07)" xlink:href="#linear-gradient"/>
    <linearGradient id="linear-gradient-6" x1="161.81" y1="775.92" x2="92.2" y2="504.19" gradientTransform="matrix(1,0,0,1,0,0)" xlink:href="#linear-gradient"/>
    <linearGradient id="linear-gradient-7" x1="461.77" y1="165.78" x2="305.86" y2="1001" gradientTransform="matrix(1,0,0,1,0,0)" xlink:href="#linear-gradient"/>
    <linearGradient id="linear-gradient-8" x1="743.24" y1="256.79" x2="610.57" y2="967.51" gradientTransform="matrix(1,0,0,1,0,0)" xlink:href="#linear-gradient"/>
    <linearGradient id="linear-gradient-9" x1="931.81" y1="25.71" x2="803.32" y2="306.37" gradientTransform="matrix(1,0,0,1,0,0)" xlink:href="#linear-gradient-4"/>
    <linearGradient id="linear-gradient-10" x1="933.06" y1="-47.05" x2="882.34" y2="149.07" gradientTransform="matrix(1,0,0,1,0,0)" xlink:href="#linear-gradient-4"/>
    <linearGradient id="linear-gradient-11" x1="900.2" y1="54.6" x2="805.52" y2="555.05" gradientTransform="matrix(1,0,0,1,0,0)" xlink:href="#linear-gradient-4"/>
    <linearGradient id="linear-gradient-12" x1="217.93" y1="460.05" x2="428.4" y2="460.05" gradientUnits="userSpaceOnUse">
      <stop offset="0" stop-color="#dae3fe"/>
      <stop offset="1" stop-color="#e9effd"/>
    </linearGradient>
    <linearGradient id="linear-gradient-13" x1="333.68" y1="429.87" x2="28.3" y2="1653.91" gradientUnits="userSpaceOnUse">
      <stop offset="0" stop-color="#ff928e"/>
      <stop offset="1" stop-color="#fe7062"/>
    </linearGradient>
    <linearGradient id="linear-gradient-14" x1="198.47" y1="764.22" x2="129.42" y2="494.72" gradientTransform="matrix(1,0,0,1,0,0)" xlink:href="#linear-gradient"/>
    <linearGradient id="linear-gradient-15" x1="9125.69" y1="462.93" x2="9319.86" y2="1271.99" gradientTransform="translate(-8683.32)" gradientUnits="userSpaceOnUse">
      <stop offset="0" stop-color="#4042e2"/>
      <stop offset="1" stop-color="#4f52ff"/>
    </linearGradient>
    <linearGradient id="linear-gradient-16" x1="8992.63" y1="676.96" x2="9102.65" y2="676.96" gradientTransform="translate(-8683.32)" xlink:href="#linear-gradient-4"/>
    <linearGradient id="linear-gradient-17" x1="368.92" y1="182.34" x2="320.48" y2="416.2" gradientTransform="matrix(1,0,0,1,0,0)" xlink:href="#linear-gradient-4"/>
    <linearGradient id="linear-gradient-18" x1="-473.24" y1="-628.82" x2="-546.74" y2="-847.65" gradientTransform="translate(382.49 -625.67) rotate(1.77)" xlink:href="#linear-gradient-4"/>
    <linearGradient id="linear-gradient-19" x1="606.19" y1="168.24" x2="1100.64" y2="225.04" gradientTransform="matrix(1,0,0,1,0,0)" xlink:href="#linear-gradient"/>
    <linearGradient id="linear-gradient-20" x1="-532.24" y1="-609" x2="-605.74" y2="-827.83" gradientTransform="translate(382.49 -625.67) rotate(1.77)" xlink:href="#linear-gradient-4"/>
    <linearGradient id="linear-gradient-21" x1="329.87" y1="400.25" x2="373.12" y2="400.25" gradientTransform="matrix(1,0,0,1,0,0)" xlink:href="#linear-gradient"/>
    <linearGradient id="linear-gradient-22" x1="322.05" y1="457.54" x2="376.62" y2="457.54" gradientTransform="matrix(1,0,0,1,0,0)" xlink:href="#linear-gradient"/>
    <linearGradient id="linear-gradient-23" x1="327.31" y1="-34.33" x2="320.63" y2="24.14" gradientTransform="matrix(1,0,0,1,0,0)" xlink:href="#linear-gradient"/>
    <linearGradient id="linear-gradient-24" x1="46.42" y1="372.48" x2="123.09" y2="163.77" gradientTransform="translate(240.54 -90.6) rotate(-4.27)" xlink:href="#linear-gradient"/>
    <linearGradient id="linear-gradient-25" x1="389.63" y1="-62.33" x2="446.43" y2="-251.09" xlink:href="#linear-gradient-13"/>
    <linearGradient id="linear-gradient-26" x1="-712.58" y1="227.02" x2="-652.9" y2="64.56" gradientTransform="translate(963.92 -244.08) rotate(-12.97)" xlink:href="#linear-gradient-13"/>
  </defs>
  <g id="Illustration">
    <g>
      <path class="cls-26" d="M365.98,1716.48s-6.69,35.87-10.14,71.4c-1.35,13.89,9.25,26.06,23.18,26.77,47.34,2.42,148.6,7.23,184.97,5.95,5.47-.19,9.09-5.75,7.12-10.85-1.65-4.27-4.89-7.75-9.04-9.7l-166.6-78.5-29.5-5.06Z"/>
      <path class="cls-3" d="M382.49,887.49c-2.31,11.74-17.42,587.03,38.78,845.44.92,4.22-1.16,8.53-4.99,10.13-9.03,3.77-26.73,9.18-47.87,9.72-6.55.17-12.37-4.35-14.16-10.95-16.2-59.98-93.68-360.49-101.43-646.92-8.66-320.06.1-10.89.1-10.89l8.76-197.71,120.82,1.18Z"/>
      <path class="cls-10" d="M183.35,1733.39s-10.27,18.04-20.51,66.14c-1.85,8.69,4.15,17.07,12.98,18.03,15.62,1.69,39.68,3.89,58.96,3.95,8.89.02,15.9-7.65,14.91-16.49-1.97-17.61-8.35-46.54-28.69-69.23l-37.66-2.4Z"/>
      <path class="cls-9" d="M175,1678.03l11.29,65.1s11.7,8.87,35.06,2.74l-5.02-69.97-41.33,2.13Z"/>
      <path class="cls-11" d="M150.2,904.16c-50.92,308.65,3.12,764.08,21.96,853.3,1.15,5.46,5.23,9.68,10.4,10.64,8.77,1.64,23.23,3.05,37.54-1.24,4.93-1.48,8.43-6.18,8.68-11.64,3.33-71.95,2.79-513.88,49.16-688.08,2.35-8.83,7.49-16.5,14.54-21.75l87.39-65.02,7.67-106.38-237.34,30.16Z"/>
      <path class="cls-22" d="M212.2,531.02l-53.82-139.74S26.32,482.66,3.13,598.14c25.36,2.11,71.12,8.9,116.1,32.16,10.45-54.53,92.97-99.28,92.97-99.28Z"/>
      <g>
        <path class="cls-18" d="M461.15,356.41c-143.75-3.75-302.77,34.87-302.77,34.87-45.24,249.65-12.63,538.42-12.63,538.42,111.03,30.25,237.04-15.59,237.04-15.59,19.5-104.34,108.62-397.68,108.62-397.68,70.33-8.05,128.39-27.76,176.3-54.1-35.95-42.48-52.57-96.26-59.71-128.03-50.98,15.31-102.5,23.26-146.84,22.1Z"/>
        <path class="cls-14" d="M607.99,334.31c7.14,31.76,23.76,85.54,59.71,128.03,128.15-70.45,183.55-188.38,206.06-257.8-13.48-4.44-26.3-10.78-37.85-19.01-42.14,67.45-134.11,120.61-227.93,148.79Z"/>
        <path class="cls-19" d="M855.94,139.4c-3.95,15.98-10.81,31.39-20.02,46.12,11.55,8.23,24.37,14.58,37.85,19.01,10.89-33.59,14.09-55.84,14.09-55.84-13.96-17.19-31.91-9.29-31.91-9.29Z"/>
      </g>
      <g>
        <path class="cls-5" d="M884.39,153c1.43,4.71-15.75,11.7-25.64-7.61-.26-9.21-5.49-48.72.09-56.17C888.52,49.55,945.82,0,945.82,0c9.51,9.57,1.51,18.8,1.51,18.8l-27.84,28.45c5.67,10.47,12.62,19.34,15.79,31.97,2.4,9.57.78,19.75-4.12,28.39-4.92,8.67-11.63,19.94-17.96,28.75-11.97,16.67-28.82,16.64-28.82,16.64Z"/>
        <path class="cls-20" d="M907.26,65.77l-25.32,21.05-8.09,21.13,22.16,25.06s7.93-41.99,13.62-51.05c5.68-9.05,2.82-13.48-2.36-16.19Z"/>
      </g>
      <polygon class="cls-6" points="217.93 374.3 308.13 568.07 428.4 352.03 217.93 374.3"/>
      <g>
        <path class="cls-2" d="M146.79,391.84c-21.21,187.34-27.09,366.8-21.3,561.55,70.43,38.09,164.8,34.43,271.73,8.91,57.76-264.52,60.83-527.22,80.81-607.62.4-1.59-.61-3.19-2.23-3.47-24.1-4.27-49.63-6.47-69.68.54-27.36,61.95-55.06,113.5-91.32,168.44-43.83-47.39-76.55-96.12-91.32-147-27.01.28-51.22,6.97-76.7,18.65Z"/>
        <path class="cls-7" d="M127.17,668.3c108.09,12.06,216.56,8.71,320.73-8.35l-10.86,50.95c-100.09,17.67-206.28,16.83-315.99,5.29l6.13-47.89Z"/>
        <path class="cls-7" d="M121.32,809.45c104.34,16.27,205.48,21.41,302.35,11.69l-9.19,55.96c-96.68,9.24-194.14,6.56-292.33-7.52l-.84-60.14Z"/>
        <path class="cls-7" d="M179.78,378.06c2.96,113.61,4.23,218.21-.84,295.25l35.08,10.02c4.87-79.09,10.52-197.38-1.55-307.85-.52-4.81-5.34-2.09-10.14-1.6l-22.55,4.18Z"/>
        <path class="cls-7" d="M440.65,346.46c-21.16,98-45.35,202.54-63.48,318.5l35.64-2.51c13.32-113.55,36.75-216.32,54.29-314.88l-26.45-1.11Z"/>
      </g>
      <path class="cls-15" d="M331.65,663.14s-151.59,83.77-201.77,10.53c-10.42-15.21-12.8-30.25-10.06-44.54-44.98-23.25-91.09-30.29-116.45-32.4-6.99,34.81-3.83,71.94,16.31,109.63,87.56,163.87,331.56-5.85,331.56-5.85l-19.6-37.37Z"/>
      <g>
        <g>
          <path class="cls-1" d="M297.33,795.53l82.58-288.38c.94-3.27,3.73-5.66,7.11-6.06,14.96-1.75,58.31-6.65,108.37-10.88,60.29-5.1,130.31-9.23,172.15-5.72,5.95.5,9.54,6.79,6.9,12.14-23.79,48.14-121.66,243.94-170.67,308.09-1.62,2.13-4.13,3.37-6.81,3.34l-191.59-1.78c-5.58-.05-9.57-5.4-8.03-10.76Z"/>
          <path class="cls-24" d="M317.28,725.86s-11.5-47.3-6.86-64.08c4.64-16.78,13.63-38.36,43.6-33.56,29.97,4.79,65.32,17.42,65.32,17.42,0,0-1.79,21.86-24.56,14.81l14.12,10.93s-2.02,17.5-21.26,8.15l13.14,14.49s-8.26,14.37-22.42,5.16c-14.15-9.22-20.94,32.39-61.08,26.69Z"/>
        </g>
        <path class="cls-25" d="M386.16,591.37c1.71.5,3.5-.47,4-2.18l15.9-53.94c2.06-7,7.69-12.26,14.69-13.73,48.31-10.08,173.57-12.88,195.19-13.29,1.77-.03,3.17-1.5,3.14-3.27h0c-.03-1.78-1.49-3.21-3.28-3.18-22.25.4-146.86,3.1-196.37,13.43-9.33,1.95-16.82,8.92-19.56,18.21l-15.9,53.94c-.5,1.71.47,3.5,2.18,4h0Z"/>
      </g>
      <path class="cls-17" d="M306.74,218.95l-37.11,151.21c-.78,2.18.1,4.62,2.12,5.76,12.4,7.01,57.14,27.37,111.61-6.44,5.67-3.52,9.57-9.32,10.49-15.93l15.91-114.36-103.01-20.24Z"/>
      <g>
        <path class="cls-28" d="M418.25,108.98s29.68,74.35,30.63,112.92c.96,38.57,8.49,63.81-36.28,70.2-44.76,6.38-81.59-16.95-100.72-55.94,0,0-30.01-60.08-22.13-84.07,7.89-23.98,128.49-43.11,128.49-43.11Z"/>
        <path class="cls-21" d="M314.42,208.63l2.22-1.05c2.83-1.34,4.13-5.14,2.83-8.32-5.04-12.3-14.74-40.42-.9-46.49,17.83-7.82,87.94-22.13,103.84-50.31,15.28-27.08,3.59-63.01-15.32-73.71-1.27-.72-2.8-.23-3.5,1.2l-1.71,3.46c-1.17,2.37-4.22,1.91-4.79-.72h0c-.55-2.53-3.41-3.1-4.67-.93-4.88,8.43-17.77,21.93-51.32,28.04-47.68,8.68-79.68,29.94-81.63,67.87-.12,2.41-2.38,3.68-4.11,2.37-3.42-2.58-8.98-3.91-16.69,3.15-13.4,12.28-9.09,45.35,18.59,73.29,1.31,1.33,1.23,3.78-.27,4.84-5.29,3.74-13.28,12.79,6.3,25.79,20.26,13.44,35.72,12.87,41.69,11.91,1.49-.24,2.49-1.87,2.22-3.57l-5.31-33.55c-.3-1.9.99-3.65,2.66-3.6l9.87.3Z"/>
        <path class="cls-16" d="M329.12,216.13s-10.74-47.24-32.15-34.75c-21.42,12.49,9.28,52.84,26.12,55.12l6.03-20.37Z"/>
      </g>
      <g>
        <path class="cls-7" d="M274.72,349.8l-32.29,32.3,70.16,60.14,34.52-59.02,42.87,36.19,30.62-75.17-25.61-6.68c-41.15,38.01-81.14,38.89-120.27,12.25Z"/>
        <path class="cls-23" d="M344.68,386.97l-14.11,21.87c-2.1,3.26.81,7.43,4.59,6.58l34.57-7.76c3.69-.83,4.62-5.65,1.51-7.8l-20.46-14.11c-2.01-1.39-4.78-.84-6.1,1.22Z"/>
        <polygon class="cls-12" points="333.74 414.39 322.05 511.83 376.62 416.62 370.49 403.25 333.74 414.39"/>
      </g>
      <g>
        <path class="cls-27" d="M428.43,23.62C384.38,11.76,327.2.06,296.86,3.46c-1.23-.2-2.49-.06-3.79.44-.1.04-.21.09-.31.13-.11.02-.22.03-.33.05-1.37.25-2.52.79-3.46,1.61-27.63,12.98-70.24,52.87-101.58,86.03-32.93,34.85,48.32,75.82,48.32,75.82l97.06-20.66s.02.04.02.04l.32-.11.33-.07s0-.03,0-.04l93.52-33.17s47.8-77.43,1.51-89.9Z"/>
        <path class="cls-13" d="M237.33,167.42s195.21-34.73,226.71-55.93c31.5-21.21-31.21-8.61-31.21-8.61l-195.5,64.54Z"/>
        <path class="cls-4" d="M224.57,161.23l213.23-68.7-1.15,13.88-199.32,61s-11.11-.51-12.76-6.18Z"/>
        <path class="cls-8" d="M353.93,43.29c-22.65,5.65-30.62-4.48-30.62-4.48,0,0-2.84,12.62-25.68,17.45,2.78,10.52,5.2,20.63,7.15,29.21,1.5,6.59,5.88,12.24,12.17,15.7,6.29,3.46,13.98,4.45,21.36,2.74,6.82-1.57,13.78-5.93,17.92-11.8,4.14-5.86,5.52-12.84,3.99-19.42-2-8.57-4.19-18.73-6.29-29.41Z"/>
      </g>
    </g>
  </g>
</svg>